<?xml version="1.0" encoding="UTF-8"?>
<svg viewBox="0 0 744.09448 1052.3622" xmlns="http://www.w3.org/2000/svg">
 <path d="m217.3 1027.7c-0.8721-0.3953-2.3791-1.41-3.3489-2.255-3.6951-3.2198-6.1004-3.8358-9.4736-2.4264-2.3538 0.9835-3.3668 0.3606-3.3668-2.0698 0-2.3068 1.4586-3.5692 3.3104-2.8651 0.76649 0.2914 1.5188 0.5298 1.6718 0.5298 0.59611 0-0.25885-3.9991-1.4041-6.5675l-1.2054-2.7035 1.0487-1.4047c0.66834-0.8952 1.7797-1.5518 3.0642-1.8103 1.1085-0.2231 2.4212-0.8926 2.9171-1.4876 1.8014-2.1614 1.0852-3.6376-3.6065-7.4329-1.5204-1.23-1.6745-1.6142-1.6745-4.1764 0-3.1446-0.38703-4.1076-2.9018-7.2201-0.95434-1.1812-1.7352-2.5193-1.7352-2.9735s-3.8535-10.732-4.6168-11.881c-0.7533-1.1335-2.144-3.8655-3.0904-6.0711s-1.918-4.132-2.159-4.2809-0.43814-1.0758-0.43814-2.0598c0-3.3622 2.8317-3.0093 6.604 0.82291 2.0626 2.0955 2.8604 2.5726 4.3013 2.5726 2.1535 0 3.0056-0.76649 3.0056-2.7038 0-1.1452-0.79318-2.2254-3.613-4.9203-3.2222-3.0795-3.6473-3.7138-3.9292-5.8638-0.61337-4.6774 0.54087-6.1463 3.7697-4.7972 1.0106 0.42227 2.6263 0.76773 3.5905 0.76773 1.4324 0 1.8561-0.25916 2.3163-1.4168 1.2588-3.1665 1.3568-4.7558 0.50785-8.2336-0.80884-3.3133-0.92142-3.4802-2.2527-3.3407-1.8088 0.18954-4.035-0.97783-5.7487-3.0144-1.1846-1.4078-1.3201-1.9258-1.0499-4.0114 0.28255-2.1806-9.2676-12.94-9.7878-13.234-0.6686-0.37781-1.0762-1.4882-1.3908-3.7885-0.30681-2.2435-5.597-13.96-5.597-14.466 0-1.6136-1.553-4.709-2.9772-5.934-1.3003-1.1184-1.3352-1.2643-0.6228-2.5956 0.95717-1.7885 0.71383-3.7892-0.63846-5.2486-0.9415-1.0161-0.98416-1.3111-0.39496-2.7335 0.47137-1.138 0.50172-1.7532 0.10608-2.1488s-0.77813-0.01875-1.3361 1.3167c-0.61491 1.4716-1.068 1.8711-2.1224 1.8711-2.7633 0-3.4643-5.0678-1.8021-13.026 0.9244-4.4259 0.4216-6.102-2.5859-8.62-1.7494-1.4647-2.7422-2.7749-3.1604-4.1708-0.58797-1.9626-0.5485-2.0986 1.1049-3.8045l1.7147-1.7691-2.1438-2.3257c-1.2388-1.344-2.1438-2.8335-2.1438-3.5287s0.9597-2.2636 2.3017-3.7469c2.7756-3.0676 3.5883-5.2254 3.2006-8.4984-0.29954-2.5294-0.06254-3.6021 1.9992-9.0481 0.91358-2.4132 1.1408-3.8635 0.96871-6.1826-0.33072-4.4563-0.58637-5.1674-2.2951-6.3841-2.2299-1.5878-4.0453-0.9904-8.1357 2.6772-3.4033 3.0515-6.5106 5.0003-7.0743 4.4367-0.70682-0.70682 0.60848-3.2728 2.9059-5.6689 1.3744-1.4335 2.353-2.8426 2.1746-3.1313s-0.91147 0.18935-1.6627 1.1033c-1.4599 1.7761-2.8302 2.0837-3.5504 0.79694-0.51666-0.92327-0.22319-3.1668 0.47029-3.5954 0.24957-0.1542 0.4537-1.1141 0.4537-2.1331 0-1.7052-0.07177-1.7933-0.90163-1.1066-2.1305 1.763-3.6575 2.2055-5.0462 1.4623-1.8425-0.98608-1.4606-2.5797 0.92306-3.8519 1.0619-0.56674 1.9313-1.3245 1.9321-1.6839s-0.56953-1.7505-1.2673-3.0913c-1.2078-2.3208-1.2394-2.6074-0.65824-5.9734 0.60981-3.5321 0.60873-3.5387-1.1013-6.6256-0.96784-1.747-1.7118-3.8281-1.7118-4.7885 0-2.5342 0.63232-5.0298 1.5332-6.0509 0.85047-0.96397 0.88396-0.77808-1.2097-6.7113-0.7128-2.02-0.77303-2.9522-0.33272-5.1522 0.29563-1.4773 0.41325-3.3317 0.26142-4.1208-0.35133-1.8256 0.94248-3.3278 3.2368-3.7582 0.9344-0.17528 2.1151-0.77855 2.6237-1.3406 0.83573-0.92348 4.2675-2.6917 4.5813-2.3605 0.07059 0.07455 0.39311 2.3381 0.71662 5.0301s1.0727 6.2277 1.6648 7.8571c0.99783 2.7458 1.194 2.962 2.682 2.9554 3.4787-0.0152 3.7936-0.31691 4.7533-4.5529 0.69085-3.0494 1.2823-4.3554 2.6136-5.7721 1.6355-1.7402 1.7319-2.0594 1.9446-6.4402 0.1253-2.5806 0.59173-5.4894 1.0598-6.6089 0.95042-2.2734 0.78823-3.7218-1.8604-16.616-0.8226-4.0046-1.4808-7.5983-1.4627-7.9859s2.196-2.5594 4.8396-4.8264l4.8066-4.1217 0.35076-3.0734c0.34231-2.9995 0.31171-3.1053-1.2701-4.3963l-1.6208-1.3229 2.5768-2.1727c2.0424-1.7222 2.9849-2.1733 4.5452-2.1756 3.1939-0.00464 5.907-0.99045 8.9239-3.2426 3.8534-2.8765 8.2003-7.0249 9.0088-8.5975 0.40573-0.78911 0.80889-4.5155 1.0319-9.5385l0.36612-8.2435 2.215-2.3185c2.1315-2.2312 2.2342-2.4896 2.7266-6.8616l0.51161-4.5431-3.4852-8.6648c-2.9-7.21-3.8069-10.238-5.4012-18.036-1.0537-5.1543-1.8031-9.4843-1.6652-9.6221s3.6865-1.0589 7.8859-2.0467 7.68-1.843 7.7348-1.9003c0.58796-0.61543 6.3833-21.243 6.1437-21.867-0.17764-0.46287-2.1104-3.6822-4.2952-7.1542l-3.9722-6.3126-2.7141-0.58513c-2.5645-0.55288-2.9924-0.89653-7.7657-6.236l-5.0516-5.6508 1.6923-10.669c0.93074-5.8679 2.3189-14.726 3.0848-19.685l1.3925-9.0163-3.1792-13.304-3.1792-13.304 1.833-3.1276 1.833-3.1276-0.35431-6.0576-0.35432-6.0576 2.4378-4.4722c1.3408-2.4597 2.3185-4.8594 2.1728-5.3328s-1.1163-3.1791-2.1568-6.0128c-3.8055-10.365-3.9022-13.636-0.52907-17.882 0.96618-1.2162 2.7186-3.9468 3.8942-6.068l2.1375-3.8566-0.59261-3.8716c-0.49723-3.2488-0.4657-4.2263 0.19599-6.0763 1.0468-2.927 3.683-6.8326 7.758-11.494 1.8363-2.1004 5.6356-6.9489 8.4429-10.774s5.5385-7.3314 6.0694-7.7909c1.3607-1.1777 5.551-2.4528 9.7514-2.9674 3.045-0.37305 4.6553-0.21955 10.792 1.0288 3.9672 0.80699 9.0678 1.9194 11.335 2.4719s4.2629 0.84659 4.4354 0.65342 1.2662-3.0693 2.4306-6.3914l2.117-6.0402-0.31815-9.1762-0.31815-9.1762-6.0853-4.1042c-3.347-2.2573-6.0944-4.3095-6.1054-4.5603s3.3885-6.3948 7.5546-13.653l10.825-18.865c3.262-5.6871 3.6976-6.7995 4.7714-12.185 0.50001-2.5077 0.84779-3.088 2.5094-4.1876l1.9289-1.2765 0.63676-13.029c0.40177-8.2209 1.0365-15.291 1.7199-19.158l1.0831-6.129-1.1012-9.8856c-0.60569-5.4371-1.1-10.614-1.0986-11.504l0.00262-1.6188 5.885-0.18682 5.885-0.18681 7.5107-5.1113c4.1308-2.8112 7.5129-5.2445 7.5157-5.4074s-0.36725-3.4383-0.82239-7.2787l-0.82749-6.9826 3.8853-5.4208c4.5319-6.3229 7.3371-10.989 11.112-18.482 2.3375-4.6399 3.4244-6.1178 7.6371-10.384l4.9116-4.9744 0.44385-5.5875c0.24411-3.0731 0.48292-5.8204 0.53068-6.105s-1.8066-4.4338-4.1208-9.2205-4.1954-9.1907-4.1805-9.7869l3.3218-7.7817 3.1921-0.42768 3.1921-0.42768 2.3085-7.3006c1.2697-4.0153 3.2866-10.431 4.482-14.256l2.1735-6.9554 7.1619-6.1826c3.9391-3.4004 7.3462-6.2476 7.5715-6.327 1.1267-0.39721 9.2371 3.7638 12.314 6.3175l3.3996 2.8218 3.5251-8.2391 3.5251-8.2391-1.5174-7.8507c-1.5768-8.1576-1.5906-10.952-0.07676-15.539 1.1074-3.3555 5.2911-5.7 7.84-4.3934l5.5068 4.7648 3.6056-0.33511c1.9831-0.18431 4.1416-0.53662 4.7967-0.78292 0.92653-0.34833 3.9951 0.56537 13.814 4.1132 6.9426 2.5086 12.74 4.5652 12.884 4.5702l6.1255-8.5558s-6.1292-4.6216-6.1292-4.8149 0.59281-0.9084 1.3174-1.5891c2.128-1.9991 4.2028-6.1113 5.6775-11.252 2.3562-8.2143 1.2387-14.278-3.4277-18.598-3.4682-3.2111-2.958-5.6718 1.176-5.6718 1.1514 0 3.5196-0.26276 5.2625-0.58391 4.381-0.80723 8.2698 0.31145 11.172 3.2138 1.7837 1.7837 2.027 2.2888 1.7375 3.6072-0.47997 2.1852 0.65912 3.6202 4.642 5.8475 4.0108 2.243 9.6594 7.3588 10.581 9.5827 0.40826 0.98563 10.547 8.3827 11.673 8.6861 2.0322 0.54722 3.4173 1.7732 6.0168 5.3254 1.5312 2.0924 2.7521 2.3949 4.6494 1.1518 1.0882-0.71298 4.2641 1.2955 4.7948 1.2955s2.8889 0.81147 5.2405 1.8033 10.688 4.7014 12.132 5.4098c1.9481 0.95616 2.7571 1.6962 3.1395 2.8723 0.28337 0.87135 0.91219 1.9804 1.3974 2.4647 1.033 1.0309 2.032 8.0168 3.5194 7.7193 2.0146-0.40292 3.6517 1.0555 5.6825 5.0622 1.1317 2.2328 2.2121 3.4333 4.5926 5.1031 1.712 1.2009 3.5735 2.929 4.1366 3.8401l1.0238 1.6566-1.1206 2.5142c-1.0287 2.3079-1.1379 3.5499-1.3309 15.137-0.11562 6.9426-0.01515 13.511 0.22324 14.596 0.42892 1.9527 0.46148 1.9748 3.1142 2.1178 3.2764 0.1765 5.1322 1.3175 6.1657 3.7908 1.1512 2.7551 0.63964 6.3928-1.5297 10.878l-1.847 3.819s4.2717 8.0211 5.6706 10.253c2.8586 4.5613 6.0179 10.663 7.5948 14.668 0.91302 2.3191 1.0735 4.04 1.2012 12.88 0.14529 10.055 0.12762 10.249-1.2114 13.295-1.9357 4.4036-2.2189 6.8098-1.2479 10.6 1.0576 4.1283 2.4761 6.6729 7.5899 13.615 4.3618 5.9213 7.1244 11.134 7.1244 13.443 0 0.74714 0.91441 3.4185 2.032 5.9363l2.032 4.5779h-2.2265c-1.3506 0-2.4789 0.30404-2.8679 0.77283-0.35277 0.42505-5.8153 1.5436-6.4979 1.0268-1.2521-0.94797-3.3567-0.94688-6.8978 0.00358-1.5585 0.41833-4.404 0.76335-6.3233 0.76671l-3.4896 0.00612 0.82131 1.2535c1.0213 1.5586 0.4842 2.7464-2.1508 4.7561l-1.8545 1.4146-1.0152-1.3936c-0.59024-0.81021-1.5069-1.3936-2.1897-1.3936-0.79384 0-2.3565-1.2522-4.822-3.8641-3.4779-3.6844-5.3793-4.9964-4.2893-2.9596 0.30413 0.56824 0.29481 1.8613-0.02499 3.4777l-0.50914 2.5732-2.416 0.03516c-2.3047 0.03353-2.4798-0.0673-3.8012-2.1897-0.7618-1.2237-1.7682-2.2248-2.2363-2.2248-0.71662 0-0.79627 0.36593-0.50394 2.3152 0.26271 1.752 0.12757 2.6869-0.55545 3.8432-0.81961 1.3874-0.82878 1.613-0.09985 2.4506 1.0791 1.24 1.6386 7.5783 0.79523 9.0088-0.44885 0.76126-0.46503 1.1242-0.05677 1.2735 1.5158 0.55454 2.4111 1.6181 2.0825 2.4743-0.2977 0.77587-0.7719 0.8583-3.3038 0.57426-2.7159-0.30467-2.8749-0.26755-1.9561 0.45664 0.5501 0.43355 1.605 0.78828 2.3442 0.78828 1.4467 0 2.5807 0.83305 2.5807 1.8958 0 0.36262-0.93192 1.1348-2.071 1.7158l-2.071 1.0565-1.1862-1.2799c-0.93656-1.0106-1.8957-1.3526-4.558-1.6254-1.9257-0.1973-3.7542-0.13146-4.2634 0.15349-0.77834 0.43558-0.66103 0.63498 0.92368 1.57 2.4724 1.4587 3.7763 3.4696 2.9195 4.502-0.35164 0.42363-3.143 2.4166-3.8386 3.1121-1.0608 1.0607-1.7614 1.2646-4.3458 1.2646-3.3688 0-5.1071 0.48676-6.4172 1.7969-1.2823 1.2823-1.0732 1.6639 1.5465 2.8227 2.1506 0.95134 2.4885 0.98053 3.2606 0.28173 1.1891-1.0761 1.4992-0.9886 2.1004 0.5928 0.45004 1.1836 0.3184 1.5911-0.95676 2.9625-4.0747 4.3822-4.4669 5.6966-2.4242 8.1243 1.5815 1.8795 1.7012 3.5126 0.25761 3.5126-1.2648 0-1.2891 0.48419-0.12881 2.5599 0.86923 1.555 0.86567 1.6398-0.09845 2.3602-0.55005 0.41099-1.5354 0.74726-2.1897 0.74726-1.6192 0-1.4889 0.59881 0.35932 1.6505 1.9269 1.0965 1.9816 1.9526 0.12555 1.9671-0.99756 0.00783-2.2389 0.80158-4.1946 2.6822-2.6172 2.5166-2.7456 2.7564-2.2203 4.1482 0.679 1.7989 0.43288 2.5559-1.0455 3.2162-0.6211 0.27739-1.5824 1.287-2.1363 2.2436-1.3293 2.296-0.6787 3.3311 2.3072 3.6705 2.0888 0.23745 2.2783 0.38198 2.4213 1.8471 0.09042 0.92693-0.15585 1.8476-0.59085 2.2086-0.64397 0.53445-0.59472 0.89521 0.36008 2.6387 1.1034 2.0148 1.1036 2.0214 0.07564 2.7732-1.0214 0.74703-1.0195 0.76521 0.2186 2.0832 0.81204 0.86439 1.8035 1.3323 2.8337 1.3375 1.8985 0.00945 2.5112 0.37173 3.3634 1.9886 0.513 0.97335 0.5147 1.467 0.00824 2.4133-0.55036 1.0284-0.44968 1.5088 0.74284 3.5437 1.3691 2.3362 1.3905 2.3483 2.8372 1.6002 2.7566-1.4255 2.9219 1.1334 0.28517 4.4136-1.4647 1.822-1.7643 2.5695-1.5401 3.8416 0.39517 2.2429-1.3582 3.7663-4.8046 4.1745-2.5994 0.30786-2.6667 0.35911-3.1952 2.4325-0.89731 3.5202-1.622 4.9934-2.8534 5.8002-2.4576 1.6103-3.3241 4.0108-4.3395 12.022-0.32314 2.5498-0.84465 4.2937-1.5408 5.1522-1.5467 1.9076-3.0958 5.5549-3.4468 8.1158-0.39306 2.8674-1.6833 4.4839-4.8666 6.097-3.7408 1.8956-4.5685 2.9129-4.5685 5.6146 0 1.747-0.23973 2.4286-0.99658 2.8337-1.7384 0.93034-2.0396 0.60295-2.1978-2.3884-0.20969-3.9652-1.4405-4.436-1.3373-0.51151 0.05028 1.9112-0.21336 3.2639-0.81523 4.1825-1.115 1.7017-3.1286 2.5299-4.442 1.827-1.7772-0.95113-2.5178-0.5848-3.0864 1.5267-0.57982 2.1532-2.1112 3.6053-3.8551 3.6554-0.66736 0.01918-1.6222 0.92989-2.6438 2.5217-1.4791 2.3045-1.549 2.6114-0.92951 4.0846 0.63449 1.5091 0.57766 1.6905-1.0808 3.449-0.96284 1.0209-1.9901 1.7081-2.2828 1.5272s-1.4404-1.8838-2.5502-3.7841c-2.1044-3.6034-3.9426-5.6617-4.5308-5.0735-0.18929 0.18933 0.38347 2.2505 1.2729 4.5804 1.5082 3.9506 1.5631 4.3187 0.81487 5.4606l-0.8023 1.2244-1.6512-1.6004c-1.0196-0.98825-2.1838-1.6004-3.0435-1.6004-1.2633 0-1.3935 0.17912-1.4046 1.9321-0.02133 3.3571-0.88931 5.9927-2.3606 7.1679-0.76715 0.61272-2.228 2.6829-3.2463 4.6004-2.6156 4.9251-2.9726 5.0402-6.4412 2.0769-2.1207-1.8118-3.1429-2.3678-3.9069-2.1253-1.5041 0.47739-1.2744 1.1274 0.73573 2.0812 2.1881 1.0383 1.9869 1.7437-1.1893 4.1688-1.7352 1.325-2.764 1.7606-3.799 1.6087-1.2626-0.18532-1.4193-0.04794-1.4193 1.2448 0 1.066-0.96178 2.5446-3.61 5.5499-1.9855 2.2532-3.8982 4.2834-4.2505 4.5114-0.37538 0.24302 0.74382 0.5213 2.7038 0.67228 2.643 0.20358 3.38 0.44549 3.5144 1.1536 0.10657 0.56123-0.3248 1.1214-1.1546 1.4995-1.4592 0.66488-1.7613 1.4686-0.5519 1.4686 0.42505 0 0.77282 0.37467 0.77282 0.8326 0 1.1822-3.4617 5.7498-4.6415 6.1243-1.1626 0.36898-3.8088-2.3199-4.101-2.3199-0.92886 0-0.57235 1.7968 0.54661 2.7549 1.0317 0.88333 1.0391 0.96599 0.17311 1.9229-0.98849 1.0923-5.2467 2.5353-7.4814 2.5353-0.9301 0-4.1384-3.0913-4.2984-3.0913-0.75568 0-0.16907 2.2519 0.78862 3.0274 1.1698 0.94724 1.9534 4.0399 1.9894 7.8515 0.0154 1.6327 0.37196 2.8222 1.1379 3.7958l1.1154 1.418s-2.4978 4.4308-3.0224 3.4505c-0.54818-1.0243-0.57894-1.0167-1.1737 0.28866-0.33594 0.73729-0.61079 1.7649-0.61079 2.2836 0 1.3819-1.1706 2.1309-3.9633 2.5358-2.4324 0.35269-2.4758 0.39141-2.4127 2.1512 0.03533 0.98563 0.15125 2.4876 0.25761 3.3377 0.1727 1.3803 0.05765 1.5304-1.0757 1.4034-0.69801-0.0782-3.9811-2.34-4.7307-2.6239-0.96071-0.36392-1.5814-1.1721-2.1036-2.7392-0.40741-1.2226-1.0888-2.2905-1.5142-2.3731s-1.6422 0.96075-2.704 2.3185c-1.6356 2.0914-1.8872 2.7441-1.6468 4.2718 0.15607 0.99179 0.69654 2.1518 1.2011 2.5778 1.6305 1.3767 3.8389 4.6528 4.3263 6.418 0.37036 1.3414 0.9285 1.9014 2.5363 2.5447 1.1338 0.45365 2.5204 0.82481 3.0814 0.82481 0.84245 0 1.02 0.35035 1.02 2.0126 0 1.7642-0.1282 1.9791-1.0385 1.7411-0.57115-0.14937-2.0484-1.1776-2.5985-1.1776-1.1155 0-1.2573 0.91302-0.53365 3.4362 0.35428 1.2353 0.26733 1.9104-0.36175 2.8085-0.46425 0.66278-1.1198 3.4428-1.492 6.3268-0.60298 4.6727-0.81663 5.3021-2.3297 6.8632-1.5749 1.6248-1.6666 1.9308-1.6793 5.6034-0.01299 3.7538 0.02563 3.8773 1.1458 3.6632 0.8873-0.16956 1.1592 0.01844 1.1592 0.80142 0 0.56262 0.81146 2.8202 1.8033 5.0168 1.8297 4.0524 2.2499 6.9615 1.2699 8.7925-0.73955 1.3819-1.8263 1.2448-2.9203-0.36827-0.50912-0.75073-2.0566-2.4518-3.4387-3.7802-1.9422-1.8666-2.7989-2.3606-3.7715-2.1746l-1.2584 0.24056 1.6368 1.6887c1.591 1.6415 1.6074 1.7044 0.58524 2.2515-0.57835 0.30954-1.5575 0.56277-2.1759 0.56277-0.86182 0-0.91386 2.4295-1.2999 2.9385-1.0738 1.4159-0.87253 2.129 0.65142 2.3082 1.3604 0.15997 1.3856 0.23004 1.3573 3.7695-0.01588 1.9836-0.20503 4.0234-0.42032 4.5329-0.26559 0.62857-0.09527 1.143 0.52971 1.6 1.1574 0.84635 0.65888 2.3682-0.77575 2.3682-1.443 0-1.3105 0.71507 0.29139 1.5724 1.9209 1.0281 3.8142 3.4562 3.8142 4.8919 0 0.76515-0.57088 1.6551-1.5044 2.3453-1.2807 0.94687-1.4266 1.283-0.98095 2.261 0.4326 0.94944 0.29133 1.3809-0.81411 2.4863-1.608 1.608-1.6544 2.3425-0.30709 4.8563 1.1067 2.0648 1.3415 5.432 0.52797 7.5717-0.45549 1.198-0.38323 1.3216 0.77282 1.3216 1.0168 0 1.2753 0.26106 1.2753 1.288 0 0.70842-2.1639 3.7904-1.8133 5.8656 0.33851 2.0036 0.45575 2.1202 2.1324 2.1202 2.1859 0 2.6148 0.89602 1.7733 3.7046-0.59097 1.9725-0.54447 2.1801 0.88724 3.9617 2.4185 3.0094 2.4827 3.8449 0.37317 4.8509-2.1188 1.0104-2.2058 1.4269-0.64787 3.103 1.4875 1.6003 3.7855 2.1165 8.7587 1.9677 4.5182-0.1353 4.4923-0.16657 3.0938 3.7495-0.69393 1.9432-0.75442 2.5822-0.26016 2.7479 0.35421 0.11871 2.9963 3.7365 3.7475 3.7365 0.21362 0 1.4757-3.8607 2.0101-4.3444 1.1446-1.0358 5.2504-2.3535 7.3336-2.3535 1.4428 0 1.4638 0.04343 1.4638 3.0404 0 2.9286 0.06631 3.0796 1.8033 4.1044 1.0841 0.63964 1.8033 1.466 1.8033 2.0722 0 1.8667 2.7054 4.305 6.9548 6.2682 6.4679 2.9882 13.368 9.1614 11.537 10.321-1.412 0.8941-2.9622 0.43772-5.4247-1.5972-1.3762-1.1372-2.5876-1.8082-2.6931-1.4916s1.5166 3.0945 3.6045 6.1735c3.198 4.7159 3.8422 5.4179 4.0881 4.4542 0.3386-1.3274 1.2895-1.2834 4.1848 0.19372 2.2972 1.1719 2.4788 1.1912 2.4788 0.26307 0-0.39476 0.34421-0.8498 0.76499-1.0113 0.88417-0.33927 1.8002 1.0865 1.8337 2.8544 0.0356 1.8779 1.2179 4.7479 3.5373 8.5867 1.6587 2.7452 2.6068 3.7523 4.2159 4.4778 2.8029 1.2639 3.3347 2.3593 1.8314 3.7716-1.4811 1.3914-1.6699 1.3802-3.1219-0.18651-1.2369-1.3347-2.3636-1.6897-2.3636-0.7449 0 0.29877 0.69998 1.2841 1.5555 2.1897 2.4502 2.5935 1.9461 3.6122-2.0708 4.1848l-3.3489 0.4774s4.5702 1.8399 9.6603-0.00232c0.7133-0.25816 0.90163 0.08331 0.90163 1.5091 0 2.419-1.3018 3.4635-4.3167 3.4635-2.4058 0-4.3969 0.7467-7.1464 2.68-1.1675 0.82095-1.3228 1.1708-0.88381 1.991s0.2166 1.311-1.2886 2.8161c-1.0016 1.0016-2.3427 3.0697-2.9803 3.3472-1.6889 0.73501-5.6298 3.7376-6.0758 4.6292-0.21067 0.42119-0.63475 1.4034-0.94228 2.1827-0.44994 1.14-0.8886 1.4184-2.2448 1.4247-2.1634 0.01015-2.8092 0.44603-3.2474 2.1918-0.41001 1.6336-0.76862 1.917-3.087 2.4399-1.5823 0.35683-1.7079 0.28465-1.9109-1.0984-0.1195-0.81419 0.62699-1.8861 0.61756-2.382-0.01524-0.80137-2.1918 1.3647-2.6878 1.5545-1.367 0.52336-1.2644 4.3147 0.1288 4.7569 0.56674 0.17986 3.6065 1.0769 3.6065 0.81878 0-0.81883 4.3713-2.622 6.3563-2.622 1.5884 0 2.0138-0.23808 2.5318-1.4168 1.4083-3.2055 3.4433-2.9601 6.8917 0.831 3.7535 4.1266 3.7899 4.5034 0.81167 8.3903-3.1708 4.1383-4.5724 4.4831-6.9686 1.7145-3.7754-4.3624-5.1551-5.6441-5.375-4.9935-0.12293 0.36374 0.87057 2.3861 0.13463 3.1994-0.88077 0.97324-0.86446 1.0257 0.47765 1.536 0.76427 0.29058 1.8382 0.52831 2.3865 0.52831 0.88834 0 0.9969 0.38291 0.9969 3.5167 0 3.1042-0.15426 3.6616-1.315 4.7521-0.90402 0.84923-1.2283 1.5809-1.0375 2.341 0.23392 0.93198-0.09639 1.2484-2.1035 2.0149-2.1934 0.83769-2.4181 0.843-2.8522 0.06729-0.69891-1.2489-1.2338-1.062-3.8585 1.3476-2.7921 2.5634-4.7928 6.4876-4.8 9.4145-0.00366 1.5055-0.50786 2.8361-1.8426 4.8629-3.2012 4.8608-4.6208 4.9136-3.9987 0.14874 0.16823-1.2885-0.8848-3.175-1.0742-4.3793-0.54019-3.435-1.3306-6.0538-1.8272-6.0538-0.24993 0-1.9058 3.729-2.8985 4.5211-1.5962 1.2736-1.7595 1.652-1.7595 4.0784-2e-5 2.9688-0.63439 3.7686-2.0051 2.5282-1.0876-0.98433-2.1222-1.0725-2.1023-0.1793 0.00788 0.35421 2.9455 4.8114 2.791 4.9659s-1.1387 0.28857-2.1871 0.298c-1.8339 0.01644-1.916 0.09532-2.1638 2.078l-0.25761 2.0609s-6.7347 0.2961-8.0392 0.50677c-1.519 0.2453-2.7695 0.17023-3.4777-0.20876-1.1483-0.61456-0.29198 1.8024-0.83001 2.8342-0.43161 0.82765-0.78616 1.9211-0.78791 2.4299-0.01017 2.9648-6.2003 5.1219-11.315 3.9428-1.5714-0.3623-6.2984-1.1498-10.504-1.7499-8.6116-1.2287-10.293-0.96624-10.802 1.6867-0.34801 1.8114-0.23461 1.8659 1.7494 0.83991 1.3359-0.6908 2.4951-0.80899 5.5865-0.56957 5.4516 0.42227 12.976 1.2526 13.178 1.4543 0.09274 0.09274 6.9522 6.6432 6.9522 7.1416 0 1.4461-3.3646 4.0051-6.4425 4.8998-1.5573 0.45272-2.8314 1.0385-2.8314 1.3018 0 0.94388 2.085 2.5395 3.3185 2.5395 1.9047 0 2.0228 0.82564 0.29407 2.0565-1.9445 1.3846-1.9537 1.895-0.04166 2.315 2.4418 0.53634 2.8864 1.5202 1.2638 2.7966-1.5404 1.2116-1.446 1.6524 1.1013 5.1445 1.5598 2.1384 1.5903 2.8306 0.18636 4.2346-0.88214 0.88216-1.5224 1.042-3.3489 0.8361-2.5132-0.28327-2.9307 0.17754-0.97021 1.0708 1.1076 0.50466 1.6035 5.771 2.1042 6.3243 0.75397 0.83316 0.70488 0.97165-0.64403 1.8167-0.80312 0.50316-1.539 0.96711-1.6352 1.031s0.77319 1.5125 1.9321 3.219c2.1256 3.13 2.5519 4.9719 1.5737 6.7996-0.75101 1.4033-1.3327 1.2675-4.3594-1.0177-1.8745-1.4152-2.8843-1.8772-3.3957-1.5535l-1.9324 2.5758c0.64894 1.1546 2.2852 3.1332 3.6361 4.3969 1.8267 1.7087 2.259 2.3732 1.6868 2.5927-0.95233 0.36545-1.0205 1.7307-0.08642 1.7307 0.37566 0 1.2451 0.59935 1.9321 1.3319l1.249 1.3319-6.4151 8.017 1.6619 2.5133c1.5334 2.3191 1.6599 2.8322 1.6357 6.6384-0.02991 4.7116-0.83713 6.8754-2.941 7.8838-1.0464 0.50146-1.4122 1.0538-1.4122 2.1321 0 0.80039-0.60654 2.7801-1.3478 4.3994-1.6105 3.5178-1.54 6.9969 0.21551 10.623 0.61495 1.2703 1.1793 3.4603 1.254 4.8666l0.13592 2.5569-2.0543 0.16719c-2.9807 0.24261-3.6668 0.98061-2.2821 2.4545 0.84404 0.89849 1.0394 1.5851 0.82081 2.8852-0.84097 5.0019-1.4662 7.8786-1.8687 8.5977-0.32112 0.5738-0.0204 1.2932 1.0503 2.5127 0.82515 0.93981-0.21393 2.3731-0.21393 2.6263 0 0.81497-2.6731 3.7573-3.6273 4.9218s-2.2491 3.391-2.8775 4.9476-3.0724 8.701-3.6492 9.4341c-2.2022 2.7997-3.1802 6.0328-3.6668 12.122-0.26124 3.2691-0.75619 6.5236-1.0999 7.2321s-1.6682 1.8942-2.9434 2.6346c-1.8889 1.0968-2.4617 1.7915-3.0913 3.7489-0.8978 2.7912-1.845 3.8908-3.5263 4.0936-1.0003 0.12067-1.3483-0.23973-2.0589-2.132-0.67472-1.797-1.3439-2.5382-3.1735-3.5148-2.8011-1.4952-4.323-1.3473-8.8466 0.85964-3.6936 1.802-7.315 2.1437-7.8534 0.74088-0.26848-0.69956-0.80935-0.78539-3.1885-0.50573-2.7599 0.32438-2.9292 0.27265-4.6092-1.4073-1.8746-1.8746-2.2936-1.8732-2.2936 0.00773 0 1.188-0.06827 1.2022-5.7962 1.205-6.035 0.00299-9.3799 0.5841-9.8097 1.7042-0.36714 0.95676 1.5134 4.548 3.0137 5.7552 1.2009 0.96624 1.2358 1.1168 0.50074 2.1572-1.7599 2.4909-5.7313 1.8129-7.9939-1.3646-1.0517-1.477-1.1704-1.5153-2.5263-0.81415-3.6697 1.8976-10.332 10.681-12.139 16.002-1.4804 4.3605-1.1127 6.6448 1.9667 12.218 1.5212 2.7533 2.9128 5.7407 3.0924 6.6388 0.40038 2.0017-0.4757 5.5132-1.7222 6.9031-0.50826 0.5668-1.3346 1.842-1.8364 2.8337-1.3197 2.6088-2.1711 3.0567-5.8452 3.075-2.4526 0.0122-3.729-0.2562-5.0234-1.0561-0.95444-0.5898-1.7353-1.2588-1.7353-1.4864s-0.56333-0.7831-1.2519-1.2342c-1.1133-0.7295-1.4128-0.7364-2.7049-0.0625-0.79915 0.4169-1.8293 0.7593-2.2892 0.761s-1.928 0.4863-3.2627 1.0766c-1.4465 0.6399-4.0221 1.1808-6.3769 1.3393-3.4296 0.2309-4.307 0.5052-6.6561 2.0813-3.0897 2.073-6.2134 2.6138-8.669 1.5012zm49.342-184.93c0.61254-1.6799 4.962-8.6168 5.5845-10.531s1.917-4.909 2.8766-6.6553c1.3652-2.4845 1.7454-3.7731 1.7486-5.925 0.00783-5.4764 3.4753-12.917 8.5045-18.25 1.7045-1.8073 1.7113-1.8092 3.5777-1.0294 1.9668 0.82177 2.0824 0.75067 2.4454-1.5026 0.09125-0.56622 3.5677-1.3351 3.409-2.1593-0.09681-0.50264-1.3641-1.3497-3.0003-2.0052-3.4381-1.3776-3.771-2.5132-1.8485-6.3071 0.92868-1.8326 2.182-11.416 2.4186-11.718 0.76536-0.97721 1.1623-6.2307 0.50162-6.639-0.92585-0.57226-2.0364 0.6553-2.6482 2.927-0.36894 1.3703-1.6597 3.2359-3.8582 5.5768-5.9408 6.3255-8.8962 11.563-9.8128 17.39-0.19341 1.2295-7.8368 15.957-9.1541 18.65-1.9787 4.0459-2.4895 5.7032-2.9374 9.5315-0.42429 3.6256 2.2966 5.8287 0.72978 9.0534-2.2452 4.6211-6.1309 7.4082-5.6165 11.525 0.33509 2.6821 0.41918 2.8075 1.991 2.9695 2.2601 0.23287 3.7338-1.1871 5.0887-4.903zm-71.199-39.215c0-0.38214 4.5414-4.4472 5.8267-4.3224 2.0212 0.19629 2.3624 1.4075 1.0717 3.8043-1.4363 2.667-0.31846 2.7986 1.858 0.21866 3.1124-3.6892 4.2044-4.6603 7.1688-6.3743 2.4847-1.4366 2.8527-1.874 3.3908-4.0301 0.78596-3.1495 1.4407-3.8691 3.8984-4.2843 1.6927-0.286 2.0312-0.54541 2.0312-1.5567 0-0.66746-0.48492-1.5532-1.0776-1.9683l-1.0777-0.75485 1.0777-1.0776c0.59271-0.59275 1.7152-1.1114 2.4945-1.1526 2.8649-0.15142 5.042 0.17832 5.7598 0.87242 0.63671 0.61573 0.5536 1.0855-0.61377 3.4697-0.74264 1.5166-1.5096 3.9591-1.7044 5.4278-0.34365 2.5906-0.31634 2.6703 0.91596 2.6703 1.0314 0 1.5481-0.5569 2.7485-2.9625 1.5056-3.017 4.3582-6.9977 4.7406-6.6152 0.11608 0.11603 13.483-3.0514 13.782-3.3002s0.85557-1.3366 1.2349-2.4171c0.74536-2.1231 3.4584-5.3136 4.5184-5.3136 1.3564 0 1.9113-2.2806 1.7938-7.3726l-0.11654-5.0542 1.6216-1.5148c1.4914-1.3932 1.5325-1.5148 0.51115-1.5148-1.815 0-4.1506-1.4664-4.1506-2.6059 0-1.9773 1.4192-4.4082 3.7936-6.4983 2.6691-2.3494 2.921-3.4563 1.5602-6.8571-0.77206-1.9296-0.96815-2.0713-2.8676-2.0713-2.8321 0-3.8362-0.67859-5.3112-3.5892-1.6456-3.2473-2.964-4.1391-6.1194-4.1391h-2.5324l0.32109 2.7321c0.17661 1.5026 0.46178 3.4354 0.63366 4.295 0.41465 2.0731-0.84815 3.411-2.7822 2.9476-1.7072-0.40903-1.6265-0.33813-1.8795-1.6518-0.2914-1.5132-3.186-5.6152-4.4335-6.2829-1.1844-0.63392-3.0611-0.20119-3.0341 0.69956 0.01 0.3351 0.34958 1.1889 0.75454 1.8973 1.2125 2.121 0.98293 3.0913-0.7314 3.0913-1.3473 0-1.5934-0.26848-2.3588-2.5727-0.75948-2.2866-0.96474-2.5136-1.846-2.042-0.91451 0.48945-0.96578 0.93919-0.66025 5.7928 0.22329 3.5466 0.40767 6.0338 1.2894 7.1737 5.1764 6.6922 3.3038 16.263 3.3038 17.503 0 2.1996-0.8402 2.4822-2.4744 2.4804-3.6168-0.00417-6.4883-3.4267-7.3654-8.7787-0.28975-1.7684-0.82919-2.6911-2.3455-4.0122-2.3437-2.042-3.514-1.8832-5.2805 0.7163-0.65809 0.96851-2.1731 2.4682-3.3666 3.3329-2.6212 1.8988-2.8623 2.436-2.1884 4.8765 0.73841 2.6743 0.11391 3.9023-4.013 7.8909-5.4217 5.24-5.515 8.5576-0.30532 10.862 2.5525 1.1291 2.7806 1.7998 1.4726 4.3294-1.8035 3.4876-11.528 12.213-13.611 12.213-0.53423 0-0.6518 3.0713-0.16606 4.3372 0.35586 0.92729 4.8394-0.56436 4.8394-0.94645zm133.46-53.391c1.8392-0.92579 5.5757-4.6202 6.5905-6.5163 0.47413-0.88591 0.30815-1.1357-1.2476-1.8776-2.4704-1.178-5.6639-1.1015-7.2863 0.17471-1.6495 1.2975-3.3297 1.3151-4.4773 0.04709-1.749-1.9327-3.4712-2.2503-8.9633-1.6528-5.4616 0.59415-6.7934 0.92229-6.7934 1.6736 0 0.76159 2.5198 1.5077 7.0802 2.0964 4.5863 0.59203 4.9453 0.94042 3.2241 3.1286-1.5334 1.9494-1.3012 2.8351 0.90163 3.4387 4.3299 1.1864 7.9308 1.0182 10.972-0.51228zm55.725-10.149c0.79437-0.95717 1.7287-0.79189 3.3351 0.58987l1.4369 1.236 1.7556-1.5414c1.426-1.2521 2.0563-1.4823 3.3576-1.2266 4.1911 0.82348 6.5188 0.91905 7.2668 0.29837 1.2486-1.0363 0.91986-1.7258-1.5277-3.2041-1.5949-0.96335-2.3929-1.8336-2.5951-2.8299-0.70278-3.4639-1.0345-4.0125-2.5834-4.2725-0.84405-0.14169-2.8482-1.1216-4.4536-2.1776-2.1823-1.4355-3.0072-2.3219-3.2687-3.5125-0.38279-1.7428-1.5401-2.5024-2.4407-1.6018-0.31522 0.31521-0.52003 1.737-0.45511 3.1597 0.1326 2.906-0.2703 3.1502-2.5355 1.5373-0.81048-0.57709-5.8345-2.9689-7.0157-3.9198-2.4787-1.9953-3.2893-2.1085-5.2151-0.72821-1.3396 0.96016-1.523 0.9666-4.5394 0.15988-3.0858-0.82533-3.1696-0.82007-4.5776 0.28749-0.78885 0.62047-1.8915 1.1282-2.4503 1.1282-0.90032 0-5.407-4.2288-7.3475-6.8944-0.75408-1.0358-2.3275-0.82455-2.3024 0.30918 0.00805 0.36313 0.93544 1.6951 2.0609 2.96 2.1601 2.4277 2.3723 3.0836 1.5158 4.6842-0.90725 1.6952-3.118 2.4059-9.3629 3.0099-3.3161 0.32073-6.562 0.78659-7.213 1.0353-1.1618 0.44376-1.1555 0.45953 0.33626 0.84707 0.91547 0.23777 18.135-2.7058 19.938-3.2033 5.0904-1.4048 7.6837 0.00336 10.83 2.6846 1.5108 1.2877 7.3272 7.2359 9.3545 8.2208 2.9737 1.4447 3.2088 1.6886 3.5979 3.733 0.34374 1.8062 0.65794 2.2405 1.8033 2.4924 0.76284 0.16776 1.6188 0.3639 1.9022 0.43598s1.0983-3.3414 1.3932-3.6968zm7.1764-2.7716c-5.5576-0.92337-8.15-3.2363-5.7791-5.1561 1.75-1.4171 5.5563-1.7945 7.5065-0.74428 2.7658 1.4895 4.3996 5.4544 2.5414 6.1675-0.44823 0.17203-0.96989 0.28564-1.1592 0.25251l-3.1095-0.51965zm-14.672-4.6573c-2.4795-1.6234-4.3718-0.89336-4.7836-2.952-0.28544-1.4272-0.18162-1.5551 1.522-1.8747 1.3922-0.26116 2.3205-0.06636 3.8914 0.81657 2.196 1.2342 3.2034 2.9689 3.3323 5.7379 0.06807 1.4623-0.10464 1.7273-1.2086 1.8545-0.73255 0.08445-1.5814-2.815-2.7535-3.5823zm-88.515-101.68c1.48-1.5603 2.3002-1.5989 4.264-0.20058 1.5882 1.1308 3.0238 1.0164 3.0238-0.24102 0-0.69554 4.3127-3.9288 5.2405-3.9288 0.23479 0 0.42686-0.46369 0.42686-1.0304 0-1.3796-2.1162-1.3699-6.2677 0.0287-1.7292 0.5825-3.4502 0.94156-3.8246 0.79791s-1.1484-1.1779-1.72-2.2985c-1.1999-2.3521-3.2754-4.1476-5.2513-4.5427-1.0266-0.20532-1.456-0.67123-1.6881-1.8318-0.46333-2.3166 0.8838-6.6856 0.3944-8.5118-0.63351-2.364-4.6962-0.91647-5.6229 2.0034-0.36591 1.1528 2.6067 3.702 3.1216 7.0129 0.32655 2.0997-2.3262 2.4239-2.3262 3.6323 0 0.79343 0.27822 1.7208 0.61826 2.0609 0.76742 0.76737 4.0329-1.8636 4.4737-1.0399 0.27734 0.51821 0.37843 1.8805 0.22459 3.0274-0.22778 1.6984-0.01742 2.4814 1.1344 4.222 0.77783 1.1753 1.6732 2.1329 1.9897 2.128s1.1216-0.58451 1.7889-1.288zm-6.3392-149.39c1.1695-2.7991 0.8924-5.7922-1.0516-11.357-0.98891-2.8308-1.8004-5.7082-1.8033-6.3944-0.00768-1.8386 1.4201-3.1319 3.4575-3.1319 2.1256 0 3.4747 0.64939 5.6747 2.7315 0.91673 0.86758 1.8049 1.4393 1.9736 1.2705s-0.39986-1.8338-1.2637-3.7001c-1.2146-2.6242-1.8188-3.3932-2.6659-3.3932-0.662 0-1.2019 0.40763-1.3648 1.0304-0.42438 1.6228-3.3871 1.404-4.7684-0.352-1.4309-1.8191-1.164-2.8347 0.88463-3.3655 1.4764-0.38256 1.6736-0.64094 1.6736-2.1918 0-2.3135-0.82311-2.7367-2.1189-1.0893-1.3743 1.7471-2.58 1.6822-3.9822-0.21442-0.62851-0.85011-1.4962-1.5456-1.9284-1.5456s-2.4202-0.69554-4.4179-1.5456c-3.8768-1.6497-6.1004-1.9673-6.1004-0.8713 0 0.94338 0.98659 2.0532 3.0913 3.4774 3.3393 2.2596 4.05 4.268 1.8113 5.1191l-1.28 0.48665 1.0398 1.7623c0.78293 1.327 1.579 1.8981 3.2232 2.3121 5.214 1.3129 8.2067 8.2975 5.3563 12.501-0.65134 0.96049-1.3491 2.1769-1.5506 2.7032-0.53624 1.4001 0.55747 4.8986 1.9744 6.3155 1.7915 1.7915 3.2354 1.5967 4.1356-0.5579zm156.86-393.37c0-0.79302-1.8205-1.5538-4.4874-1.8753-4.6365-0.55893-6.8074-1.5916-5.3017-2.5222 0.28336-0.17513 0.51521-0.62403 0.51521-0.99755 0-0.49698-0.60296-0.61117-2.248-0.42574-1.8439 0.20783-3.0712-0.11558-6.8266-1.799-2.5182-1.1288-7.4689-3.1481-11.002-4.4873s-6.888-2.7607-7.4565-3.1589-1.5867-0.72391-2.2628-0.72391c-1.0828 0-1.1874 0.16883-0.87761 1.4168 0.45818 1.846 2.1027 3.5838 4.6061 4.8673 1.6581 0.8501 2.5725 0.97174 5.1943 0.69096 3.1023-0.33223 3.2369-0.29484 5.3782 1.4942 1.208 1.0092 2.522 1.835 2.9201 1.835s1.8252 0.56759 3.1714 1.2613c6.0246 3.1047 18.677 6.1018 18.677 4.4242zm-90.357 876.98c-0.30611-0.49533-0.43727-6.8119-0.23217-11.181 0.06652-1.4168-0.33557-13.885 0.49407-15.738 0.53384-1.1924 1.0948-2.8919 1.2466-3.7767 0.56549-3.2966 1.3581-5.5966 3.3436-9.7024 1.1216-2.3194 2.0394-4.6504 2.0394-5.1798 0-1.5209 0.86739-2.7576 2.6916-3.8378 1.6639-0.98525 2.2554-1.8599 3.5083-5.1883 0.35007-0.92992 6.6611-15.482 6.2822-16.089-0.35727-0.5721 2.1175-10.478 3.4186-11.934 1.0853-1.2147 1.8766-1.5948 3.4287-1.647 2.5098-0.08444 2.7841 0.75067 1.3097 3.9872-0.58345 1.2807-1.0624 3.3267-1.0642 4.5465-0.00206 1.3461-0.40579 2.8256-1.027 3.7636-0.563 0.85011-5.727 15.109-5.532 16.651 0.18345 1.4504-0.58006 4.1642-3.2421 11.524-1.9292 5.3334-3.6417 11.002-3.8401 12.711-0.25813 2.224-0.84895 3.8469-2.1173 5.8155-1.4188 2.2022-3.3011 10.651-3.3011 12.578 0 1.9226-2.9999 8.8583-3.6722 10.275-0.83226 1.754-1.5768 2.6266-2.333 2.7344-0.61084 0.08702-1.2415-0.05354-1.4015-0.31238zm68.009-53.235c-0.58108-2.9054-0.34879-3.5967 1.9965-5.9419 2.4945-2.4945 2.9332-3.7828 1.288-3.7828-0.87116 0-1.0304-0.3435-1.0304-2.2221 0-1.7965-0.29608-2.5058-1.5456-3.7029-1.3682-1.3108-1.5456-1.8226-1.5456-4.4576 0-2.4495-0.18253-3.0745-1.0304-3.5283-1.3454-0.72002-1.3002-1.2608 0.2784-3.3304 2.1471-2.815 2.4077-4.5495 1.0661-7.0969-0.82967-1.5755-1.0014-6.8494-1.8638-8.0159-1.778-2.4048-1.0862-4.1526 3.125-7.8954 3.8103-3.3864 7.2456-8.7896 7.9108-12.443 0.44999-2.4712 2.6963-5.0324 6.1194-6.9774 1.4766-0.83893 3.2468-2.1311 3.9337-2.8715s1.6567-1.3461 2.155-1.3461c0.94408 0 1.1839 0.51888 1.7265 3.7353 0.61795 3.6631 2.3174 1.9742 2.3331-2.3185 0.00649-1.7944 0.11531-1.9321 1.527-1.9321 0.89818 0 1.7413 0.36889 2.0609 0.90163 0.51481 0.85824 0.56695 0.85809 1.0836-0.0034 0.41821-0.6974 0.7651-0.78607 1.5118-0.38642 1.5854 0.84846 1.8959 0.64773 3.56-2.3008 0.87515-1.5507 2.1547-3.1887 2.8436-3.6401 1.1389-0.74624 1.3938-0.74753 2.8118-0.01427 0.85763 0.44349 2.3823 0.80636 3.3882 0.80636 2.2321 0 2.4189 1.0067 0.47132 2.5387-0.84151 0.66195-2.1144 1.0678-3.3489 1.0678-1.9245 0-1.9914 0.05935-1.9914 1.7665 0 1.9475-8.8621 11.552-9.1394 12.402-0.43469 1.3326-0.72887 1.5274-2.134 1.4134-1.9362-0.1572-2.4596 0.82491-3.2117 6.0271-0.38028 2.63 0.51378 11.758 1.8688 12.824 0.78128 0.6146 2.0848 1.1174 2.8967 1.1174 1.3016 0 1.4762 0.18553 1.4762 1.5691 0 1.9315-1.5361 3.5539-5.0512 5.3352-3.8195 1.9355-5.6242 4.9457-2.965 4.9457 0.69168 0 1.3973 0.22608 1.5681 0.50234 0.52552 0.85031-3.868 5.1272-8.0959 7.881-2.9647 1.931-3.9448 2.841-3.7434 3.4756 0.15003 0.47281-0.2031 1.4647-0.78478 2.2042s-1.5417 2.439-2.1335 3.7767c-1.0481 2.3694-1.051 2.4504-0.11067 3.1388s0.93579 0.75809-0.12607 2.6156c-1.2576 2.1999-6.0178 5.7732-7.691 5.7732-0.85974 0-1.2139-0.39116-1.4576-1.6101zm-257.31-76.806c-1.0065-1.0065-0.72419-2.6138 1.1845-6.745 2.1373-4.6258 3.3912-5.3985 5.2513-3.236 1.4652 1.7034 1.5297 3.9109 0.15271 5.2281-0.57019 0.54551-1.3237 1.3075-1.6744 1.6933-3.6948 4.0641-3.8271 4.1465-4.914 3.0596zm-2.5777-11.528c-0.57601-0.40347-1.5598-1.5628-2.1862-2.5763-0.99607-1.6117-1.0546-2.0002-0.46643-3.099 0.36977-0.691 2.2388-2.3267 4.1532-3.6348 2.065-1.411 3.73-2.9797 4.0932-3.8568 0.52388-1.2646 0.89834-1.4784 2.5907-1.4784 2.2284 0 3.731 1.2251 4.9309 4.0201 1.0462 2.4368 0.41701 4.8381-1.9814 7.5629-2.1171 2.4051-3.3224 2.8937-3.836 1.555-0.48529-1.2646-3.1329-0.95753-4.0695 0.47194-1.0776 1.6446-1.9563 1.9264-3.2285 1.0352zm210.2-7.3034c-0.30003-0.77927-1.5217-4.8077-1.9295-4.9642-1.0415-0.39965-0.92163-1.5396 0.2759-2.6233 0.94738-0.85737 1.1052-0.86294 2.2982-0.08125 2.1993 1.4411 3.25 7.1547 1.545 8.4014-1.3134 0.96041-1.571 0.87422-2.1897-0.73264zm89.038-8.264c-1.6603-0.54819-3.6065-2.2873-3.6065-3.2227 0-1.2367 2.1503-2.6866 3.6539-2.4638 1.7871 0.26482 3.2038 2.5148 2.5937 4.1194-0.54628 1.4368-1.4363 1.9649-2.641 1.5671zm-42.42-40.639c-1.7412-1.7412 2.0607-5.682 5.1951-5.385 1.2252 0.11613 0.63592 1.736-1.3562 3.7282-1.9049 1.905-3.0825 2.4132-3.8389 1.6568zm4.8087-8.9984c0-2.4912 4.2448-7.0883 5.9433-6.4365 1.0995 0.42196 0.92956 1.4343-0.57797 3.4419-0.73289 0.97603-1.5386 2.2962-1.7905 2.9338-0.64371 1.6292-3.5748 1.6791-3.5748 0.0608zm6.6283-31.651c-1.2578-1.2577-0.57329-2.9812 1.7848-4.494 1.1819-0.75819 2.523-1.6517 2.9804-1.9856s1.2269-0.45546 1.71-0.27008c1.3154 0.50476 0.57462 2.3429-1.8045 4.478-1.1138 0.99952-2.0251 2.1008-2.0251 2.4473 0 0.89344-1.6886 0.78138-2.6456-0.17559zm9.5985-11.173c0.66458-3.3019 0.75438-3.4115 3.0831-3.7607 2.6621-0.39919 3.3596-0.07918 3.3596 1.5413 0 0.78333-2.012 2.0105-1.8241 2.3145 0.39683 0.64211-1.7752 1.5793-3.6602 1.5793-1.1872 0-1.2673-0.13993-0.95846-1.6744z" fill="none" stroke="#000"/>
</svg>
