<?xml version="1.0" encoding="utf-8"?>
<!-- Generator: Adobe Illustrator 27.5.0, SVG Export Plug-In . SVG Version: 6.00 Build 0)  -->
<svg version="1.1" id="_x30_" xmlns="http://www.w3.org/2000/svg" xmlns:xlink="http://www.w3.org/1999/xlink" x="0px" y="0px"
	 viewBox="0 0 450 450" style="enable-background:new 0 0 450 450;" xml:space="preserve">
<g id="_x37_">
	<g>
		<g id="Axonometric_Cube_84_">
			<polygon id="Cube_face_-_left_186_" style="fill:#26231E;" points="60.955,218.72 52.31,213.728 52.31,207.987 60.955,212.978 
							"/>
			<polygon id="Cube_face_-_right_186_" style="fill:#26231E;" points="75.963,210.055 60.955,218.72 60.955,212.978 
				75.963,204.314 			"/>
			<polygon id="Cube_face_-_top_189_" style="fill:#26231E;" points="60.955,212.978 52.31,207.987 67.318,199.323 75.963,204.314 
							"/>
		</g>
		<g id="Axonometric_Cube_96_">
			<polygon id="Cube_face_-_left_496_" style="fill:#26231E;" points="84.394,235.095 244.803,327.708 244.803,315.772 
				84.394,223.16 			"/>
			<polygon id="Cube_face_-_right_495_" style="fill:#CB5E12;" points="307.533,291.491 244.803,327.708 244.803,315.772 
				307.533,279.555 			"/>
			<polygon id="Cube_face_-_top_500_" style="fill:#26231E;" points="244.803,315.772 84.394,223.16 158.607,180.313 
				307.533,279.555 			"/>
		</g>
		<g>
			<g>
				<path style="fill:#26231F;" d="M60.193,223.573c-2.575,1.496-4.175,4.672-4.188,9.178l14.781-8.632
					c0.013-4.506,1.613-7.682,4.188-9.178L60.193,223.573z"/>
				<g>
					<g id="Axonometric_Cylinder_76_">
						<path style="fill:#1E1B18;" d="M86.829,221.395c-3.893-3.984-8.356-5.918-12.617-3.93l0.671-0.387l-2.25,1.299l-10.237,5.91
							c-6.901,20.536,7.484,38.313,23.139,39.591c0,0,10.292-5.963,10.301-5.977c2.771-1.759,4.483-5.306,4.483-10.312
							C100.319,238.325,94.48,227.314,86.829,221.395z"/>
						<path id="Cylinder_face_105_" style="fill:#26231E;" d="M90.179,253.443c0,10.34-7.259,14.531-16.213,9.361
							c-8.954-5.17-16.213-17.743-16.213-28.082c0-10.339,7.259-14.531,16.213-9.361C82.92,230.531,90.179,243.104,90.179,253.443z"
							/>
					</g>
					<g style="enable-background:new    ;">
						<path style="fill:#302B28;" d="M73.893,254.535c-4.796-2.654-8.751-9.347-8.835-14.951c-0.084-5.604,3.736-7.995,8.531-5.341
							c4.796,2.654,8.751,9.347,8.835,14.951C82.508,254.797,78.688,257.189,73.893,254.535z"/>
						<path style="fill:#25211D;" d="M73.872,253.112c-4.123-2.282-7.524-8.037-7.596-12.854c-0.072-4.818,3.212-6.874,7.335-4.592
							c4.123,2.282,7.524,8.036,7.596,12.854C81.279,253.338,77.995,255.394,73.872,253.112z"/>
						<path style="fill:#1E1B18;" d="M73.611,235.666c-0.888-0.491-1.724-0.743-2.509-0.848c-1.096,0.803-1.767,2.295-1.736,4.376
							c0.066,4.407,3.176,9.671,6.948,11.758c1.693,0.937,3.218,1.047,4.394,0.514c0.331-0.814,0.516-1.795,0.499-2.945
							C81.135,243.702,77.734,237.947,73.611,235.666z"/>
						<g>
							<path style="fill:#25211D;" d="M80.44,244.461c-0.706-2.086-1.868-4.103-3.296-5.776c-0.19-0.143-0.38-0.287-0.578-0.401
								c-1.097-0.634-2.089-0.686-2.802-0.26l-2.769,1.599l5.604,9.588l2.769-1.598c0.695-0.417,1.124-1.29,1.124-2.527
								C80.492,244.881,80.463,244.67,80.44,244.461z"/>
							<path id="Cylinder_face_104_" style="fill:#302B28;" d="M77.723,246.683c0,2.504-1.758,3.519-3.926,2.267
								c-2.168-1.252-3.926-4.297-3.926-6.801c0-2.504,1.758-3.519,3.926-2.267C75.965,241.134,77.723,244.179,77.723,246.683z"/>
						</g>
					</g>
				</g>
				<path style="fill:#302B28;" d="M98.055,229.693c-1.523-3.447-3.611-6.743-6.059-9.531c-2.061-2.347-4.378-4.334-6.829-5.749
					c-4.339-2.505-8.279-2.732-11.126-1.078l-14.781,8.632c2.848-1.655,6.788-1.427,11.127,1.078
					c2.45,1.415,4.767,3.402,6.828,5.749c2.448,2.788,4.536,6.084,6.059,9.531c1.719,3.889,2.719,7.97,2.708,11.733l14.781-8.632
					C100.774,237.664,99.774,233.582,98.055,229.693z"/>
				<path style="fill:#26231E;" d="M70.387,223.046c-8.622-4.978-15.67-0.962-15.698,8.946l1.315,0.759
					c0.026-9.07,6.484-12.751,14.378-8.193c7.917,4.571,14.333,15.685,14.308,24.755l1.292,0.746
					C86.01,240.151,79.032,228.038,70.387,223.046z"/>
			</g>
			<g>
				<path style="fill:#26231F;" d="M95.349,243.87c-2.575,1.496-4.175,4.673-4.188,9.178l14.781-8.632
					c0.013-4.506,1.613-7.682,4.188-9.178L95.349,243.87z"/>
				<g>
					<g id="Axonometric_Cylinder_75_">
						<path style="fill:#1E1B18;" d="M121.985,241.692c-3.893-3.984-8.356-5.918-12.617-3.93l0.671-0.387
							c-0.007,0.004-2.244,1.296-2.25,1.299l-10.237,5.91c-6.901,20.535,7.484,38.313,23.139,39.591c0,0,10.292-5.963,10.301-5.977
							c2.772-1.759,4.483-5.306,4.483-10.312C135.476,258.623,129.636,247.611,121.985,241.692z"/>
						<path id="Cylinder_face_103_" style="fill:#26231E;" d="M125.335,273.74c0,10.34-7.259,14.531-16.213,9.361
							c-8.954-5.17-16.213-17.743-16.213-28.082c0-10.34,7.259-14.531,16.213-9.361C118.076,250.828,125.335,263.401,125.335,273.74
							z"/>
					</g>
					<g style="enable-background:new    ;">
						<path style="fill:#302B28;" d="M109.049,274.832c-4.796-2.654-8.751-9.347-8.835-14.951c-0.084-5.603,3.736-7.995,8.531-5.341
							c4.795,2.654,8.751,9.347,8.835,14.951C117.664,275.095,113.845,277.486,109.049,274.832z"/>
						<path style="fill:#25211D;" d="M109.028,273.409c-4.123-2.281-7.524-8.036-7.596-12.854c-0.072-4.818,3.212-6.874,7.335-4.592
							c4.123,2.282,7.524,8.036,7.596,12.854C116.435,273.635,113.151,275.691,109.028,273.409z"/>
						<path style="fill:#1E1B18;" d="M108.767,255.963c-0.888-0.491-1.724-0.744-2.509-0.848c-1.096,0.802-1.767,2.294-1.736,4.376
							c0.066,4.407,3.176,9.671,6.948,11.758c1.694,0.937,3.218,1.046,4.394,0.514c0.331-0.814,0.517-1.795,0.499-2.946
							C116.291,264,112.891,258.245,108.767,255.963z"/>
						<g>
							<path style="fill:#25211D;" d="M115.597,264.759c-0.707-2.086-1.868-4.103-3.296-5.776c-0.19-0.143-0.38-0.287-0.578-0.401
								c-1.097-0.634-2.09-0.687-2.802-0.26l-2.769,1.598l5.604,9.588l2.769-1.598c0.696-0.416,1.125-1.29,1.125-2.527
								C115.648,265.179,115.619,264.968,115.597,264.759z"/>
							<path id="Cylinder_face_102_" style="fill:#302B28;" d="M112.88,266.98c0,2.504-1.758,3.519-3.926,2.267
								c-2.169-1.252-3.926-4.297-3.926-6.801c0-2.504,1.758-3.519,3.926-2.267C111.122,261.432,112.88,264.477,112.88,266.98z"/>
						</g>
					</g>
				</g>
				<path style="fill:#302B28;" d="M133.212,249.991c-1.523-3.447-3.611-6.743-6.059-9.531c-2.061-2.347-4.378-4.334-6.829-5.749
					c-4.339-2.505-8.279-2.732-11.127-1.078l-14.781,8.632c2.847-1.655,6.788-1.428,11.127,1.078
					c2.45,1.415,4.767,3.402,6.828,5.749c2.448,2.788,4.536,6.083,6.059,9.531c1.718,3.889,2.719,7.97,2.708,11.733l14.781-8.632
					C135.93,257.961,134.93,253.88,133.212,249.991z"/>
				<path style="fill:#26231E;" d="M105.543,243.343c-8.622-4.978-15.67-0.962-15.698,8.946l1.316,0.76
					c0.025-9.071,6.484-12.751,14.378-8.194c7.917,4.571,14.334,15.685,14.308,24.755l1.292,0.746
					C121.167,260.449,114.189,248.335,105.543,243.343z"/>
			</g>
		</g>
		<g id="Axonometric_Cube_105_">
			<polygon id="Cube_face_-_left_581_" style="fill:#26231E;" points="241.934,313.362 52.31,203.883 52.31,207.987 
				241.934,317.467 			"/>
			<polygon id="Cube_face_-_top_586_" style="fill:#302B28;" points="241.934,313.362 52.31,203.883 137.363,154.777 
				326.987,264.257 			"/>
		</g>
		<g>
			<g id="Axonometric_Cube_161_">
				<polygon id="Cube_face_-_left_1457_" style="fill:#ACA8A8;" points="138.636,72.063 135.029,69.98 135.029,156.1 
					138.636,158.182 				"/>
				<polygon id="Cube_face_-_right_1472_" style="fill:#C7C3C2;" points="140.89,156.881 138.636,158.182 138.636,72.063 
					140.89,70.761 				"/>
				<polygon id="Cube_face_-_top_1459_" style="fill:#DCD7D3;" points="138.636,72.063 135.029,69.98 137.284,68.679 140.89,70.761 
									"/>
			</g>
			<g id="Axonometric_Cube_159_">
				<polygon id="Cube_face_-_left_1456_" style="fill:#ACA8A8;" points="199.834,107.396 196.227,105.313 196.227,191.433 
					199.834,193.515 				"/>
				<polygon id="Cube_face_-_right_1471_" style="fill:#C7C3C2;" points="202.089,192.214 199.834,193.515 199.834,107.396 
					202.089,106.094 				"/>
				<polygon id="Cube_face_-_top_1458_" style="fill:#DCD7D3;" points="199.834,107.396 196.227,105.313 198.482,104.011 
					202.089,106.094 				"/>
			</g>
			<g id="Axonometric_Cube_158_">
				<polygon id="Cube_face_-_left_1455_" style="fill:#ACA8A8;" points="261.032,142.728 257.425,140.646 257.425,226.765 
					261.032,228.848 				"/>
				<polygon id="Cube_face_-_right_1470_" style="fill:#C7C3C2;" points="263.287,227.546 261.032,228.848 261.032,142.728 
					263.287,141.427 				"/>
				<polygon id="Cube_face_-_top_1457_" style="fill:#DCD7D3;" points="261.032,142.728 257.425,140.646 259.68,139.344 
					263.287,141.427 				"/>
			</g>
			<g id="Axonometric_Cube_157_">
				<polygon id="Cube_face_-_left_1454_" style="fill:#ACA8A8;" points="322.23,178.061 318.623,175.979 318.623,262.098 
					322.23,264.18 				"/>
				<polygon id="Cube_face_-_right_1469_" style="fill:#C7C3C2;" points="324.484,262.879 322.23,264.18 322.23,178.061 
					324.484,176.759 				"/>
				<polygon id="Cube_face_-_top_1456_" style="fill:#DCD7D3;" points="322.23,178.061 318.623,175.979 320.878,174.677 
					324.484,176.759 				"/>
			</g>
		</g>
		<g>
			<g>
				<g>
					<g style="enable-background:new    ;">
						
							<linearGradient id="SVGID_1_" gradientUnits="userSpaceOnUse" x1="484.6607" y1="183.2831" x2="504.9751" y2="218.4687" gradientTransform="matrix(-1 0 0 1 701.1688 0)">
							<stop  offset="0" style="stop-color:#714939"/>
							<stop  offset="0.5165" style="stop-color:#654133"/>
							<stop  offset="1" style="stop-color:#55372B"/>
						</linearGradient>
						<path style="fill:url(#SVGID_1_);" d="M105.31,146.606c1.365-3.09,3.236-6.042,5.43-8.54c1.85-2.107,3.93-3.89,6.13-5.16
							c3.894-2.248,7.42-2.449,9.974-0.974c34.896,20.147,75.281,43.906,83.822,49.14c3.233,1.981,48.484,27.763,62.086,34.784
							c10.653,6.052,20.596,11.716,27.191,15.72c5.402,3.28,15.748,9.583,15.748,9.583c-0.032,0.055-19.805,34.094-19.867,34.2
							c-0.003,0.004-12.501-7.235-12.501-7.235c-22.348-11.101-22.062-13.527-38.264-22.298l-67.627-39.052
							c-0.001-0.001-70.459-40.646-70.455-40.644c-2.519-1.464-4.081-4.577-4.094-9C102.874,153.751,103.77,150.091,105.31,146.606z
							"/>
						<path style="fill:#493025;" d="M305.717,242.134c7.74-4.469,14.043-0.877,14.069,8.028c0.025,8.905-6.237,19.752-13.977,24.22
							c-7.75,4.474-14.053,0.882-14.078-8.023C291.705,257.455,297.967,246.608,305.717,242.134z"/>
						<path style="fill:#C98E47;" d="M305.792,243.085c7.436-4.293,13.491-0.842,13.515,7.712s-5.992,18.974-13.427,23.267
							c-7.445,4.298-13.5,0.848-13.524-7.707C292.332,257.803,298.348,247.383,305.792,243.085z"/>
					</g>
					<g>
						<g>
							<path style="fill:#D79E5A;" d="M300.54,274.125c-1.178,0-2.268-0.275-3.231-0.829c-2.32-1.336-3.604-4.125-3.615-7.857
								c-0.023-7.611,5.35-16.919,11.977-20.745c3.261-1.887,6.352-2.182,8.683-0.838c2.323,1.339,3.606,4.128,3.618,7.86
								c0.02,7.614-5.35,16.919-11.971,20.739C304.082,273.565,302.222,274.125,300.54,274.125z M305.922,245.133
								c-6.483,3.747-11.742,12.856-11.719,20.306c0.009,3.542,1.204,6.176,3.36,7.418c2.174,1.245,5.08,0.952,8.186-0.841
								c6.478-3.741,11.734-12.847,11.713-20.3c-0.009-3.542-1.204-6.176-3.36-7.418
								C311.925,243.044,309.022,243.346,305.922,245.133z"/>
						</g>
						<g>
							<path style="fill:#D79E5A;" d="M301.205,272.201c-1.034,0-1.992-0.243-2.839-0.73c-2.039-1.175-3.167-3.624-3.176-6.896
								c-0.02-6.662,4.681-14.809,10.485-18.158c2.862-1.655,5.572-1.916,7.617-0.735c2.042,1.175,3.17,3.624,3.181,6.899
								c0.018,6.662-4.681,14.807-10.479,18.155C304.31,271.708,302.682,272.201,301.205,272.201z M310.454,245.464
								c-1.383,0-2.924,0.466-4.526,1.391c-5.66,3.27-10.248,11.218-10.228,17.719c0.009,3.082,1.046,5.376,2.921,6.454
								c1.892,1.09,4.421,0.826,7.122-0.732c5.654-3.267,10.239-11.215,10.222-17.716c-0.009-3.085-1.049-5.379-2.924-6.457
								C312.273,245.681,311.4,245.464,310.454,245.464z"/>
						</g>
						<g>
							<path style="fill:#D79E5A;" d="M301.987,269.903c-0.861,0-1.658-0.202-2.361-0.606c-1.696-0.976-2.634-3.012-2.642-5.733
								c-0.015-5.543,3.896-12.317,8.719-15.1c2.379-1.368,4.626-1.585,6.337-0.607c1.696,0.976,2.634,3.012,2.64,5.733
								c0.015,5.54-3.891,12.313-8.71,15.097C304.568,269.493,303.212,269.903,301.987,269.903z M309.675,247.673
								c-1.148,0-2.429,0.39-3.762,1.16c-4.705,2.713-8.522,9.322-8.508,14.731c0.009,2.563,0.873,4.468,2.431,5.367
								c1.57,0.902,3.671,0.686,5.921-0.612c4.699-2.713,8.514-9.319,8.499-14.728c-0.009-2.563-0.87-4.471-2.429-5.367
								C311.189,247.858,310.463,247.673,309.675,247.673z"/>
						</g>
						<g>
							<path style="fill:#D79E5A;" d="M303.039,266.807c-0.627,0-1.204-0.146-1.717-0.439c-1.233-0.709-1.913-2.189-1.919-4.166
								c-0.015-4.025,2.827-8.95,6.334-10.972c1.729-0.999,3.366-1.16,4.603-0.442c1.233,0.709,1.913,2.189,1.919,4.166
								c0.014,4.025-2.827,8.947-6.328,10.969C304.914,266.511,303.93,266.807,303.039,266.807z M305.89,251.493
								c-3.419,1.975-6.19,6.779-6.181,10.708c0.006,1.86,0.633,3.246,1.766,3.899c1.148,0.659,2.672,0.501,4.304-0.443
								c3.416-1.975,6.185-6.776,6.176-10.705c-0.006-1.863-0.633-3.249-1.767-3.899
								C309.048,250.398,307.522,250.559,305.89,251.493z"/>
						</g>
						<g>
							<path style="fill:#D79E5A;" d="M304.108,263.652c-0.387,0-0.741-0.091-1.058-0.273c-0.759-0.436-1.178-1.351-1.18-2.569
								c-0.009-2.482,1.74-5.514,3.902-6.762c1.069-0.621,2.077-0.709,2.842-0.272c0.759,0.437,1.178,1.348,1.181,2.566
								c0.006,2.485-1.743,5.52-3.902,6.765C305.266,263.47,304.659,263.652,304.108,263.652z M307.554,253.693
								c-0.516,0-1.09,0.173-1.688,0.519c-2.109,1.219-3.818,4.178-3.809,6.598c0.003,1.148,0.389,2.004,1.087,2.405
								c0.706,0.404,1.649,0.307,2.654-0.273c2.107-1.216,3.814-4.177,3.809-6.601c-0.003-1.148-0.39-2.001-1.087-2.402
								C308.233,253.776,307.908,253.693,307.554,253.693z"/>
						</g>
						<g>
							<path style="fill:#D79E5A;" d="M304.849,261.51c-0.226,0-0.436-0.053-0.621-0.158c-0.448-0.255-0.694-0.788-0.697-1.5
								c-0.003-1.43,1.005-3.176,2.247-3.894c0.615-0.36,1.204-0.419,1.661-0.155c0.445,0.258,0.691,0.788,0.691,1.5
								c0.006,1.427-0.999,3.173-2.244,3.891C305.523,261.404,305.169,261.51,304.849,261.51z M306.815,255.832
								c-0.287,0-0.609,0.097-0.944,0.29c-1.189,0.685-2.156,2.358-2.153,3.73c0.003,0.641,0.217,1.116,0.603,1.336
								c0.387,0.226,0.908,0.167,1.471-0.158c1.19-0.688,2.156-2.358,2.15-3.727c-0.003-0.638-0.214-1.113-0.601-1.336
								C307.187,255.876,307.009,255.832,306.815,255.832z"/>
						</g>
					</g>
				</g>
				<polygon style="fill:#B77B49;" points="305.717,242.134 305.832,258.26 303.946,243.286 260.426,215.866 				"/>
			</g>
			<g>
				<g>
					<g style="enable-background:new    ;">
						
							<linearGradient id="SVGID_00000062898188088986442380000015255348803711748253_" gradientUnits="userSpaceOnUse" x1="521.8794" y1="200.2942" x2="542.1938" y2="235.4797" gradientTransform="matrix(-1 0 0 1 701.1688 0)">
							<stop  offset="0" style="stop-color:#714939"/>
							<stop  offset="0.5165" style="stop-color:#654133"/>
							<stop  offset="1" style="stop-color:#55372B"/>
						</linearGradient>
						<path style="fill:url(#SVGID_00000062898188088986442380000015255348803711748253_);" d="M79.295,170.085
							c1.365-3.09,3.236-6.042,5.43-8.54c0.643-0.732,1.313-1.425,2.007-2.071l5.921,3.418l-1.798-6.508
							c3.894-2.248,7.42-2.449,9.974-0.974c34.896,20.147,52.873,30.969,61.414,36.203c3.233,1.981,6.901,3.754,20.502,10.776
							c10.653,6.052,62.179,35.725,68.775,39.729c5.402,3.28,15.748,9.583,15.748,9.583c-0.032,0.055-19.805,34.094-19.867,34.2
							c-0.003,0.004-12.501-7.235-12.501-7.235c-22.348-11.101-63.646-37.535-79.848-46.307l-26.043-15.043
							c-0.001-0.001-48.051-27.709-48.047-27.707c-2.519-1.464-4.081-4.576-4.093-9C76.859,177.231,77.755,173.57,79.295,170.085z"
							/>
						<path style="fill:#493025;" d="M257.294,252.677c7.74-4.469,14.043-0.877,14.069,8.028c0.025,8.905-6.237,19.751-13.977,24.22
							c-7.75,4.474-14.053,0.882-14.078-8.023C243.283,267.998,249.545,257.151,257.294,252.677z"/>
						<path style="fill:#C98E47;" d="M257.37,253.628c7.436-4.293,13.491-0.842,13.515,7.712
							c0.024,8.554-5.992,18.974-13.427,23.267c-7.445,4.298-13.5,0.848-13.524-7.707
							C243.909,268.346,249.925,257.926,257.37,253.628z"/>
					</g>
					<g>
						<g>
							<path style="fill:#D79E5A;" d="M252.118,284.669c-1.178,0-2.268-0.275-3.232-0.829c-2.32-1.336-3.606-4.125-3.618-7.858
								c-0.021-7.614,5.353-16.919,11.979-20.745c3.258-1.884,6.34-2.188,8.684-0.841c2.32,1.336,3.606,4.128,3.618,7.86
								c0.021,7.611-5.35,16.919-11.971,20.742C255.66,284.11,253.8,284.669,252.118,284.669z M257.5,255.677
								c-6.483,3.744-11.742,12.852-11.722,20.306c0.012,3.542,1.204,6.176,3.363,7.418c2.177,1.248,5.08,0.952,8.185-0.841
								c6.478-3.744,11.733-12.853,11.713-20.303c-0.012-3.542-1.204-6.176-3.363-7.418
								C263.512,253.588,260.605,253.893,257.5,255.677z"/>
						</g>
						<g>
							<path style="fill:#D79E5A;" d="M252.783,282.741c-1.034,0-1.992-0.243-2.839-0.729c-2.039-1.175-3.167-3.624-3.176-6.897
								c-0.021-6.662,4.682-14.81,10.485-18.158c2.859-1.649,5.569-1.91,7.617-0.732c2.042,1.175,3.17,3.624,3.182,6.899
								c0.018,6.665-4.682,14.806-10.48,18.152C255.889,282.249,254.26,282.741,252.783,282.741z M257.506,257.397
								c-5.66,3.269-10.248,11.218-10.228,17.719c0.009,3.082,1.046,5.376,2.921,6.454c1.893,1.09,4.421,0.826,7.122-0.732
								c5.654-3.264,10.239-11.209,10.222-17.713c-0.009-3.085-1.049-5.379-2.924-6.457
								C262.727,255.577,260.204,255.841,257.506,257.397z"/>
						</g>
						<g>
							<path style="fill:#D79E5A;" d="M253.562,280.444c-0.861,0-1.655-0.199-2.361-0.606c-1.696-0.976-2.634-3.012-2.64-5.734
								c-0.015-5.537,3.894-12.311,8.716-15.1c2.379-1.374,4.629-1.588,6.34-0.606c1.696,0.976,2.634,3.012,2.64,5.733
								c0.015,5.54-3.891,12.314-8.71,15.097C256.147,280.037,254.79,280.444,253.562,280.444z M257.488,259.374
								c-4.702,2.719-8.519,9.325-8.505,14.73c0.009,2.563,0.87,4.471,2.428,5.367c1.57,0.908,3.674,0.691,5.924-0.612
								c4.699-2.713,8.514-9.319,8.499-14.728c-0.009-2.563-0.87-4.468-2.428-5.367
								C261.833,257.863,259.733,258.077,257.488,259.374z"/>
						</g>
						<g>
							<path style="fill:#D79E5A;" d="M254.614,277.348c-0.624,0-1.204-0.146-1.717-0.44c-1.23-0.709-1.91-2.188-1.916-4.166
								c-0.015-4.028,2.827-8.947,6.334-10.969c1.729-1.002,3.36-1.154,4.603-0.446c1.233,0.709,1.913,2.189,1.919,4.169
								c0.015,4.025-2.827,8.947-6.328,10.966C256.492,277.052,255.505,277.348,254.614,277.348z M260.204,261.197
								c-0.838,0-1.767,0.281-2.736,0.841c-3.419,1.975-6.191,6.776-6.182,10.705c0.006,1.863,0.633,3.246,1.767,3.899
								c1.143,0.656,2.675,0.498,4.304-0.442c3.416-1.972,6.184-6.773,6.176-10.702c-0.006-1.863-0.633-3.249-1.767-3.902
								C261.3,261.328,260.775,261.197,260.204,261.197z"/>
						</g>
						<g>
							<path style="fill:#D79E5A;" d="M255.686,274.193c-0.387,0-0.741-0.091-1.057-0.272c-0.759-0.436-1.181-1.348-1.184-2.566
								c-0.006-2.481,1.746-5.516,3.905-6.764c1.07-0.612,2.071-0.712,2.839-0.273c0.759,0.436,1.181,1.348,1.184,2.569
								c0.006,2.481-1.743,5.514-3.902,6.762C256.844,274.011,256.237,274.193,255.686,274.193z M259.132,264.235
								c-0.516,0-1.09,0.173-1.688,0.518c-2.107,1.216-3.817,4.178-3.811,6.601c0.006,1.149,0.392,2.001,1.09,2.402
								c0.706,0.407,1.649,0.31,2.654-0.272c2.107-1.219,3.815-4.178,3.809-6.598c-0.006-1.148-0.392-2.004-1.093-2.405
								C259.809,264.316,259.483,264.235,259.132,264.235z"/>
						</g>
						<g>
							<path style="fill:#D79E5A;" d="M256.428,272.054c-0.229,0-0.439-0.052-0.624-0.161c-0.448-0.258-0.694-0.791-0.694-1.5
								c-0.003-1.427,1.005-3.173,2.247-3.893c0.624-0.358,1.21-0.413,1.661-0.152c0.445,0.255,0.691,0.788,0.691,1.497
								c0.006,1.427-0.999,3.176-2.244,3.894C257.102,271.948,256.747,272.054,256.428,272.054z M257.45,266.663
								c-1.19,0.689-2.156,2.361-2.153,3.729c0.003,0.639,0.214,1.113,0.601,1.336c0.396,0.226,0.914,0.17,1.474-0.155
								c1.189-0.688,2.156-2.361,2.15-3.73c-0.003-0.639-0.214-1.113-0.601-1.333C258.537,266.288,258.01,266.341,257.45,266.663z"
								/>
						</g>
					</g>
				</g>
				<polygon style="fill:#B77B49;" points="245.8,266.357 252.663,269.599 244.898,268.468 227.853,257.747 				"/>
				<polygon style="fill:#B77B49;" points="158.548,200.938 91.429,162.186 90.855,156.385 				"/>
			</g>
			<g>
				<g>
					<g style="enable-background:new    ;">
						
							<linearGradient id="SVGID_00000065784010139574555130000004771235810487821245_" gradientUnits="userSpaceOnUse" x1="470.7816" y1="150.5072" x2="491.096" y2="185.6927" gradientTransform="matrix(-1 0 0 1 701.1688 0)">
							<stop  offset="0" style="stop-color:#714939"/>
							<stop  offset="0.5165" style="stop-color:#654133"/>
							<stop  offset="1" style="stop-color:#55372B"/>
						</linearGradient>
						<path style="fill:url(#SVGID_00000065784010139574555130000004771235810487821245_);" d="M130.393,120.298
							c1.365-3.09,3.236-6.042,5.43-8.54c0.643-0.732,1.314-1.425,2.007-2.071l5.921,3.418l-1.798-6.507
							c3.894-2.248,7.42-2.449,9.974-0.974c34.896,20.147,52.873,30.969,61.414,36.203c3.233,1.981,6.901,3.755,20.502,10.776
							c10.653,6.052,62.179,35.724,68.775,39.729c5.402,3.28,15.748,9.583,15.748,9.583c-0.032,0.055-19.805,34.094-19.867,34.2
							c-0.003,0.005-12.501-7.235-12.501-7.235c-22.348-11.101-63.646-37.535-79.848-46.306l-26.043-15.043
							c0,0-48.052-27.709-48.048-27.707c-2.519-1.464-4.081-4.576-4.093-9C127.957,127.444,128.853,123.784,130.393,120.298z"/>
						<path style="fill:#493025;" d="M308.392,202.89c7.74-4.468,14.043-0.877,14.068,8.028c0.025,8.905-6.237,19.751-13.977,24.22
							c-7.75,4.474-14.053,0.882-14.078-8.023C294.38,218.211,300.643,207.364,308.392,202.89z"/>
						<path style="fill:#C98E47;" d="M308.468,203.841c7.435-4.293,13.491-0.842,13.515,7.712
							c0.024,8.554-5.992,18.974-13.427,23.267c-7.445,4.298-13.5,0.848-13.524-7.707
							C295.007,218.559,301.023,208.139,308.468,203.841z"/>
					</g>
					<g>
						<g>
							<path style="fill:#D79E5A;" d="M303.215,234.882c-1.178,0-2.268-0.275-3.231-0.829c-2.32-1.336-3.604-4.125-3.615-7.857
								c-0.023-7.611,5.35-16.919,11.979-20.745c3.261-1.887,6.346-2.183,8.684-0.838c2.32,1.336,3.603,4.128,3.615,7.86
								c0.02,7.611-5.35,16.916-11.971,20.739C306.757,234.322,304.897,234.882,303.215,234.882z M308.599,205.89
								c-6.486,3.747-11.745,12.855-11.722,20.305c0.009,3.542,1.204,6.176,3.36,7.418c2.177,1.248,5.08,0.952,8.186-0.841
								c6.478-3.744,11.734-12.85,11.713-20.3c-0.009-3.542-1.204-6.179-3.36-7.418C314.605,203.804,311.705,204.103,308.599,205.89
								z"/>
						</g>
						<g>
							<path style="fill:#D79E5A;" d="M303.883,232.954c-1.034,0-1.995-0.243-2.842-0.729c-2.039-1.175-3.167-3.621-3.176-6.894
								c-0.018-6.665,4.685-14.816,10.485-18.161c2.862-1.652,5.572-1.91,7.62-0.73c2.042,1.172,3.17,3.621,3.178,6.897
								c0.018,6.665-4.681,14.807-10.479,18.152C306.988,232.462,305.357,232.954,303.883,232.954z M308.603,207.61
								c-5.657,3.267-10.245,11.218-10.228,17.722c0.009,3.082,1.046,5.373,2.921,6.451c1.892,1.09,4.421,0.823,7.122-0.732
								c5.654-3.264,10.239-11.209,10.222-17.713c-0.009-3.082-1.046-5.376-2.921-6.457
								C313.826,205.79,311.301,206.054,308.603,207.61z"/>
						</g>
						<g>
							<path style="fill:#D79E5A;" d="M304.662,230.657c-0.861,0-1.655-0.199-2.361-0.604c-1.693-0.976-2.634-3.014-2.64-5.736
								c-0.017-5.54,3.891-12.311,8.716-15.097c2.379-1.374,4.629-1.591,6.334-0.609c1.697,0.976,2.637,3.012,2.643,5.736
								c0.018,5.54-3.888,12.311-8.71,15.094C307.243,230.25,305.887,230.657,304.662,230.657z M312.353,208.43
								c-1.151,0-2.432,0.39-3.765,1.16c-4.705,2.716-8.522,9.322-8.505,14.727c0.009,2.563,0.87,4.471,2.431,5.37
								c1.568,0.905,3.671,0.686,5.918-0.615c4.702-2.713,8.516-9.319,8.499-14.725c-0.009-2.566-0.87-4.474-2.432-5.37
								C313.864,208.612,313.138,208.43,312.353,208.43z"/>
						</g>
						<g>
							<path style="fill:#D79E5A;" d="M305.711,227.564c-0.624,0-1.201-0.147-1.714-0.439c-1.233-0.709-1.913-2.191-1.919-4.169
								c-0.009-4.028,2.83-8.947,6.334-10.969c1.732-1.005,3.363-1.154,4.606-0.445c1.23,0.712,1.913,2.191,1.916,4.169
								c0.014,4.025-2.827,8.947-6.328,10.966C307.589,227.265,306.604,227.564,305.711,227.564z M308.564,212.25
								c-3.416,1.975-6.188,6.776-6.181,10.705c0.006,1.863,0.636,3.249,1.769,3.902c1.137,0.656,2.669,0.495,4.301-0.445
								c3.416-1.972,6.185-6.773,6.176-10.702c-0.006-1.863-0.633-3.249-1.767-3.902
								C311.723,211.152,310.199,211.307,308.564,212.25z"/>
						</g>
						<g>
							<path style="fill:#D79E5A;" d="M306.786,224.405c-0.387,0-0.744-0.091-1.061-0.272c-0.759-0.436-1.178-1.348-1.18-2.566
								c-0.009-2.481,1.743-5.516,3.905-6.764c1.064-0.615,2.072-0.712,2.836-0.273c0.762,0.436,1.181,1.351,1.184,2.57
								c0.006,2.484-1.743,5.519-3.902,6.762C307.94,224.224,307.334,224.405,306.786,224.405z M310.228,214.447
								c-0.516,0-1.087,0.173-1.684,0.518c-2.11,1.216-3.82,4.178-3.811,6.601c0.003,1.149,0.389,2.001,1.087,2.402
								c0.706,0.404,1.646,0.311,2.654-0.272c2.107-1.213,3.814-4.172,3.809-6.598c-0.003-1.148-0.39-2.004-1.09-2.405
								C310.905,214.529,310.58,214.447,310.228,214.447z"/>
						</g>
						<g>
							<path style="fill:#D79E5A;" d="M307.524,222.267c-0.226,0-0.436-0.052-0.621-0.161c-0.448-0.255-0.694-0.788-0.697-1.5
								c-0.003-1.43,1.005-3.173,2.247-3.89c0.624-0.363,1.213-0.416,1.661-0.155c0.445,0.255,0.691,0.788,0.694,1.5
								c0.003,1.43-1.005,3.173-2.247,3.891C308.198,222.161,307.847,222.267,307.524,222.267z M309.49,216.589
								c-0.287,0-0.609,0.097-0.944,0.29c-1.189,0.686-2.156,2.359-2.153,3.727c0.003,0.639,0.217,1.113,0.603,1.336
								c0.39,0.226,0.911,0.17,1.471-0.155c1.189-0.686,2.156-2.359,2.153-3.727c-0.003-0.642-0.217-1.116-0.604-1.336
								C309.862,216.633,309.684,216.589,309.49,216.589z"/>
						</g>
					</g>
				</g>
				<polygon style="fill:#B77B49;" points="296.898,216.57 303.761,219.812 295.996,218.681 278.951,207.96 				"/>
				<polygon style="fill:#B77B49;" points="209.646,151.151 142.527,112.399 141.953,106.598 				"/>
			</g>
			<g>
				
					<linearGradient id="SVGID_00000093858195069820027960000013465912073927781773_" gradientUnits="userSpaceOnUse" x1="546.656" y1="229.2185" x2="557.1073" y2="247.3208" gradientTransform="matrix(-1 0 0 1 701.1688 0)">
					<stop  offset="0" style="stop-color:#714939"/>
					<stop  offset="0.5165" style="stop-color:#654133"/>
					<stop  offset="1" style="stop-color:#55372B"/>
				</linearGradient>
				<path style="fill:url(#SVGID_00000093858195069820027960000013465912073927781773_);" d="M62.25,190.205
					c0.707-1.6,1.676-3.129,2.812-4.423c0.958-1.091,2.035-2.015,3.175-2.672c2.017-1.164,3.843-1.268,5.166-0.505
					c18.073,10.435,38.989,22.74,43.413,25.451c0.545,0.334,6.337,3.672,14.146,8.149c6.794,3.895,15.114,8.652,22.832,13.041
					c10.664,6.065,61.764,35.437,64.52,36.86c5.518,3.134,10.667,6.068,14.083,8.142c2.798,1.699,8.156,4.963,8.156,4.963
					c-0.017,0.029-10.258,17.658-10.289,17.713c-0.001,0.002-6.475-3.747-6.475-3.747c-5.994-2.978-63.408-36.813-78.677-45.822
					c-14.214-8.386-27.676-15.553-31.722-17.743l-13.788-8.245c0,0-36.492-21.051-36.492-21.051
					c-1.303-0.757-2.111-2.369-2.118-4.66C60.988,193.906,61.452,192.01,62.25,190.205z"/>
				<path style="fill:#493025;" d="M235.387,279.716c4.009-2.315,7.273-0.454,7.286,4.158c0.013,4.612-3.23,10.23-7.239,12.544
					c-4.014,2.317-7.278,0.457-7.291-4.155C228.13,287.651,231.374,282.034,235.387,279.716z"/>
				<path style="fill:#C98E47;" d="M235.427,280.209c3.851-2.224,6.987-0.436,7,3.994c0.013,4.431-3.103,9.827-6.954,12.051
					c-3.856,2.226-6.992,0.439-7.004-3.992C228.455,287.832,231.571,282.435,235.427,280.209z"/>
				<g>
					<g>
						<path style="fill:#D79E5A;" d="M232.706,296.285c-0.609,0-1.175-0.144-1.673-0.431c-1.204-0.691-1.866-2.136-1.872-4.069
							c-0.012-3.944,2.772-8.763,6.205-10.743c1.688-0.978,3.287-1.131,4.494-0.434c1.204,0.691,1.869,2.139,1.875,4.069
							c0.009,3.947-2.771,8.766-6.202,10.743C234.54,295.995,233.576,296.285,232.706,296.285z M235.495,281.271
							c-3.358,1.94-6.082,6.656-6.07,10.515c0.003,1.834,0.621,3.199,1.74,3.841c1.125,0.647,2.628,0.495,4.239-0.434
							c3.355-1.936,6.076-6.653,6.068-10.515c-0.006-1.834-0.624-3.196-1.74-3.841C238.604,280.19,237.1,280.342,235.495,281.271z"
							/>
					</g>
					<g>
						<path style="fill:#D79E5A;" d="M233.456,294.12c-0.448,0-0.864-0.105-1.234-0.316c-0.885-0.51-1.374-1.57-1.38-2.988
							c-0.009-2.877,2.021-6.392,4.526-7.84c1.239-0.718,2.414-0.829,3.305-0.313c0.885,0.51,1.374,1.57,1.377,2.988
							c0.009,2.877-2.018,6.395-4.523,7.837C234.801,293.909,234.095,294.12,233.456,294.12z M235.498,283.204
							c-2.428,1.403-4.4,4.82-4.391,7.611c0.003,1.319,0.448,2.3,1.248,2.76c0.803,0.463,1.887,0.354,3.041-0.316
							c2.432-1.4,4.4-4.814,4.391-7.608c-0.003-1.318-0.445-2.3-1.245-2.76C237.734,282.428,236.658,282.539,235.498,283.204z"/>
					</g>
					<g>
						<path style="fill:#D79E5A;" d="M234.001,292.494c-0.325,0-0.624-0.076-0.891-0.229c-0.638-0.366-0.99-1.134-0.993-2.156
							c-0.006-2.083,1.465-4.632,3.278-5.684c0.893-0.51,1.74-0.598,2.388-0.229c0.638,0.366,0.99,1.134,0.993,2.159
							c0.006,2.086-1.465,4.635-3.275,5.681C234.973,292.339,234.461,292.494,234.001,292.494z M235.477,284.566
							c-1.772,1.023-3.208,3.51-3.202,5.543c0.003,0.964,0.328,1.682,0.914,2.018c0.595,0.34,1.386,0.261,2.23-0.231
							c1.769-1.019,3.205-3.504,3.199-5.54c-0.003-0.967-0.328-1.685-0.914-2.021C237.115,284.001,236.321,284.078,235.477,284.566z
							"/>
					</g>
					<g>
						<path style="fill:#D79E5A;" d="M234.64,290.643c-0.185,0-0.357-0.044-0.51-0.132c-0.369-0.211-0.571-0.647-0.574-1.233
							c-0.003-1.172,0.826-2.608,1.846-3.197c0.51-0.293,0.996-0.34,1.365-0.126c0.366,0.211,0.571,0.647,0.571,1.231
							c0.003,1.175-0.823,2.607-1.843,3.199C235.193,290.555,234.903,290.643,234.64,290.643z M236.254,285.982
							c-0.234,0-0.498,0.079-0.77,0.24c-0.979,0.563-1.773,1.934-1.77,3.056c0.003,0.524,0.179,0.914,0.495,1.096
							c0.313,0.182,0.75,0.132,1.204-0.129c0.979-0.563,1.77-1.936,1.767-3.059c-0.003-0.524-0.176-0.911-0.492-1.093
							C236.559,286.02,236.412,285.982,236.254,285.982z"/>
					</g>
					<g>
						<path style="fill:#D79E5A;" d="M235.044,289.474c-0.1,0-0.194-0.023-0.275-0.07c-0.197-0.111-0.305-0.343-0.305-0.65
							c0-0.6,0.422-1.33,0.94-1.629c0.267-0.152,0.527-0.173,0.721-0.061c0.197,0.111,0.305,0.343,0.305,0.647
							c0,0.598-0.422,1.33-0.938,1.629C235.334,289.427,235.182,289.474,235.044,289.474z M235.85,287.151
							c-0.111,0-0.234,0.038-0.363,0.114c-0.477,0.272-0.864,0.94-0.864,1.488c0.003,0.246,0.082,0.431,0.226,0.513
							c0.144,0.079,0.343,0.059,0.563-0.067c0.475-0.272,0.862-0.94,0.862-1.488c-0.003-0.246-0.082-0.428-0.226-0.51
							C235.987,287.168,235.92,287.151,235.85,287.151z"/>
					</g>
				</g>
			</g>
			<g>
				<g>
					<g style="enable-background:new    ;">
						<path style="fill:#9B6C38;" d="M282.223,241.049c0,0,2.526,1.51,2.526,1.785l-2.779,14.721l-13.514-7.802L282.223,241.049z"/>
						
							<linearGradient id="SVGID_00000038373959446079053170000006204416259865478043_" gradientUnits="userSpaceOnUse" x1="495.2352" y1="180.3033" x2="511.8763" y2="209.1265" gradientTransform="matrix(-1 0 0 1 701.1688 0)">
							<stop  offset="0" style="stop-color:#714939"/>
							<stop  offset="0.5165" style="stop-color:#654133"/>
							<stop  offset="1" style="stop-color:#55372B"/>
						</linearGradient>
						<path style="fill:url(#SVGID_00000038373959446079053170000006204416259865478043_);" d="M111.084,148.087
							c1.118-2.531,2.651-4.949,4.448-6.995c1.516-1.726,3.22-3.187,5.022-4.227c3.19-1.841,6.078-2.006,8.17-0.798
							c28.586,16.504,61.668,35.967,68.664,40.254c2.648,1.623,47.237,27.084,58.379,32.836c8.727,4.957,16.872,9.597,22.274,12.878
							c4.426,2.687,12.901,7.85,12.901,7.85c-0.026,0.045-16.224,27.928-16.275,28.016c-0.002,0.004-10.241-5.926-10.241-5.926
							c-18.307-9.094-18.073-11.081-31.345-18.266l-62.917-36.331c0,0-57.718-33.296-57.715-33.294
							c-2.063-1.199-3.343-3.749-3.353-7.373C109.088,153.941,109.822,150.943,111.084,148.087z"/>
						<path style="fill:#493025;" d="M282.771,230.683c6.34-3.661,11.504-0.718,11.525,6.576c0.021,7.294-5.109,16.18-11.45,19.841
							c-0.296,0.171-0.585,0.312-0.875,0.454l0.744-13.507l-3.828,14.516c-4.401,0.682-7.557-2.342-7.573-8.036
							C271.292,243.234,276.423,234.348,282.771,230.683z"/>
						<path style="fill:#C98E47;" d="M282.832,231.462c6.091-3.517,11.051-0.69,11.071,6.318c0.02,7.008-4.908,15.544-10.999,19.06
							c-0.311,0.18-0.617,0.332-0.922,0.478l0.731-13.27l-3.749,14.219c-4.156,0.573-7.123-2.33-7.138-7.741
							C271.806,243.519,276.734,234.983,282.832,231.462z"/>
					</g>
					<g>
						<path style="fill:#D79E5A;" d="M279.077,255.311c-0.848,0-1.633-0.198-2.327-0.597c-1.671-0.962-2.595-2.967-2.603-5.648
							c-0.015-5.461,3.838-12.134,8.588-14.876c2.345-1.356,4.565-1.567,6.244-0.6c1.671,0.961,2.595,2.967,2.603,5.649
							c0.015,5.461-3.835,12.132-8.582,14.873c-0.291,0.168-0.579,0.309-0.865,0.442l0.028-0.51c0.211-0.104,0.415-0.17,0.628-0.293
							c4.633-2.674,8.389-9.183,8.374-14.511c-0.007-2.526-0.857-4.404-2.394-5.288c-0.628-0.362-1.343-0.542-2.119-0.542
							c-1.133,0-2.395,0.383-3.707,1.141c-4.637,2.676-8.395,9.188-8.38,14.514c0.007,2.525,0.857,4.403,2.393,5.287
							c0.836,0.484,1.834,0.615,2.919,0.456l-0.118,0.448C279.529,255.283,279.298,255.311,279.077,255.311z"/>
						<path style="fill:#D79E5A;" d="M280.587,248.086c-0.623-0.357-0.967-1.105-0.969-2.104c-0.005-2.035,1.43-4.52,3.199-5.542
							c0.874-0.502,1.7-0.583,2.326-0.223c0.622,0.358,0.966,1.106,0.968,2.105c0.006,2.033-1.427,4.519-3.195,5.54
							c-0.144,0.083-0.282,0.127-0.423,0.187l0.009-0.166c0.112-0.051,0.221-0.091,0.335-0.157c1.725-0.995,3.125-3.42,3.119-5.405
							c-0.002-0.941-0.319-1.641-0.891-1.969c-0.235-0.135-0.501-0.202-0.79-0.202c-0.422,0-0.892,0.142-1.381,0.425
							c-1.726,0.995-3.128,3.422-3.123,5.406c0.004,0.941,0.32,1.64,0.892,1.969c0.282,0.163,0.611,0.224,0.97,0.192
							C281.138,248.309,280.846,248.236,280.587,248.086z"/>
						<path style="fill:#D79E5A;" d="M282.732,232.78c2.671-1.542,5.197-1.789,7.114-0.686c1.902,1.094,2.954,3.38,2.964,6.437
							c0.018,6.237-4.381,13.858-9.805,16.99c-0.32,0.184-0.635,0.337-0.949,0.484l0.028-0.514c0.239-0.117,0.47-0.191,0.712-0.331
							c5.309-3.066,9.614-10.525,9.597-16.629c-0.008-2.902-0.986-5.06-2.754-6.078c-0.724-0.416-1.547-0.623-2.44-0.623
							c-1.302,0-2.751,0.439-4.257,1.309c-5.313,3.067-9.62,10.528-9.603,16.632c0.008,2.902,0.986,5.06,2.754,6.077
							c0.967,0.557,2.121,0.704,3.373,0.519l-0.12,0.456c-0.275,0.034-0.55,0.066-0.815,0.066c-0.965,0-1.858-0.226-2.647-0.68
							c-1.901-1.094-2.953-3.38-2.962-6.436C272.902,243.538,277.304,235.914,282.732,232.78z"/>
						<path style="fill:#D79E5A;" d="M282.099,246.38l-0.046,0.174c-0.182-0.001-0.353-0.042-0.504-0.129
							c-0.365-0.211-0.568-0.646-0.569-1.229c-0.002-1.17,0.823-2.601,1.84-3.189c0.509-0.293,0.991-0.337,1.361-0.127
							c0.365,0.211,0.567,0.648,0.568,1.229c0.004,1.17-0.821,2.601-1.839,3.188c-0.114,0.066-0.215,0.058-0.326,0.099
							c0.089-0.183,0.163-0.186,0.247-0.234c0.975-0.562,1.767-1.931,1.763-3.052c-0.001-0.523-0.176-0.912-0.491-1.094
							c-0.129-0.075-0.275-0.112-0.434-0.112c-0.235,0-0.498,0.081-0.771,0.239c-0.975,0.562-1.767,1.933-1.764,3.054
							c0.002,0.524,0.177,0.912,0.492,1.094C281.762,246.369,281.927,246.385,282.099,246.38z"/>
						<path style="fill:#D79E5A;" d="M279.715,253.431c-0.705,0-1.357-0.165-1.934-0.497c-1.389-0.799-2.158-2.467-2.164-4.697
							c-0.013-4.539,3.19-10.087,7.141-12.367c1.948-1.126,3.791-1.303,5.191-0.498c1.389,0.8,2.158,2.468,2.164,4.697
							c0.013,4.539-3.188,10.086-7.136,12.365c-0.253,0.146-0.494,0.215-0.743,0.329l0.021-0.373
							c0.184-0.089,0.362-0.148,0.549-0.255c3.852-2.224,6.976-7.637,6.963-12.066c-0.006-2.1-0.713-3.661-1.991-4.397
							c-0.523-0.301-1.116-0.45-1.762-0.45c-0.942,0-1.992,0.318-3.082,0.947c-3.854,2.226-6.981,7.639-6.967,12.068
							c0.006,2.1,0.713,3.662,1.991,4.397c0.686,0.398,1.505,0.51,2.394,0.385l-0.086,0.325
							C280.082,253.364,279.889,253.431,279.715,253.431z"/>
						<path style="fill:#D79E5A;" d="M280.576,250.895c-0.512,0-0.987-0.12-1.406-0.362c-1.01-0.58-1.567-1.791-1.572-3.412
							c-0.01-3.297,2.318-7.33,5.188-8.987c1.42-0.821,2.757-0.947,3.773-0.362c1.008,0.581,1.567,1.792,1.572,3.413
							c0.009,3.298-2.316,7.328-5.185,8.985c-0.199,0.115-0.389,0.172-0.584,0.259l0.015-0.27c0.148-0.071,0.293-0.12,0.444-0.207
							c2.799-1.616,5.068-5.549,5.059-8.767c-0.004-1.525-0.518-2.661-1.446-3.195c-0.38-0.218-0.813-0.327-1.281-0.327
							c-0.685,0-1.448,0.231-2.24,0.689c-2.801,1.617-5.072,5.551-5.062,8.769c0.005,1.525,0.518,2.66,1.446,3.194
							c0.487,0.282,1.061,0.373,1.688,0.294l-0.061,0.231C280.809,250.85,280.687,250.895,280.576,250.895z"/>
					</g>
				</g>
			</g>
			<g>
				<g>
					<g style="enable-background:new    ;">
						<path style="fill:#9B6C38;" d="M230.367,263.288c0,0,2.526,1.51,2.526,1.785l-2.779,14.721l-13.514-7.802L230.367,263.288z"/>
						
							<linearGradient id="SVGID_00000059270803687073112060000002456832985133563010_" gradientUnits="userSpaceOnUse" x1="547.0911" y1="202.5429" x2="563.7321" y2="231.366" gradientTransform="matrix(-1 0 0 1 701.1688 0)">
							<stop  offset="0" style="stop-color:#714939"/>
							<stop  offset="0.5165" style="stop-color:#654133"/>
							<stop  offset="1" style="stop-color:#55372B"/>
						</linearGradient>
						<path style="fill:url(#SVGID_00000059270803687073112060000002456832985133563010_);" d="M59.228,170.327
							c1.118-2.531,2.651-4.949,4.448-6.995c1.516-1.726,3.22-3.187,5.021-4.227c3.19-1.841,6.078-2.006,8.171-0.798
							c28.586,16.504,61.668,35.967,68.664,40.255c2.648,1.623,47.237,27.084,58.379,32.836c8.727,4.957,16.871,9.597,22.274,12.878
							c4.425,2.687,12.9,7.85,12.9,7.85c-0.026,0.045-16.224,27.929-16.274,28.015c-0.002,0.004-10.24-5.926-10.24-5.926
							c-18.307-9.094-18.073-11.081-31.345-18.266l-62.917-36.331c-0.001-0.001-57.718-33.296-57.715-33.294
							c-2.063-1.199-3.343-3.749-3.353-7.373C57.232,176.18,57.966,173.182,59.228,170.327z"/>
						<path style="fill:#493025;" d="M230.915,252.923c6.34-3.661,11.504-0.718,11.525,6.576c0.021,7.294-5.109,16.18-11.45,19.841
							c-0.296,0.171-0.586,0.312-0.876,0.454l0.744-13.507l-3.827,14.516c-4.401,0.682-7.557-2.342-7.573-8.036
							C219.437,265.473,224.567,256.588,230.915,252.923z"/>
						<path style="fill:#C98E47;" d="M230.977,253.702c6.091-3.517,11.051-0.69,11.071,6.318c0.02,7.007-4.908,15.543-10.999,19.06
							c-0.311,0.18-0.617,0.332-0.922,0.479l0.73-13.27l-3.749,14.22c-4.157,0.572-7.123-2.33-7.139-7.742
							C219.95,265.759,224.878,257.223,230.977,253.702z"/>
					</g>
					<g>
						<path style="fill:#D79E5A;" d="M227.221,277.551c-0.848,0-1.632-0.198-2.327-0.597c-1.67-0.962-2.595-2.967-2.603-5.648
							c-0.016-5.461,3.838-12.134,8.588-14.876c2.345-1.356,4.565-1.567,6.244-0.6c1.67,0.961,2.595,2.967,2.603,5.648
							c0.015,5.461-3.835,12.132-8.583,14.873c-0.291,0.168-0.578,0.309-0.865,0.442l0.028-0.51c0.211-0.104,0.415-0.17,0.628-0.293
							c4.633-2.674,8.389-9.183,8.374-14.511c-0.007-2.526-0.857-4.404-2.394-5.288c-0.628-0.362-1.343-0.542-2.119-0.542
							c-1.133,0-2.395,0.383-3.707,1.141c-4.637,2.677-8.395,9.188-8.38,14.515c0.007,2.525,0.857,4.402,2.393,5.287
							c0.836,0.483,1.834,0.614,2.919,0.455l-0.118,0.448C227.673,277.523,227.443,277.551,227.221,277.551z"/>
						<path style="fill:#D79E5A;" d="M228.731,270.326c-0.623-0.357-0.967-1.105-0.969-2.104c-0.005-2.035,1.43-4.52,3.199-5.542
							c0.874-0.502,1.7-0.583,2.327-0.223c0.622,0.358,0.966,1.106,0.968,2.105c0.006,2.033-1.427,4.519-3.195,5.54
							c-0.144,0.083-0.282,0.127-0.423,0.187l0.009-0.166c0.111-0.051,0.221-0.091,0.335-0.157c1.725-0.995,3.125-3.421,3.119-5.405
							c-0.002-0.941-0.319-1.641-0.891-1.969c-0.235-0.135-0.501-0.202-0.79-0.202c-0.422,0-0.892,0.142-1.381,0.425
							c-1.727,0.995-3.128,3.422-3.123,5.406c0.004,0.941,0.32,1.64,0.892,1.97c0.282,0.163,0.611,0.224,0.97,0.192
							C229.282,270.549,228.99,270.475,228.731,270.326z"/>
						<path style="fill:#D79E5A;" d="M230.876,255.02c2.671-1.543,5.196-1.789,7.114-0.686c1.902,1.094,2.954,3.38,2.964,6.437
							c0.018,6.237-4.382,13.858-9.806,16.991c-0.319,0.184-0.634,0.337-0.948,0.484l0.028-0.514
							c0.238-0.118,0.47-0.192,0.711-0.331c5.309-3.066,9.615-10.525,9.597-16.629c-0.008-2.902-0.986-5.06-2.754-6.078
							c-0.724-0.416-1.547-0.623-2.44-0.623c-1.301,0-2.751,0.439-4.257,1.309c-5.313,3.067-9.621,10.528-9.603,16.632
							c0.008,2.902,0.986,5.06,2.753,6.077c0.967,0.556,2.121,0.705,3.374,0.519l-0.12,0.455c-0.275,0.034-0.55,0.066-0.815,0.066
							c-0.964,0-1.858-0.226-2.647-0.68c-1.9-1.094-2.953-3.38-2.962-6.437C221.047,265.777,225.449,258.153,230.876,255.02z"/>
						<path style="fill:#D79E5A;" d="M230.243,268.62l-0.046,0.174c-0.182-0.001-0.353-0.042-0.504-0.129
							c-0.365-0.211-0.568-0.647-0.569-1.229c-0.002-1.17,0.823-2.6,1.84-3.189c0.509-0.293,0.991-0.337,1.361-0.127
							c0.365,0.211,0.567,0.648,0.568,1.229c0.004,1.17-0.821,2.601-1.839,3.188c-0.115,0.066-0.215,0.059-0.326,0.099
							c0.09-0.183,0.164-0.186,0.247-0.235c0.975-0.562,1.766-1.931,1.763-3.053c-0.001-0.523-0.176-0.912-0.491-1.094
							c-0.129-0.075-0.275-0.112-0.434-0.112c-0.235,0-0.498,0.081-0.771,0.238c-0.975,0.562-1.766,1.933-1.764,3.054
							c0.002,0.524,0.177,0.913,0.492,1.094C229.906,268.609,230.071,268.625,230.243,268.62z"/>
						<path style="fill:#D79E5A;" d="M227.859,275.671c-0.705,0-1.357-0.165-1.934-0.497c-1.389-0.799-2.158-2.467-2.164-4.697
							c-0.013-4.539,3.19-10.087,7.141-12.367c1.948-1.126,3.79-1.303,5.191-0.498c1.389,0.799,2.158,2.467,2.164,4.697
							c0.013,4.539-3.188,10.086-7.136,12.365c-0.253,0.146-0.494,0.215-0.743,0.329l0.02-0.373
							c0.184-0.089,0.362-0.148,0.549-0.256c3.852-2.224,6.976-7.637,6.963-12.066c-0.006-2.1-0.713-3.661-1.991-4.397
							c-0.523-0.301-1.116-0.45-1.762-0.45c-0.942,0-1.992,0.318-3.082,0.947c-3.855,2.226-6.981,7.639-6.968,12.068
							c0.006,2.1,0.713,3.662,1.991,4.397c0.687,0.398,1.505,0.51,2.394,0.386l-0.086,0.325
							C228.227,275.604,228.034,275.671,227.859,275.671z"/>
						<path style="fill:#D79E5A;" d="M228.721,273.134c-0.512,0-0.987-0.12-1.406-0.362c-1.01-0.58-1.567-1.792-1.572-3.412
							c-0.01-3.297,2.318-7.33,5.188-8.987c1.42-0.821,2.757-0.947,3.773-0.362c1.008,0.581,1.567,1.793,1.572,3.413
							c0.009,3.298-2.316,7.328-5.185,8.984c-0.199,0.115-0.389,0.172-0.585,0.259l0.015-0.271c0.148-0.071,0.293-0.12,0.444-0.207
							c2.799-1.616,5.069-5.549,5.059-8.766c-0.005-1.526-0.518-2.661-1.446-3.195c-0.38-0.218-0.813-0.328-1.281-0.328
							c-0.685,0-1.447,0.231-2.24,0.689c-2.801,1.617-5.072,5.551-5.063,8.769c0.005,1.526,0.518,2.66,1.446,3.194
							c0.486,0.282,1.061,0.373,1.688,0.294l-0.061,0.231C228.953,273.09,228.831,273.134,228.721,273.134z"/>
					</g>
				</g>
			</g>
			<g>
				<g>
					<g style="enable-background:new    ;">
						<path style="fill:#9B6C38;" d="M280.34,202.462c0,0,2.526,1.51,2.526,1.785l-2.779,14.721l-13.514-7.802L280.34,202.462z"/>
						
							<linearGradient id="SVGID_00000047776469454897562140000018341865216983517825_" gradientUnits="userSpaceOnUse" x1="497.1182" y1="141.7172" x2="513.7593" y2="170.5404" gradientTransform="matrix(-1 0 0 1 701.1688 0)">
							<stop  offset="0" style="stop-color:#714939"/>
							<stop  offset="0.5165" style="stop-color:#654133"/>
							<stop  offset="1" style="stop-color:#55372B"/>
						</linearGradient>
						<path style="fill:url(#SVGID_00000047776469454897562140000018341865216983517825_);" d="M109.201,109.502
							c1.118-2.531,2.651-4.949,4.448-6.995c1.516-1.726,3.219-3.187,5.021-4.227c3.19-1.842,6.078-2.006,8.171-0.798
							c28.586,16.504,61.668,35.967,68.664,40.254c2.648,1.623,47.236,27.084,58.379,32.836c8.727,4.957,16.871,9.598,22.274,12.878
							c4.425,2.687,12.9,7.85,12.9,7.85c-0.026,0.045-16.224,27.929-16.274,28.016c-0.002,0.004-10.24-5.926-10.24-5.926
							c-18.307-9.094-18.073-11.081-31.345-18.266l-62.917-36.332c0,0-57.718-33.296-57.715-33.294
							c-2.063-1.199-3.343-3.749-3.353-7.373C107.205,115.355,107.939,112.356,109.201,109.502z"/>
						<path style="fill:#493025;" d="M280.888,192.097c6.34-3.661,11.504-0.718,11.525,6.576c0.021,7.295-5.109,16.18-11.45,19.841
							c-0.295,0.171-0.586,0.313-0.876,0.455l0.744-13.507l-3.827,14.516c-4.401,0.682-7.557-2.342-7.573-8.036
							C269.41,204.648,274.54,195.762,280.888,192.097z"/>
						<path style="fill:#C98E47;" d="M280.95,192.876c6.091-3.517,11.051-0.69,11.071,6.318c0.02,7.008-4.908,15.544-10.999,19.06
							c-0.311,0.18-0.617,0.332-0.922,0.479l0.73-13.271l-3.749,14.22c-4.157,0.573-7.123-2.33-7.139-7.741
							C269.923,204.933,274.851,196.397,280.95,192.876z"/>
					</g>
					<g>
						<path style="fill:#D79E5A;" d="M277.194,216.725c-0.848,0-1.632-0.198-2.327-0.597c-1.67-0.962-2.595-2.967-2.603-5.647
							c-0.016-5.461,3.838-12.134,8.588-14.876c2.346-1.356,4.565-1.567,6.244-0.6c1.67,0.961,2.595,2.967,2.603,5.649
							c0.015,5.461-3.835,12.132-8.583,14.873c-0.291,0.168-0.579,0.309-0.865,0.442l0.028-0.51c0.211-0.104,0.415-0.17,0.628-0.293
							c4.633-2.674,8.389-9.183,8.374-14.511c-0.007-2.526-0.857-4.404-2.394-5.288c-0.628-0.362-1.343-0.542-2.119-0.542
							c-1.133,0-2.396,0.383-3.707,1.141c-4.637,2.676-8.395,9.188-8.38,14.514c0.007,2.525,0.857,4.403,2.393,5.287
							c0.836,0.484,1.835,0.615,2.919,0.456l-0.118,0.448C277.646,216.697,277.415,216.725,277.194,216.725z"/>
						<path style="fill:#D79E5A;" d="M278.704,209.5c-0.623-0.357-0.967-1.105-0.969-2.104c-0.005-2.035,1.43-4.52,3.198-5.542
							c0.875-0.502,1.7-0.583,2.327-0.223c0.622,0.358,0.966,1.106,0.968,2.105c0.006,2.033-1.427,4.519-3.195,5.54
							c-0.144,0.083-0.282,0.127-0.423,0.187l0.009-0.166c0.112-0.051,0.221-0.091,0.335-0.157c1.725-0.995,3.125-3.42,3.119-5.405
							c-0.002-0.941-0.319-1.641-0.891-1.969c-0.235-0.135-0.501-0.202-0.79-0.202c-0.422,0-0.892,0.142-1.381,0.425
							c-1.726,0.995-3.127,3.422-3.122,5.406c0.004,0.941,0.32,1.639,0.892,1.969c0.282,0.163,0.611,0.224,0.97,0.192
							C279.255,209.723,278.963,209.65,278.704,209.5z"/>
						<path style="fill:#D79E5A;" d="M280.849,194.194c2.671-1.542,5.196-1.789,7.114-0.686c1.902,1.094,2.954,3.38,2.964,6.438
							c0.018,6.237-4.382,13.858-9.806,16.99c-0.319,0.184-0.634,0.337-0.949,0.484l0.029-0.514c0.238-0.117,0.47-0.191,0.711-0.331
							c5.309-3.065,9.615-10.525,9.597-16.628c-0.008-2.902-0.986-5.06-2.754-6.078c-0.724-0.416-1.547-0.623-2.44-0.623
							c-1.301,0-2.751,0.439-4.257,1.309c-5.313,3.067-9.621,10.528-9.603,16.632c0.008,2.902,0.986,5.06,2.754,6.077
							c0.967,0.557,2.121,0.704,3.373,0.519l-0.12,0.455c-0.275,0.034-0.55,0.066-0.815,0.066c-0.964,0-1.858-0.225-2.647-0.68
							c-1.901-1.094-2.953-3.38-2.962-6.436C271.02,204.951,275.421,197.328,280.849,194.194z"/>
						<path style="fill:#D79E5A;" d="M280.216,207.794l-0.046,0.174c-0.182-0.001-0.353-0.042-0.504-0.129
							c-0.365-0.211-0.568-0.646-0.569-1.229c-0.002-1.17,0.823-2.601,1.84-3.189c0.509-0.293,0.991-0.337,1.361-0.127
							c0.365,0.211,0.567,0.648,0.568,1.229c0.003,1.17-0.821,2.6-1.839,3.188c-0.115,0.066-0.215,0.058-0.326,0.099
							c0.09-0.183,0.164-0.186,0.247-0.234c0.975-0.562,1.766-1.931,1.763-3.053c-0.001-0.523-0.176-0.912-0.491-1.094
							c-0.129-0.075-0.275-0.112-0.434-0.112c-0.235,0-0.498,0.081-0.771,0.239c-0.975,0.562-1.766,1.933-1.764,3.054
							c0.002,0.524,0.177,0.912,0.492,1.094C279.879,207.783,280.044,207.799,280.216,207.794z"/>
						<path style="fill:#D79E5A;" d="M277.832,214.845c-0.705,0-1.357-0.165-1.934-0.497c-1.389-0.799-2.158-2.467-2.164-4.697
							c-0.013-4.539,3.19-10.087,7.141-12.367c1.948-1.126,3.79-1.303,5.19-0.498c1.389,0.8,2.158,2.468,2.164,4.697
							c0.013,4.539-3.188,10.086-7.136,12.365c-0.253,0.146-0.494,0.215-0.743,0.329l0.02-0.373
							c0.184-0.089,0.362-0.148,0.549-0.255c3.852-2.225,6.976-7.637,6.963-12.066c-0.006-2.1-0.713-3.661-1.991-4.397
							c-0.523-0.301-1.116-0.45-1.762-0.45c-0.942,0-1.992,0.318-3.082,0.947c-3.855,2.226-6.981,7.639-6.968,12.068
							c0.006,2.1,0.713,3.662,1.991,4.397c0.687,0.398,1.505,0.51,2.394,0.385l-0.086,0.325
							C278.199,214.778,278.006,214.845,277.832,214.845z"/>
						<path style="fill:#D79E5A;" d="M278.693,212.308c-0.512,0-0.987-0.12-1.406-0.362c-1.01-0.58-1.567-1.791-1.572-3.412
							c-0.01-3.297,2.318-7.33,5.188-8.987c1.42-0.821,2.757-0.947,3.772-0.362c1.009,0.581,1.568,1.793,1.572,3.413
							c0.01,3.298-2.316,7.328-5.185,8.985c-0.199,0.115-0.389,0.172-0.584,0.259l0.015-0.27c0.148-0.071,0.293-0.12,0.444-0.207
							c2.799-1.616,5.069-5.549,5.059-8.766c-0.005-1.525-0.518-2.661-1.446-3.195c-0.379-0.218-0.813-0.327-1.281-0.327
							c-0.685,0-1.447,0.231-2.24,0.689c-2.801,1.617-5.072,5.551-5.063,8.769c0.005,1.525,0.518,2.66,1.446,3.194
							c0.486,0.282,1.061,0.373,1.688,0.294l-0.061,0.231C278.926,212.264,278.804,212.308,278.693,212.308z"/>
					</g>
				</g>
			</g>
			<g>
				
					<linearGradient id="SVGID_00000008857349821845256730000013270268059843948467_" gradientUnits="userSpaceOnUse" x1="511.9561" y1="168.6965" x2="522.4075" y2="186.7988" gradientTransform="matrix(-1 0 0 1 701.1688 0)">
					<stop  offset="0" style="stop-color:#714939"/>
					<stop  offset="0.5165" style="stop-color:#654133"/>
					<stop  offset="1" style="stop-color:#55372B"/>
				</linearGradient>
				<path style="fill:url(#SVGID_00000008857349821845256730000013270268059843948467_);" d="M96.949,129.683
					c0.707-1.6,1.676-3.129,2.812-4.423c0.959-1.091,2.036-2.015,3.175-2.672c2.017-1.164,3.843-1.268,5.166-0.505
					c18.073,10.435,38.989,22.74,43.413,25.451c0.545,0.334,6.337,3.672,14.146,8.149c6.794,3.895,15.114,8.652,22.832,13.041
					c10.664,6.065,61.764,35.438,64.52,36.86c5.518,3.134,10.667,6.068,14.083,8.142c2.798,1.699,8.156,4.964,8.156,4.964
					c-0.016,0.028-10.258,17.658-10.289,17.713c-0.001,0.002-6.475-3.747-6.475-3.747c-5.994-2.978-63.408-36.813-78.677-45.822
					c-14.214-8.386-27.676-15.553-31.722-17.743l-13.788-8.245c0,0-36.492-21.051-36.49-21.05c-1.305-0.758-2.114-2.37-2.12-4.661
					C95.687,133.384,96.152,131.488,96.949,129.683z"/>
				<path style="fill:#493025;" d="M270.087,219.194c4.009-2.314,7.273-0.454,7.286,4.158c0.013,4.612-3.23,10.23-7.239,12.544
					c-4.014,2.317-7.278,0.457-7.291-4.155C262.83,227.129,266.074,221.512,270.087,219.194z"/>
				<path style="fill:#C98E47;" d="M270.127,219.687c3.851-2.224,6.987-0.436,7,3.994c0.013,4.431-3.103,9.827-6.954,12.051
					c-3.856,2.226-6.992,0.439-7.004-3.992C263.155,227.31,266.271,221.913,270.127,219.687z"/>
				<g>
					<g>
						<path style="fill:#D79E5A;" d="M267.408,235.764c-0.612,0-1.175-0.144-1.673-0.428c-1.204-0.695-1.869-2.139-1.875-4.072
							c-0.012-3.944,2.772-8.763,6.205-10.743c1.688-0.976,3.284-1.134,4.494-0.437c1.204,0.691,1.869,2.139,1.875,4.072
							c0.012,3.946-2.768,8.766-6.202,10.743C269.239,235.474,268.278,235.764,267.408,235.764z M272.89,219.92
							c-0.823,0-1.74,0.278-2.692,0.829c-3.36,1.939-6.085,6.656-6.073,10.515c0.006,1.834,0.624,3.199,1.743,3.844
							c1.125,0.642,2.625,0.495,4.236-0.437c3.357-1.936,6.079-6.653,6.068-10.515c-0.006-1.834-0.624-3.199-1.743-3.844
							C273.971,220.052,273.452,219.92,272.89,219.92z"/>
					</g>
					<g>
						<path style="fill:#D79E5A;" d="M268.155,233.599c-0.448,0-0.864-0.106-1.234-0.317c-0.885-0.51-1.374-1.57-1.38-2.988
							c-0.009-2.877,2.021-6.392,4.526-7.84c1.242-0.718,2.414-0.829,3.305-0.313c0.885,0.51,1.374,1.57,1.38,2.988
							c0.006,2.877-2.024,6.393-4.526,7.837C269.5,233.388,268.794,233.599,268.155,233.599z M270.197,222.683
							c-2.429,1.403-4.4,4.82-4.391,7.611c0.003,1.318,0.448,2.3,1.248,2.76c0.8,0.46,1.887,0.358,3.041-0.316
							c2.428-1.403,4.4-4.816,4.394-7.609c-0.003-1.318-0.448-2.3-1.248-2.76C272.433,221.901,271.358,222.018,270.197,222.683z"/>
					</g>
					<g>
						<path style="fill:#D79E5A;" d="M268.7,231.973c-0.325,0-0.624-0.076-0.891-0.229c-0.638-0.366-0.99-1.134-0.993-2.156
							c-0.006-2.083,1.468-4.635,3.281-5.684c0.899-0.515,1.746-0.598,2.385-0.228c0.639,0.366,0.99,1.134,0.993,2.159
							c0.006,2.086-1.465,4.635-3.275,5.68C269.673,231.818,269.16,231.973,268.7,231.973z M271.595,223.606
							c-0.434,0-0.914,0.147-1.415,0.439c-1.772,1.022-3.211,3.51-3.205,5.543c0.003,0.964,0.328,1.682,0.914,2.018
							c0.592,0.34,1.386,0.261,2.23-0.231c1.769-1.02,3.205-3.504,3.199-5.54c-0.003-0.967-0.328-1.685-0.914-2.021
							C272.163,223.676,271.891,223.606,271.595,223.606z"/>
					</g>
					<g>
						<path style="fill:#D79E5A;" d="M269.342,230.121c-0.188,0-0.36-0.044-0.513-0.132c-0.366-0.211-0.571-0.65-0.571-1.234
							c-0.003-1.172,0.823-2.607,1.843-3.199c0.51-0.293,0.996-0.343,1.365-0.123c0.366,0.211,0.571,0.647,0.571,1.231
							c0.003,1.175-0.823,2.607-1.843,3.199C269.896,230.033,269.605,230.121,269.342,230.121z M270.183,225.697
							c-0.979,0.563-1.77,1.937-1.767,3.059c0.003,0.524,0.176,0.914,0.492,1.096c0.322,0.185,0.75,0.138,1.204-0.129
							c0.979-0.563,1.77-1.936,1.767-3.059c-0.003-0.524-0.176-0.911-0.492-1.093C271.07,225.384,270.64,225.428,270.183,225.697z"
							/>
					</g>
					<g>
						<path style="fill:#D79E5A;" d="M269.743,228.952c-0.1,0-0.19-0.024-0.272-0.07c-0.197-0.114-0.305-0.343-0.305-0.65
							c-0.003-0.598,0.419-1.327,0.938-1.629c0.269-0.152,0.527-0.173,0.721-0.061c0.197,0.112,0.305,0.343,0.305,0.648
							c0,0.598-0.422,1.33-0.938,1.629C270.033,228.905,269.884,228.952,269.743,228.952z M270.549,226.629
							c-0.111,0-0.234,0.038-0.363,0.114c-0.477,0.272-0.864,0.941-0.861,1.488c0,0.246,0.079,0.428,0.226,0.513
							c0.141,0.082,0.343,0.062,0.559-0.064c0.475-0.275,0.862-0.943,0.862-1.491c-0.003-0.246-0.082-0.428-0.226-0.51
							C270.686,226.647,270.619,226.629,270.549,226.629z"/>
					</g>
				</g>
			</g>
			<g>
				<g>
					<g style="enable-background:new    ;">
						
							<linearGradient id="SVGID_00000029750276384840364810000014070828783807125417_" gradientUnits="userSpaceOnUse" x1="531.4554" y1="172.3959" x2="549.0988" y2="202.9551" gradientTransform="matrix(-1 0 0 1 701.1688 0)">
							<stop  offset="0" style="stop-color:#714939"/>
							<stop  offset="0.5165" style="stop-color:#654133"/>
							<stop  offset="1" style="stop-color:#55372B"/>
						</linearGradient>
						<path style="fill:url(#SVGID_00000029750276384840364810000014070828783807125417_);" d="M73.137,140.541
							c1.186-2.684,2.81-5.247,4.716-7.417c1.607-1.83,3.413-3.379,5.324-4.482c3.382-1.952,6.444-2.127,8.663-0.846
							c30.307,17.498,65.382,38.133,72.8,42.679c2.808,1.721,42.109,24.112,53.923,30.211c9.253,5.256,17.888,10.176,23.616,13.653
							c4.692,2.849,13.678,8.324,13.678,8.324c-0.028,0.048-17.201,29.611-17.255,29.703c-0.002,0.004-10.857-6.284-10.857-6.284
							c-19.41-9.641-19.161-11.748-33.233-19.366l-58.735-33.917c0,0-61.195-35.302-61.191-35.299
							c-2.188-1.271-3.544-3.975-3.555-7.817C71.02,146.747,71.799,143.568,73.137,140.541z"/>
						<path style="fill:#493025;" d="M247.193,223.509c6.722-3.881,12.197-0.761,12.219,6.973
							c0.022,7.734-5.417,17.155-12.139,21.036c-6.73,3.886-12.205,0.766-12.227-6.968
							C235.023,236.815,240.462,227.395,247.193,223.509z"/>
						<path style="fill:#C98E47;" d="M247.258,224.335c6.458-3.728,11.717-0.731,11.738,6.698
							c0.021,7.429-5.204,16.48-11.662,20.208c-6.466,3.733-11.725,0.736-11.746-6.694
							C235.567,237.118,240.792,228.068,247.258,224.335z"/>
					</g>
					<g>
						<g>
							<path style="fill:#D79E5A;" d="M242.696,251.294c-1.023,0-1.969-0.24-2.807-0.721c-2.016-1.16-3.129-3.583-3.138-6.823
								c-0.02-6.612,4.644-14.696,10.397-18.018c2.833-1.643,5.517-1.904,7.544-0.727c2.018,1.16,3.132,3.583,3.141,6.823
								c0.017,6.612-4.644,14.693-10.395,18.015C245.77,250.808,244.155,251.294,242.696,251.294z M247.372,226.114
								c-5.634,3.255-10.198,11.165-10.18,17.637c0.009,3.073,1.046,5.361,2.918,6.439c1.884,1.084,4.409,0.832,7.108-0.727
								c5.628-3.252,10.195-11.162,10.178-17.634c-0.009-3.073-1.046-5.361-2.921-6.439
								C252.59,224.306,250.067,224.561,247.372,226.114z"/>
						</g>
						<g>
							<path style="fill:#D79E5A;" d="M243.276,249.621c-0.899,0-1.731-0.211-2.467-0.633c-1.772-1.02-2.751-3.147-2.76-5.991
								c-0.015-5.786,4.07-12.861,9.106-15.77c2.487-1.433,4.834-1.664,6.618-0.636c1.773,1.02,2.751,3.147,2.76,5.991
								c0.017,5.789-4.063,12.861-9.097,15.765C245.972,249.193,244.557,249.621,243.276,249.621z M247.378,227.608
								c-4.916,2.842-8.903,9.744-8.889,15.39c0.009,2.678,0.911,4.67,2.54,5.607c1.649,0.949,3.838,0.715,6.185-0.639
								c4.913-2.836,8.897-9.735,8.88-15.384c-0.009-2.68-0.911-4.673-2.54-5.61C251.913,226.037,249.725,226.257,247.378,227.608z"
								/>
						</g>
						<g>
							<path style="fill:#D79E5A;" d="M243.953,247.626c-0.747,0-1.438-0.173-2.051-0.524c-1.474-0.85-2.288-2.616-2.297-4.981
								c-0.012-4.811,3.387-10.696,7.573-13.113c2.068-1.192,4.022-1.386,5.505-0.527c1.471,0.847,2.285,2.613,2.294,4.978
								c0.015,4.811-3.381,10.693-7.567,13.11C246.194,247.272,245.017,247.626,243.953,247.626z M247.36,229.324
								c-4.084,2.361-7.397,8.101-7.386,12.797c0.006,2.227,0.756,3.882,2.112,4.661c1.368,0.788,3.19,0.592,5.142-0.53
								c4.084-2.359,7.394-8.098,7.38-12.794c-0.006-2.227-0.756-3.882-2.11-4.661C251.134,228.012,249.311,228.199,247.36,229.324z
								"/>
						</g>
						<g>
							<path style="fill:#D79E5A;" d="M244.864,244.937c-0.542,0-1.043-0.126-1.488-0.381c-1.069-0.615-1.664-1.901-1.67-3.618
								c-0.009-3.498,2.461-7.773,5.502-9.527c1.512-0.873,2.926-1.002,4.002-0.387c1.07,0.615,1.661,1.901,1.667,3.618
								c0.009,3.498-2.458,7.773-5.499,9.527C246.493,244.682,245.638,244.937,244.864,244.937z M249.719,230.909
								c-0.727,0-1.535,0.246-2.376,0.73c-2.968,1.714-5.376,5.886-5.367,9.299c0.003,1.617,0.551,2.821,1.535,3.387
								c0.99,0.571,2.317,0.434,3.733-0.384c2.968-1.714,5.373-5.886,5.364-9.299c-0.003-1.617-0.548-2.821-1.529-3.387
								C250.674,231.024,250.217,230.909,249.719,230.909z"/>
						</g>
						<g>
							<path style="fill:#D79E5A;" d="M245.796,242.197c-0.334,0-0.645-0.079-0.917-0.234c-0.662-0.381-1.025-1.172-1.028-2.233
								c-0.006-2.156,1.515-4.79,3.39-5.874c0.932-0.542,1.805-0.612,2.467-0.24c0.659,0.381,1.025,1.175,1.028,2.233
								c0.006,2.156-1.514,4.79-3.389,5.874C246.801,242.039,246.273,242.197,245.796,242.197z M248.787,233.546
								c-0.448,0-0.946,0.152-1.465,0.451c-1.828,1.057-3.313,3.63-3.307,5.733c0.003,0.996,0.34,1.74,0.946,2.089
								c0.604,0.352,1.43,0.264,2.303-0.237c1.828-1.057,3.314-3.63,3.308-5.733c-0.003-0.996-0.34-1.74-0.947-2.089
								C249.376,233.616,249.095,233.546,248.787,233.546z"/>
						</g>
						<g>
							<path style="fill:#D79E5A;" d="M246.44,240.337c-0.199,0-0.381-0.044-0.542-0.138c-0.387-0.223-0.603-0.685-0.603-1.304
								c-0.006-1.239,0.87-2.757,1.951-3.381c0.539-0.308,1.051-0.361,1.441-0.135c0.387,0.223,0.604,0.686,0.604,1.304
								c0.003,1.242-0.873,2.757-1.951,3.378C247.023,240.246,246.719,240.337,246.44,240.337z M247.328,235.655
								c-1.037,0.601-1.875,2.051-1.869,3.24c0.003,0.557,0.188,0.967,0.521,1.16c0.331,0.197,0.788,0.147,1.277-0.135
								c1.034-0.598,1.872-2.048,1.869-3.237c-0.003-0.557-0.188-0.967-0.521-1.16C248.26,235.324,247.811,235.377,247.328,235.655z
								"/>
						</g>
					</g>
				</g>
				<polygon style="fill:#B77B49;" points="247.193,223.509 247.292,237.514 245.655,224.51 207.857,200.694 				"/>
			</g>
			<g>
				<g>
					<g style="enable-background:new    ;">
						
							<linearGradient id="SVGID_00000036952339315374576410000006019796110165805739_" gradientUnits="userSpaceOnUse" x1="518.3757" y1="146.0115" x2="533.7828" y2="172.6973" gradientTransform="matrix(-1 0 0 1 701.1688 0)">
							<stop  offset="0" style="stop-color:#714939"/>
							<stop  offset="0.5165" style="stop-color:#654133"/>
							<stop  offset="1" style="stop-color:#55372B"/>
						</linearGradient>
						<path style="fill:url(#SVGID_00000036952339315374576410000006019796110165805739_);" d="M88.809,112.624
							c1.036-2.343,2.455-4.583,4.118-6.477c0.487-0.555,0.996-1.081,1.522-1.571l4.49,2.593l-1.363-4.936
							c2.953-1.705,5.627-1.857,7.565-0.739c26.466,15.28,40.1,23.488,46.578,27.458c2.452,1.502,5.234,2.847,15.55,8.173
							c8.08,4.589,83.45,48.047,88.452,51.084c4.097,2.488,11.944,7.268,11.944,7.268c-0.024,0.042-15.021,25.858-15.068,25.938
							c-0.002,0.004-9.481-5.487-9.481-5.487c-16.949-8.419-84.562-49.421-96.851-56.073l-19.752-11.41
							c0,0-36.443-21.015-36.44-21.014c-1.91-1.11-3.095-3.471-3.105-6.826C86.961,118.043,87.641,115.267,88.809,112.624z"/>
						<path style="fill:#493025;" d="M260.1,196.217c5.87-3.389,10.651-0.665,10.67,6.088c0.019,6.754-4.73,14.98-10.6,18.37
							c-5.877,3.393-10.658,0.669-10.677-6.085C249.473,207.836,254.222,199.61,260.1,196.217z"/>
						<path style="fill:#C98E47;" d="M260.157,196.937c5.639-3.256,10.232-0.639,10.25,5.849
							c0.019,6.488-4.544,14.391-10.184,17.647c-5.646,3.26-10.239,0.643-10.257-5.845
							C249.948,208.1,254.511,200.197,260.157,196.937z"/>
					</g>
					<g>
						<g>
							<path style="fill:#D79E5A;" d="M256.176,220.48c-0.893,0-1.723-0.208-2.452-0.63c-1.761-1.014-2.733-3.129-2.742-5.959
								c-0.018-5.774,4.057-12.832,9.082-15.732c2.476-1.432,4.817-1.652,6.586-0.636c1.761,1.014,2.736,3.132,2.745,5.962
								c0.015,5.774-4.058,12.832-9.079,15.73C258.859,220.055,257.45,220.48,256.176,220.48z M260.257,198.492
								c-4.919,2.839-8.906,9.747-8.889,15.398c0.006,2.687,0.911,4.685,2.549,5.625c1.652,0.952,3.85,0.724,6.205-0.636
								c4.913-2.836,8.9-9.741,8.886-15.395c-0.009-2.687-0.914-4.685-2.552-5.628C264.815,196.913,262.607,197.136,260.257,198.492
								z"/>
						</g>
						<g>
							<path style="fill:#D79E5A;" d="M256.68,219.018c-0.785,0-1.512-0.184-2.153-0.553c-1.547-0.888-2.402-2.745-2.411-5.23
								c-0.015-5.054,3.554-11.23,7.951-13.772c2.174-1.251,4.228-1.447,5.78-0.554c1.547,0.891,2.402,2.748,2.411,5.23
								c0.014,5.057-3.551,11.235-7.945,13.769C259.035,218.646,257.799,219.018,256.68,219.018z M260.26,199.796
								c-4.292,2.482-7.772,8.508-7.758,13.439c0.006,2.338,0.794,4.078,2.215,4.895c1.439,0.823,3.355,0.627,5.402-0.557
								c4.289-2.473,7.766-8.502,7.752-13.436c-0.006-2.338-0.794-4.078-2.215-4.896
								C264.221,198.419,262.305,198.615,260.26,199.796z"/>
						</g>
						<g>
							<path style="fill:#D79E5A;" d="M257.269,217.278c-0.653,0-1.257-0.155-1.79-0.46c-1.286-0.741-1.998-2.285-2.004-4.348
								c-0.012-4.201,2.956-9.337,6.615-11.452c1.802-1.043,3.513-1.207,4.802-0.463c1.289,0.741,2.001,2.285,2.007,4.351
								c0.012,4.204-2.953,9.34-6.609,11.447C259.228,216.967,258.2,217.278,257.269,217.278z M260.248,201.293
								c-3.568,2.065-6.463,7.078-6.451,11.177c0.006,1.943,0.659,3.387,1.84,4.07c1.195,0.682,2.786,0.518,4.494-0.463
								c3.566-2.06,6.457-7.07,6.445-11.171c-0.006-1.945-0.659-3.39-1.843-4.072C263.544,200.148,261.953,200.312,260.248,201.293z
								"/>
						</g>
						<g>
							<path style="fill:#D79E5A;" d="M258.068,214.928c-0.475,0-0.911-0.111-1.301-0.334c-0.935-0.536-1.45-1.658-1.456-3.158
								c-0.009-3.056,2.145-6.788,4.802-8.321c1.313-0.759,2.549-0.882,3.495-0.334c0.935,0.536,1.45,1.658,1.456,3.158
								c0.009,3.05-2.144,6.782-4.802,8.317C259.492,214.702,258.745,214.928,258.068,214.928z M260.23,203.315
								c-2.593,1.497-4.693,5.141-4.684,8.121c0.003,1.412,0.48,2.464,1.339,2.956c0.867,0.498,2.022,0.375,3.261-0.334
								c2.593-1.5,4.693-5.142,4.685-8.118c-0.003-1.412-0.478-2.461-1.339-2.956C262.624,202.477,261.47,202.603,260.23,203.315z"
								/>
						</g>
						<g>
							<path style="fill:#D79E5A;" d="M258.88,212.534c-0.293,0-0.566-0.067-0.803-0.205c-0.577-0.334-0.893-1.025-0.896-1.948
								c-0.006-1.881,1.324-4.184,2.962-5.13c0.811-0.469,1.576-0.539,2.153-0.208c0.577,0.334,0.896,1.025,0.899,1.948
								c0.006,1.884-1.324,4.186-2.962,5.13C259.759,212.397,259.296,212.534,258.88,212.534z M260.213,205.374
								c-1.597,0.926-2.891,3.17-2.886,5.007c0,0.87,0.293,1.518,0.82,1.822c0.536,0.311,1.254,0.232,2.016-0.205
								c1.597-0.923,2.892-3.167,2.886-5.007c0-0.87-0.296-1.517-0.826-1.822C261.684,204.859,260.978,204.938,260.213,205.374z"/>
						</g>
						<g>
							<path style="fill:#D79E5A;" d="M259.442,210.911c-0.173,0-0.331-0.041-0.475-0.12c-0.337-0.196-0.524-0.598-0.527-1.137
								c-0.003-1.084,0.765-2.411,1.708-2.953c0.469-0.275,0.914-0.311,1.257-0.12c0.337,0.196,0.524,0.601,0.527,1.14
								c0.003,1.084-0.762,2.405-1.705,2.95C259.952,210.832,259.685,210.911,259.442,210.911z M260.934,206.605
								c-0.217,0-0.46,0.073-0.715,0.22c-0.902,0.521-1.635,1.79-1.632,2.83c0,0.484,0.161,0.844,0.454,1.011
								c0.293,0.17,0.692,0.129,1.116-0.117c0.902-0.521,1.632-1.79,1.629-2.827c0-0.486-0.161-0.847-0.454-1.014
								C261.215,206.64,261.08,206.605,260.934,206.605z"/>
						</g>
					</g>
				</g>
				<polygon style="fill:#B77B49;" points="251.382,206.592 256.588,209.051 250.698,208.193 237.771,200.062 				"/>
				<polygon style="fill:#B77B49;" points="148.917,136.023 98.012,106.633 97.576,102.233 				"/>
			</g>
			<g>
				
					<linearGradient id="SVGID_00000146497476282837408660000015042452480705718676_" gradientUnits="userSpaceOnUse" x1="554.4002" y1="187.3367" x2="564.8514" y2="205.4387" gradientTransform="matrix(-1 0 0 1 701.1688 0)">
					<stop  offset="0" style="stop-color:#714939"/>
					<stop  offset="0.5165" style="stop-color:#654133"/>
					<stop  offset="1" style="stop-color:#55372B"/>
				</linearGradient>
				<path style="fill:url(#SVGID_00000146497476282837408660000015042452480705718676_);" d="M54.505,148.323
					c0.707-1.6,1.676-3.129,2.812-4.423c0.958-1.091,2.035-2.015,3.175-2.673c2.017-1.164,3.843-1.268,5.166-0.504
					c18.073,10.435,38.989,22.74,43.413,25.451c0.545,0.334,6.338,3.672,14.146,8.149c6.794,3.895,15.114,8.651,22.832,13.041
					c10.664,6.065,61.764,35.438,64.52,36.86c5.518,3.134,10.667,6.068,14.083,8.142c2.798,1.699,8.156,4.963,8.156,4.963
					c-0.017,0.029-10.257,17.658-10.289,17.713c-0.002,0.002-6.475-3.747-6.475-3.747c-5.994-2.977-63.407-36.813-78.677-45.822
					c-14.214-8.386-27.676-15.553-31.722-17.743l-13.787-8.245c0,0-36.492-21.051-36.49-21.05c-1.305-0.758-2.113-2.37-2.12-4.661
					C53.244,152.024,53.708,150.128,54.505,148.323z"/>
				<path style="fill:#493025;" d="M227.643,237.835c4.009-2.314,7.273-0.454,7.286,4.158c0.013,4.612-3.23,10.23-7.239,12.544
					c-4.013,2.317-7.278,0.457-7.291-4.155C220.386,245.77,223.63,240.152,227.643,237.835z"/>
				<path style="fill:#C98E47;" d="M227.683,238.327c3.851-2.223,6.987-0.436,7,3.994c0.013,4.43-3.103,9.827-6.954,12.051
					c-3.856,2.226-6.992,0.439-7.004-3.992C220.711,245.95,223.827,240.553,227.683,238.327z"/>
				<g>
					<g>
						<path style="fill:#D79E5A;" d="M224.963,254.403c-0.612,0-1.175-0.144-1.676-0.431c-1.201-0.691-1.866-2.136-1.872-4.066
							c-0.012-3.943,2.771-8.765,6.205-10.746c1.688-0.979,3.293-1.125,4.497-0.433c1.204,0.694,1.866,2.139,1.872,4.072
							c0.012,3.943-2.768,8.76-6.199,10.74C226.797,254.113,225.833,254.403,224.963,254.403z M227.749,239.388
							c-3.357,1.939-6.082,6.656-6.07,10.517c0.006,1.834,0.624,3.197,1.74,3.838c1.125,0.647,2.631,0.495,4.242-0.434
							c3.355-1.936,6.076-6.653,6.064-10.512c-0.003-1.834-0.621-3.199-1.74-3.844C230.863,238.307,229.355,238.459,227.749,239.388
							z"/>
					</g>
					<g>
						<path style="fill:#D79E5A;" d="M225.71,252.238c-0.448,0-0.864-0.106-1.233-0.316c-0.885-0.51-1.374-1.57-1.377-2.988
							c-0.009-2.877,2.022-6.395,4.526-7.84c1.236-0.715,2.408-0.829,3.302-0.313c0.885,0.51,1.374,1.57,1.38,2.988
							c0.009,2.877-2.019,6.393-4.523,7.837C227.058,252.027,226.348,252.238,225.71,252.238z M229.691,240.727
							c-0.589,0-1.248,0.199-1.937,0.595c-2.429,1.403-4.4,4.816-4.392,7.611c0.003,1.318,0.445,2.3,1.245,2.76
							c0.8,0.463,1.887,0.355,3.047-0.316c2.429-1.403,4.397-4.816,4.389-7.609c-0.003-1.318-0.448-2.3-1.248-2.76
							C230.468,240.818,230.096,240.727,229.691,240.727z"/>
					</g>
					<g>
						<path style="fill:#D79E5A;" d="M226.255,250.615c-0.322,0-0.621-0.076-0.888-0.229c-0.639-0.366-0.99-1.134-0.993-2.159
							c-0.006-2.086,1.465-4.635,3.278-5.684c0.899-0.515,1.74-0.595,2.388-0.226c0.639,0.366,0.99,1.134,0.993,2.156
							c0.006,2.083-1.465,4.632-3.278,5.683C227.227,250.459,226.718,250.615,226.255,250.615z M227.734,242.684
							c-1.772,1.022-3.208,3.507-3.202,5.543c0.003,0.967,0.328,1.685,0.914,2.021c0.592,0.34,1.383,0.258,2.226-0.232
							c1.773-1.022,3.208-3.51,3.202-5.543c-0.003-0.964-0.328-1.682-0.914-2.019C229.369,242.115,228.578,242.197,227.734,242.684z
							"/>
					</g>
					<g>
						<path style="fill:#D79E5A;" d="M226.897,248.76c-0.188,0-0.361-0.044-0.513-0.132c-0.366-0.211-0.572-0.65-0.572-1.233
							c-0.003-1.172,0.823-2.605,1.843-3.196c0.51-0.293,0.993-0.343,1.365-0.126c0.369,0.211,0.571,0.647,0.571,1.233
							c0.006,1.172-0.82,2.605-1.84,3.197C227.45,248.672,227.16,248.76,226.897,248.76z M227.737,244.339
							c-0.978,0.563-1.769,1.934-1.766,3.055c0.003,0.524,0.176,0.914,0.492,1.096c0.322,0.182,0.75,0.135,1.207-0.129
							c0.978-0.563,1.769-1.934,1.764-3.056c-0.003-0.524-0.176-0.914-0.492-1.096C228.631,244.028,228.197,244.072,227.737,244.339
							z"/>
					</g>
					<g>
						<path style="fill:#D79E5A;" d="M227.301,247.591c-0.1,0-0.193-0.023-0.275-0.07c-0.196-0.111-0.305-0.343-0.305-0.647
							c0-0.607,0.413-1.324,0.938-1.629c0.266-0.152,0.524-0.176,0.721-0.064c0.196,0.114,0.305,0.346,0.305,0.65
							c0.003,0.598-0.419,1.327-0.938,1.629C227.591,247.547,227.438,247.591,227.301,247.591z M227.74,245.382
							c-0.475,0.275-0.861,0.943-0.861,1.491c0.003,0.246,0.082,0.428,0.226,0.51c0.152,0.082,0.349,0.059,0.559-0.064
							c0.478-0.272,0.864-0.94,0.861-1.488c0-0.246-0.079-0.428-0.226-0.513C228.153,245.233,227.954,245.256,227.74,245.382z"/>
					</g>
				</g>
			</g>
		</g>
		<g id="Axonometric_Cube_162_">
			<polygon id="Cube_face_-_left_1485_" style="fill:#302B28;" points="240.963,270.751 237.356,268.668 237.356,233.314 
				240.963,235.397 			"/>
			<polygon id="Cube_face_-_right_1500_" style="fill:#E8A61A;" points="322.23,223.831 240.963,270.751 240.963,235.397 
				322.23,188.477 			"/>
			<polygon id="Cube_face_-_top_1487_" style="fill:#FFCB2E;" points="240.963,235.397 237.356,233.314 318.623,186.395 
				322.23,188.477 			"/>
		</g>
		<g>
			<g>
				<g style="enable-background:new    ;">
					<path style="fill:#C7770B;" d="M396.594,240.46c-0.173-0.1-0.414-0.085-0.679,0.068l-2.77,1.599
						c-0.521,0.301-0.946,1.023-0.944,1.622l0.009,10.191c0.001,0.298,0.107,0.507,0.277,0.606l0.825,0.481l4.107-14.086
						L396.594,240.46z"/>
					<path style="fill:#E8A61A;" d="M397.691,241.538c-0.002-0.598-0.429-0.829-0.95-0.528l-2.77,1.6
						c-0.521,0.301-0.946,1.023-0.944,1.621l0.009,10.191c0.002,0.598,0.429,0.842,0.95,0.541l2.771-1.6
						c0.521-0.301,0.946-1.036,0.944-1.635L397.691,241.538z"/>
				</g>
				<path style="fill:#3F3835;" d="M393.984,233.8c-0.131-0.152-0.409-0.373-0.785-0.637l-3.952-2.425
					c-1.906-1.039-4.077-1.271-6.051-1.123c-0.999,0.097-1.933,0.303-2.84,0.674c-2.342,0.922-4.117,2.289-7.404,3.009
					c-0.346,0.076-0.673,0.255-0.929,0.537c-0.658,0.722-0.607,1.842,0.116,2.5c0.722,0.659,1.841,0.607,2.5-0.115
					c1.389-1.524,4.711-3.959,6.264-4.773c0.685-0.323,1.544-0.574,2.424-0.702c1.766-0.25,3.809-0.098,5.488,0.782l3.915,2.372
					c0.289,0.208,0.499,0.38,0.601,0.5c1.819,1.962,1.16,4.208,1.16,6.885c0,0.594,1.407,0.564,1.286-0.059
					C395.629,237.992,395.987,236.006,393.984,233.8z"/>
			</g>
			<g>
				<g style="enable-background:new    ;">
					<path style="fill:#26231E;" d="M376.144,239.779l-0.019-4.191c-0.029-0.69-0.489-1.487-1.074-1.824l-50.781-29.318
						c-0.954-0.551-1.726-0.111-1.73,0.985l-74.285,63.832l0.184,44.768l45.982,24.152l85.171-27.871l0.087-26.324
						C379.687,281.299,377.934,249.917,376.144,239.779z M372.403,273.983l-30.922-23.59c-1.131-0.902-1.947-2.51-1.943-3.838
						l0.059-20.863c0.004-1.537,1.097-2.166,2.428-1.397l28.124,16.238c1.654,0.955,2.745,2.634,2.931,4.535
						c0.596,6.085,1.91,19.887,2.319,27.344C375.486,273.997,373.665,274.946,372.403,273.983z"/>
					<g>
						<g>
							<polygon style="fill:#49413E;" points="357.711,291.078 354.563,281.11 352.853,281.657 356.175,292.171 							"/>
							<g>
								<polygon style="fill:#49413E;" points="359.943,274.459 353.252,280.311 354.585,281.323 361.019,274.686 								"/>
								<polygon style="fill:#49413E;" points="343.663,281.095 343.538,282.076 353.26,281.762 353.117,280.222 								"/>
								<g style="enable-background:new    ;">
									<path style="fill:#49413E;" d="M354.786,279.964l-2.7,0.864l0.566,1.769c0.038,0.118,0.174,0.205,0.408,0.238
										c0.542,0.078,1.406-0.16,1.925-0.53c0.295-0.21,0.416-0.418,0.367-0.573L354.786,279.964z"/>
									<path style="fill:#49413E;" d="M354.378,279.725c-0.542-0.077-1.406,0.16-1.925,0.53c-0.519,0.37-0.501,0.733,0.041,0.811
										c0.542,0.077,1.406-0.16,1.925-0.53C354.939,280.167,354.92,279.803,354.378,279.725z"/>
								</g>
								<polygon style="fill:#49413E;" points="354.735,280.97 353.04,281.798 354.658,283.529 356.274,282.841 								"/>
								<path style="fill:#49413E;" d="M363.699,275.483c0,0-0.277-1.499-3.307-1.91c-4.313-0.585-11.078,1.391-15.09,4.415
									c-3.821,2.879-2.788,4.518-2.456,5.502c1.211,3.592,12.261,2.117,18.395-2.505
									C365.04,278.123,364.03,276.467,363.699,275.483z M360.238,280.014c-3.646,2.747-9.803,4.548-13.727,4.016
									c-1.265-0.172-2.141-0.567-2.63-1.115c-0.118-0.131-0.177-0.311-0.162-0.486c0.089-1.016,0.943-2.235,2.583-3.47
									c3.646-2.747,9.803-4.548,13.726-4.016c1.263,0.171,2.137,0.566,2.627,1.112c0.118,0.131,0.178,0.31,0.163,0.486
									C362.732,277.558,361.88,278.777,360.238,280.014z"/>
							</g>
						</g>
						<path style="fill:#49413E;" d="M371.185,279.499c-14.821,5.027-53.255,27.443-73.969,42.706l0.018,17.69l81.875-47.271v-8.549
							L371.185,279.499z"/>
					</g>
					<path style="opacity:0.7;fill:#35312D;" d="M375.492,239.885l-80.243,46.598c1.79,10.138,3.543,41.521,3.536,44.208
						l80.243-46.599C379.036,281.405,377.282,250.022,375.492,239.885z"/>
					<path style="fill:#E8A61A;" d="M376.745,239.162l-0.019-4.191l-82.832,48.093l-1.167,2.389l4.819,93.112l82.768-48.056
						l-0.033-47.139C380.288,280.682,378.535,249.299,376.745,239.162z M379.028,284.092c-0.032,0.024-33.418,19.426-33.418,19.426
						l-46.826,27.173c0-0.091-0.006-0.293-0.01-0.447c-0.003-0.132-0.003-0.209-0.009-0.386c-0.003-0.089-0.009-0.233-0.013-0.332
						c-0.027-0.728-0.07-1.702-0.132-2.935c-0.395-7.849-1.456-24.655-2.643-34.853c-0.021-0.179-0.041-0.381-0.062-0.556
						c-0.008-0.061-0.015-0.11-0.022-0.171c-0.18-1.488-0.362-2.78-0.545-3.896c-0.033-0.201-0.066-0.444-0.099-0.631l44.111-25.595
						l2.733-1.589l33.4-19.414c0.336,1.901,0.67,4.55,0.992,7.617c0.012,0.116,0.024,0.244,0.036,0.361
						c0.477,4.604,0.923,10.084,1.304,15.397c0.048,0.669,0.096,1.334,0.142,1.994c0.19,2.733,0.358,5.351,0.504,7.757
						c0.149,2.461,0.274,4.674,0.366,6.469c0.065,1.261,0.112,2.276,0.144,3.071C379.009,283.266,379.029,283.841,379.028,284.092z"
						/>
					<path style="fill:#FFCB2E;" d="M376.533,234.191c-0.105-0.237-0.247-0.462-0.414-0.652c-0.14-0.16-0.298-0.296-0.467-0.392
						l-50.782-29.319c-0.48-0.277-0.914-0.304-1.227-0.122L240.812,251.8c0.313-0.182,0.747-0.156,1.227,0.121l50.781,29.319
						c0.168,0.097,0.326,0.232,0.467,0.392c0.167,0.19,0.309,0.415,0.414,0.652c0.113,0.256,0.182,0.525,0.193,0.78l82.832-48.093
						C376.715,234.716,376.646,234.447,376.533,234.191z"/>
					<path style="opacity:0.8;fill:#282522;" d="M287.918,288.008l-28.124-16.237c-1.331-0.769-2.424-0.14-2.428,1.397
						l-0.059,20.863c-0.004,1.328,0.811,2.936,1.943,3.838l30.537,19.493c1.262,0.962,3.083,0.013,2.996-1.571
						c-0.409-7.457-1.337-17.162-1.933-23.247C290.663,290.643,289.572,288.964,287.918,288.008z"/>
					<path style="fill:#D88E00;" d="M293.913,287.255l-0.019-4.191c-0.029-0.69-0.489-1.487-1.074-1.824l-50.781-29.318
						c-0.954-0.551-1.726-0.111-1.729,0.986l0.009,92.618l57.227,33.04l-0.097-47.102
						C297.456,328.775,295.703,297.392,293.913,287.255z M289.786,317.362l-30.537-19.492c-1.131-0.902-1.947-2.51-1.943-3.838
						l0.059-20.863c0.004-1.537,1.097-2.166,2.428-1.397l28.124,16.237c1.654,0.955,2.745,2.634,2.931,4.535
						c0.596,6.085,1.525,15.79,1.933,23.247C292.869,317.375,291.048,318.324,289.786,317.362z"/>
				</g>
				<path style="fill:#BB700B;" d="M295.692,325.01l-3.21-34.441c-0.146-1.605-1.073-3.041-2.467-3.846l-30.943-17.865
					c-0.767-0.447-1.671-0.433-2.429-0.005c-0.758,0.438-1.21,1.224-1.21,2.1l-0.037,53.114l4.966,7.313
					c0.028,0.089,35.339,20.473,35.339,20.473L295.692,325.01z M260.795,331.139l-4.919-7.11l0.037-53.077
					c0-0.701,0.362-1.332,0.974-1.681c0.603-0.348,1.337-0.348,1.94,0l30.943,17.866c1.266,0.73,2.1,2.029,2.231,3.479l3.211,34.418
					l0.009,25.982L260.795,331.139z"/>
				<path style="fill:#FFCE31;" d="M376.119,233.539l-82.832,48.093c0.167,0.19,0.309,0.415,0.414,0.652l82.832-48.093
					C376.428,233.954,376.286,233.729,376.119,233.539z"/>
				<g>
					<g id="Axonometric_Cube_103_">
						<polygon id="Cube_face_-_left_456_" style="fill:#26231E;" points="297.457,381.321 288.561,376.485 288.548,361.349 
							299.544,365.311 						"/>
						<polygon id="Cube_face_-_right_455_" style="fill:#302B28;" points="386.734,329.777 297.457,381.321 297.457,366.516 
							384.205,313.84 386.734,314.972 						"/>
						<polygon id="Cube_face_-_top_459_" style="fill:#3F3835;" points="297.457,366.516 294.363,364.73 382.922,313.601 
							386.015,315.387 						"/>
					</g>
					<g>
						<g>
							<polygon style="fill:#F3FBFF;" points="314.866,366.654 302.779,373.632 302.779,367.606 314.866,360.628 							"/>
							<polygon style="fill:#F2721C;" points="303.19,373.395 299.34,375.618 299.34,369.592 303.19,367.369 							"/>
						</g>
						<g>
							<polygon style="fill:#F3FBFF;" points="369.542,335.087 381.629,328.108 381.629,322.082 369.542,329.061 							"/>
							<polygon style="fill:#F2721C;" points="381.218,328.345 385.068,326.123 385.068,320.097 381.218,322.319 							"/>
						</g>
					</g>
					<polygon style="fill:#3F3835;" points="300.662,364.641 297.457,366.492 288.548,361.349 291.754,359.497 					"/>
					<g>
						<g id="Axonometric_Cube_102_">
							<polygon id="Cube_face_-_left_455_" style="fill:#26231E;" points="373.7,331.116 366.201,326.787 366.201,341.602 
								373.7,345.931 							"/>
							<polygon id="Cube_face_-_right_454_" style="fill:#302B28;" points="375.341,344.984 373.7,345.931 373.7,331.116 
								375.341,330.169 							"/>
							<polygon id="Cube_face_-_top_458_" style="fill:#3F3835;" points="373.7,331.116 366.201,326.787 367.841,325.84 
								375.341,330.169 							"/>
						</g>
						<g id="Axonometric_Cube_101_">
							<polygon id="Cube_face_-_left_454_" style="fill:#26231E;" points="373.7,330.455 363.028,315.568 363.028,325.032 
								373.7,331.193 							"/>
							<polygon id="Cube_face_-_right_453_" style="fill:#302B28;" points="375.341,330.246 373.7,331.193 373.7,330.455 
								375.341,329.508 							"/>
							<polygon id="Cube_face_-_top_457_" style="fill:#3F3835;" points="373.7,330.455 363.028,315.568 364.669,314.621 
								375.341,329.508 							"/>
						</g>
					</g>
					<g>
						<g id="Axonometric_Cube_100_">
							<polygon id="Cube_face_-_left_453_" style="fill:#26231E;" points="323.685,359.992 316.186,355.663 316.186,370.478 
								323.685,374.807 							"/>
							<polygon id="Cube_face_-_right_452_" style="fill:#302B28;" points="325.326,373.86 323.685,374.807 323.685,359.992 
								325.326,359.045 							"/>
							<polygon id="Cube_face_-_top_456_" style="fill:#3F3835;" points="323.685,359.992 316.186,355.663 317.827,354.716 
								325.326,359.045 							"/>
						</g>
						<g id="Axonometric_Cube_99_">
							<polygon id="Cube_face_-_left_452_" style="fill:#26231E;" points="323.685,359.331 313.013,344.444 313.013,353.908 
								323.685,360.069 							"/>
							<polygon id="Cube_face_-_right_451_" style="fill:#302B28;" points="325.326,359.122 323.685,360.069 323.685,359.331 
								325.326,358.384 							"/>
							<polygon id="Cube_face_-_top_455_" style="fill:#3F3835;" points="323.685,359.331 313.013,344.444 314.654,343.497 
								325.326,358.384 							"/>
						</g>
					</g>
					<polygon style="fill:#3F3835;" points="386.739,314.963 383.533,316.814 380.442,315.029 380.438,311.325 					"/>
				</g>
				<g>
					<path style="fill:#302B28;" d="M358.732,322.099l-39.717,22.931c-1.225,0.707-2.218,0.287-2.218-0.938v-15.888
						c0-1.225,0.993-2.791,2.218-3.498l39.717-22.931c1.225-0.707,2.218-0.287,2.218,0.938v15.888
						C360.95,319.826,359.957,321.392,358.732,322.099z"/>
					<path style="fill:#E8A61A;" d="M341.071,322.115c0,1.241-1.006,2.827-2.247,3.544c-1.241,0.716-2.247,0.291-2.247-0.95
						c0-1.241,1.006-2.827,2.247-3.544C340.065,320.449,341.071,320.874,341.071,322.115z"/>
				</g>
				<path style="fill:#BB700B;" d="M266.099,309.193l-6.455-3.727c-0.368-0.213-0.667-0.684-0.667-1.053v-1.832
					c0-0.368,0.299-0.495,0.667-0.282l6.455,3.727c0.369,0.213,0.667,0.684,0.667,1.053v1.832
					C266.766,309.28,266.467,309.406,266.099,309.193z"/>
				<g>
					<path style="fill:#CB5E12;" d="M290.895,344.999l-1.56-0.901c-0.621-0.359-1.125-1.153-1.125-1.774v-0.487
						c0-0.621,0.504-0.834,1.125-0.475l1.56,0.9c0.621,0.359,1.125,1.153,1.125,1.775v0.487
						C292.02,345.145,291.516,345.357,290.895,344.999z"/>
				</g>
				<path style="fill:#282522;" d="M375.492,239.885l-80.243,46.599c0.286,1.622,0.571,3.825,0.848,6.329l80.272-46.345
					C376.083,243.854,375.788,241.561,375.492,239.885z"/>
				<g>
					<polygon style="fill:#A55E0A;" points="230.937,324.083 243.522,316.421 243.514,337.11 230.927,344.46 					"/>
					<g>
						<g id="Axonometric_Cylinder_72_">
							<path style="fill:#1E1B18;" d="M265.842,338.889l-3.948-8.097c-1.842-3.308-2.566-3.206-5.922-4.958l-9.64-5.738
								l-8.971,5.179c-6.901,20.535,7.484,38.313,23.139,39.591l7.624-4.402l-0.94-19.554L265.842,338.889z"/>
							<path id="Cylinder_face_99_" style="fill:#26231E;" d="M265.144,354.43c0,10.34-7.259,14.53-16.213,9.361
								c-8.954-5.17-16.214-17.743-16.214-28.082c0-10.34,7.259-14.531,16.214-9.361
								C257.885,331.518,265.144,344.091,265.144,354.43z"/>
						</g>
						<g style="enable-background:new    ;">
							<path style="fill:#302B28;" d="M248.858,355.522c-4.796-2.653-8.751-9.347-8.835-14.951
								c-0.084-5.603,3.736-7.995,8.531-5.341c4.796,2.654,8.751,9.347,8.835,14.951
								C257.473,355.785,253.653,358.176,248.858,355.522z"/>
							<path style="fill:#25211D;" d="M248.837,354.1c-4.123-2.282-7.524-8.037-7.596-12.854c-0.072-4.818,3.212-6.874,7.335-4.592
								c4.123,2.281,7.524,8.037,7.596,12.854C256.243,354.325,252.959,356.381,248.837,354.1z"/>
							<path style="fill:#1E1B18;" d="M248.576,336.653c-0.888-0.491-1.724-0.744-2.509-0.848c-1.096,0.802-1.767,2.294-1.736,4.376
								c0.066,4.406,3.176,9.671,6.948,11.758c1.694,0.937,3.218,1.047,4.394,0.514c0.331-0.814,0.516-1.795,0.499-2.946
								C256.1,344.69,252.699,338.935,248.576,336.653z"/>
							<g>
								<path style="fill:#25211D;" d="M255.405,345.449c-0.706-2.086-1.868-4.103-3.296-5.776c-0.19-0.142-0.38-0.287-0.578-0.401
									c-1.097-0.634-2.089-0.687-2.802-0.26l-2.769,1.599l5.604,9.587l2.769-1.598c0.695-0.416,1.124-1.29,1.124-2.527
									C255.457,345.868,255.428,345.658,255.405,345.449z"/>
								<path id="Cylinder_face_98_" style="fill:#302B28;" d="M252.688,347.67c0,2.504-1.758,3.519-3.926,2.267
									c-2.169-1.252-3.926-4.297-3.926-6.801c0-2.504,1.758-3.519,3.926-2.267C250.93,342.122,252.688,345.167,252.688,347.67z"/>
							</g>
						</g>
					</g>
					<g>
						<polygon style="fill:#FFCB2E;" points="228.827,321.851 232.46,319.727 242.001,314.324 238.367,316.448 						"/>
						<polygon style="fill:#E8A61A;" points="268.85,344.959 272.488,342.775 272.475,364.163 268.837,366.348 						"/>
						<polygon style="fill:#FFCE31;" points="259.4,328.591 263.038,326.407 272.488,342.775 268.85,344.959 						"/>
						<polygon style="fill:#FFCB2E;" points="238.367,316.448 242.018,314.257 263.038,326.407 259.4,328.591 						"/>
						<polygon style="fill:#C7770B;" points="259.4,328.591 268.85,344.959 268.837,366.348 266.724,365.128 266.734,344.751 
							258.512,330.511 239.212,319.368 230.937,324.083 230.927,344.46 228.814,343.24 228.827,321.851 238.367,316.448 						"/>
					</g>
				</g>
				<polygon style="fill:#BB700B;" points="286.832,351.536 274.678,344.519 274.701,350.213 286.855,357.23 				"/>
				<polygon style="fill:#BB700B;" points="286.832,361.881 274.678,354.864 274.701,360.558 286.855,367.574 				"/>
			</g>
			<g>
				<g style="enable-background:new    ;">
					<path style="fill:#C7770B;" d="M288.813,302.599c-0.173-0.101-0.414-0.085-0.679,0.068l-2.77,1.599
						c-0.521,0.301-0.946,1.023-0.944,1.621l0.009,10.191c0.001,0.298,0.107,0.507,0.277,0.606l0.825,0.481l4.107-14.086
						L288.813,302.599z"/>
					<path style="fill:#E8A61A;" d="M289.909,303.677c-0.002-0.599-0.429-0.829-0.95-0.528l-2.77,1.6
						c-0.521,0.301-0.946,1.023-0.944,1.621l0.009,10.191c0.002,0.598,0.429,0.842,0.95,0.542l2.77-1.6
						c0.521-0.301,0.946-1.036,0.944-1.635L289.909,303.677z"/>
				</g>
				<path style="fill:#3F3835;" d="M287.803,300.729c-0.011-0.535-0.017-1.271-0.225-1.991c-0.194-0.726-0.544-1.473-1.048-2.164
					c-0.489-0.679-1.232-1.322-2.009-1.739l-1.965-1.152c-1.459-0.893-3.178-1.822-2.474-3.462c0.281-0.643,0.798-1.074,1.47-1.462
					c0.656-0.332,1.355-0.708,1.986-0.976l7.224-3.295c1.46-0.919-0.386-3.702-1.914-2.633c0,0-7.277,5.348-7.987,5.826
					c-2.376,1.553-2.513,3.759-1.149,5.14c0.702,0.792,1.621,1.191,2.394,1.64l1.98,1.126c0.745,0.415,1.283,0.908,1.73,1.512
					c0.438,0.587,0.704,1.244,0.826,1.865c0.227,1.202,0.027,2.43,0.047,3.223c-0.04,0.809-0.063,1.271-0.063,1.271
					c-0.045,0.523,1.377,0.742,1.286-0.052C287.912,303.406,287.821,301.292,287.803,300.729z"/>
			</g>
		</g>
		<path style="fill:#CB5E12;" d="M57.668,213.175l-1.56-0.901c-0.621-0.359-1.125-1.153-1.125-1.774v-0.487
			c0-0.621,0.503-0.834,1.125-0.475l1.56,0.901c0.621,0.359,1.125,1.153,1.125,1.774v0.487
			C58.792,213.32,58.289,213.533,57.668,213.175z"/>
		<g>
			<g>
				<g id="Axonometric_Cube_59_">
					<polygon id="Cube_face_-_left_184_" style="fill:#FFFFFF;" points="183.289,290.561 181.369,289.452 181.369,285.411 
						183.289,286.52 					"/>
					<polygon id="Cube_face_-_right_183_" style="fill:#1E1B18;" points="187.731,287.997 183.289,290.561 183.289,286.52 
						187.731,283.955 					"/>
					<polygon id="Cube_face_-_top_186_" style="fill:#302B28;" points="183.289,286.52 181.369,285.411 185.81,282.847 
						187.731,283.955 					"/>
				</g>
				<g id="Axonometric_Cube_58_">
					<polygon id="Cube_face_-_left_182_" style="fill:#FFFFFF;" points="218.951,311.15 217.03,310.041 217.03,306 218.951,307.109 
											"/>
					<polygon id="Cube_face_-_right_181_" style="fill:#1E1B18;" points="223.392,308.586 218.951,311.15 218.951,307.109 
						223.392,304.545 					"/>
					<polygon id="Cube_face_-_top_184_" style="fill:#302B28;" points="218.951,307.109 217.03,306 221.472,303.436 
						223.392,304.545 					"/>
				</g>
				<g>
					<polygon style="fill:#DCD7D3;" points="142.475,280.913 144.445,279.769 147.497,281.531 145.528,282.676 					"/>
					<polygon style="fill:#C7C3C2;" points="148.01,274.165 149.98,273.021 150.037,282.997 148.067,284.142 					"/>
					<polygon style="fill:#DCD7D3;" points="148.067,284.142 150.037,282.997 181.633,301.239 179.663,302.384 					"/>
					<polygon style="fill:#C7C3C2;" points="182.212,293.81 184.182,292.665 184.172,302.706 182.203,303.85 					"/>
					<polygon style="fill:#DCD7D3;" points="142.493,267.929 144.463,266.785 181.651,288.255 179.681,289.4 					"/>
					<polygon style="fill:#C7C3C2;" points="182.215,286.077 184.185,284.932 184.19,289.721 182.221,290.866 					"/>
					<polygon style="fill:#DCD7D3;" points="179.676,284.61 181.645,283.466 184.185,284.932 182.215,286.077 					"/>
					<polygon style="fill:#DCD7D3;" points="182.203,303.85 184.172,302.706 217.279,321.82 215.309,322.964 					"/>
					<polygon style="fill:#DCD7D3;" points="217.849,324.431 219.819,323.286 222.871,325.048 220.901,326.193 					"/>
					<polygon style="fill:#C7C3C2;" points="220.901,326.193 222.871,325.048 222.863,327.992 220.893,329.137 					"/>
					<polygon style="fill:#C7C3C2;" points="217.859,314.365 219.829,313.22 219.819,323.286 217.849,324.431 					"/>
					<polygon style="fill:#DCD7D3;" points="182.221,290.866 184.19,289.721 217.297,308.835 215.328,309.98 					"/>
					<polygon style="fill:#DCD7D3;" points="217.867,311.446 219.837,310.302 222.889,312.064 220.92,313.208 					"/>
					<polygon style="fill:#C7C3C2;" points="220.92,313.208 222.889,312.064 222.881,314.982 220.911,316.127 					"/>
					<polygon style="fill:#DCD7D3;" points="215.322,305.191 217.292,304.046 219.831,305.513 217.862,306.657 					"/>
					<path style="fill:#ACA8A8;" d="M220.911,316.127l-3.052-1.762l-0.01,10.066l3.052,1.762l-0.008,2.944l-78.426-45.279
						l0.008-2.944l3.052,1.762l0.01-10.066l-3.052-1.762l0.008-2.918l37.188,21.47l-0.005-4.789l2.539,1.466l0.006,4.789
						l33.107,19.114l-0.006-4.789l2.54,1.466l0.006,4.789l3.052,1.762L220.911,316.127z M179.663,302.384l0.01-10.066
						l-31.663-18.152l0.057,9.977L179.663,302.384z M215.309,322.964l0.01-10.066l-33.107-19.089l-0.01,10.04L215.309,322.964z"/>
					<polygon style="fill:#C7C3C2;" points="217.862,306.657 219.831,305.513 219.837,310.302 217.867,311.446 					"/>
				</g>
			</g>
		</g>
	</g>
	<g>
		<g id="Axonometric_Cube_61_">
			<polygon id="Cube_face_-_left_1449_" style="fill:#ACA8A8;" points="55.907,119.827 52.3,117.744 52.3,203.863 55.907,205.946 
							"/>
			<polygon id="Cube_face_-_right_1464_" style="fill:#C7C3C2;" points="58.162,204.644 55.907,205.946 55.907,119.827 
				58.162,118.525 			"/>
			<polygon id="Cube_face_-_top_1451_" style="fill:#DCD7D3;" points="55.907,119.827 52.3,117.744 54.555,116.442 58.162,118.525 
							"/>
		</g>
		<g id="Axonometric_Cube_62_">
			<polygon id="Cube_face_-_left_1451_" style="fill:#ACA8A8;" points="117.105,155.159 113.498,153.077 113.498,239.196 
				117.105,241.279 			"/>
			<polygon id="Cube_face_-_right_1466_" style="fill:#C7C3C2;" points="119.36,239.977 117.105,241.279 117.105,155.159 
				119.36,153.858 			"/>
			<polygon id="Cube_face_-_top_1453_" style="fill:#DCD7D3;" points="117.105,155.159 113.498,153.077 115.753,151.775 
				119.36,153.858 			"/>
		</g>
		<g id="Axonometric_Cube_155_">
			<polygon id="Cube_face_-_left_1452_" style="fill:#ACA8A8;" points="178.303,190.492 174.696,188.409 174.696,274.529 
				178.303,276.611 			"/>
			<polygon id="Cube_face_-_right_1467_" style="fill:#C7C3C2;" points="180.558,275.31 178.303,276.611 178.303,190.492 
				180.558,189.19 			"/>
			<polygon id="Cube_face_-_top_1454_" style="fill:#DCD7D3;" points="178.303,190.492 174.696,188.409 176.951,187.108 
				180.558,189.19 			"/>
		</g>
		<g id="Axonometric_Cube_156_">
			<polygon id="Cube_face_-_left_1453_" style="fill:#ACA8A8;" points="239.501,225.824 235.894,223.742 235.894,309.862 
				239.501,311.944 			"/>
			<polygon id="Cube_face_-_right_1468_" style="fill:#C7C3C2;" points="241.756,310.642 239.501,311.944 239.501,225.824 
				241.756,224.523 			"/>
			<polygon id="Cube_face_-_top_1455_" style="fill:#DCD7D3;" points="239.501,225.824 235.894,223.742 238.149,222.44 
				241.756,224.523 			"/>
		</g>
	</g>
</g>
</svg>
