<?xml version="1.0" encoding="UTF-8"?>
<svg id="Layer_2" data-name="Layer 2" xmlns="http://www.w3.org/2000/svg" viewBox="0 0 777.82 794.15">
  <defs>
    <style>
      .cls-1 {
        fill: none;
        fill-rule: evenodd;
        stroke: #030;
        stroke-miterlimit: 10;
        stroke-width: 6.8px;
      }
    </style>
  </defs>
  <g id="Layer_1-2" data-name="Layer 1">
    <g>
      <path class="cls-1" d="M727.35,444.48l1,7.33.49,3.7c.17,1.24.33,2.47.42,3.71l1.21,14.96c-17.37-22.85-37.12-42.43-58.09-58.5l1.6,4.16c.56,1.4.94,2.79,1.42,4.2l2.75,8.53c.98,2.89,1.68,5.77,2.46,8.7l2.29,8.88c-5.39-3.58-10.81-6.99-16.24-10.24-2.72-1.62-5.44-3.21-8.16-4.75l-4.09-2.29-4.2-2.24c-5.6-2.94-11.21-5.72-16.82-8.34-2.81-1.31-5.61-2.58-8.42-3.8-2.85-1.23-5.75-2.43-8.62-3.58,6.39,15.27,11.22,31.79,14.1,49.31-12.2-3.93-24.43-7.72-36.69-11.36l1.25,4.58c.37,1.53.65,3.06.99,4.61l31.59,9.33c-4.82,12.46-10.5,24.49-17.34,35.76,26.5-2.5,53.48-9.15,80.09-20.03-2.69,2.31-5.22,4.73-7.57,7.26-1.14,1.28-2.42,2.52-3.56,3.82-1.16,1.29-2.28,2.61-3.35,3.95-4.14,5.41-8.18,10.97-11.15,17,9.23.91,18.64.04,27.82-2.7,2.33-.67,4.5-1.51,6.69-2.45,2.19-.94,4.35-2,6.48-3.17,4.23-2.35,8.46-5.12,12.12-8.44-1.49,3.64-3.31,7.15-5.03,10.68l-2.6,5.27-1.3,2.62-1.42,2.57c.21-.4,3.61-.75,7.08-1.12,3.45-.37,7.06-.75,7.79-.92,5.29-1.27,10.55-3.1,15.73-5.48,1.31-.6,2.62-1.24,3.92-1.92,1.26-.69,2.52-1.41,3.77-2.17,2.5-1.52,4.97-3.18,7.4-4.98,2.43-1.8,4.81-3.75,7.13-5.83,2.27-2.09,4.39-4.35,6.47-6.72,2.77-3.17,4.18-6.06,4.62-8.7.48-2.63-.25-5.05-1.45-7.28-2.46-4.47-7.32-8.28-11.62-12.39-4.58-4.43-9.65-8.45-14.84-12.04-5.19-3.59-10.57-6.75-16.09-9.5Z"/>
      <path class="cls-1" d="M708.71,598.69c0-2.24-.18-4.51-.45-6.74-.27-2.23-.62-4.41-1.07-6.55-.89-4.28-2.14-8.38-3.71-12.25-3.34-7.86-7.96-14.78-13.59-20.57-.41,2.39-.84,4.84-1.5,7.21-.66,2.37-1.51,4.69-2.95,6.71-2.8,4.09-7.7,7.06-12.09,5.84-4.41-1.22-6.92-5.85-9.04-9.94-1.75-3.39-3.53-6.73-5.35-10.02l-2.74-4.88-2.92-4.87c-3.93-6.44-7.94-12.64-12.11-18.62l-2.03,8.79-1.04,4.45c-.39,1.47-.83,2.91-1.24,4.38l-2.55,8.84c-.96,2.91-1.98,5.8-2.99,8.74-.14-2.54-.4-5.05-.75-7.53-.18-1.24-.37-2.46-.62-3.7-.27-1.25-.57-2.48-.9-3.71-1.29-4.91-2.99-9.64-5.07-14.16-2.21-4.59-4.82-8.97-7.76-13.1-2.94-4.13-6.18-7.99-9.91-11.68-5.36,13.56-12.04,26.7-19.97,39.19-4.68-4.13-9.38-8.21-14.11-12.27l-2.1,2.97c-.67,1.02-1.5,1.91-2.23,2.88,5,3.35,10.02,6.68,15.06,9.98l-7.07,5.96c-2.43,1.9-4.9,3.73-7.31,5.58l-1.8,1.39c-.6.46-1.26.87-1.88,1.3l-3.76,2.57-3.72,2.57c-1.27.81-2.58,1.58-3.86,2.37,10.82,5.27,21.89,8.67,33.67,10.58,5.75.83,11.6,1.21,17.56,1.18,1.48-.02,3.01-.03,4.46-.13,1.46-.1,2.92-.22,4.39-.38,2.93-.31,5.89-.73,8.85-1.26l-6.85,5.69c-1.11.96-2.33,1.83-3.51,2.72l-3.54,2.66-3.52,2.64-1.75,1.31-1.83,1.23-7.25,4.89c5.65,1.59,11.47,2.76,17.44,3.49,3.02.39,5.92.54,8.92.63,2.98.08,6,.05,9.04-.1,6.15-.24,12.11-1.19,18.17-2.55,3.02-.7,6.11-1.46,9.08-2.43,2.95-.99,5.91-2.09,8.86-3.32-10.83,9.82-22.48,18.51-34.18,26.52,3.81.19,7.47.01,11.27-.25,3.78-.29,7.6-.75,11.45-1.4,1.95-.31,3.81-.73,5.7-1.19,1.89-.46,3.78-.96,5.67-1.51,3.78-1.11,7.63-2.34,11.37-3.85,3.69-1.54,7.38-3.26,11.06-5.15,1.83-.95,3.68-1.93,5.49-2.97,1.76-1.07,3.52-2.19,5.27-3.35,3.49-2.32,6.97-4.8,10.36-7.45,3.27-2.73,6.49-5.61,9.65-8.64"/>
      <path class="cls-1" d="M722.48,513.97l-2.66,10.23c-.98,3.38-2.07,6.73-3.12,10.11-4.14-6.98-8.26-13.67-12.88-20.24-2.26-3.27-4.55-6.47-6.87-9.61-2.31-3.14-4.62-6.21-7.12-9.26-4.93-6.08-9.88-11.89-15-17.45-5.27-5.6-10.6-10.93-15.98-15.98,1.23,6.34,2.7,12.92,3.47,19.51l.68,5c.21,1.68.48,3.38.59,5.05l.81,10.19c-2.6-3.19-5.22-6.3-7.86-9.34-2.67-3.05-5.24-5.98-8.09-8.92-5.6-5.84-11.23-11.36-17.01-16.6-2.21-1.96-4.52-3.93-7.42-4.99-2.9-1.06-6.55-1-8.24.72-1.46,1.47-1.3,3.64-.99,5.67l1,6.92.61,6.96.31,3.55.15,1.79.06,1.76.22,7.16c-8.62-3-17.21-6.04-25.79-9.14-.17.66-.3,1.35-.5,2l-.61,1.96-1.2,3.95c-.4,1.32-.77,2.66-1.19,3.98l-1.41,3.9c4.54,1.2,9.1,2.35,13.7,3.43l6.92,1.59,6.87,1.46c-6.73,8.33-13.61,16.28-21.22,23.43,4.12,1.67,8.32,3.11,12.59,4.3,4.24,1.18,8.65,2.16,12.92,2.76,8.58,1.22,17.41,1.34,26.12.13-3.14,2.73-6.39,5.33-9.52,7.92l-2.36,1.93-2.47,1.83-4.9,3.61c3.5.36,7.02.61,10.58.76,3.54.13,7.19.2,10.68.04,7.06-.27,14.23-1.02,21.47-2.24,7.06-1.33,14.18-3.16,21.34-5.48,7.01-2.4,13.94-5.37,20.91-8.81-8.29,14.24-17.46,27.77-27.38,40.53.69-.91,3.45-1.59,6.37-2.16,2.91-.57,5.96-1.05,7.15-1.43,2.37-.75,4.74-1.57,7.11-2.45,2.36-.89,4.62-1.9,6.93-2.94,4.61-2.11,9.41-4.42,14.11-7.09,4.56-2.73,9.08-5.79,13.31-9.27,1.3-1.08,2.47-2.14,3.4-3.22.93-1.09,1.7-2.17,2.34-3.23,1.26-2.13,1.96-4.21,2.18-6.21.42-4.02-.92-7.68-3.48-11.1-5.03-6.81-13.93-12.3-19.64-16.97Z"/>
      <path class="cls-1" d="M605.65,671.9l-4.54,5.99-1.15,1.5-1.2,1.44-2.41,2.89-4.88,5.81-2.47,2.92-2.57,2.8c4.14-28.59,4.41-56.48,1.19-82.87-.63,1.35-1.21,2.77-1.89,4.09l-2.04,4-4.17,8.11c-1.49,2.64-3.03,5.26-4.58,7.93-1.56,2.65-3.1,5.39-4.83,7.93-1.13-6.24-2.55-12.59-4.05-18.77-1.51-6.2-3.14-12.29-4.89-18.27-1.81-6.06-3.8-12.06-5.87-17.93-1.04-2.93-2.11-5.84-3.21-8.72l-1.67-4.29-1.78-4.33c-6.52,15.5-15.12,30.84-25.84,45.37-5.77-11.37-11.72-22.76-17.77-34.05-.78,1.44-1.65,2.74-2.52,4.08l-2.63,4.07,15.67,28.99c-12.5,5.5-25.34,9.93-38.33,13.28,20.68,16.81,44.72,31.17,71.46,42.26-7.05-.31-14.26-.4-21.1.53-1.7.26-3.46.4-5.18.66-1.72.25-3.42.55-5.11.91-1.69.35-3.35.76-5,1.22-1.65.46-3.34.83-4.97,1.33,2.97,3.6,6.32,7.02,9.94,9.96,3.62,2.94,7.56,5.54,11.79,7.76,2.12,1.11,4.3,2.13,6.56,3.05,1.12.45,2.28.91,3.42,1.29,1.14.37,2.3.72,3.47,1.05,4.69,1.29,9.6,2.15,14.68,2.56l-11.26,4.04-2.8,1c-.94.32-1.9.59-2.85.89l-5.7,1.73c.44-.13,3.08,1.97,5.83,4.18,2.74,2.21,5.58,4.54,6.24,4.94,2.36,1.48,4.77,2.75,7.28,3.94,2.51,1.18,5.11,2.26,7.79,3.21,10.92,4.01,23.11,5.73,35.91,5,8.44-.68,12.2-4.3,13.72-9.12,1.46-4.94.74-11.12.64-17.11-.06-3.24-.23-6.44-.52-9.6-.29-3.16-.69-6.28-1.26-9.42-1.1-6.26-2.64-12.34-4.57-18.23Z"/>
      <path class="cls-1" d="M481.32,768.33c6.47-6.41,11.35-14.06,14.68-21.82.83-1.95,1.56-3.91,2.2-5.89.32-.99.61-1.98.88-2.97.26-1.01.5-2.03.71-3.05.85-4.08,1.31-8.16,1.38-12.23-2.01,1.43-4.06,2.94-6.25,4.13-2.2,1.15-4.51,2.09-6.97,2.58-2.46.49-5.1.42-7.4-.27-2.3-.67-4.29-2.13-5.42-4.11-2.28-4.05-.69-8.93.74-13.36,2.39-7.35,4.52-14.63,6.42-21.84.96-3.56,1.79-7.31,2.59-10.95.8-3.66,1.53-7.3,2.2-10.91l-7.76,4.95c-2.64,1.55-5.33,3.03-8.03,4.57l-4.07,2.3c-1.36.76-2.76,1.4-4.15,2.11l-8.42,4.2c3.45-3.86,6.52-7.95,9.18-12.21.67-1.05,1.29-2.17,1.89-3.31.6-1.13,1.17-2.27,1.72-3.43,1.1-2.3,2.09-4.64,2.97-7,.89-2.36,1.67-4.75,2.34-7.17.65-2.49,1.19-5,1.63-7.53.88-5.05,1.34-10.16,1.4-15.3-13.65,5.88-27.93,10.54-42.66,13.75-.36-6.24-.77-12.47-1.22-18.69l-1.83.33c-.61.1-1.23.15-1.84.23l-3.69.44c1.15,5.9,2.34,11.8,3.56,17.7l-4.71-.35c-1.56-.11-3.11-.19-4.68-.43l-9.3-1.18c-1.53-.14-3.08-.52-4.61-.77l-4.58-.83c-1.52-.28-3.04-.52-4.55-.82l-4.51-1.07c1,2.81,2.1,5.59,3.28,8.34.59,1.36,1.21,2.75,1.86,4.07.64,1.31,1.31,2.62,2,3.91,2.76,5.17,5.91,10.18,9.45,14.98,1.77,2.45,3.63,4.66,5.59,6.86,1.96,2.2,4.01,4.34,6.15,6.41,1.07,1.04,2.17,2.06,3.29,3.07,1.12,1.01,2.26,2.02,3.42,2.91,2.32,1.84,4.73,3.61,7.23,5.31-3.02-.27-6.01-.44-9-.8l-8.93-1.2-4.42-.6c-1.47-.24-2.94-.54-4.41-.81l-8.73-1.65c5.81,10.19,13.34,19.93,22.45,27.89,2.28,2.03,4.66,4,7.14,5.9,2.47,1.88,5.03,3.53,7.69,5.19,5.3,3.25,11.01,6.38,16.96,8.66l-5.54-.3-5.53-.55-10.95-1.13c-3.63-.51-7.25-1.1-10.83-1.65l-5.36-.85c-1.78-.26-3.56-.71-5.32-1.05,10.33,10.97,23.33,20.02,38.36,26.43l2.84,1.21c.95.39,1.91.71,2.87,1.06,1.93.68,3.89,1.33,5.88,1.94,3.97,1.2,8.07,2.36,12.24,3.22,4.15.79,8.4,1.43,12.73,1.93,2.16.23,4.35.5,6.53.59,2.18.09,4.37.14,6.58.16"/>
      <path class="cls-1" d="M552.17,717.97l-4.59,2.77c-1.55.88-3.13,1.71-4.7,2.57l-9.45,5.1c8.46-31.36,12.06-62.71,11.28-92.67-1.83,2.75-3.65,5.59-5.59,8.34l-6.04,8.12c-2.02,2.79-4.21,5.35-6.41,8l-3.33,3.97c-1.12,1.33-2.24,2.69-3.43,3.93l.36-3.02.3-3.08c.19-2.05.36-4.1.51-6.13.3-4.07.54-8.1.7-12.09.08-2.01.16-3.96.19-5.98.02-2.02.03-4.04.02-6.04-.02-4.01-.11-7.97-.26-11.89-.11-2.91-.29-5.9-1.57-8.7-1.28-2.8-3.94-5.36-6.44-5.4-2.14-.03-3.55,1.74-4.8,3.43-.71.94-1.39,1.94-2.13,2.84l-2.24,2.72-4.57,5.54c-.76.96-1.58,1.79-2.39,2.68l-2.45,2.65c-1.65,1.76-3.29,3.61-5,5.35-3.98-8.23-7.9-16.49-11.77-24.76-2.46,1.34-4.92,2.7-7.38,4.09l-7.61,3.72c4.72,8.07,9.7,16.06,14.91,23.98l-8.08.86c-.67.06-1.33.16-2.01.2l-2.03.1-4.03.21-4,.22-1.99.1h-2.01s-7.96,0-7.96,0c3.47,8.17,7.81,15.89,13.1,22.97,1.32,1.77,2.7,3.5,4.14,5.18,1.43,1.64,2.91,3.22,4.45,4.76,3.08,3.07,6.4,5.94,9.94,8.59l-6.28-.47-3.11-.24c-1.03-.07-2.06-.16-3.1-.32l-12.27-1.62c4.46,5.41,9.32,10.59,14.59,15.52,1.32,1.22,2.67,2.47,4.02,3.63,1.36,1.15,2.74,2.29,4.14,3.4,2.81,2.23,5.73,4.4,8.74,6.49,6.06,4.28,12.4,7.86,19.16,11.19,1.69.83,3.4,1.64,5.14,2.43l2.62,1.17c.88.37,1.75.71,2.63,1.06,3.52,1.37,7.14,2.66,10.84,3.85-16.06,4.5-32.43,7.42-48.7,9.41,1.16-.13,3.63,1.43,6.13,3.11,2.48,1.63,4.99,3.42,6.11,3.98,4.44,2.23,9.08,4.29,13.9,6.16,4.81,1.76,9.85,3.4,15.11,4.81,2.62.68,5.32,1.38,8,1.83,2.68.45,5.4.8,8.15,1.03,3.39.28,6.29.09,8.75-.47,1.23-.27,2.34-.67,3.33-1.18.99-.5,1.88-1.07,2.68-1.72,3.18-2.58,4.81-6.25,5.5-10.39,1.41-8.23-1.02-18.55-1.71-25.92Z"/>
      <path class="cls-1" d="M355.97,746.84l-7.53.97c-2.52.31-5.07.68-7.6.83-5.07.4-10.19.78-15.37,1.13,23.42-17.27,43.56-36.84,60.19-57.76l-4.3,1.59-4.33,1.37-8.81,2.73-2.23.68-2.23.57-4.51,1.13c-3.02.75-6.08,1.53-9.16,2.24,3.67-5.34,7.19-10.77,10.54-16.18,1.68-2.71,3.31-5.42,4.91-8.14,1.6-2.72,3.15-5.41,4.67-8.24,3.04-5.59,5.93-11.19,8.64-16.8,2.72-5.61,5.27-11.17,7.68-16.98-15.9,6.32-33.07,11.02-51.22,13.69,4-12.18,7.86-24.4,11.57-36.65-1.57.39-3.17.82-4.77,1.19l-4.79.92-9.44,31.56-4.85-1.86-1.21-.47-1.19-.53-2.37-1.06-4.74-2.1-2.36-1.04c-.79-.34-1.54-.77-2.32-1.15l-9.2-4.66-8.94-5.09c.77,6.59,1.76,13.31,2.97,20.13,1.29,6.62,2.8,13.36,4.55,20.19,3.58,13.4,8.13,27.05,13.81,40.37-2.39-2.72-4.9-5.27-7.52-7.65-2.58-2.49-5.25-4.88-8.02-7.04-1.39-1.09-2.8-2.13-4.23-3.12-1.43-1.02-2.84-2.08-4.3-3.04-2.91-1.95-5.92-3.7-9.02-5.26-.85,9.27.12,18.71,3,27.95.36,1.15.75,2.31,1.17,3.45.43,1.12.89,2.22,1.38,3.32.98,2.2,2.08,4.38,3.3,6.52,1.22,2.14,2.55,4.25,4,6.32.72,1.03,1.48,2.06,2.26,3.07.79.97,1.61,1.92,2.46,2.87l-2.78-1.2-2.74-1.32-5.45-2.65c-3.62-1.79-7.26-3.47-10.75-5.47.41.22.8,3.6,1.19,7.13.39,3.5.8,7.09.99,7.83,1.33,5.31,3.23,10.6,5.7,15.81,2.48,5.35,5.64,10.32,9.34,15.23,1.86,2.44,3.85,4.84,5.99,7.18,1.06,1.19,2.18,2.3,3.33,3.37,1.15,1.08,2.34,2.15,3.56,3.19,3.25,2.79,6.22,4.22,8.92,4.67,1.35.22,2.63.22,3.87-.04,1.24-.26,2.43-.73,3.57-1.34,4.58-2.44,8.47-7.28,12.67-11.56,2.27-2.32,4.43-4.67,6.48-7.12,2.06-2.49,4.01-5.04,5.85-7.63,3.68-5.18,6.92-10.55,9.75-16.06Z"/>
      <path class="cls-1" d="M198,726.43c4.56.08,9.18-.51,13.52-1.33,4.36-.84,8.53-2.05,12.48-3.58,7.96-3.19,15.03-7.8,20.89-13.37-2.45-.44-4.96-.91-7.39-1.6-1.22-.35-2.42-.75-3.58-1.23-1.14-.53-2.24-1.14-3.29-1.86-4.21-2.86-7.3-7.83-6.1-12.24,1.2-4.43,5.9-6.88,10.07-8.96,3.46-1.72,6.86-3.46,10.2-5.24,3.35-1.79,6.62-3.56,9.92-5.52,6.56-3.85,12.89-7.83,18.99-11.91l-9.06-2.18c-1.52-.38-3.06-.72-4.57-1.13l-4.5-1.33c-3.01-.9-6.06-1.77-9.09-2.72l-8.99-3.16c2.6-.11,5.17-.32,7.71-.64,1.27-.16,2.53-.35,3.78-.56,1.25-.21,2.53-.52,3.78-.82,5.02-1.23,9.87-2.86,14.49-4.89,4.66-2.09,9.17-4.7,13.38-7.57,2.11-1.45,4.16-2.98,6.14-4.59.99-.81,1.96-1.63,2.92-2.48.97-.87,1.92-1.77,2.86-2.68-14.07-5.65-27.7-12.67-40.64-20.98,4.16-4.66,8.28-9.34,12.36-14.05l-3.1-2.19c-1.01-.76-1.98-1.58-2.98-2.36-3.35,5-6.68,10.02-9.98,15.06l-6.24-7.29-5.84-7.55c-.48-.63-.98-1.23-1.44-1.88l-1.35-1.96-2.7-3.88c-.89-1.29-1.81-2.55-2.68-3.85l-2.49-3.99c-1.27,2.71-2.45,5.46-3.53,8.25-.54,1.39-1.07,2.81-1.55,4.21-.47,1.39-.91,2.79-1.33,4.2-1.68,5.64-2.96,11.45-3.82,17.39-.81,5.88-1.07,11.76-.95,17.81.03,1.51.09,3.02.18,4.54.11,1.49.27,2.97.44,4.46.36,2.97.83,5.96,1.41,8.97l-5.91-7.02c-1.91-2.39-3.72-4.86-5.57-7.26-3.76-4.73-7.05-9.86-10.45-14.76-1.53,5.71-2.64,11.59-3.3,17.62-.16,1.5-.31,3.04-.4,4.54-.08,1.49-.13,2.99-.15,4.5-.04,3.02.04,6.07.23,9.14.21,3.06.47,6.21.96,9.26.49,3.04,1.11,6.1,1.84,9.17.74,3.07,1.58,6.16,2.56,9.24,1.04,3,2.2,5.99,3.48,8.99l-3.74-4.2-1.86-2.09-1.78-2.18-7.01-8.68-1.72-2.16-1.64-2.24-3.26-4.47-3.23-4.45c-.53-.75-1.08-1.47-1.59-2.23l-1.51-2.3c-.04,1.89-.08,3.85,0,5.73.08,1.89.2,3.79.37,5.7.34,3.82.86,7.69,1.56,11.59.67,3.95,1.71,7.69,2.84,11.55,1.16,3.84,2.5,7.7,4.02,11.56,1.61,3.74,3.39,7.49,5.36,11.21.98,1.86,2.01,3.72,3.08,5.58,1.08,1.84,2.26,3.59,3.45,5.37,2.4,3.55,4.96,7.06,7.69,10.53,2.78,3.38,5.77,6.61,8.88,9.83"/>
      <path class="cls-1" d="M284.64,741.37l-10.5-2.77-10.37-3.25c14.18-7.98,27.58-17,39.94-26.47,6.22-4.87,12.19-9.83,17.88-14.85,5.74-5.21,11.22-10.53,16.43-15.87l-9.97,1.84-2.54.45c-.84.13-1.68.23-2.52.34l-5.09.65-5.16.63-2.6.31-2.58.19-10.5.71c6.54-5.16,12.75-10.33,18.7-15.76,5.99-5.54,11.68-11.17,17.06-16.86,2.01-2.17,4.04-4.49,5.13-7.38,1.08-2.89.99-6.55-.81-8.26-1.52-1.56-3.79-1.36-5.89-1.08-2.36.29-4.77.67-7.16.89l-7.22.53c-4.91.47-9.74.4-14.75.51,3-8.61,6.06-17.21,9.16-25.78-1.41-.3-2.74-.82-4.12-1.22l-4.12-1.27-2.07-.63c-.7-.2-1.39-.41-2.05-.68l-4.06-1.49c-2.33,9.07-4.5,18.37-6.34,27.61-2.2-1.68-4.29-3.52-6.42-5.25l-3.17-2.61c-1.07-.84-2.04-1.84-3.07-2.75l-6.02-5.51c-1.97-1.87-3.83-3.87-5.74-5.76-3.3,8.26-5.68,16.87-6.9,25.65-1.14,8.64-1.13,17.49.18,26.34l-8.23-9.73c-1.37-1.57-2.63-3.29-3.9-4.96l-3.77-5c-.63,7.02-.88,14.26-.56,21.46.37,7.12,1.21,14.34,2.54,21.64,1.4,7.19,3.36,14.32,5.8,21.55.6,1.83,1.27,3.58,1.98,5.33.7,1.75,1.44,3.51,2.21,5.27,1.54,3.51,3.2,7.03,4.99,10.54-14.66-8.44-28.52-17.93-41.64-28.1.9.76,1.64,3.51,2.25,6.46.61,2.93,1.13,6.01,1.52,7.21,1.58,4.76,3.39,9.63,5.61,14.21,2.2,4.67,4.6,9.49,7.35,14.26,2.8,4.66,5.98,9.18,9.56,13.48,1.11,1.32,2.21,2.47,3.31,3.47,1.11.97,2.22,1.74,3.31,2.39,2.19,1.29,4.31,2,6.36,2.24,4.11.47,7.86-.87,11.32-3.35,6.94-4.98,12.52-13.85,17.27-19.53Z"/>
      <path class="cls-1" d="M122.67,621.03l-6.11-4.7c-2.02-1.59-3.94-3.28-5.93-4.94-3.91-3.36-7.99-6.66-11.72-10.28,28.85,4.65,57.06,5.41,83.8,2.65-2.85-1.25-5.49-2.73-8.25-4.16-2.73-1.45-5.53-2.88-8.27-4.41l-8.09-4.81-4.09-2.46c-1.36-.83-2.64-1.74-3.98-2.61,3.18-.55,6.3-1.1,9.46-1.73,3.18-.65,6.33-1.33,9.46-2.04,6.26-1.42,12.42-2.98,18.47-4.65,3-.82,6.09-1.76,9.11-2.7,3.02-.94,6.02-1.91,8.99-2.92s5.91-2.03,8.82-3.09c2.92-1.07,5.77-2.12,8.7-3.31-15.93-7.01-31.55-16.2-46.4-27.49,11.43-5.72,22.78-11.56,34.13-17.57-.74-.42-1.42-.87-2.1-1.33l-2.06-1.38-4.17-2.8-29.04,15.57c-5.71-12.97-10.31-26.3-13.78-39.79-16.7,21.14-30.91,45.63-41.81,72.81.09-1.81.13-3.62.11-5.42.03-1.82.05-3.65,0-5.46-.09-3.63-.38-7.21-.87-10.73-.4-3.57-.9-7.12-1.66-10.58-.37-1.73-.8-3.45-1.28-5.14-.4-1.73-.85-3.44-1.36-5.14-3.61,3.01-6.96,6.38-9.95,10.08-2.92,3.67-5.49,7.67-7.69,11.97-1.1,2.15-2.1,4.37-3,6.66-.91,2.29-1.72,4.66-2.32,7.03-1.25,4.77-2.07,9.78-2.42,14.95l-4.19-11.55c-.72-1.9-1.32-3.86-1.92-5.82l-1.8-5.84c.14.45-1.95,3.12-4.15,5.9-2.2,2.77-4.51,5.64-4.91,6.31-.72,1.19-1.42,2.41-2.09,3.65-.66,1.23-1.26,2.48-1.84,3.75-1.17,2.54-2.22,5.18-3.16,7.9-.95,2.76-1.79,5.61-2.51,8.55-.36,1.47-.69,2.96-.99,4.47-.28,1.5-.49,3-.68,4.52-.75,6.09-1.01,12.48-.59,18.99.76,8.58,4.45,12.45,9.32,14.06,4.92,1.6,11.21.91,17.24.9,6.55-.03,12.89-.51,19.16-1.51,6.31-1.03,12.44-2.5,18.38-4.37Z"/>
      <path class="cls-1" d="M24.84,492.79c1.64,1.66,3.33,3.23,5.06,4.71,1.72,1.48,3.48,2.86,5.37,4.11,3.73,2.53,7.57,4.67,11.49,6.41,3.92,1.74,7.87,3.09,11.93,4.01,4.09.91,8.2,1.42,12.28,1.55-.73-1.04-1.47-2.08-2.18-3.16-.72-1.07-1.4-2.16-1.97-3.3-1.17-2.27-2.12-4.65-2.64-7.17-.51-2.52-.46-5.23.22-7.59.74-2.37,2.13-4.39,4.12-5.54,4.02-2.3,8.99-.63,13.35.9,7.38,2.52,14.71,4.8,21.96,6.83,1.82.51,3.61,1,5.44,1.47l5.54,1.34c3.68.86,7.34,1.66,10.98,2.41-1.66-2.67-3.37-5.34-5.03-8.06l-4.64-8.33-2.34-4.21-2.12-4.31-4.26-8.72c3.89,3.59,8.02,6.8,12.31,9.59,2.11,1.4,4.43,2.66,6.75,3.82,2.32,1.16,4.67,2.21,7.05,3.15s4.79,1.78,7.22,2.5c2.43.73,5.02,1.3,7.54,1.8,5.09.98,10.23,1.52,15.39,1.66-6.05-14.22-10.77-29.09-14.08-44.4,6.22-.32,12.48-.69,18.7-1.1-.27-1.26-.4-2.55-.55-3.83l-.47-3.84c-5.9,1.15-11.8,2.34-17.7,3.56l.32-4.88.16-2.43.3-2.44,1.14-9.65c.49-3.2,1.1-6.39,1.62-9.55l.4-2.36c.12-.79.26-1.57.46-2.36l1.07-4.68c-2.81,1.03-5.59,2.17-8.34,3.39-2.75,1.23-5.47,2.55-8.02,3.98-5.17,2.85-10.17,6.09-14.97,9.73-1.2.91-2.39,1.85-3.56,2.8-1.13.96-2.24,1.94-3.33,2.94-2.19,2.01-4.33,4.12-6.4,6.32-2.06,2.2-4.1,4.51-6.01,6.9-1.83,2.38-3.59,4.86-5.28,7.42l.35-4.65.18-2.31c.06-.77.19-1.55.28-2.32l1.18-9.21c.21-1.53.37-3.04.61-4.56l.83-4.55,1.64-9.01c-5.11,2.99-10.05,6.41-14.78,10.25-1.18.96-2.35,1.95-3.5,2.96-1.16,1.01-2.3,2.05-3.35,3.12-2.15,2.13-4.25,4.36-6.27,6.7-4.05,4.67-7.93,9.76-11.1,15.19-1.63,2.72-3.19,5.53-4.67,8.43-.73,1.45-1.47,2.92-2.14,4.42-.64,1.49-1.25,2.99-1.84,4.52.11-1.9.12-3.79.32-5.69l.53-5.68c.37-3.77.7-7.52,1.12-11.24l1.65-11.12.84-5.5c.34-1.83.73-3.65,1.09-5.47-5.64,5.3-10.43,11.25-14.94,17.83-4.62,6.58-8.2,13.73-11.5,21.42-.79,1.92-1.65,3.88-2.29,5.85-.67,1.97-1.31,3.98-1.92,6.01-1.21,4.07-2.29,8.25-3.21,12.52-.77,4.25-1.39,8.59-1.87,13.01-.24,2.21-.44,4.44-.6,6.69-.09,2.23-.12,4.47-.12,6.73"/>
      <path class="cls-1" d="M75.72,565.82c-.93-1.57-1.91-3.13-2.8-4.73l-2.62-4.83-5.21-9.71c31.62,9.01,63.14,13.2,93.41,12.94-11.45-7.54-22.26-16.33-32.87-25.97,16.47,2.17,32.65,3.09,48.62,2.68,2.94-.06,5.96-.19,8.77-1.45,2.8-1.26,5.36-3.94,5.36-6.51,0-2.2-1.82-3.69-3.55-5-2.01-1.45-3.77-3.05-5.66-4.63l-5.66-4.8c-1.82-1.66-3.59-3.38-5.42-5.09l-2.74-2.6c-.92-.87-1.85-1.74-2.69-2.66,8.24-3.97,16.49-7.89,24.77-11.75l-4.21-7.73-3.83-7.96c-8.05,4.78-16.02,9.81-23.92,15.08l-.96-8.37c-.2-1.37-.2-2.8-.31-4.19l-.25-4.18c-.49-5.51-.33-11.11-.44-16.55-16.25,6.98-31.06,17.78-41.39,32.22l.42-6.46c.15-2.14.26-4.26.55-6.4l1.54-12.64c-5.39,4.55-10.55,9.51-15.46,14.88-1.23,1.34-2.44,2.71-3.63,4.11-1.18,1.39-2.28,2.79-3.4,4.23-2.22,2.87-4.37,5.84-6.44,8.92-2.05,3.07-4.13,6.27-5.94,9.51-1.81,3.24-3.54,6.59-5.18,10.03-1.63,3.43-3.24,6.99-4.63,10.6-1.35,3.59-2.61,7.27-3.77,11.04l-1.65-6.2-.81-3.09c-.26-1.03-.47-2.09-.7-3.13l-2.67-12.49c-.48-2.06-.76-4.18-1.12-6.27l-1.02-6.27-1-6.25c-.27-2.1-.48-4.2-.72-6.29.13,1.19-1.4,3.71-3.09,6.26-1.67,2.54-3.42,5.09-3.98,6.23-2.21,4.53-4.24,9.26-6.08,14.17-.97,2.48-1.71,4.96-2.53,7.54-.79,2.57-1.55,5.19-2.23,7.87-.68,2.68-1.31,5.41-1.82,8.17-.43,2.73-.76,5.51-.97,8.31-.49,6.91.76,11.88,3.45,15.11,2.62,3.27,6.32,4.97,10.49,5.73,4.18.75,8.77.58,13.32.11,4.56-.47,8.98-1.2,12.7-1.51Z"/>
      <path class="cls-1" d="M46.94,363.48c-1.42-10.28-2.11-20.68-2.62-31.27,17.03,24,36.41,44.73,57.2,61.97-1.12-2.94-1.95-5.9-2.87-8.9l-2.71-9.09c-.81-3.05-1.52-6.13-2.27-9.25l-1.11-4.7-.55-2.37c-.18-.79-.3-1.57-.45-2.36l3.93,2.8,4.03,2.75c2.69,1.81,5.39,3.59,8.09,5.32,5.41,3.47,10.83,6.77,16.27,9.91,5.57,3.16,11.17,6.15,16.77,8.99,2.8,1.42,5.6,2.79,8.4,4.13,2.8,1.34,5.58,2.63,8.48,3.89-6.21-16.53-10.73-34.33-13.16-53.08,12.16,4.1,24.35,8.05,36.58,11.87-.86-3.3-1.35-6.57-1.95-9.93l-31.51-9.63c5.21-13.41,11.45-26.29,18.68-38.5-26.87,3.29-54.3,10.69-81.31,22.36,2.76-2.46,5.26-5.07,7.78-7.73,2.55-2.65,4.94-5.41,7.14-8.27,1.12-1.42,2.11-2.9,3.21-4.35,1.09-1.45,2.13-2.93,3.12-4.43.99-1.5,1.94-3.03,2.83-4.58.9-1.55,1.7-3.14,2.61-4.69-4.73-.45-9.4-.38-14.09.15-4.69.53-9.38,1.55-14.02,3.04-2.31.75-4.65,1.61-6.89,2.62-2.21,1.01-4.4,2.15-6.56,3.41-4.29,2.52-8.55,5.48-12.42,8.95,1.68-3.8,3.57-7.51,5.35-11.24l2.71-5.56,2.95-5.45c-.23.42-3.62.84-7.16,1.25-1.77.2-3.58.41-5.03.58-1.43.18-2.53.34-2.9.43-5.33,1.38-10.64,3.34-15.88,5.88-2.65,1.29-5.3,2.71-7.9,4.3-2.53,1.61-5.03,3.36-7.49,5.26-2.46,1.9-4.87,3.95-7.22,6.14-1.17,1.1-2.34,2.22-3.47,3.39-1.09,1.18-2.16,2.39-3.22,3.64-2.81,3.33-4.27,6.36-4.73,9.12-.45,2.77,0,5.25,1.25,7.6,2.42,4.68,7.23,8.67,11.49,12.98,9.08,9.3,19.66,16.85,30.63,22.67Z"/>
      <path class="cls-1" d="M69.49,201.95c-.04,2.35,0,4.65.18,6.94.21,2.31.52,4.58.91,6.8.79,4.44,1.95,8.69,3.44,12.71,1.45,4,3.4,7.84,5.61,11.4,2.21,3.56,4.72,6.84,7.49,9.83.47-2.51.97-5.08,1.7-7.57.18-.62.38-1.24.59-1.85.23-.6.49-1.19.76-1.78.55-1.17,1.17-2.3,1.91-3.38,2.94-4.31,7.94-7.53,12.4-6.31,2.24.6,3.93,2.1,5.31,3.95,1.4,1.87,2.52,4.13,3.53,6.25,3.36,7.05,6.82,13.85,10.47,20.48,3.78,6.69,7.69,13.16,11.7,19.4l2.32-9.33.59-2.35c.2-.78.45-1.54.68-2.31l1.4-4.63,1.42-4.66.71-2.34c.24-.78.54-1.53.8-2.3l3.32-9.24c.15,5.33.67,10.52,1.73,15.6,1.16,5.14,2.73,10.1,4.7,14.83.49,1.18,1.01,2.35,1.55,3.51.57,1.17,1.17,2.33,1.79,3.48,1.24,2.29,2.58,4.51,4,6.67,2.85,4.32,6.03,8.37,9.55,12.16,5.97-14.55,13.36-28.63,22.07-41.97,4.62,4.2,9.27,8.37,13.95,12.5.78-1.06,1.47-2.18,2.32-3.19l2.46-3.09c-4.99-3.36-10-6.7-15.03-10.02l3.76-3.27c1.26-1.08,2.45-2.2,3.79-3.19l7.76-6.1c5.36-3.83,10.57-7.69,16.12-11.05-5.43-2.48-11.12-4.67-16.84-6.33-5.69-1.63-11.55-2.85-17.54-3.64-1.5-.2-3.02-.38-4.52-.51-1.48-.11-2.97-.2-4.47-.26-2.99-.12-6.02-.12-9.06-.02-1.52.05-3.05.13-4.59.24-1.54.1-3.08.25-4.57.46-3.01.4-6.03.92-9.07,1.55,2.42-2.04,4.77-4.12,7.22-6.09l7.46-5.74,3.71-2.83,3.84-2.67,7.62-5.28c-5.75-1.49-11.68-2.54-17.77-3.14-6.15-.65-12.21-.63-18.43-.17-3.11.23-6.24.58-9.4,1.05-3.12.5-6.18,1.18-9.3,1.95-3.11.78-6.23,1.68-9.35,2.7-1.58.5-3.1,1.07-4.61,1.68-1.52.61-3.03,1.24-4.55,1.91l4.28-3.85c1.42-1.28,2.95-2.47,4.42-3.69l8.86-7.22c3.01-2.32,6.1-4.55,9.13-6.79l4.55-3.33c1.53-1.08,3.13-2.11,4.68-3.15-15.37-.26-31.24,2.88-46.77,9.28-1.98.77-3.85,1.67-5.75,2.59-1.89.92-3.79,1.89-5.67,2.91-1.89,1.01-3.77,2.07-5.65,3.18-.94.55-1.88,1.11-2.81,1.69l-2.71,1.82c-3.6,2.47-7.17,5.1-10.68,7.9-.87.7-1.77,1.4-2.61,2.14l-2.5,2.25c-1.66,1.52-3.31,3.09-4.93,4.69"/>
      <path class="cls-1" d="M53.18,290.38l1.42-5.38c.47-1.8.94-3.59,1.53-5.35l3.36-10.63c2,3.63,4.02,7.2,6.08,10.71,2.08,3.52,4.08,6.93,6.34,10.37,4.42,6.84,8.94,13.41,13.57,19.73,4.82,6.38,9.73,12.5,14.71,18.35,2.44,2.91,5.15,5.82,7.75,8.63,2.63,2.82,5.27,5.57,7.93,8.25l-1.77-10.29c-.53-3.46-.86-6.92-1.28-10.44l-.59-5.31c-.21-1.79-.25-3.53-.38-5.32l-.6-10.8c5.08,6.69,10.27,13.09,15.55,19.18,5.45,6.14,11.06,12.01,16.7,17.55,2.06,2.05,4.38,4.15,7.26,5.26,1.44.56,3.08.81,4.57.69,1.49-.12,2.82-.62,3.76-1.54,1.59-1.58,1.4-3.94,1.15-6.12-1.19-9.82-1.53-19.82-1.47-30.1,8.6,3.03,17.18,6.11,25.74,9.24l2.68-8.54.66-2.15.79-2.1,1.56-4.23c-9.11-2.31-18.35-4.41-27.7-6.27l5.42-6.65c.9-1.1,1.77-2.21,2.69-3.29l2.86-3.16c1.91-2.1,3.76-4.21,5.67-6.26l5.95-5.96c-8.28-3.29-16.89-5.62-25.74-6.79-8.78-1.13-17.6-.98-26.54.41l9.91-8.53c3.39-2.72,6.84-5.33,10.21-7.93-7.08-.58-14.29-.72-21.63-.38-7.21.41-14.45,1.35-21.81,2.77-3.72.69-7.29,1.6-10.9,2.61-3.61,1.02-7.24,2.16-10.88,3.44-1.81.64-3.66,1.3-5.44,2.02-1.77.73-3.54,1.49-5.31,2.29-3.54,1.59-7.08,3.31-10.62,5.17l6.66-11.13c2.29-3.66,4.74-7.21,7.11-10.79,1.2-1.78,2.36-3.58,3.61-5.32l3.82-5.18,3.82-5.15,1.91-2.56c.64-.85,1.34-1.66,2-2.5-.38.47-1.3.88-2.49,1.25-1.18.38-2.61.74-4.1,1.06-2.96.65-6.05,1.19-7.27,1.61-2.41.82-4.82,1.71-7.24,2.67-2.41.96-4.86,1.97-7.17,3.11-4.71,2.27-9.58,4.76-14.4,7.58-2.44,1.4-4.74,2.94-7.01,4.58-2.27,1.64-4.51,3.37-6.67,5.21-1.34,1.14-2.5,2.27-3.51,3.39-1.01,1.12-1.86,2.23-2.5,3.36-1.31,2.24-2.05,4.41-2.31,6.51-.53,4.19.84,8.04,3.21,11.55,4.85,7.05,13.73,12.76,19.36,17.61Z"/>
      <path class="cls-1" d="M175.01,132.09l4.75-6.17c1.61-2.04,3.17-4.18,4.88-6.13,3.37-3.97,6.79-7.98,10.28-11.98-4.49,29.08-5.07,57.49-2.14,84.39l2-4.25,1.02-2.13,1.09-2.07,4.46-8.35c1.47-2.85,3.13-5.53,4.79-8.27l5.04-8.27c1.19,6.44,2.51,12.78,3.95,19.02,1.46,6.26,2.97,12.32,4.79,18.5,1.78,6.14,3.68,12.16,5.71,18.08,1.02,2.97,2.02,5.86,3.15,8.82,1.11,2.95,2.26,5.87,3.43,8.77,7.06-16.2,16.27-32.17,27.63-47.36,5.87,11.4,11.87,22.73,17.98,33.98.89-1.43,1.74-2.94,2.68-4.33l2.87-4.19-15.93-28.84c13.11-6.02,26.59-10.98,40.3-14.7-21.62-16.35-46.52-30.07-74.05-40.48,3.69.15,7.34.06,10.97-.16,3.69-.12,7.33-.44,10.91-.96,1.8-.25,3.55-.6,5.34-.91,1.79-.29,3.57-.62,5.33-1.01,1.76-.39,3.5-.83,5.23-1.32,1.74-.46,3.41-1.09,5.14-1.57-3.1-3.62-6.48-6.78-10.23-9.68-3.74-2.88-7.83-5.42-12.21-7.57-2.18-1.06-4.48-2.1-6.77-2.89-2.3-.81-4.67-1.52-7.09-2.12-2.43-.6-4.91-1.09-7.45-1.47-2.53-.37-5.14-.69-7.71-.73,1.9-.83,3.87-1.51,5.82-2.23l5.84-2.13,5.83-2.11c1.95-.68,3.94-1.25,5.91-1.88-.46.14-3.18-1.92-6.01-4.09-2.84-2.2-5.73-4.39-6.4-4.77-4.79-2.72-9.98-5.01-15.51-6.83-2.79-.91-5.72-1.77-8.66-2.39-2.94-.61-5.96-1.1-9.05-1.45-6.17-.68-12.69-.94-19.15-.23-4.34.42-7.5,1.58-9.76,3.23-1.13.83-2.04,1.77-2.76,2.83-.7,1.09-1.22,2.27-1.61,3.52-1.54,5.03-.87,11.24-.82,17.28.03,3.28.15,6.47.45,9.7.3,3.24.72,6.43,1.25,9.58,1.06,6.3,2.56,12.41,4.47,18.32Z"/>
      <path class="cls-1" d="M303.84,31.72c-3.35,3.24-6.27,6.92-8.8,10.65-2.53,3.74-4.67,7.59-6.41,11.51-1.75,3.87-3.01,8.05-3.91,12.11-.89,4.09-1.38,8.19-1.48,12.27,4.19-2.92,8.58-6.08,13.73-7.04,5.13-1.05,10.98.16,13.32,4.09,2.36,3.94.74,9.05-.76,13.51-2.5,7.41-4.78,14.65-6.75,22-1.95,7.44-3.66,14.79-5.12,22.06,5.42-3.32,10.85-6.92,16.57-9.91,2.84-1.54,5.69-3.19,8.6-4.66l8.84-4.29c-1.81,1.95-3.53,3.96-5.14,6.01-1.61,2.08-3.13,4.1-4.5,6.39-2.75,4.49-5.08,9.14-6.97,13.89-.96,2.35-1.76,4.85-2.46,7.36-.7,2.51-1.29,5.03-1.78,7.57-.96,5.09-1.51,10.18-1.6,15.39,14.44-6.3,29.55-11.26,45.1-14.76.39,6.23.82,12.46,1.3,18.67l3.88-.7c1.3-.23,2.61-.33,3.92-.5-1.24-5.89-2.51-11.78-3.81-17.67l9.93.63c3.3.31,6.59.76,9.85,1.11l2.44.28c.81.08,1.62.18,2.44.34l4.86.83,4.82.81c.8.14,1.6.25,2.4.42l2.39.54c-1.09-2.79-2.28-5.65-3.56-8.3-1.28-2.67-2.67-5.3-4.15-7.89-2.96-5.16-6.33-10.22-10.08-14.93-3.75-4.6-7.89-8.99-12.42-13.13-2.27-2.12-4.62-3.97-7.06-5.8-2.44-1.83-4.98-3.58-7.61-5.26l9.44.69c1.56.08,3.13.29,4.69.49l4.67.59,4.64.59c1.54.22,3.08.34,4.62.65l9.17,1.64c-3.1-5.11-6.63-10.05-10.59-14.77-3.95-4.58-8.33-8.86-13.12-12.91-4.8-4.14-9.97-7.59-15.53-10.86-2.78-1.61-5.65-3.19-8.61-4.61-2.94-1.34-5.97-2.6-9.09-3.77,15.42.45,30.62,2.4,45.38,4.83-5.43-5.37-11.53-10.21-18.25-14.7-1.68-1.15-3.39-2.12-5.14-3.12-1.75-.99-3.54-1.95-5.36-2.88-3.64-1.85-7.43-3.62-11.34-5.19-3.89-1.46-7.92-2.79-12.05-3.98-2.07-.59-4.16-1.15-6.29-1.68-2.12-.53-4.25-.88-6.41-1.27-4.32-.75-8.73-1.34-13.21-1.79-2.25-.26-4.47-.28-6.74-.37-2.26-.06-4.53-.09-6.82-.08"/>
      <path class="cls-1" d="M230.44,83.96l4.77-2.87c1.6-.94,3.17-1.95,4.82-2.8l9.83-5.29c-8.88,31.78-12.97,63.39-12.52,93.86l5.93-8.6c.99-1.47,2.05-2.85,3.12-4.23l3.23-4.18c4.28-5.73,9.02-10.97,13.82-16.5-1.01,8.34-1.75,16.54-2.21,24.59-.35,8.24-.44,16.33-.26,24.23.06,2.94.27,6.07,1.56,8.87,1.3,2.82,3.99,5.26,6.57,5.16,2.25-.03,3.77-1.85,5.11-3.59l2.28-2.95,1.15-1.49,1.2-1.41,4.9-5.69,2.5-2.88,2.61-2.73,5.33-5.52c4.07,8.16,8.1,16.34,12.07,24.55,5.24-2.81,10.47-5.82,15.96-8.28-4.94-8-10.12-15.94-15.55-23.78l8.54-1,4.22-.5,4.26-.28,8.43-.55,8.43-.12c-3.65-8.13-8.22-15.81-13.77-22.82-5.5-6.85-11.96-12.95-19.36-18.16l13.08.8,1.61.11,1.62.18,3.23.37,6.4.75c-4.68-5.35-9.78-10.51-15.28-15.35-5.46-4.68-11.33-9.08-17.62-13.19-3.16-2.1-6.34-3.87-9.66-5.69-3.31-1.78-6.72-3.49-10.23-5.1-3.52-1.66-7.07-3.05-10.73-4.37-3.65-1.32-7.4-2.55-11.24-3.68l12.55-3.36c2.07-.59,4.21-.98,6.32-1.46l6.32-1.36,6.3-1.34,6.36-1.06,6.34-1.03,3.16-.51,1.58-.25,1.59-.18c-1.21.1-3.76-1.3-6.34-2.9-2.58-1.6-5.19-3.36-6.35-3.91-2.31-1.09-4.66-2.13-7.07-3.13-1.2-.5-2.42-.99-3.64-1.46-1.22-.44-2.44-.86-3.68-1.27-4.97-1.65-10.21-3.25-15.65-4.58-2.74-.7-5.45-1.15-8.23-1.57-2.78-.41-5.59-.72-8.43-.9-7.06-.53-11.92,1.12-15.22,3.75-3.3,2.64-5,6.36-5.74,10.52-1.41,8.47.99,18.72,1.65,26.13Z"/>
      <path class="cls-1" d="M429.04,48.03l3.93-.64,3.94-.47,7.93-.92c2.65-.28,5.33-.65,8-.84l8.04-.52c-2.99,2.2-5.92,4.42-8.79,6.65-2.87,2.22-5.72,4.65-8.5,6.98-2.78,2.36-5.51,4.73-8.18,7.1-2.67,2.37-5.28,4.74-7.86,7.28-5.14,5-10.05,10.03-14.75,15.08-4.7,5.23-9.19,10.53-13.45,15.79,5.97-2.06,12.08-4.38,18.29-6.03l9.43-2.68c3.17-.84,6.36-1.5,9.58-2.25-3.69,5.39-7.22,10.75-10.59,16.22-3.38,5.56-6.6,11.13-9.66,16.72-1.53,2.79-3.02,5.58-4.46,8.38l-2.14,4.2-2.09,4.3c-2.74,5.74-5.33,11.48-7.75,17.21,16.91-6.7,35.12-11.7,54.33-14.57-3.74,12.24-7.35,24.51-10.81,36.8l10.2-2.2,8.67-31.8c14,4.96,27.47,11.02,40.29,18.08-4.52-26.96-13.2-54.36-26.14-81.16l4.02,3.92c1.36,1.3,2.75,2.56,4.16,3.78,1.41,1.22,2.85,2.39,4.32,3.53,1.46,1.14,2.97,2.18,4.45,3.33,5.95,4.5,12.36,8.1,18.9,11.49.48-9.39-.88-19.11-4.37-28.16-1.73-4.57-3.94-9.06-6.64-13.42-2.74-4.23-5.97-8.26-9.64-12.1l11.71,4.95,11.43,5.48c-.44-.21-1-3.58-1.57-7.09-.56-3.51-1.11-7.17-1.34-7.92-.79-2.69-1.73-5.38-2.82-8.05-1.1-2.63-2.36-5.2-3.76-7.76-2.84-5.18-6.27-10.32-10.3-15.25-4.07-4.75-8.73-9.3-13.93-13.51-.87-.7-1.71-1.32-2.54-1.86-.83-.53-1.64-.94-2.43-1.3-1.58-.71-3.07-1.13-4.49-1.3-2.84-.35-5.37.27-7.7,1.49-2.34,1.22-4.48,3.05-6.57,5.11-2.09,2.09-4.13,4.47-6.26,6.67-4.6,4.79-8.73,9.8-12.41,14.99-1.84,2.6-3.56,5.24-5.18,7.93-1.62,2.74-3.12,5.52-4.52,8.33Z"/>
      <path class="cls-1" d="M594.56,66.73c-4.79.07-9.44.52-13.88,1.34-4.47.87-8.79,2.21-12.83,3.81-8.1,3.25-15.13,7.75-21.05,13.55,1.29.2,2.62.37,3.91.64,1.29.28,2.57.59,3.84.96,2.54.74,5.01,1.7,7.28,3.09,4.6,2.7,7.92,7.94,6.89,12.41-1.04,4.51-5.78,6.96-9.98,9.03-3.46,1.67-6.96,3.51-10.38,5.37-3.42,1.85-6.79,3.74-10.09,5.65-3.32,1.93-6.54,3.81-9.78,5.87-3.24,2.06-6.42,4.14-9.54,6.26l4.84.98c.81.17,1.62.32,2.43.51l2.39.61,9.63,2.47,2.42.63,2.38.74,4.78,1.48,4.81,1.5,2.41.76,2.36.86c-2.65.02-5.36.3-8.02.67-2.66.37-5.27.84-7.84,1.42-1.28.29-2.56.6-3.81.94-1.26.33-2.5.71-3.77,1.15-2.51.86-4.96,1.83-7.35,2.89-2.39,1.06-4.72,2.22-6.99,3.47-2.27,1.25-4.45,2.57-6.63,4.09-4.32,2.99-8.36,6.32-12.1,9.96,15.2,5.71,29.94,12.9,43.97,21.47-4.06,4.72-8.09,9.46-12.08,14.23l6.64,4.75c3.19-5.09,6.36-10.2,9.5-15.33l1.78,1.84c.6.61,1.19,1.22,1.74,1.88l3.38,3.86c2.24,2.56,4.52,5.05,6.57,7.77l3.15,3.97,1.57,1.97.78.98.73,1.03,5.84,8.17c2.25-5.54,4.11-11.25,5.57-17.12.71-2.92,1.39-5.95,1.84-8.89.46-2.95.82-5.94,1.07-8.95.48-6.02.6-12.27.01-18.3-.27-3.05-.65-6.12-1.15-9.21-.25-1.54-.53-3.09-.83-4.64-.32-1.53-.7-3.02-1.1-4.54,2.26,2.3,4.34,4.82,6.45,7.25,2.09,2.46,4.22,4.85,6.24,7.34l5.89,7.58,2.9,3.77,2.74,3.91c.66-2.96,1.21-5.96,1.64-9.01.38-2.99.65-6.01.8-9.07.15-3.06.18-6.16.09-9.28-.09-3.13-.27-6.31-.69-9.38-.79-6.2-2.03-12.55-3.83-18.84-1.9-6.16-4.26-12.4-7.16-18.54,2.71,2.87,5.34,5.8,7.98,8.69l3.92,4.33c1.27,1.48,2.5,3,3.75,4.5l7.36,8.97,6.91,9.26c-.26-7.7-1.18-15.73-3.17-23.5-.96-3.92-2.11-7.88-3.44-11.84-1.36-3.93-3.01-7.74-4.79-11.62-.9-1.93-1.84-3.86-2.83-5.79l-1.52-2.89-1.65-2.79c-2.24-3.71-4.67-7.41-7.26-11.06l-1.98-2.73c-.67-.91-1.39-1.76-2.1-2.63-1.42-1.74-2.89-3.46-4.4-5.17-1.51-1.71-3.06-3.41-4.64-5.09l-2.41-2.51-2.53-2.37"/>
      <path class="cls-1" d="M503.92,52.32c1.86.37,3.69.86,5.52,1.34l5.5,1.45,5.51,1.47c1.84.49,3.68.97,5.48,1.57-28.95,16.52-54.36,36.33-75.65,58.35l5.23-1.12c1.75-.33,3.49-.58,5.25-.88l10.7-1.67c3.57-.41,7.18-.77,10.84-1.13l5.51-.53,5.51-.27c-6.58,5.02-12.98,10.54-19.05,16.04-3.04,2.77-5.98,5.5-8.88,8.36-2.91,2.9-5.74,5.83-8.5,8.76-2.05,2.18-4.1,4.47-5.13,7.37-1.03,2.9-.79,6.6,1.19,8.36,1.7,1.51,4.14,1.22,6.39.86l7.56-.79,3.84-.39c1.29-.14,2.58-.27,3.86-.3l7.76-.36,3.94-.17c1.31-.03,2.6,0,3.92,0-2.76,8.71-5.56,17.41-8.42,26.08l4.48,1.18,2.25.58c.75.2,1.47.47,2.21.69l8.89,2.82c1.94-9.16,3.66-18.44,5.15-27.83,2.38,1.75,4.79,3.42,7.11,5.21l6.84,5.51c1.12.93,2.29,1.77,3.36,2.77l3.25,2.91c2.15,1.95,4.34,3.8,6.42,5.79,3.02-8.47,4.95-17.07,5.73-25.96.39-4.44.48-8.92.25-13.43-.28-4.41-.88-8.84-1.81-13.27l4.66,4.82,1.15,1.2,1.11,1.26,2.2,2.52,4.35,5.01,2.15,2.49c.71.83,1.38,1.73,2.06,2.58.09-1.81.15-3.63.17-5.45,0-1.79-.02-3.58-.07-5.38-.11-3.6-.33-7.23-.68-10.89-.35-3.65-.81-7.34-1.41-11.02-.64-3.61-1.41-7.24-2.31-10.88-.9-3.65-1.92-7.31-3.07-10.98-1.16-3.66-2.52-7.17-3.98-10.78-1.47-3.58-3.06-7.17-4.79-10.76-.85-1.82-1.79-3.52-2.74-5.26-.96-1.73-1.95-3.47-2.97-5.2l5.86,3.12c1.95,1.03,3.83,2.22,5.74,3.33,3.8,2.26,7.59,4.48,11.33,6.79,7.35,4.86,14.7,9.57,21.64,14.88-.99-.73-1.85-3.6-2.6-6.6-.75-3.01-1.4-6.16-1.89-7.33-1.89-4.76-4.06-9.52-6.5-14.27-2.41-4.84-5.2-9.54-8.29-14.26-3.1-4.69-6.49-9.45-10.47-13.56-4.88-5.15-9.52-7.65-13.79-8.07-4.3-.37-8.19,1.13-11.68,3.63-3.49,2.49-6.6,5.97-9.43,9.54-1.41,1.79-2.75,3.59-4.04,5.31-1.29,1.74-2.52,3.4-3.71,4.85Z"/>
      <path class="cls-1" d="M669.59,171.89c2.15,1.54,4.35,3.05,6.48,4.64l6.3,4.9,6.33,4.98c2.1,1.68,4.09,3.47,6.14,5.22-29.42-3.98-58.09-4.07-85.18-.67,1.5.6,2.89,1.33,4.34,2l4.33,2.08,4.36,2.12,2.19,1.07c.72.37,1.42.76,2.13,1.15l8.57,4.71c1.42.81,2.91,1.58,4.3,2.44l4.2,2.59c-12.66,2.46-25.38,5.81-37.47,9.48-6.02,1.81-12.14,3.93-18.06,6.1-5.94,2.18-11.76,4.47-17.46,6.87,16.77,6.98,33.34,16.15,49.14,27.51-11.21,6.17-22.33,12.47-33.38,18.88l8.84,5.58,28.36-16.79c6.63,13.33,12.12,27.09,16.42,41.09,15.5-22.54,28.31-48.29,37.65-76.54.11,3.7.2,7.5.53,11.22.31,3.74.89,7.38,1.53,11.03,1.12,7.4,3.25,14.43,5.58,21.43,3.44-3.21,6.59-6.79,9.39-10.7,1.42-1.96,2.69-3.98,3.85-6.07,1.17-2.09,2.24-4.26,3.21-6.51,1.93-4.48,3.49-9.27,4.56-14.27.96-4.93,1.47-10.09,1.5-15.41l4.95,11.72c1.52,3.96,2.95,7.94,4.41,11.89-.17-.46,1.77-3.27,3.81-6.19,2.04-2.91,4.19-5.93,4.56-6.62,1.3-2.48,2.52-5.08,3.57-7.74,1.02-2.64,1.92-5.37,2.7-8.19,1.56-5.69,2.73-11.81,3.2-18.1.4-6.25.23-12.76-.55-19.42-1.21-8.78-5.23-12.57-10.24-14.07-5-1.54-11.34-.64-17.44-.45-6.62.22-13.06.92-19.3,2.07-6.28,1.18-12.45,2.88-18.35,4.94Z"/>
      <path class="cls-1" d="M775.48,300.64c-3.48-3.3-7.13-6.22-10.88-8.73-3.87-2.48-7.86-4.54-11.89-6.2-4.03-1.66-8.11-2.9-12.19-3.73-1.02-.21-2.04-.39-3.06-.55-1.04-.15-2.08-.27-3.11-.37-2.07-.2-4.14-.29-6.19-.29.8,1.04,1.6,2.1,2.38,3.18.73,1.1,1.44,2.22,2.09,3.37,1.31,2.3,2.41,4.72,3.08,7.31.33,1.29.52,2.64.57,3.97.02.66,0,1.32-.05,1.97-.08.66-.2,1.3-.36,1.92-.63,2.48-1.89,4.61-3.83,5.87-3.89,2.52-8.99.97-13.44-.47-3.64-1.22-7.49-2.31-11.21-3.37-3.74-1.05-7.47-2.05-11.17-2.98l-5.54-1.35-2.76-.64-2.82-.59c-3.76-.78-7.49-1.49-11.2-2.15l2.79,4.08,1.4,2.05c.45.69.86,1.4,1.3,2.1l5.19,8.49c1.81,2.83,3.28,5.79,4.91,8.73l2.4,4.44c.79,1.49,1.64,2.97,2.33,4.49l-1.48-1.35-1.57-1.29c-1.06-.85-2.12-1.67-3.2-2.46-2.16-1.59-4.36-3.08-6.6-4.45-4.4-2.78-9.32-5-14.21-6.82-2.45-.9-4.93-1.7-7.42-2.38-1.25-.34-2.5-.65-3.75-.94-1.27-.28-2.58-.52-3.87-.73-5.18-.86-10.4-1.29-15.62-1.28,6.96,14.7,12.55,30.13,16.66,46.05-6.2.55-12.39,1.16-18.57,1.8l1.4,8.04c5.84-1.43,11.67-2.89,17.5-4.39l-.03,5.12c-.04,1.71-.19,3.43-.28,5.13l-.3,5.09c-.12,1.7-.13,3.37-.37,5.07l-1.12,10.07c-.14,1.66-.46,3.33-.73,5l-.82,4.97c5.51-2.42,10.86-5.23,16.04-8.44,5.07-3.2,9.85-6.79,14.46-10.79,2.28-2,4.57-4.1,6.69-6.29,2.08-2.18,4.1-4.47,6.05-6.85,1.95-2.38,3.83-4.85,5.64-7.42l1.34-1.94c.43-.65.83-1.3,1.24-1.96.81-1.32,1.6-2.66,2.37-4.03l-.09,4.85c-.06,1.62-.2,3.24-.3,4.85l-.67,9.63c-.08,1.59-.29,3.19-.48,4.79l-.58,4.77-.58,4.74c-.21,1.58-.34,3.14-.65,4.71,2.59-1.67,4.95-3.44,7.34-5.32,2.37-1.88,4.69-3.87,6.95-5.97,2.26-2.1,4.46-4.3,6.59-6.61,2.14-2.31,4.04-4.71,5.96-7.21,1.9-2.51,3.73-5.11,5.48-7.82.88-1.35,1.73-2.73,2.57-4.13.85-1.4,1.56-2.81,2.32-4.26,1.48-2.88,2.88-5.85,4.2-8.91.66-1.53,1.29-3.08,1.9-4.65l.9-2.37.78-2.39c.06,1.96-.03,3.94-.1,5.92l-.21,5.9-.23,5.86c-.04.97-.07,1.94-.13,2.92l-.25,2.92-1.04,11.59-.27,2.87c-.1.96-.26,1.92-.38,2.87l-.81,5.72c2.62-2.86,5.16-5.89,7.56-9.08,2.29-3.18,4.48-6.52,6.54-10.01,2.04-3.49,4.06-7.14,5.79-10.91,1.68-3.77,3.23-7.67,4.65-11.7.71-2.02,1.38-4.06,2.02-6.14.66-2.08,1.12-4.16,1.63-6.29.98-4.24,1.82-8.59,2.51-13.04.38-2.23.59-4.45.77-6.7.19-2.25.34-4.51.45-6.8.19-4.56.37-9.24.04-13.86"/>
      <path class="cls-1" d="M720.35,227.13l1.57,2.37,1.48,2.43,2.94,4.88,2.93,4.89c.96,1.64,1.99,3.25,2.86,4.94-32.3-8.28-64.32-11.75-94.97-10.79,6.11,3.71,11.8,7.91,17.76,12.16,2.93,2.15,5.7,4.45,8.59,6.73l4.32,3.47c1.44,1.17,2.77,2.41,4.17,3.63-8.21-.98-16.7-1.46-24.85-1.75l-6.11-.16-3.03-.04-3.08.02c-4.11.05-8.17.17-12.19.35-2.98.13-6.04.34-8.81,1.7-2.76,1.36-5.17,4.19-4.97,6.85.17,2.28,2.12,3.78,3.97,5.1,2.06,1.5,3.98,3.12,6.01,4.7,1.99,1.61,4.08,3.18,6.03,4.87l5.82,5.16,2.95,2.63c1,.87,1.87,1.82,2.83,2.73-8.04,4.34-16.11,8.64-24.19,12.88l2.4,3.98c.8,1.33,1.64,2.64,2.33,4.03l4.42,8.22c7.77-5.23,15.47-10.71,23.07-16.43.5,2.92,1.04,5.8,1.5,8.7l1.06,8.73c.17,1.45.37,2.88.51,4.32l.3,4.36.6,8.63c7.98-3.95,15.42-8.81,22.16-14.65,3.36-2.92,6.59-6.09,9.51-9.48,2.87-3.37,5.52-6.97,7.94-10.8-.03,4.51.06,8.93-.26,13.41l-.37,6.64c-.15,2.2-.19,4.36-.48,6.57,2.69-2.49,5.14-5.04,7.58-7.71,2.43-2.66,4.8-5.43,7.1-8.3,2.28-2.86,4.57-5.86,6.64-8.91,2.05-3.04,4.03-6.19,5.92-9.44,1.89-3.25,3.71-6.59,5.44-10.04,1.68-3.43,3.17-6.92,4.62-10.52,1.44-3.6,2.79-7.29,4.04-11.08,1.22-3.77,2.2-7.57,3.16-11.49,1.36,4.22,2.76,8.41,3.86,12.71l3.43,12.77c1.86,8.63,3.92,17.13,5.19,25.8-.2-1.22,1.18-3.88,2.74-6.57.79-1.34,1.6-2.7,2.29-3.86.66-1.16,1.19-2.13,1.43-2.73,1.95-4.74,3.71-9.68,5.27-14.8,1.64-5.17,2.86-10.47,3.96-16.03,1.05-5.54,1.89-11.31,1.9-17.04.05-3.55-.34-6.59-1.07-9.14-.75-2.55-1.78-4.65-3.23-6.26-2.83-3.26-6.66-4.89-10.9-5.53-8.49-1.28-18.57,1.32-26.06,2.21Z"/>
    </g>
  </g>
</svg>