<?xml version="1.0" encoding="UTF-8"?>
<svg viewBox="0 0 450 730" xmlns="http://www.w3.org/2000/svg">
 <g fill="#fff" stroke-width="2">
  <g transform="matrix(.60936 0 0 .71598 -59.024 220.33)">
   <path d="m593.33 401.4h44.198c9.5554 0 17.248 7.6926 17.248 17.248v120.74c0 9.5553-7.6925 11.248-17.248 11.248h-44.198c-9.5553 0-17.248-1.6926-17.248-11.248v-120.74c0-9.5554 7.6926-17.248 17.248-17.248z"/>
   <path d="m492.61 22.645c-11.517-38.137 109.21-180.49 128-180.38 20.109 0.13147 117.66 124.42 118.4 172.88-1.1211 10.598-31.996-8.5772-46.716-10.651-15.574 13.79 83.451 126.58 91.178 151.34 5.6057 17.958-59.714 3.5715-76.857 12.5 0 20.357 115.71 86.373 122.57 109.64 5.1416 17.445-80.857 12.143-80.857 32.5s78.054 68.242 80.857 89.643c2.5299 19.314-39.436 33.182-59.143 32.5-109.48-3.7913-155.61 1.4629-264.86 2.8572-21.988 0.28058-103.01-17.245-98.857-35.357 5.1812-22.602 89.714-75 89.714-95.357s-96.044-9.9772-89.714-26.786c9.0031-23.906 115.65-94.776 104.29-103.93-14.353-11.562-53.451 22.111-67.143 4.6429-15.555-19.845 98.327-134.2 98.327-154.83-2.4309-4.424-42.708 8.7133-49.182-1.2248z"/>
   <path d="m835.06 412.31c-42.29 36.203-58.452 9.1048-76.978 17.122-13.982 6.051-31.035 18.808-52.574 21.422-14.41 1.7482-28.041-10.12-44.939-11.116-19.712-1.1615-31.58 14.907-54.004 13.29-25.188-1.8166-35.013-14.953-60.125-15.3-19.865-0.27429-59.226 15.418-71.42 0.53772-19.024-23.214-63.705-9.0093-68.019-31.224-7.2063-37.113 209.62-217.63 227.8-217.63 18.176 0 212.11 203.53 200.26 222.9z"/>
   <path d="m825.8 283.32c-31.753 9.8612-52.645-1.9124-71.171 6.1052-13.982 6.051-38.938 23.298-70.956 23.816-29.027 0.46912-57.755-34.899-81.1-18.179-32.787 23.482-90.283 24.934-101.25 6.3115-20.553-34.892-90.41-3.7409-90.41-25.956 0-37.806 188.61-181.76 206.78-181.76 18.176 0 213.37 162.39 208.1 189.66z"/>
   <path d="m784.65 165.33c-11.272 21.638-50.065-10.938-68.475-3.1164-7.9927 3.3955-33.179 18.843-54.852 19.866-18.283 0.86224-42.23-28.892-67.332-14.948-20.934 11.628-57.12 24.354-72.276 8.9458-19.475-19.801-73.287 25.235-73.287-10.151 0-37.806 155.68-237.08 173.86-237.08 18.176 0 167.63 209.21 162.36 236.48v3e-5z"/>
   <path d="m741.06 17.905c-9.1516 11.148-38.012-16.734-66.544-1.2288-30.52 16.586-94.913 12.131-110.93 4.2534-22.178-10.907-61.55 13.316-72.028-0.06506-10.128-36.424 111.98-172.06 130.15-172.06 18.176 0 128.93 149.38 119.35 169.1v1e-5z"/>
  </g>
  <g stroke="#000">
   <path d="m299.82 508.72h25.881c5.5955 0 10.1 5.4041 10.1 12.117v84.82c0 6.7129-4.5046 7.902-10.1 7.902h-25.881c-5.5955 0-10.1-1.1892-10.1-7.902v-84.82c0-6.713 4.5046-12.117 10.1-12.117z"/>
   <path d="m240.84 242.64c-6.744-26.792 63.95-126.8 74.954-126.72 11.776 0.092361 68.901 87.409 69.33 121.45-0.65646 7.4455-18.736-6.0256-27.356-7.4824-9.12 9.6882 48.867 88.93 53.392 106.32 3.2825 12.616-34.968 2.509-45.006 8.7816 0 14.302 67.76 60.68 71.776 77.027 3.0109 12.255-47.348 8.5308-47.348 22.832s45.707 47.942 47.348 62.977c1.4816 13.568-23.093 23.312-34.633 22.832-64.107-2.6634-91.123 1.0278-155.1 2.0073-12.876 0.19708-60.32-12.115-57.889-24.839 3.034-15.878 52.535-52.69 52.535-66.991 0-14.302-56.242-7.0093-52.535-18.818 5.2721-16.794 67.721-66.583 61.068-73.013-8.4048-8.1226-31.3 15.534-39.318 3.2618-9.1089-13.942 57.579-94.276 57.579-108.77-1.4236-3.108-25.009 6.1214-28.8-0.8604z"/>
   <path d="m441.37 516.39c-24.764 25.434-34.228 6.3963-45.077 12.029-8.1875 4.251-18.174 13.214-30.787 15.049-8.4382 1.2282-16.42-7.1097-26.315-7.8093-11.543-0.81592-18.492 10.473-31.624 9.3364-14.75-1.2761-20.503-10.505-35.208-10.748-11.633-0.19269-34.682 10.832-41.823 0.37775-11.14-16.309-37.305-6.3292-39.831-21.936-4.2199-26.073 122.75-152.89 133.4-152.89 10.644 0 124.21 142.98 117.27 156.59z"/>
   <path d="m435.95 425.77c-18.594 6.9277-30.828-1.3435-41.676 4.2891-8.1875 4.251-22.801 16.368-41.551 16.731-16.998 0.32959-33.82-24.518-47.491-12.771-19.2 16.497-52.868 17.516-59.291 4.434-12.036-24.513-52.942-2.6281-52.942-18.235 0-26.56 110.45-127.69 121.09-127.69 10.644 0 124.95 114.09 121.86 133.24z"/>
   <path d="m411.85 342.88c-6.6004 15.202-29.317-7.6841-40.098-2.1894-4.6803 2.3855-19.429 13.238-32.12 13.956-10.706 0.60577-24.729-20.298-39.429-10.502-12.258 8.1693-33.449 17.11-42.324 6.2847-11.404-13.91-42.916 17.728-42.916-7.1311 0-26.56 91.165-166.56 101.81-166.56 10.644 0 98.163 146.98 95.078 166.14z"/>
   <path d="m386.33 239.31c-5.359 7.8319-22.259-11.756-38.967-0.86322-17.872 11.652-55.579 8.5223-64.959 2.9882-12.987-7.6623-36.042 9.3548-42.179-0.045685-5.9311-25.589 65.572-120.88 76.216-120.88s75.499 104.94 69.889 118.8z"/>
  </g>
 </g>
 <g stroke-width="2">
  <g transform="matrix(.55211 0 0 .60258 -4.2729 288.18)" fill="#2c2c2c">
   <path d="m235.06 233.52h44.198c9.5554 0 17.248 7.6926 17.248 17.248v120.74c0 9.5553-7.6925 11.248-17.248 11.248h-44.198c-9.5554 0-17.248-1.6926-17.248-11.248v-120.74c0-9.5554 7.6926-17.248 17.248-17.248z"/>
   <path d="m134.34-145.24c-11.517-38.137 109.21-180.49 128-180.38 20.109 0.13147 117.66 124.42 118.4 172.88-1.1211 10.598-31.996-8.5772-46.716-10.651-15.574 13.79 83.451 126.58 91.178 151.34 5.6056 17.958-59.714 3.5714-76.857 12.5 0 20.357 115.71 86.373 122.57 109.64 5.1416 17.445-80.857 12.143-80.857 32.5s78.054 68.242 80.857 89.643c2.5299 19.314-39.436 33.182-59.143 32.5-109.48-3.7913-155.61 1.4629-264.86 2.8572-21.988 0.28058-103.01-17.245-98.857-35.357 5.1812-22.602 89.714-75 89.714-95.357s-96.044-9.9772-89.714-26.786c9.0031-23.906 115.65-94.776 104.29-103.93-14.353-11.562-53.451 22.111-67.143 4.6429-15.555-19.845 98.327-134.2 98.327-154.83-2.431-4.424-42.708 8.7133-49.182-1.2248z"/>
   <path d="m476.79 244.43c-42.29 36.203-58.452 9.1048-76.978 17.122-13.982 6.051-31.035 18.808-52.575 21.422-14.41 1.7482-28.041-10.12-44.939-11.116-19.712-1.1615-31.58 14.907-54.004 13.29-25.188-1.8166-35.013-14.953-60.125-15.3-19.865-0.27429-59.226 15.418-71.42 0.53772-19.024-23.214-63.705-9.0093-68.019-31.224-7.2063-37.113 209.62-217.63 227.8-217.63 18.176 0 212.11 203.53 200.26 222.9z"/>
   <path d="m467.53 115.44c-31.754 9.8612-52.645-1.9124-71.171 6.1052-13.982 6.051-38.938 23.298-70.956 23.816-29.027 0.46912-57.755-34.899-81.1-18.179-32.787 23.482-90.283 24.934-101.25 6.3115-20.553-34.892-90.41-3.7409-90.41-25.956 0-37.806 188.61-181.76 206.78-181.76 18.176 0 213.37 162.39 208.1 189.66z"/>
   <path d="m426.38-2.5531c-11.272 21.638-50.064-10.938-68.475-3.1164-7.9926 3.3955-33.179 18.843-54.852 19.866-18.283 0.86226-42.23-28.892-67.332-14.948-20.933 11.628-57.12 24.354-72.276 8.9458-19.475-19.801-73.287 25.235-73.287-10.151 0-37.806 155.68-237.08 173.86-237.08 18.176 0 167.63 209.21 162.36 236.48z"/>
   <path d="m382.8-149.98c-9.1516 11.148-38.012-16.734-66.544-1.2288-30.52 16.586-94.913 12.131-110.93 4.2534-22.178-10.907-61.55 13.316-72.028-0.065063-10.128-36.424 111.98-172.06 130.15-172.06 18.176 0 128.93 149.38 119.35 169.1v-1.5e-5z"/>
  </g>
  <g fill="#fff" stroke="#000">
   <path d="m123.06 429.74h23.45c5.0698 0 9.1513 4.5482 9.1513 10.198v71.386c0 5.6497-4.0814 6.6504-9.1513 6.6504h-23.45c-5.0698 0-9.1512-1.0008-9.1512-6.6504v-71.386c0-5.6498 4.0814-10.198 9.1512-10.198z"/>
   <path d="m69.617 205.79c-6.1104-22.549 57.942-106.72 67.912-106.65 10.669 0.077728 62.428 73.565 62.817 102.22-0.5948 6.2663-16.976-5.0713-24.786-6.2973-8.2633 8.1538 44.277 74.845 48.377 89.482 2.9742 10.618-31.683 2.1117-40.778 7.3908 0 12.036 61.394 51.069 65.033 64.827 2.728 10.314-42.901 7.1796-42.901 19.216s41.413 40.349 42.901 53.002c1.3423 11.419-20.924 19.62-31.38 19.216-58.084-2.2416-82.563 0.86499-140.53 1.6893-11.666 0.16589-54.654-10.196-52.451-20.905 2.749-13.364 47.6-44.344 47.6-56.381 0-12.036-50.959-5.8991-47.6-15.837 4.7768-14.134 61.359-56.037 55.331-61.449-7.6152-6.8361-28.359 13.073-35.624 2.7452-8.2532-11.734 52.169-79.344 52.169-91.543-1.2898-2.6157-22.66 5.1518-26.095-0.72415h-8e-6z"/>
   <path d="m251.31 436.19c-22.438 21.406-31.013 5.3833-40.842 10.124-7.4184 3.5778-16.466 11.121-27.895 12.666-7.6455 1.0336-14.878-5.9836-23.843-6.5724-10.458-0.68671-16.755 8.814-28.653 7.8577-13.364-1.074-18.577-8.8411-31.901-9.0461-10.54-0.16217-31.424 9.1162-37.894 0.31793-10.094-13.726-33.8-5.3268-36.089-18.462-3.8235-21.944 111.22-128.68 120.86-128.68 9.6437 0 112.54 120.34 106.25 131.79z"/>
   <path d="m246.4 359.92c-16.848 5.8305-27.932-1.1307-37.761 3.6097-7.4184 3.5778-20.659 13.776-37.647 14.081-15.401 0.2774-30.643-20.634-43.029-10.749-17.396 13.884-47.902 14.742-53.721 3.7318-10.905-20.63-47.969-2.2118-47.969-15.347 0-22.353 100.07-107.47 109.72-107.47 9.6437 0 113.21 96.017 110.41 112.14z"/>
   <path d="m224.57 290.15c-5.9804 12.794-26.563-6.4671-36.331-1.8426-4.2407 2.0076-17.604 11.141-29.103 11.746-9.7004 0.50983-22.406-17.083-35.725-8.8384-11.107 6.8754-30.306 14.4-38.347 5.2893-10.333-11.707-38.884 14.921-38.884-6.0017 0-22.353 82.6-140.18 92.244-140.18 9.6437 0 88.941 123.7 86.146 139.82z"/>
   <path d="m201.44 202.99c-4.8556 6.5915-20.168-9.8944-35.306-0.7265-16.193 9.8068-50.358 7.1725-58.857 2.5149-11.767-6.4487-32.657 7.8732-38.216-0.038483-5.3739-21.536 59.412-101.73 69.056-101.73 9.6437 0 68.406 88.321 63.323 99.982z"/>
  </g>
 </g>
 <g fill="#fff" stroke-width="2">
  <g transform="matrix(.49487 0 0 .60258 10.603 288.18)">
   <path d="m426.97 450.29h44.198c9.5554 0 17.248 7.6926 17.248 17.248v120.74c0 9.5553-7.6925 11.248-17.248 11.248h-44.198c-9.5554 0-17.248-1.6926-17.248-11.248v-120.74c0-9.5554 7.6926-17.248 17.248-17.248z"/>
   <path d="m326.25 71.533c-11.517-38.137 109.21-180.49 128-180.38 20.109 0.13147 117.66 124.42 118.4 172.88-1.121 10.598-31.996-8.5771-46.716-10.651-15.574 13.79 83.451 126.58 91.178 151.34 5.6057 17.958-59.714 3.5715-76.857 12.5 0 20.357 115.71 86.373 122.57 109.64 5.1416 17.445-80.857 12.143-80.857 32.5s78.054 68.242 80.857 89.643c2.5299 19.314-39.436 33.182-59.143 32.5-109.48-3.7913-155.61 1.4629-264.86 2.8572-21.988 0.28058-103.01-17.245-98.857-35.357 5.1812-22.602 89.714-75 89.714-95.357s-96.044-9.9773-89.714-26.786c9.0031-23.906 115.65-94.776 104.29-103.93-14.353-11.562-53.451 22.111-67.143 4.6428-15.555-19.845 98.327-134.2 98.327-154.83-2.431-4.424-42.708 8.7133-49.182-1.2248v-2.3e-5z"/>
   <path d="m668.7 461.2c-42.29 36.203-58.452 9.1048-76.978 17.122-13.982 6.051-31.035 18.808-52.574 21.422-14.41 1.7482-28.041-10.12-44.939-11.116-19.712-1.1615-31.58 14.907-54.004 13.29-25.188-1.8166-35.013-14.953-60.125-15.3-19.865-0.27429-59.226 15.418-71.42 0.53772-19.024-23.214-63.705-9.0093-68.019-31.224-7.2063-37.113 209.62-217.63 227.8-217.63 18.176 0 212.11 203.53 200.26 222.9z"/>
   <path d="m659.44 332.21c-31.753 9.8612-52.645-1.9124-71.171 6.1052-13.982 6.051-38.938 23.298-70.956 23.816-29.027 0.46915-57.755-34.899-81.1-18.179-32.787 23.482-90.283 24.934-101.25 6.3115-20.553-34.892-90.41-3.7409-90.41-25.956 0-37.806 188.61-181.76 206.78-181.76 18.176 0 213.37 162.39 208.1 189.66z"/>
   <path d="m618.29 214.22c-11.272 21.638-50.065-10.938-68.475-3.1165-7.9927 3.3955-33.179 18.843-54.852 19.866-18.283 0.86224-42.23-28.892-67.332-14.948-20.933 11.628-57.12 24.354-72.276 8.9458-19.475-19.801-73.287 25.235-73.287-10.151 0-37.806 155.68-237.08 173.86-237.08 18.176 0 167.63 209.21 162.36 236.48z"/>
   <path d="m574.71 66.794c-9.1516 11.148-38.012-16.734-66.544-1.2288-30.52 16.586-94.913 12.131-110.93 4.2534-22.178-10.907-61.55 13.316-72.028-0.065056-10.128-36.424 111.98-172.06 130.15-172.06 18.176 0 128.93 149.38 119.35 169.1v-2.3e-5z"/>
  </g>
  <g stroke="#000">
   <path d="m219.7 560.36h21.019c4.5442 0 8.2025 4.5482 8.2025 10.198v71.386c0 5.6497-3.6583 6.6504-8.2025 6.6504h-21.019c-4.5441 0-8.2024-1.0008-8.2024-6.6504v-71.386c0-5.6498 3.6583-10.198 8.2024-10.198z"/>
   <path d="m171.8 336.41c-5.4769-22.549 51.935-106.72 60.871-106.65 9.563 0.077728 55.956 73.565 56.304 102.22-0.53314 6.2663-15.216-5.0713-22.216-6.2973-7.4066 8.1538 39.686 74.845 43.361 89.482 2.6658 10.618-28.398 2.1117-36.55 7.3908 0 12.036 55.029 51.069 58.29 64.827 2.4452 10.314-38.452 7.1796-38.452 19.216s37.119 40.349 38.452 53.002c1.2032 11.419-18.754 19.619-28.126 19.216-52.062-2.2416-74.002 0.86499-125.96 1.6893-10.456 0.16589-48.987-10.196-47.013-20.905 2.464-13.364 42.665-44.344 42.665-56.381 0-12.036-45.675-5.8991-42.665-15.837 4.2815-14.134 54.997-56.037 49.594-61.449-6.8256-6.8361-25.419 13.073-31.93 2.7452-7.3975-11.734 46.76-79.344 46.76-91.543-1.1561-2.6157-20.31 5.1518-23.389-0.72415z"/>
   <path d="m334.66 566.81c-20.112 21.406-27.797 5.3832-36.608 10.124-6.6493 3.5778-14.759 11.121-25.002 12.666-6.8528 1.0336-13.335-5.9836-21.371-6.5724-9.374-0.68671-15.018 8.814-25.682 7.8577-11.978-1.074-16.651-8.8411-28.593-9.0461-9.4471-0.16217-28.166 9.1162-33.965 0.31793-9.047-13.726-30.296-5.3268-32.347-18.462-3.427-21.944 99.69-128.68 108.33-128.68 8.6438 0 100.87 120.34 95.235 131.79z"/>
   <path d="m330.25 490.54c-15.101 5.8305-25.036-1.1307-33.846 3.6097-6.6492 3.5778-18.517 13.776-33.744 14.081-13.804 0.2774-27.466-20.634-38.568-10.749-15.592 13.884-42.935 14.742-48.152 3.7318-9.7744-20.63-42.995-2.2118-42.995-15.347 0-22.353 89.695-107.47 98.339-107.47 8.6438 0 101.47 96.017 98.966 112.14z"/>
   <path d="m310.68 420.78c-5.3603 12.794-23.809-6.4671-32.564-1.8426-3.801 2.0076-15.779 11.141-26.086 11.746-8.6947 0.50983-20.083-17.083-32.021-8.8384-9.9551 6.8754-27.164 14.4-34.372 5.2893-9.2617-11.707-34.853 14.921-34.853-6.0017 0-22.353 74.036-140.18 82.68-140.18 8.6438 0 79.72 123.7 77.214 139.82z"/>
   <path d="m289.96 333.61c-4.3522 6.5915-18.077-9.8944-31.646-0.7265-14.514 9.8068-45.137 7.1725-52.754 2.5149-10.547-6.4487-29.271 7.8732-34.254-0.038483-4.8167-21.536 53.252-101.73 61.896-101.73 8.6439 0 61.314 88.321 56.758 99.982z"/>
  </g>
 </g>
 <g fill="#fff" stroke-width="2">
  <g transform="matrix(.32314 0 0 .42207 87.865 395.78)">
   <path d="m-16.095 557.57h44.198c9.5554 0 17.248 7.6924 17.248 17.248v120.74c0 9.5553-7.6925 11.248-17.248 11.248h-44.198c-9.5553 0-17.248-1.6926-17.248-11.248v-120.74c0-9.5554 7.6926-17.248 17.248-17.248z"/>
   <path d="m-116.82 178.81c-11.517-38.137 109.21-180.49 128-180.38 20.109 0.13147 117.66 124.42 118.4 172.88-1.121 10.598-31.996-8.5772-46.716-10.651-15.574 13.79 83.451 126.58 91.178 151.34 5.6057 17.958-59.714 3.5715-76.857 12.5 0 20.357 115.71 86.373 122.57 109.64 5.1416 17.445-80.857 12.143-80.857 32.5s78.054 68.242 80.857 89.643c2.5299 19.313-39.436 33.182-59.143 32.5-109.48-3.7914-155.61 1.4629-264.86 2.8572-21.988 0.28052-103.01-17.245-98.857-35.357 5.1812-22.602 89.714-75 89.714-95.357s-96.044-9.9772-89.714-26.786c9.0031-23.906 115.65-94.776 104.29-103.93-14.353-11.562-53.45 22.111-67.143 4.6428-15.555-19.845 98.327-134.2 98.327-154.83-2.4309-4.424-42.708 8.7133-49.182-1.2248v1.5e-5h1.5e-5z"/>
   <path d="m225.63 568.48c-42.29 36.203-58.451 9.1047-76.978 17.122-13.982 6.051-31.035 18.809-52.575 21.422-14.41 1.7482-28.041-10.12-44.939-11.116-19.712-1.1615-31.58 14.907-54.004 13.29-25.188-1.8165-35.013-14.953-60.125-15.3-19.865-0.27429-59.226 15.418-71.42 0.53772-19.024-23.214-63.705-9.0093-68.019-31.224-7.2063-37.113 209.62-217.63 227.8-217.63 18.176 0 212.11 203.53 200.26 222.9z"/>
   <path d="m216.37 439.49c-31.753 9.8612-52.645-1.9124-71.171 6.1052-13.982 6.051-38.938 23.298-70.956 23.816-29.027 0.46909-57.755-34.899-81.1-18.179-32.787 23.482-90.283 24.934-101.25 6.3115-20.553-34.892-90.41-3.7409-90.41-25.956 0-37.806 188.61-181.76 206.78-181.76 18.176 0 213.37 162.39 208.1 189.66z"/>
   <path d="m175.22 321.5c-11.272 21.638-50.065-10.938-68.475-3.1164-7.9926 3.3955-33.179 18.843-54.852 19.866-18.283 0.86227-42.23-28.892-67.332-14.948-20.934 11.628-57.12 24.354-72.276 8.9457-19.475-19.801-73.287 25.235-73.287-10.151 0-37.806 155.68-237.08 173.86-237.08 18.176 0 167.63 209.21 162.36 236.48v-3.1e-5z"/>
   <path d="m131.64 174.07c-9.1516 11.148-38.012-16.734-66.544-1.2288-30.52 16.586-94.913 12.131-110.93 4.2534-22.178-10.907-61.55 13.316-72.028-0.065063-10.128-36.424 111.98-172.06 130.15-172.06 18.176 0 128.93 149.38 119.35 169.1z"/>
  </g>
  <g stroke="#000">
   <path d="m81.23 631.7h13.725c2.9672 0 5.356 3.1857 5.356 7.143v50.001c0 3.9573-2.3888 4.6583-5.356 4.6583h-13.725c-2.9672 0-5.356-0.70099-5.356-4.6583v-50.001c0-3.9573 2.3888-7.143 5.356-7.143z"/>
   <path d="m49.953 474.84c-3.5762-15.794 33.912-74.749 39.747-74.701 6.2444 0.054443 36.537 51.528 36.765 71.597-0.34811 4.3891-9.9355-3.5521-14.507-4.4109-4.8363 5.7112 25.914 52.424 28.313 62.676 1.7407 7.4371-18.543 1.4791-23.866 5.1767 0 8.4307 35.932 35.77 38.062 45.407 1.5966 7.2246-25.108 5.0289-25.108 13.46 0 8.4307 24.238 28.262 25.108 37.125 0.78558 7.9984-12.246 13.742-18.366 13.459-33.995-1.5701-48.322 0.6059-82.246 1.1833-6.8278 0.11621-31.987-7.1417-30.698-14.643 1.6089-9.3603 27.859-31.06 27.859-39.491 0-8.4307-29.825-4.132-27.859-11.093 2.7957-9.9003 35.912-39.25 32.384-43.041-4.4569-4.7882-16.598 9.157-20.85 1.9228-4.8303-8.2185 30.533-55.576 30.533-64.12-0.75488-1.8322-13.262 3.6085-15.273-0.50723z"/>
   <path d="m156.29 636.22c-13.132 14.993-18.151 3.7706-23.904 7.091-4.3418 2.506-9.6373 7.7894-16.326 8.8716-4.4747 0.724-8.7074-4.1912-13.955-4.6035-6.121-0.48102-9.8063 6.1736-16.77 5.5038-7.8216-0.75226-10.872-6.1926-18.67-6.3362-6.1687-0.11359-18.391 6.3852-22.178 0.22266-5.9074-9.614-19.782-3.731-21.122-12.931-2.2378-15.37 65.094-90.128 70.739-90.128 5.6442 0 65.867 84.29 62.186 92.31z"/>
   <path d="m153.42 582.8c-9.8604 4.0839-16.348-0.79193-22.1 2.5284-4.3418 2.506-12.091 9.6488-22.034 9.8631-9.0138 0.19428-17.934-14.453-25.184-7.5288-10.181 9.7249-28.035 10.326-31.442 2.6138-6.3824-14.45-28.075-1.5493-28.075-10.749 0-15.657 58.568-75.274 64.213-75.274 5.6441 0 66.258 67.254 64.622 78.547z"/>
   <path d="m140.64 533.93c-3.5001 8.9612-15.546-4.5298-21.264-1.2906-2.4819 1.4062-10.303 7.8038-17.033 8.2271-5.6774 0.35706-13.114-11.966-20.908-6.1907-6.5004 4.8158-17.738 10.086-22.444 3.7048-6.0476-8.2002-22.758 10.451-22.758-4.2038 0-15.657 48.344-98.184 53.988-98.184 5.6442 0 52.055 86.644 50.419 97.937z"/>
   <path d="m127.11 472.88c-2.8418 4.6169-11.804-6.9304-20.664-0.50888-9.4773 6.869-29.473 5.0238-34.447 1.7615-6.887-4.5169-19.113 5.5146-22.367-0.026978-3.1452-15.085 34.772-71.257 40.416-71.257 5.6442 0 40.036 61.863 37.061 70.031z"/>
  </g>
 </g>
</svg>
