<?xml version="1.0" encoding="UTF-8"?>
<svg id="Layer_2" data-name="Layer 2" xmlns="http://www.w3.org/2000/svg" viewBox="0 0 709.82 718.42">
  <defs>
    <style>
      .cls-1 {
        fill: #030;
        stroke: #030;
      }

      .cls-1, .cls-2 {
        fill-rule: evenodd;
        stroke-miterlimit: 10;
        stroke-width: 5.6px;
      }

      .cls-2 {
        fill: #99cfab;
        stroke: #99cfab;
      }
    </style>
  </defs>
  <g id="Layer_1-2" data-name="Layer 1">
    <g>
      <path class="cls-1" d="M666.86,390.84c1.1,7.9,2.39,15.99,2.91,24.14-7.22-9.12-15.28-17.7-23.17-25.6-4.11-3.97-8.29-7.78-12.45-11.42-2.11-1.82-4.12-3.6-6.3-5.35-2.18-1.75-4.35-3.45-6.53-5.12l1.31,3.46c.43,1.16.91,2.32,1.25,3.49l2.26,7.07,1.13,3.59c.38,1.2.76,2.41,1.05,3.62l1.88,7.32c-4.45-2.88-8.91-5.63-13.39-8.27l-3.36-1.96-3.44-1.92c-2.3-1.27-4.6-2.5-6.91-3.71-9.23-4.83-18.36-9.18-27.93-13.09,5.28,13.09,9.41,27.1,12.11,41.87-10.1-2.97-20.22-5.84-30.36-8.61l1.91,7.88,26.25,6.88-.66,2.02c-.23.67-.51,1.33-.76,1.99l-1.54,3.96-1.52,3.95c-.47,1.33-1.13,2.59-1.69,3.88-1.17,2.57-2.27,5.15-3.44,7.7l-3.81,7.51c5.39-.9,10.87-1.96,16.42-3.19,5.4-1.28,10.84-2.74,16.36-4.36,5.59-1.6,10.87-3.49,16.36-5.5,2.73-1.01,5.47-2.06,8.23-3.16,2.77-1.09,5.37-2.27,8.09-3.48-1.06.99-2.08,2.01-3.07,3.04-.98,1.04-2.04,2.07-3,3.14-1.95,2.13-3.76,4.34-5.41,6.63-1.59,2.31-3.29,4.61-4.73,7.02-1.47,2.4-2.74,4.88-3.9,7.42,7.65.39,15.32-.68,22.75-3.23,1.85-.64,3.69-1.37,5.51-2.19,1.76-.84,3.48-1.78,5.18-2.8,3.39-2.05,6.65-4.46,9.73-7.21l-3.82,8.84c-.65,1.46-1.26,2.93-1.93,4.38l-2.12,4.3c.16-.33,2.91-.73,5.78-1.13,2.86-.4,5.87-.78,6.45-.95,4.28-1.19,8.51-2.82,12.65-4.89,2.1-1.05,4.18-2.21,6.24-3.49,1.02-.64,2.06-1.3,3.05-2,.98-.7,1.94-1.43,2.9-2.19,3.82-3.03,7.48-6.5,10.86-10.38,4.38-5.22,4.21-9.39,2.16-12.93-2.07-3.56-6.05-6.55-9.78-9.83-7.96-7.07-16.58-12.75-25.73-17.12Z"/>
      <path class="cls-1" d="M656.88,516.82c-.37-3.7-1.03-7.28-1.97-10.7-.94-3.42-2.14-6.68-3.73-9.81-3.11-6.24-7.22-11.68-12.1-16.18-.47,3.93-1.01,8.05-2.96,11.57-2.1,3.45-6.02,6.09-9.7,5.3-3.7-.79-5.97-4.44-7.9-7.69-1.59-2.69-3.2-5.34-4.84-7.95-1.69-2.63-3.43-5.24-5.17-7.8-3.51-5.13-7.01-10.05-10.73-14.86-.37,2.48-.89,4.92-1.33,7.41l-.69,3.73c-.24,1.25-.44,2.51-.76,3.73l-1.78,7.42-.9,3.75-1.07,3.69c-.37-4.12-1.37-8.3-2.62-12.28-.63-1.99-1.33-3.95-2.12-5.86-.39-.96-.8-1.9-1.24-2.84-.46-.95-.95-1.89-1.45-2.82-2-3.71-4.3-7.23-6.86-10.54-1.28-1.65-2.63-3.26-4.04-4.8-1.44-1.56-2.98-3.08-4.55-4.53-4.03,11.76-9.05,23.26-15.01,34.34-4.06-3.12-8.15-6.21-12.24-9.27l-3.41,5.26,12.97,7.23-2.72,2.83c-.94.92-1.92,1.8-2.87,2.7-1.92,1.78-3.79,3.59-5.7,5.34-4.03,3.34-7.81,6.8-11.99,9.84,4.61,1.65,9.41,3.06,14.15,4.04,4.73.96,9.55,1.6,14.43,1.9,4.94.34,9.73.17,14.59-.32,4.85-.5,9.82-1.3,14.5-2.65l-2.59,2.62-2.73,2.51-5.42,4.97c-1.75,1.68-3.71,3.18-5.57,4.75l-5.59,4.63c4.75.86,9.6,1.38,14.53,1.53,2.47.08,4.95.06,7.45-.04,2.45-.15,4.89-.4,7.36-.73,2.46-.34,4.93-.77,7.41-1.3,2.48-.53,4.99-1.13,7.36-1.91,4.81-1.53,9.64-3.42,14.39-5.7l-6.43,6.25c-2.16,2.05-4.2,4.15-6.48,6.07-4.49,3.88-8.76,7.83-13.44,11.38,3.06-.16,6.23-.4,9.28-.89,3.05-.49,6.11-1.13,9.19-1.92,3.06-.79,6.18-1.7,9.21-2.8,2.99-1.13,5.97-2.41,8.94-3.83,1.49-.71,2.97-1.45,4.44-2.23l2.21-1.19c.72-.41,1.42-.85,2.13-1.29,2.83-1.76,5.62-3.65,8.39-5.68,1.38-1.01,2.75-2.06,4.11-3.13,1.3-1.11,2.59-2.24,3.87-3.41,2.56-2.34,5.06-4.8,7.5-7.37"/>
      <path class="cls-1" d="M664.32,447.53l-.87,4.21-.45,2.1-.53,2.08-2.15,8.33c-14.43-22.11-31.41-41.65-49.72-58.12,1.43,5.33,2.28,10.68,3.33,16.2.56,2.77.85,5.51,1.23,8.3l1.06,8.46c-4.51-5.12-9.08-10.02-13.71-14.7-1.16-1.17-2.3-2.32-3.49-3.47l-3.63-3.41c-2.43-2.25-4.86-4.44-7.31-6.57-1.82-1.59-3.72-3.18-6.11-4-2.4-.82-5.44-.66-6.86.85-1.22,1.3-.95,3.17-.63,4.9.41,1.96.62,3.88.87,5.84l.75,5.93c.3,2.01.41,3.98.54,5.98l.42,6.07c-7.2-2.14-14.39-4.31-21.56-6.53-.51,2.32-1.18,4.59-1.74,6.91l-.87,3.48c-.33,1.15-.71,2.27-1.06,3.42,7.6,1.5,15.34,2.86,22.96,3.97-1.2,1.9-2.66,3.67-3.99,5.48l-4.03,5.37-4.3,5.15c-1.44,1.7-2.78,3.43-4.34,5.03,3.49,1.13,7.08,2.1,10.63,2.81,3.54.71,7.12,1.21,10.71,1.48,3.6.27,7.21.31,10.83.11,1.81-.1,3.62-.26,5.43-.48,1.78-.23,3.53-.55,5.29-.92-2.34,2.48-4.99,4.75-7.48,7.06l-3.75,3.42c-1.21,1.15-2.6,2.19-3.88,3.27,2.91.1,5.89.14,8.8.04,2.89-.11,5.8-.3,8.72-.59,2.92-.29,5.85-.67,8.79-1.15,1.47-.24,2.95-.5,4.42-.78,1.48-.28,2.89-.63,4.34-.97,5.76-1.41,11.55-3.2,17.33-5.39,5.61-2.26,11.21-4.93,16.77-7.98l-4.78,8.82c-.81,1.46-1.55,2.94-2.43,4.36l-2.59,4.27c-1.74,2.84-3.43,5.68-5.21,8.47l-5.56,8.21c1.04-1.52,9.03-2.76,10.97-3.5,3.88-1.39,7.48-3.12,11.19-4.99,3.68-1.9,7.55-3.93,11.23-6.28,3.62-2.37,7.18-5.01,10.49-7.96,1.02-.91,1.91-1.82,2.66-2.71.76-.89,1.31-1.8,1.79-2.68.94-1.76,1.41-3.46,1.51-5.09.19-3.25-1.14-6.21-3.27-8.87-4.3-5.34-11.9-9.59-16.75-13.23Z"/>
      <path class="cls-1" d="M578.07,582.74c-2.13,3.45-4.21,6.99-6.46,10.42l-6.98,10.21c.11-5.95.09-11.8-.05-17.55-.04-2.84-.25-5.81-.43-8.67-.19-2.88-.41-5.74-.66-8.56-.26-2.84-.51-5.6-.85-8.41-.37-2.83-.76-5.63-1.18-8.4-.42-2.77-.87-5.51-1.35-8.22l-.74-4.05-.87-4.08c-.77,2.39-1.71,4.66-2.63,6.98l-2.82,7.01c-.46,1.19-.99,2.33-1.52,3.47l-1.59,3.45-3.26,6.97c-3.13-10.24-6.54-20.11-10.39-29.73-1.97-4.86-4.03-9.63-6.16-14.32-1.07-2.34-2.15-4.66-3.25-6.96-1.1-2.29-2.22-4.56-3.42-6.87-4.52,13.57-10.6,27.11-18.26,40.29-5.82-8.8-11.73-17.53-17.72-26.19l-1.79,3.74-.91,1.89-.99,1.81,15.66,22.14-7.48,4.37-7.67,3.97c-2.5,1.4-5.18,2.48-7.76,3.7l-3.89,1.8-.97.45-1,.39-1.99.79c4.84,2.89,9.69,5.44,14.74,7.96,5.04,2.52,10.28,5,15.51,7.14,5.26,2.18,10.73,4.35,16.24,6.27,5.48,1.87,11.11,3.63,16.88,5.29-2.96.12-5.88.41-8.74.85-1.43.22-2.85.49-4.25.79-1.41.28-2.85.55-4.25.88-2.81.66-5.55,1.47-8.21,2.45-1.34.5-2.67.99-4,1.48-1.33.51-2.63,1.06-3.92,1.66,2.83,2.61,5.91,4.96,9.22,7.02,1.65,1.02,3.37,2,5.11,2.85,1.74.83,3.52,1.59,5.35,2.26,7.31,2.67,15.46,4.12,23.63,3.6l-4.3,2.28c-.72.37-1.43.76-2.15,1.12l-2.2,1.04-8.78,4.12c.34-.16,2.7,1.27,5.15,2.77,2.45,1.51,4.99,3.1,5.56,3.36,2.05.94,4.16,1.78,6.33,2.53,2.17.74,4.42,1.43,6.65,1.91,9.08,2.01,19.31,2.64,29.37.75,3.38-.59,5.76-1.69,7.37-3.14,1.59-1.48,2.38-3.35,2.74-5.4.7-4.11-.46-9.04-1.1-13.88-.66-5.19-1.82-10.38-3.27-15.37-1.46-4.99-3.24-9.81-5.32-14.45Z"/>
      <path class="cls-1" d="M488.29,673.68c1.08-1.51,2.08-3.05,3-4.61.92-1.56,1.73-3.23,2.47-4.87,1.48-3.29,2.65-6.64,3.51-9.99.85-3.37,1.4-6.7,1.59-10.1.18-3.41.06-6.8-.37-10.12-1.46,1.39-2.91,2.89-4.55,4.07-1.64,1.19-3.39,2.23-5.31,2.92-3.86,1.37-8.53,1.05-10.9-1.99-2.36-3.01-1.68-7.17-1.09-10.99,1.03-6.26,1.88-12.45,2.57-18.56.36-3.03.62-6.14.84-9.23.22-3.09.41-6.15.55-9.19l-5.81,5-6.06,4.72c-4.03,3.27-8.31,6.11-12.6,9.12,2.35-3.57,4.37-7.28,6.04-11.08,1.61-3.94,2.87-7.99,3.79-12.07.46-2.04.82-4.1,1.11-6.16.27-2.08.43-4.23.51-6.35.16-4.25-.02-8.5-.52-12.73l-4.09,2.42c-1.37.8-2.71,1.66-4.13,2.36l-8.43,4.46-8.66,4.03c-1.43.72-2.92,1.27-4.4,1.87l-4.44,1.81c-1.11-5.02-2.25-10.02-3.42-15.02-2.02.65-4,1.44-6.06,1.94l5.32,13.9c-5.36.39-10.59.99-15.9,1.01l-3.94.12-1.96.07-1.98-.04-7.83-.17c2.49,4.2,5.26,8.24,8.31,12.09,1.53,1.93,3.12,3.81,4.79,5.64,1.65,1.77,3.37,3.47,5.16,5.12,3.57,3.29,7.43,6.4,11.53,9.19,4.06,2.66,8.39,5.07,12.94,7.2-10.01.8-19.91,1.19-29.72.85,6.29,7.7,13.69,14.01,22.25,19.51,4.26,2.67,8.75,4.89,13.51,6.92,1.19.5,2.39.99,3.61,1.45l1.84.68,1.84.59c2.46.76,4.98,1.45,7.55,2.05-3.02.28-6.01.62-9.01.84l-9.01.43c-5.94.39-11.95.19-17.83.18,2.47,1.83,5.06,3.56,7.75,5.19,1.35.82,2.72,1.61,4.12,2.37,1.4.77,2.83,1.51,4.26,2.15,2.88,1.32,5.86,2.53,8.93,3.63,1.53.55,3.09,1.07,4.67,1.56,1.58.5,3.18.97,4.78,1.33,3.21.75,6.49,1.39,9.85,1.91,3.35.52,6.79.95,10.2,1.04,6.85.27,13.99.2,21-.88"/>
      <path class="cls-1" d="M539.22,625.05l-6.95,5.21c-2.33,1.72-4.62,3.52-7.05,5.1,3.2-26.48,3.02-52.28-.21-76.79-5.11,9.72-10.75,19.64-17.38,29.01-.03-3.38-.11-6.74-.24-10.06-.14-3.34-.39-6.74-.65-10.06-.27-3.33-.58-6.62-.94-9.88l-.57-4.86c-.22-1.63-.47-3.28-.71-4.91-.37-2.42-.8-4.9-2.11-7.08-1.31-2.18-3.74-3.99-5.8-3.69-.89.13-1.57.62-2.16,1.25-.61.61-1.11,1.38-1.57,2.13l-3.17,5.12c-.54.86-1.06,1.74-1.62,2.58l-1.72,2.48-3.51,5.02c-.6.83-1.17,1.72-1.8,2.52l-1.89,2.42c-4.16-6.27-8.28-12.56-12.38-18.87l-2.91,2.19c-.97.73-1.92,1.51-2.95,2.15l-6.05,4.1c4.87,5.97,9.92,11.87,15.13,17.69l-6.65,1.76c-2.21.58-4.48.97-6.7,1.46l-3.33.7c-1.11.23-2.19.5-3.33.65l-6.68,1.05c3.92,6.19,8.49,11.92,13.73,17.01,2.64,2.58,5.38,4.85,8.29,6.97,2.91,2.12,5.98,4.04,9.2,5.77-3.5.26-6.94.54-10.37.75l-10.31.22c4.36,3.84,9,7.45,13.92,10.81,2.48,1.72,4.94,3.18,7.52,4.68,2.57,1.48,5.2,2.88,7.91,4.22,2.69,1.32,5.5,2.66,8.29,3.76,2.8,1.11,5.66,2.15,8.58,3.12,2.92.96,5.91,1.85,8.96,2.66,3.02.76,6.06,1.37,9.18,1.93-6.17,2.76-12.6,4.95-18.89,7.3-1.56.61-3.19,1.08-4.79,1.59l-4.81,1.51c-3.21.97-6.36,2.07-9.62,2.85.91-.26,3.13.77,5.32,1.76,2.2,1.03,4.45,2.19,5.42,2.52,3.85,1.3,7.83,2.43,11.93,3.39,4.09.93,8.31,1.66,12.7,2.23,2.19.28,4.4.49,6.63.63,2.25.17,4.42.09,6.65,0,5.48-.28,9.16-1.86,11.45-4.19,2.24-2.43,3.1-5.61,3.18-9.05.15-6.9-2.86-14.94-4.19-20.84Z"/>
      <path class="cls-1" d="M384.94,673.51l-5.85,2.02-1.47.5-1.48.43-2.97.87c-3.97,1.15-7.98,2.31-12.02,3.43,3.94-4.5,7.72-9.05,11.34-13.57,1.81-2.29,3.58-4.48,5.31-6.84,1.73-2.35,3.41-4.7,5.06-7.05s3.25-4.69,4.81-7.04l2.32-3.51c.76-1.17,1.51-2.41,2.24-3.61,2.95-4.84,5.73-9.67,8.36-14.47l-6.6,3.65c-2.23,1.19-4.46,2.52-6.75,3.57l-6.92,3.33c-2.33,1.1-4.69,2.28-7.08,3.21,2.13-4.78,4.13-9.77,6.01-14.7,1.88-4.93,3.65-9.86,5.29-14.77.82-2.47,1.62-4.87,2.38-7.39.76-2.51,1.49-5.01,2.18-7.51,1.4-5,2.68-9.97,3.84-14.92l-4.7,2.76-2.38,1.4c-.8.47-1.6.94-2.42,1.34l-9.94,5.07c-3.39,1.53-6.85,3.02-10.37,4.57-1.76.82-3.54,1.42-5.33,2.1l-5.42,2.01c1.19-10.49,2.27-20.98,3.25-31.47-2.55,1.14-5.15,2.4-7.76,3.33l-2.18,27.03-8.68-1.44-8.57-1.89c-2.86-.55-5.66-1.39-8.46-2.15l-4.2-1.14c-.7-.2-1.4-.36-2.09-.58l-2.07-.69,1.47,3.96c.51,1.3,1.03,2.57,1.56,3.86,1.06,2.57,2.17,5.15,3.32,7.75,1.15,2.59,2.35,5.2,3.58,7.81,1.24,2.61,2.55,5.08,3.89,7.63,2.69,5.05,5.54,10.23,8.59,15.25,3.06,4.94,6.29,9.9,9.7,14.87-9.55-7.12-20.18-12.11-31.23-15.19,1.03,7.62,3.49,15.25,7.47,21.94,3.96,6.74,9.36,13.11,16.05,17.93l-4.82-1.01c-.8-.18-1.6-.32-2.4-.52l-2.39-.62-9.49-2.48c.36.1,1.28,2.71,2.21,5.44.93,2.73,1.87,5.58,2.15,6.15,1.97,4.04,4.38,8.08,7.22,11.75,2.88,3.7,6.19,7.26,9.92,10.58,1.86,1.64,3.83,3.3,5.89,4.75,2.06,1.44,4.22,2.81,6.47,4.08,3,1.71,5.55,2.37,7.73,2.29,1.09-.04,2.1-.26,3.03-.66.93-.42,1.78-.99,2.58-1.67,3.2-2.72,5.49-7.27,8.13-11.41,1.42-2.24,2.76-4.5,4-6.8,1.24-2.29,2.39-4.6,3.44-7.01,2.11-4.78,3.86-9.65,5.26-14.56Z"/>
      <path class="cls-1" d="M256.35,685.59c3.61-.87,7.11-2.22,10.38-3.77,3.28-1.55,6.34-3.35,9.17-5.37,2.83-2.01,5.41-4.24,7.77-6.76,2.35-2.49,4.44-5.16,6.25-7.97-2.03.14-4.11.27-6.18.21-2.05-.12-4.07-.48-6.01-1.2-3.89-1.44-7.29-4.77-7.2-8.53.09-3.77,3.35-6.67,6.27-9.17,4.84-4.12,9.5-8.29,13.98-12.51,4.51-4.31,8.86-8.79,13.01-13.24l-7.76.06c-2.6,0-5.17-.19-7.78-.28-2.6-.14-5.24-.19-7.86-.4l-7.85-.76c2.06-.6,4.09-1.28,6.07-2.03,1.98-.78,3.89-1.54,5.81-2.57,3.81-1.97,7.4-4.24,10.75-6.76,1.68-1.28,3.28-2.55,4.85-4.03,1.57-1.46,3.07-2.97,4.51-4.54,2.88-3.14,5.49-6.51,7.83-10.06-12.74-1.84-25.31-5-37.64-9.08,2.37-4.55,4.72-9.12,7.03-13.7-2-.82-4.04-1.55-6.02-2.41l-4.81,14.08-6.64-4.69c-1.1-.78-2.2-1.53-3.28-2.33l-3.17-2.51c-2.09-1.69-4.23-3.26-6.26-4.99l-6-5.24c-.76,4.85-1.19,9.74-1.29,14.68-.04,2.45-.03,4.98.13,7.4.15,2.42.4,4.85.73,7.28.33,2.43.75,4.86,1.26,7.29.51,2.42,1.09,4.89,1.83,7.2,1.45,4.69,3.26,9.34,5.43,13.94l-6.15-4.48c-2.03-1.51-4.09-2.9-6.03-4.54l-5.85-4.73-2.89-2.35-2.79-2.5c0,2.47.09,4.95.28,7.43.22,2.43.53,4.86.93,7.3.81,4.87,1.99,9.77,3.57,14.62,1.64,4.72,3.66,9.41,6.06,14.03.6,1.15,1.22,2.31,1.87,3.45.66,1.1,1.35,2.2,2.06,3.29,1.42,2.19,2.94,4.35,4.54,6.48l-7.54-5.19c-2.48-1.76-4.87-3.67-7.29-5.49l-3.59-2.75c-1.19-.92-2.39-1.82-3.53-2.81l-6.86-5.82c.74,3,1.64,6.01,2.68,9.01.52,1.5,1.08,3,1.67,4.49.59,1.5,1.27,2.91,1.95,4.36,1.38,2.88,2.91,5.74,4.59,8.58.84,1.42,1.71,2.83,2.62,4.23.91,1.41,1.89,2.7,2.88,4.05,2,2.66,4.14,5.28,6.41,7.85,1.14,1.27,2.29,2.59,3.51,3.79,1.22,1.2,2.47,2.38,3.76,3.55,2.57,2.34,5.26,4.62,8.06,6.82,2.81,2.18,5.79,4.11,8.83,6.05"/>
      <path class="cls-1" d="M327.39,681.06l-8.77-.47-4.4-.25-2.2-.13-2.19-.23c2.44-2.2,4.85-4.58,7.21-6.92,2.36-2.35,4.67-4.71,6.93-7.07,2.26-2.37,4.47-4.74,6.63-7.12,2.17-2.47,4.29-4.95,6.36-7.43,2.07-2.48,4.09-4.97,6.06-7.45,1.97-2.5,3.89-4.94,5.77-7.56,3.75-5.17,7.31-10.35,10.67-15.52l-7.83,3.12-3.99,1.57-4.02,1.36-8.19,2.71c-.69.22-1.38.46-2.08.67l-2.08.57-4.2,1.14c2.17-2.61,4.28-5.23,6.33-7.86,2.06-2.64,4.07-5.42,6.02-8.13,1.95-2.73,3.85-5.46,5.68-8.19,1.84-2.75,3.61-5.41,5.35-8.29,1.29-2.1,2.57-4.29,2.96-6.8.4-2.51-.32-5.45-2.13-6.54-1.56-.88-3.42-.4-5.12.17-7.68,2.64-15.62,4.84-23.8,6.65.82-7.48,1.68-14.95,2.58-22.42-2.45-.15-4.93-.24-7.4-.42l-7.38-.8c-.06,7.72.05,15.5.35,23.32-4.23-2.02-8.46-3.84-12.5-6.14l-6.08-3.24-5.89-3.55c-.95,7.28-1.09,14.63-.29,21.93.83,7.16,2.62,14.2,5.41,21.02l-8.56-6.14c-.71-.49-1.4-1.03-2.08-1.59l-2.05-1.64-4.05-3.26c.92,5.76,2.19,11.56,3.86,17.3,1.71,5.61,3.79,11.2,6.27,16.76.62,1.39,1.26,2.78,1.93,4.16.67,1.37,1.38,2.68,2.11,4.02,1.46,2.66,3.01,5.31,4.66,7.94,1.65,2.62,3.4,5.26,5.25,7.8,1.87,2.48,3.83,4.94,5.89,7.38l-4.91-1.5-2.45-.75-2.42-.86-9.63-3.47c-3.21-1.09-6.33-2.49-9.47-3.78-3.12-1.33-6.26-2.57-9.33-3.99.86.44,1.97,2.51,3.02,4.72,1.05,2.21,2.04,4.56,2.58,5.44,2.16,3.48,4.51,6.95,7.08,10.3,2.6,3.27,5.4,6.62,8.44,9.87,1.52,1.62,3.1,3.22,4.75,4.77,1.66,1.48,3.39,2.89,5.18,4.24,4.44,3.31,8.32,4.5,11.61,4.15,3.31-.44,6.03-2.3,8.32-4.9,4.58-5.19,7.45-13.29,10.23-18.67Z"/>
      <path class="cls-1" d="M175.42,618.48l-5.85-2.25-5.74-2.5-5.78-2.55-2.9-1.29-2.83-1.4,4.39-.61,4.42-.74c2.93-.51,5.83-1.05,8.7-1.61,2.87-.56,5.71-1.15,8.52-1.77,2.82-.64,5.67-1.38,8.46-2.1,2.79-.73,5.55-1.49,8.28-2.27,2.74-.8,5.39-1.54,8.12-2.47,5.41-1.79,10.69-3.68,15.83-5.65l-7.49-1.49-3.79-.77c-1.28-.25-2.49-.6-3.75-.91l-7.54-1.94c-1.26-.34-2.55-.65-3.81-1.01l-3.74-1.16c19.11-9.36,37.04-20.3,53.51-32.53-14.53-2.28-29.34-6.12-43.99-11.69,7.67-7.26,15.27-14.6,22.78-22-2.79-.7-5.41-1.67-8.14-2.56l-19.08,19.29-2.96-3.35c-.99-1.11-1.87-2.33-2.81-3.48-1.84-2.35-3.76-4.61-5.53-7l-5.21-7.21c-.9-1.17-1.68-2.43-2.48-3.67l-2.41-3.71c-.92,2.63-1.81,5.31-2.67,8.01l-1.28,4.09c-.41,1.37-.77,2.7-1.15,4.07-1.49,5.45-2.87,11.04-4.13,16.76-2.29,11.23-4.18,23.08-5.11,34.98-.71-2.91-1.58-5.75-2.59-8.51-.93-2.85-2-5.62-3.22-8.29-2.53-5.27-5.24-10.52-8.68-15.21-4.08,6.51-6.92,13.84-8.31,21.72-.68,3.92-.87,7.86-.75,11.94.07,2.03.24,4.08.5,6.14.26,2.07.61,4.14,1.15,6.14-.52-.65-1.05-1.28-1.56-1.94l-1.48-2.01-2.95-4.01-2.94-4-1.46-2c-.48-.68-.92-1.37-1.39-2.06.22.31-.81,2.96-1.82,5.65-1.02,2.69-2.11,5.48-2.26,6.09-1.06,4.38-1.71,8.95-1.93,13.66-.26,4.82.07,9.65.85,14.59.39,2.47.9,4.96,1.53,7.45.31,1.25.66,2.5,1.03,3.75.4,1.23.84,2.44,1.3,3.65,2.5,6.5,6.21,8.61,10.37,8.68,4.23,0,8.95-2,13.67-3.47,5.1-1.58,9.99-3.5,14.65-5.72,4.71-2.28,9.21-4.88,13.46-7.74Z"/>
      <path class="cls-1" d="M68.18,543.94c3.43,1.62,6.91,2.92,10.38,3.89,3.43,1,7.07,1.53,10.56,1.82,7.02.54,13.84-.2,20.21-2.13-3.24-2.49-6.61-5.14-8.76-8.73-.53-.9-.99-1.85-1.27-2.87-.28-1.02-.44-2.06-.46-3.07-.04-2.03.49-3.94,1.73-5.37,2.51-2.86,6.84-2.93,10.65-2.92,6.25.08,12.68-.19,18.89-.53,6.25-.37,12.3-.82,18.49-1.61-1.01-.83-2.09-1.61-3.05-2.48l-2.95-2.59-5.95-5.25c-1.94-1.8-3.8-3.67-5.72-5.52l-2.87-2.8-1.44-1.41c-.47-.47-.91-.97-1.37-1.46,1.91.93,3.99,1.68,6.03,2.38,2.05.69,4.11,1.29,6.18,1.8,2.07.51,4.14.93,6.22,1.26,2.13.3,4.28.49,6.41.6,4.27.22,8.51.08,12.7-.41,2.08-.23,4.22-.6,6.32-1.05,2.11-.45,4.2-.97,6.26-1.58-8.63-9.87-16.49-20.48-23.47-31.71,4.73-1.95,9.45-3.93,14.19-5.96-1.05-1.94-1.99-3.93-3.01-5.88l-12.7,7.72-1.16-3.96-.58-1.97-.48-2.01-1.91-7.97c-.35-1.31-.56-2.66-.82-4l-.74-4-.75-3.97c-.26-1.31-.37-2.68-.57-4.01-1.87,1.64-3.68,3.34-5.45,5.1-1.73,1.75-3.36,3.55-4.95,5.42-3.17,3.73-6.1,7.71-8.77,11.93-1.37,2.12-2.5,4.23-3.64,6.43-1.12,2.19-2.17,4.44-3.15,6.74-.97,2.3-1.9,4.67-2.69,7.06-.75,2.37-1.41,4.78-2,7.24l-1.03-3.71c-.35-1.23-.7-2.46-.96-3.72l-1.69-7.48-.83-3.71c-.29-1.23-.45-2.51-.69-3.75l-1.29-7.47c-3.1,3.8-5.94,7.86-8.5,12.19-.64,1.08-1.26,2.18-1.87,3.29-.59,1.1-1.13,2.21-1.66,3.34-1.07,2.26-2.06,4.57-2.97,6.95-.91,2.37-1.75,4.81-2.51,7.29l-.55,1.87-.46,1.86c-.3,1.25-.57,2.51-.83,3.78-.51,2.55-.94,5.14-1.28,7.77-.34,2.64-.63,5.33-.68,7.97-.96-2.93-1.63-5.99-2.42-8.96l-2.24-8.92-1.82-9c-.58-2.99-1.23-5.93-1.63-8.95-.69,1.41-1.37,2.85-1.99,4.31-.59,1.44-1.16,2.91-1.69,4.39-1.07,2.97-2.02,6.04-2.84,9.19-1.74,6.34-2.54,12.79-3.01,19.58-.11,1.69-.18,3.4-.22,5.12.01,1.69.06,3.39.14,5.11.16,3.43.45,6.9.87,10.41l.34,2.63.48,2.59c.33,1.73.7,3.47,1.1,5.21.82,3.47,1.7,7.01,2.84,10.46"/>
      <path class="cls-1" d="M125.98,586.69l-6.57-5.99c-2.15-2.04-4.21-4.17-6.32-6.26,6.71-.3,13.25-.7,19.88-1.47,6.6-.73,13-1.55,19.38-2.63,6.43-1.13,12.72-2.41,18.87-3.81,3.05-.68,6.18-1.52,9.22-2.34,3.06-.83,6.07-1.7,9.05-2.6l-8.14-2.65c-2.7-.95-5.34-2.01-8.05-3.05-5.48-2.01-10.72-4.45-16.13-6.89,6.77-1.22,13.35-2.57,19.84-4.15,6.57-1.66,12.98-3.48,19.21-5.45,2.3-.71,4.71-1.56,6.64-3.23.96-.83,1.78-1.93,2.26-3.07.48-1.13.63-2.31.31-3.36-.56-1.78-2.37-2.57-4.08-3.24-1.9-.77-3.89-1.47-5.76-2.32l-5.67-2.58-2.87-1.31c-.97-.43-1.93-.88-2.84-1.38l-5.62-2.93c5.43-5.2,10.88-10.37,16.36-15.51-1.92-1.65-3.64-3.47-5.43-5.25l-2.68-2.68-1.35-1.34c-.43-.46-.85-.94-1.27-1.41-5.08,5.97-9.88,11.96-14.63,18.15l-1.58-3.18c-.52-1.06-.96-2.18-1.44-3.26l-2.81-6.48-.7-1.61-.62-1.66-1.23-3.29c-.81-2.19-1.66-4.34-2.43-6.53-5.41,5-10.12,10.53-14.12,16.64-1.99,3.05-3.8,6.24-5.39,9.56-1.61,3.33-2.83,6.67-3.92,10.19l-1.46-5.13-1.22-5.21-1.18-5.16c-.39-1.71-.8-3.39-1.07-5.14-1.55,2.56-2.94,5.12-4.25,7.74-1.32,2.62-2.57,5.31-3.74,8.05s-2.27,5.54-3.29,8.4c-1.03,2.86-1.84,5.69-2.65,8.62-.79,2.92-1.5,5.89-2.12,8.92-.63,3.03-1.18,6.12-1.53,9.17-.38,3.07-.67,6.19-.86,9.35-.1,1.58-.18,3.17-.23,4.78-.06,1.61-.09,3.23-.05,4.8-7.45-11.71-14.42-23.59-20.23-35.99.83,1.72-2,9.44-2.3,11.54-.54,4.06-.86,8.2-1.01,12.44-.41,8.58.04,17.57,1.96,26.52,1.29,5.44,3.63,8.77,6.39,10.65,2.78,1.87,6,2.29,9.49,1.74,6.92-1.03,14.36-5.39,19.99-7.72Z"/>
      <path class="cls-1" d="M49.19,439.28l-5.83-11.24c-.48-.95-.98-1.89-1.45-2.85l-1.32-2.89-2.64-5.83c2.54,1.61,5.07,3.18,7.6,4.7l3.79,2.26c1.26.74,2.59,1.46,3.89,2.18,5.2,2.86,10.38,5.55,15.51,8.09,2.53,1.28,5.25,2.46,7.86,3.63,2.63,1.17,5.26,2.29,7.87,3.38,2.62,1.08,5.2,2.14,7.82,3.13,2.67.98,5.33,1.92,7.98,2.83l-2.48-2.98-1.24-1.5-1.16-1.54-4.67-6.23c-3.24-4.17-6-8.57-8.98-13.02,5.2,1.3,10.38,2.49,15.52,3.56,2.58.53,5.11,1.05,7.72,1.51,2.61.46,5.22.89,7.82,1.3,5.2.81,10.36,1.5,15.48,2.08,2.58.28,5.08.56,7.69.77,2.6.21,5.18.4,7.76.56-9.71-11.26-18.56-23.89-26.25-37.76,10.52-.61,21.02-1.32,31.51-2.14l-4.61-7.31-27.02,2.48c-.1-1.5-.04-3.03-.03-4.54l.05-4.54.04-4.52c.04-1.51.18-3.02.26-4.52.2-3.01.34-6.02.57-9.01l1.02-8.95c-4.77,2.91-9.55,5.99-14.34,9.26-4.62,3.26-9.23,6.7-13.84,10.31-4.69,3.62-9.05,7.39-13.46,11.35-4.37,3.95-8.91,8.1-13.02,12.39.65-1.36,1.22-2.72,1.83-4.1.62-1.38,1.21-2.78,1.75-4.18,1.08-2.81,2.01-5.64,2.75-8.51.19-.72.36-1.43.53-2.15.2-.72.39-1.44.57-2.16.36-1.45.67-2.89.94-4.35.55-2.91.89-5.83,1.1-8.76-7.32,2.39-14.15,6.22-20.24,11.4-1.52,1.3-2.99,2.67-4.41,4.13-1.43,1.46-2.67,3-3.92,4.61-2.47,3.23-4.68,6.76-6.61,10.56.37-6.73.52-13.41,1.33-20.05-.04.38-2.48,1.76-5.03,3.18-2.55,1.41-5.22,2.86-5.74,3.24-3.63,2.69-7.01,5.8-10.18,9.3-1.6,1.77-3.15,3.65-4.64,5.62-1.47,1.97-2.95,4.05-4.17,6.21-2.52,4.32-4.73,9.01-6.54,13.99-1.25,3.33-1.34,6-.84,8.19.52,2.18,1.7,3.88,3.3,5.26,3.22,2.77,7.99,4.32,12.58,6.26,9.97,4.19,20.1,6.78,30.22,7.94Z"/>
      <path class="cls-1" d="M14.99,311.93c6.17,13.94,17.04,24.2,29.23,29.45-.9-4.03-1.78-8.28-1.13-12.45.28-2.09,1.27-4.13,2.52-5.73,1.27-1.6,2.91-2.74,4.78-3.04,3.76-.59,7.12,2.16,10.03,4.64l3.61,3.06c1.19,1.01,2.42,2.01,3.68,3,2.5,1.98,5,3.91,7.51,5.8,2.51,1.89,5.02,3.73,7.53,5.52,2.52,1.8,5,3.54,7.63,5.25-.3-1.3-.5-2.61-.69-3.91l-.6-3.93-1.21-7.94-.8-8-.4-4.04-.2-2.03-.1-2.02c.86,1.96,1.96,3.9,3.08,5.76,1.13,1.87,2.32,3.67,3.58,5.41s2.58,3.42,3.96,5.02c1.37,1.6,2.95,3.16,4.5,4.63,3.14,2.95,6.49,5.6,10.02,7.95,1.78,1.18,3.55,2.27,5.46,3.3,1.91,1.03,3.85,1.98,5.83,2.85-.22-13.32.58-26.68,2.47-39.96,4.87,1.55,9.79,3.08,14.71,4.57.41-2.2,1.01-4.35,1.49-6.54l-14.7-2.24c4.3-10.31,9.64-20.06,15.25-29.38-2.48.07-5.02.2-7.45.45-2.43.25-4.86.59-7.29,1.01-4.85.85-9.67,2.04-14.45,3.59-4.66,1.58-9.2,3.55-13.69,5.85-2.21,1.16-4.52,2.38-6.59,3.74-2.1,1.35-4.18,2.8-6.22,4.33,1.09-2.37,2.11-4.74,3.25-7.07l3.57-6.9c2.26-4.61,4.95-9.02,7.51-13.42-4.83.94-9.64,2.26-14.41,3.96-2.41.84-4.67,1.82-6.96,2.87-2.28,1.06-4.54,2.22-6.77,3.47-2.24,1.25-4.45,2.59-6.64,4.03-2.16,1.44-4.19,3.01-6.24,4.65-2.04,1.64-4.04,3.38-6.01,5.2-.98.91-1.96,1.84-2.92,2.8-.95.96-1.83,1.95-2.73,2.95,1.16-2.89,2.58-5.71,3.92-8.52l4.05-8.37c1.43-2.75,2.95-5.46,4.42-8.16l2.22-4.03,1.11-2c.38-.66.8-1.31,1.19-1.97-2.94,1.27-5.65,2.76-8.41,4.37-2.74,1.61-5.45,3.38-8.12,5.28-1.33.95-2.66,1.94-3.97,2.97-1.26,1.04-2.5,2.11-3.73,3.22-2.46,2.22-4.87,4.57-7.22,7.05-1.17,1.24-2.35,2.51-3.46,3.83-1.08,1.32-2.14,2.67-3.19,4.05-2.09,2.76-4.11,5.64-6.04,8.63l-1.44,2.26-1.31,2.32c-.86,1.56-1.69,3.14-2.51,4.75-1.62,3.22-3.17,6.53-4.58,9.94"/>
      <path class="cls-1" d="M31.74,382.47c-.98-5.92-1.4-11.87-2-17.85,5.37,4.13,10.71,8.06,16.12,11.79,5.55,3.73,11.1,7.25,16.63,10.58,5.45,3.34,11.29,6.44,16.92,9.35,2.84,1.46,5.67,2.86,8.49,4.22l2.12,1.01,2.18.98,4.35,1.9-2.34-3.65-2.14-3.73-4.32-7.6c-.75-1.28-1.39-2.58-2.04-3.89l-1.96-3.94c-1.3-2.65-2.66-5.32-3.91-8.03,12,6.93,23.81,12.98,36.17,18.05,2.26.94,4.61,1.87,7.15,1.84,2.54-.03,5.33-1.27,6.12-3.3.68-1.74-.24-3.53-1.15-5.16-.53-.91-.99-1.84-1.44-2.77l-1.38-2.81-2.78-5.7c-.99-1.91-1.71-3.87-2.56-5.83l-2.49-5.95c7.5-.49,14.99-.95,22.49-1.37-.32-2.54-.47-5.09-.73-7.66l-.36-3.85c-.15-1.29-.12-2.56-.19-3.85-3.84.67-7.68,1.39-11.53,2.15-3.82.77-7.59,1.58-11.39,2.44.29-1.17.5-2.34.86-3.5l1.01-3.47,1.99-6.88c.3-1.14.73-2.27,1.12-3.39l1.17-3.36c.79-2.23,1.51-4.46,2.35-6.66-7.37.38-14.53,1.61-21.52,3.77-6.95,2.15-13.82,5.22-19.84,9.29.74-1.65,1.41-3.3,2.2-4.93l2.42-4.84,2.41-4.77c.8-1.58,1.57-3.15,2.49-4.69-1.4.49-2.81,1.01-4.18,1.55-1.36.54-2.71,1.11-4.06,1.7-2.7,1.18-5.38,2.46-8.04,3.82-5.3,2.74-10.64,5.84-15.51,9.35-4.93,3.5-9.84,7.39-14.45,11.65-4.5,4.26-8.85,8.9-13.03,13.9l1.47-10.38.76-5.16.99-5.13,2-10.21c.75-3.38,1.64-6.74,2.45-10.1-.47,1.87-7.6,6.02-9.18,7.45-3.09,2.79-5.94,5.79-8.78,8.97-1.42,1.6-2.85,3.25-4.27,4.95-1.42,1.7-2.85,3.46-4.12,5.27-2.59,3.62-5.03,7.47-7.13,11.54-.65,1.26-1.17,2.46-1.57,3.6-.4,1.14-.61,2.23-.76,3.25-.28,2.06-.13,3.88.34,5.5.94,3.24,3.21,5.65,6.13,7.5,2.89,1.85,6.53,3.14,10.15,4.2,3.61,1.06,7.2,1.9,10.12,2.83Z"/>
      <path class="cls-1" d="M68.58,224.45c.38-2.07.69-4.18,1.16-6.23l1.39-6.19c.97-4.13,1.83-8.35,3.05-12.43,1.79,5.64,3.98,11.3,6.14,16.76,2.18,5.48,4.39,10.78,6.94,16.07,2.5,5.26,5.02,10.36,7.69,15.34,2.78,5.03,5.63,9.9,8.53,14.62l.05-7.74.05-3.92.23-3.89c.34-5.19.56-10.55,1.27-15.78,6.26,8.5,13.14,16.78,20.09,24.54,6.86,7.74,14.37,15.22,21.84,22.17-.45-14.9.64-30.34,3.41-45.99,8.57,6.17,17.2,12.26,25.88,18.26l.18-2.17.28-2.12.59-4.29-22.53-15.11,2.76-3.6c.96-1.17,1.97-2.31,2.94-3.47l2.93-3.45c.98-1.14,1.92-2.32,2.98-3.4l6.18-6.59c.99-1.12,2.13-2.12,3.2-3.18l3.23-3.13c-2.77-.38-5.58-.73-8.41-1.05-2.83-.31-5.73-.63-8.53-.8-5.66-.4-11.43-.66-17.32-.78-5.82-.07-11.62.09-17.6.35-6.02.23-11.87.79-17.89,1.45,2.75-1.27,5.36-2.71,7.94-4.23,2.64-1.48,5.17-3.09,7.59-4.82,1.21-.87,2.39-1.77,3.53-2.7,1.13-.94,2.35-1.83,3.47-2.79,2.28-1.9,4.42-3.93,6.43-6.08-7.18-2.76-14.94-4.12-22.97-3.95-2.02.03-3.99.21-5.97.48-1.98.27-3.97.64-5.96,1.11-1.99.47-3.98,1.03-5.96,1.7-1.97.67-3.99,1.4-5.86,2.32,1.06-1.31,2.23-2.53,3.36-3.77l3.41-3.71,3.41-3.69c.57-.61,1.12-1.23,1.71-1.83l1.79-1.77c-.27.27-3.05-.2-5.93-.71-2.84-.49-5.79-1.02-6.42-1.04-4.51-.19-9.14.06-13.83.77-2.37.37-4.8.81-7.17,1.44-2.35.63-4.72,1.38-7.08,2.25-2.36.87-4.72,1.86-7.07,2.97-2.34,1.11-4.7,2.33-6.89,3.75-5.94,3.75-7.33,7.84-6.63,11.98.72,4.16,3.62,8.47,5.92,12.86,2.51,4.75,5.3,9.22,8.35,13.41,3.05,4.19,6.5,8.16,10.09,11.82Z"/>
      <path class="cls-2" d="M122.47,103.86c-4.01,14.71-2.09,29.54,4.04,41.3,1.86-3.69,3.86-7.54,7.01-10.36,1.54-1.44,3.59-2.42,5.57-2.86,2-.44,3.99-.29,5.62.66,3.28,1.91,4.16,6.18,4.84,9.94,1.07,6.19,2.48,12.46,3.98,18.54.75,3.05,1.53,6.06,2.34,9.04.41,1.49.81,2.96,1.25,4.45l1.37,4.47c1.2-2.39,2.59-4.62,3.94-6.93l4.1-6.92,4.43-6.73c1.51-2.23,2.94-4.58,4.59-6.71-.27,1.05-.54,2.09-.74,3.16-.2,1.08-.38,2.16-.53,3.24-.31,2.16-.52,4.32-.65,6.46-.13,2.15-.16,4.28-.11,6.4.06,2.13.29,4.31.56,6.44.56,4.26,1.48,8.44,2.72,12.49.31,1.01.64,2.02,1,3.02.37,1.01.76,2.02,1.18,3.02.83,2,1.73,3.96,2.71,5.89,8.22-10.49,17.33-20.36,27.22-29.48,2.81,4.29,5.63,8.55,8.5,12.8l5.32-4.14-9.99-11c4.89-2.71,10.08-4.91,15.06-7.26,2.55-1.09,5.15-2.08,7.69-3.12l3.81-1.53,3.9-1.34c-7.96-6.14-16.51-10.84-25.88-14.42-1.17-.44-2.35-.88-3.54-1.27-1.17-.37-2.35-.73-3.54-1.06-2.38-.67-4.81-1.26-7.27-1.76s-4.97-.93-7.5-1.27c-2.5-.29-5.01-.45-7.56-.55,9.29-4.73,18.87-8.7,28.42-12.28-8.65-4.54-18.34-8.09-28.34-9.69-10.15-1.82-20.67-1.81-31.44-.25,1.36-.76,2.78-1.43,4.2-2.11l4.23-2.02c2.83-1.32,5.59-2.7,8.43-3.93l8.56-3.57,4.25-1.75c1.43-.56,2.89-1.06,4.33-1.58-6.16-1.7-12.39-2.53-18.93-2.93-6.59-.46-13.16-.05-19.93.86-1.69.23-3.39.49-5.1.79-1.71.29-3.35.71-5.04,1.11-3.36.83-6.73,1.79-10.12,2.9-3.42,1.06-6.67,2.46-9.97,3.91-3.29,1.48-6.59,3.06-9.82,4.82"/>
      <path class="cls-1" d="M90.84,169.26l4.7-7.68,5.04-7.47c2.93,13.07,6.89,25.91,11.22,38.02,2.3,6.15,4.72,12.14,7.24,17.95.64,1.46,1.25,2.89,1.93,4.34l2.06,4.33c1.39,2.87,2.8,5.69,4.23,8.47l1.11-8.6,1.55-8.57c.97-5.84,2.46-11.47,3.86-17.33,2.44,6.46,5.01,12.74,7.71,18.82,2.85,6.19,5.82,12.18,8.91,17.97,1.14,2.15,2.37,4.34,4.39,5.94,2.01,1.59,4.88,2.34,6.83,1.3,1.65-.91,2.1-2.87,2.45-4.69l.59-3.09.3-1.56.37-1.52,1.51-6.14c.94-4.18,2.25-8.19,3.5-12.34,6.13,4.35,12.24,8.73,18.32,13.14,1.28-2.24,2.8-4.28,4.23-6.42l2.17-3.2c.37-.53.71-1.08,1.09-1.6l1.17-1.53c-3.39-1.89-6.86-3.8-10.28-5.59-3.43-1.8-6.88-3.57-10.37-5.3l2.86-2.19,2.98-2.06,5.91-4.07c.96-.7,1.99-1.31,3.01-1.94l3.04-1.88c2.04-1.23,3.98-2.53,6.05-3.69-5.99-4.39-12.3-7.92-19.09-10.67-6.76-2.72-14.01-4.65-21.27-5.3,1.62-.82,3.2-1.66,4.82-2.44l4.93-2.23,4.89-2.19,2.42-1.08,2.49-.98c-22.15-7.81-47.15-10.1-72.54-4.82,2.53-2.43,5.15-4.77,7.72-7.14l3.87-3.52c1.28-1.18,2.67-2.26,3.99-3.38l8.03-6.65c2.71-2.16,5.52-4.2,8.27-6.29-1.55,1.15-9.69-.13-11.82,0-4.15.23-8.27.74-12.49,1.41-8.54,1.28-17.37,3.44-25.83,7.1-1.32.55-2.45,1.18-3.45,1.85-1.01.66-1.89,1.35-2.65,2.05-1.53,1.42-2.58,2.92-3.25,4.48-1.32,3.12-1.16,6.37,0,9.71,2.29,6.64,7.96,13.15,11.3,18.26Z"/>
      <path class="cls-2" d="M216.65,64.49c1.6-1.45,3.28-2.76,4.96-4.1l5.07-4.02c1.7-1.34,3.4-2.7,5.14-4.02l5.3-3.79c-1.1,2.82-2.15,5.62-3.17,8.41-1,2.83-1.93,5.71-2.84,8.55-.91,2.84-1.78,5.67-2.61,8.48-.82,2.83-1.65,5.56-2.35,8.45-1.43,5.71-2.72,11.35-3.86,16.92-.59,2.75-1.06,5.63-1.52,8.44-.46,2.82-.88,5.62-1.26,8.4l5.03-6.11c.84-1.05,1.73-2,2.62-2.98l2.68-2.94,5.46-5.93c1.89-1.9,3.81-3.77,5.75-5.68-.26,5.36-.42,10.67-.46,15.93,0,5.36.12,10.67.33,15.92.22,5.26.53,10.44.98,15.6.48,5.24,1.07,10.42,1.75,15.53,9.38-12.04,20.29-23.5,32.64-34.02,2.74,10.18,5.57,20.28,8.52,30.43,2.09-2.03,4.25-4,6.43-6.04l-7.97-25.94c2.99-.82,6.06-1.33,9.1-1.93,3.05-.56,6.04-1.28,9.13-1.63l9.15-1.31,9.19-.85c-15.62-16.59-33.84-31.38-54.51-44.4,11.91,2.74,24.27,3.64,36.19,2.04-3.88-6.65-9.12-12.57-15.55-17.45-1.6-1.21-3.3-2.41-5.03-3.43-1.74-1.02-3.54-1.98-5.41-2.85-3.74-1.75-7.73-3.19-11.92-4.29l10.18-1.58,5.07-.77c1.7-.22,3.4-.37,5.1-.56-.39.04-2.27-2.06-4.21-4.27-1.94-2.23-3.92-4.49-4.4-4.89-3.43-2.97-7.23-5.66-11.38-8.03-8.44-4.94-18.2-8.08-28.92-9.59-7.07-.76-10.79,1.6-12.9,5.29-1.06,1.86-1.74,4.03-2.26,6.38-.51,2.38-.9,4.89-1.4,7.35-1.08,5.31-1.77,10.58-2.07,15.79-.3,5.2-.23,10.35.26,15.52Z"/>
      <path class="cls-2" d="M336.98,4.26c-6.28,4.54-11.5,9.72-15.43,15.77-3.94,5.95-6.63,12.33-8.02,18.86,3.86-1.7,7.92-3.44,12.23-3.65,2.15-.15,4.39.37,6.24,1.29,1.86.92,3.34,2.29,4.02,4.06,1.36,3.56-.7,7.41-2.59,10.76-3.15,5.47-6.09,11.25-8.85,16.92-1.38,2.84-2.71,5.67-4,8.5l-1.9,4.24c-.62,1.42-1.22,2.89-1.81,4.34l1.88-.8c.63-.25,1.27-.47,1.9-.71l3.82-1.39,7.72-2.8c2.6-.84,5.23-1.61,7.86-2.43l3.97-1.21c1.33-.4,2.66-.84,4-1.14l-1.33.97-1.3,1.06c-.86.71-1.7,1.44-2.52,2.18-1.64,1.48-3.21,3.01-4.7,4.6s-2.9,3.22-4.23,4.9c-1.33,1.7-2.57,3.54-3.73,5.37-4.63,7.37-7.94,15.2-9.82,23.77,13.32-2.98,26.96-4.92,40.77-5.79-.54,5.12-1.06,10.25-1.53,15.37l1.73-.05,1.73.06,3.47.1-.85-14.85,8.43,1.76,8.29,2.19c1.37.37,2.74.7,4.1,1.09l4.05,1.31c2.69.88,5.37,1.69,8.02,2.6-1.21-4.83-2.77-9.48-4.66-14.09-.95-2.3-1.98-4.58-3.09-6.83-1.12-2.24-2.31-4.51-3.61-6.59-2.59-4.23-5.52-8.32-8.78-12.26-.82-.98-1.65-1.96-2.51-2.92-.86-.93-1.74-1.83-2.64-2.73-1.8-1.79-3.68-3.54-5.64-5.23l7.77,1.74c2.57.64,5.12,1.4,7.67,2.1l7.58,2.14,7.46,2.5c-1.98-4.55-4.32-9.04-7.03-13.35-2.72-4.19-5.81-8.25-9.25-12.14-1.72-1.93-3.53-3.89-5.42-5.67-1.9-1.77-3.88-3.49-5.94-5.16-2.06-1.67-4.21-3.29-6.44-4.85-1.11-.77-2.24-1.58-3.4-2.27-1.15-.7-2.32-1.39-3.51-2.06,1.56.32,3.12.59,4.67.94l4.64,1.14,9.19,2.29,2.28.58,2.27.68,4.52,1.37,8.94,2.75c-3.81-4.98-8.2-9.73-13.12-14.21-2.46-2.29-5.05-4.25-7.77-6.24-2.72-1.97-5.56-3.86-8.52-5.66-2.96-1.86-6.03-3.37-9.21-4.88-3.18-1.49-6.46-2.89-9.83-4.18-1.69-.67-3.39-1.21-5.12-1.73-1.73-.52-3.48-1.02-5.25-1.49-3.54-.93-7.16-1.8-10.84-2.46"/>
      <path class="cls-2" d="M269.83,35.26l4.32-1.55c1.44-.51,2.88-1.05,4.35-1.48l8.79-2.68c-1.52,3.05-3,6.09-4.42,9.12-1.42,3.04-2.81,6.02-4.1,9.16-2.61,6.2-5.01,12.36-7.23,18.46l-.82,2.29-.78,2.34-1.51,4.67c-.98,3.11-1.92,6.2-2.8,9.28-.88,3.1-1.74,6.1-2.5,9.23-.76,3.13-1.47,6.24-2.14,9.33,8.42-8.19,17.67-15.64,27.49-22.94-2.26,6.6-4.29,13.14-6.1,19.61-.92,3.19-1.73,6.55-2.5,9.83-.77,3.29-1.48,6.56-2.14,9.8-.49,2.41-.95,4.9-.4,7.38.54,2.48,2.35,4.95,4.56,5.31,1.89.31,3.51-.96,4.96-2.19,6.58-5.4,13.57-10.53,20.96-15.32,2.02,7.24,4.01,14.48,5.95,21.74,1.23-.48,2.49-.84,3.75-1.2l3.78-1.12c2.53-.74,5.04-1.59,7.63-2.14-1.46-3.62-2.97-7.25-4.52-10.84-1.54-3.55-3.13-7.1-4.77-10.64,1.23.04,2.46.03,3.69.1l3.69.28,7.32.54c1.21.06,2.43.22,3.64.39l3.63.47,7.2.92c-1.91-7.09-4.63-13.89-8.23-20.29-1.8-3.2-3.82-6.29-6.06-9.26-.56-.74-1.13-1.48-1.72-2.2-.58-.7-1.18-1.39-1.79-2.08-1.22-1.36-2.5-2.69-3.83-3.98,1.81.38,3.6.73,5.39,1.13l5.35,1.39,5.29,1.39c1.75.49,3.49.87,5.22,1.47-1.57-2.58-3.22-4.97-4.96-7.39-1.74-2.4-3.57-4.77-5.49-7.1-1.92-2.33-3.92-4.62-6.02-6.86l-1.59-1.68-1.61-1.59c-1.09-1.06-2.2-2.1-3.33-3.14-2.26-2.07-4.61-4.09-7.05-6.06-1.22-.99-2.46-1.96-3.72-2.92-1.26-.97-2.55-1.91-3.84-2.77-5.19-3.53-10.73-6.84-16.59-9.9l10.7-.69,5.33-.32c1.78-.07,3.56-.07,5.34-.1l10.63-.12c3.53,0,7.07.22,10.59.34-1.97-.08-7.57-6.22-9.32-7.47-3.42-2.42-7-4.63-10.76-6.76-1.89-1.06-3.83-2.13-5.82-3.17l-3.02-1.55c-1.02-.48-2.04-.93-3.08-1.38-4.16-1.8-8.51-3.4-13.02-4.62-1.39-.37-2.7-.66-3.92-.78-1.22-.11-2.35-.13-3.41-.05-2.12.15-3.92.67-5.45,1.47-3.06,1.59-5.02,4.31-6.27,7.55-2.49,6.59-2.22,15.27-2.9,21.36Z"/>
      <path class="cls-2" d="M440.74,40.29l3.23-.04,3.22.09,6.47.2,6.53.23c2.17.13,4.33.33,6.5.5-2.65,1.45-5.26,2.89-7.85,4.39-2.6,1.56-5.17,3.13-7.69,4.72-2.52,1.59-5.01,3.19-7.46,4.8-2.45,1.61-4.85,3.21-7.24,4.97-4.78,3.44-9.4,6.93-13.85,10.45-2.22,1.72-4.44,3.63-6.6,5.49-2.17,1.86-4.29,3.74-6.38,5.62l7.8-1.44c1.32-.26,2.62-.42,3.93-.6l3.95-.52,8.01-1.02c2.68-.28,5.35-.44,8.06-.65-3.66,3.94-7.19,7.87-10.62,11.9-3.45,4.1-6.78,8.24-10,12.4-3.22,4.17-6.31,8.32-9.3,12.57-3,4.32-5.89,8.66-8.66,13.02,14.94-3.18,30.68-4.94,46.93-5.03-4.45,9.53-8.81,19.12-13.08,28.79,1.49-.19,2.91-.18,4.39-.28l4.44-.21,10.6-24.98c1.39.71,2.8,1.33,4.16,2.1l4.07,2.28,4.06,2.26,2.02,1.13,1.97,1.24,7.86,4.9c2.56,1.73,5.07,3.52,7.6,5.26-1.31-22.74-5.74-45.83-13.2-69.09.92,1.23,1.86,2.43,2.84,3.6,1,1.17,1.99,2.33,2.97,3.49,2.01,2.33,4.13,4.53,6.35,6.59,1.11,1.03,2.25,2.02,3.41,3,1.13,1.02,2.29,2.01,3.47,2.96,2.36,1.9,4.82,3.65,7.38,5.24,1.31-7.59,1.11-15.5-.68-23.38-.87-3.99-2.23-7.77-3.96-11.52-1.74-3.75-3.86-7.44-6.37-10.97l8.81,5.35,4.37,2.68c1.46.89,2.85,1.9,4.27,2.84-.33-.22-.41-3.04-.48-5.98-.05-2.96-.13-5.92-.23-6.56-.71-4.48-1.89-9-3.54-13.49-.83-2.27-1.79-4.55-2.86-6.82-1.08-2.26-2.31-4.41-3.65-6.58-2.69-4.32-5.83-8.58-9.48-12.55-4.93-5.14-9.3-5.74-13.29-4.28-3.99,1.41-7.72,5.06-11.65,8.16-4.25,3.36-8.17,6.95-11.75,10.74-1.79,1.89-3.5,3.84-5.13,5.83-1.64,2.03-3.2,4.11-4.67,6.23Z"/>
      <path class="cls-2" d="M571.74,71.66c-3.87-.29-7.66-.25-11.32.09-1.83.17-3.63.41-5.4.74-1.79.36-3.55.8-5.26,1.31-6.85,2.02-13.02,5.18-18.3,9.29,4.05,1.17,8.29,2.46,11.73,5.06,3.4,2.68,5.65,7.15,4.42,10.71-1.24,3.6-5.31,5.23-8.92,6.58-3,1.13-5.94,2.24-8.88,3.45-2.96,1.24-5.89,2.5-8.78,3.79-2.89,1.29-5.74,2.6-8.54,3.94-2.81,1.34-5.57,2.68-8.35,4.17.65.2,1.31.39,1.95.61l1.91.69,3.83,1.39c2.56.94,5.16,1.84,7.72,2.84l7.6,3.19,3.83,1.62c1.29.53,2.5,1.17,3.76,1.76-1.1-.08-2.2-.14-3.29-.18-1.09-.04-2.22,0-3.33.04-2.22.08-4.41.25-6.58.51-4.34.53-8.52,1.34-12.7,2.72-8.31,2.68-15.88,6.53-22.84,11.88,12.14,6.29,23.84,13.6,34.92,21.86-3.7,3.55-7.37,7.12-11.02,10.71l5.22,4.56,8.91-11.89,2.7,3.35c.91,1.1,1.71,2.32,2.56,3.47l5.03,6.92,4.66,7.14c.76,1.2,1.58,2.33,2.28,3.56l2.13,3.66c1.09-2.24,2.11-4.52,3.05-6.85.95-2.32,1.82-4.69,2.54-7.03,1.48-4.71,2.64-9.56,3.45-14.53.87-5.03,1.16-9.95,1.18-15.04,0-2.54-.09-5.1-.26-7.68-.17-2.6-.55-5.07-.96-7.63l2.45,3.14c.82,1.04,1.56,2.17,2.33,3.24l4.57,6.49c1.55,2.12,2.94,4.38,4.35,6.6l4.2,6.64c1.39-4.73,2.44-9.63,3.13-14.66.34-2.51.61-5.08.74-7.63.11-2.53.12-5.08.04-7.66s-.26-5.18-.53-7.81c-.14-1.31-.29-2.63-.48-3.95-.2-1.3-.45-2.59-.7-3.89-1.05-5.17-2.45-10.46-4.31-15.64,1.98,2.5,3.86,5.11,5.77,7.64l2.83,3.82,1.4,1.9c.46.64.89,1.31,1.34,1.96l5.26,7.85c.86,1.31,1.75,2.59,2.58,3.92l2.43,4.03c.1-1.59.16-3.19.18-4.81v-2.43c-.01-.8-.05-1.59-.09-2.4-.17-3.2-.49-6.45-.95-9.72-.48-3.26-1.04-6.62-1.87-9.86-.83-3.24-1.81-6.5-2.94-9.77-4.47-13.11-11.82-25.72-21.38-37.27"/>
      <path class="cls-2" d="M500.32,52.16c2.86,1.08,5.76,2.1,8.59,3.26l8.46,3.61c-3.13,1.35-6.21,2.73-9.26,4.13l-4.53,2.12c-1.5.71-3.02,1.5-4.51,2.26-5.98,3.06-11.79,6.21-17.41,9.45-11.37,6.78-21.97,13.77-32.02,21.63l4.4-.26c1.47-.07,2.97-.2,4.43-.19l8.9-.06h4.52s4.48.2,4.48.2l9.1.47c-5.97,3.59-11.74,7.28-17.29,11.05-5.58,3.84-11.02,7.95-16.21,12.04-1.93,1.52-3.88,3.13-5.06,5.38-1.18,2.24-1.39,5.31.07,7.01,1.25,1.46,3.31,1.54,5.21,1.54h3.23c1.08.01,2.13.11,3.2.16l6.46.36,3.27.19c1.09.09,2.15.23,3.24.34l6.54.73c-3.11,6.84-6.25,13.66-9.43,20.47.61.24,1.24.44,1.85.7l1.8.79,3.62,1.57c2.42,1.05,4.89,2.05,7.22,3.28,1.21-3.71,2.38-7.45,3.51-11.21,1.11-3.73,2.17-7.45,3.2-11.22.92.83,1.87,1.59,2.76,2.46l2.66,2.58,5.28,5.12c1.71,1.75,3.35,3.58,5.02,5.35l2.48,2.66,1.24,1.32,1.18,1.4c3.17-6.74,5.43-13.66,6.78-20.87.67-3.6,1.11-7.26,1.3-10.97.09-1.84.14-3.74.08-5.57-.06-1.83-.19-3.67-.38-5.51l1.72,2.16.85,1.08.81,1.13,3.22,4.49c2.12,3,4.28,5.86,6.2,8.98.89-5.95,1.28-11.82,1.33-17.85.02-3.01-.04-6.05-.21-9.11-.09-1.53-.18-3.08-.33-4.6-.15-1.51-.33-3.02-.53-4.54-.82-6.05-1.99-12.27-3.64-18.4-1.71-6.05-3.82-12.14-6.34-18.26l8.65,6.36,4.29,3.18,4.15,3.37,8.23,6.74,7.9,7.09c-1.46-1.32-1.82-9.61-2.36-11.7-.5-2.08-1.11-4.07-1.76-6.08-.65-2.01-1.36-4.03-2.12-6.05-.76-2.03-1.57-4.09-2.42-6.17-.85-2.08-1.76-4.18-2.79-6.18-2.03-4.05-4.34-8.08-7.01-11.91-1.63-2.4-3.36-4.11-5.08-5.35-1.72-1.25-3.43-2.01-5.11-2.39-3.37-.75-6.61.07-9.66,1.74-6.17,3.48-11.53,10.26-15.98,14.49Z"/>
      <path class="cls-2" d="M627.69,166.39c3.25,2.78,6.58,5.55,9.79,8.44l9.48,8.95c-5.99-1.15-11.9-2.15-17.73-3.02-5.87-.83-11.83-1.42-17.6-1.92-2.91-.24-5.74-.48-8.65-.61-2.92-.13-5.81-.23-8.68-.29s-5.71-.1-8.53-.09c-1.41,0-2.8,0-4.22.03l-4.27.15c1.15.64,2.35,1.24,3.46,1.92l3.38,2.04,6.82,4.16,1.72,1.06,1.65,1.12,3.32,2.26,6.7,4.61c-10.75,1.39-21.16,3.11-31.43,5.33-5.18,1.14-10.29,2.38-15.32,3.7-2.51.66-5.01,1.35-7.49,2.06l-3.7,1.08-3.73,1.16c13.48,7.23,26.64,16.06,39.12,26.46-9.56,4.46-19.08,9.01-28.54,13.65l3.6,2.59,1.82,1.31c.6.44,1.15.91,1.74,1.37l24.16-12.31,3.54,8.62c1.08,2.91,2.07,5.85,3.12,8.76,1.1,2.88,1.93,5.87,2.81,8.82.85,2.96,1.86,5.86,2.51,8.88l2.56-3.46c.85-1.16,1.62-2.31,2.43-3.48,1.6-2.34,3.18-4.72,4.75-7.15,1.57-2.42,3.12-4.89,4.66-7.4,1.53-2.51,2.92-5,4.35-7.56,1.42-2.56,2.82-5.16,4.21-7.8,1.37-2.63,2.79-5.34,4.02-8.01,2.53-5.37,4.98-10.89,7.35-16.57-.85,12.32.76,24.5,4.14,36.08,5.9-4.98,11.04-11.25,14.55-18.37,1.8-3.57,3.28-7.39,4.42-11.4.28-1,.55-2.02.79-3.05.21-1.01.4-2.04.56-3.07.33-2.07.57-4.18.71-6.32l1.76,4.84.87,2.42c.28.81.52,1.64.78,2.45l3.04,9.81c-.12-.38,1.6-2.58,3.42-4.86,1.82-2.28,3.72-4.63,4.06-5.18,1.19-1.96,2.3-4,3.32-6.11.51-1.06,1-2.13,1.46-3.23.45-1.09.86-2.18,1.25-3.3,3.15-9.03,5.01-19.44,4.35-30.08-.18-3.57-1-6.2-2.26-8.1-1.32-1.86-3.09-3.01-5.12-3.72-4.06-1.42-9.17-1.08-14.13-1.26-5.32-.22-10.72.08-15.93.69-5.22.62-10.31,1.61-15.26,2.93Z"/>
      <path class="cls-2" d="M707.84,274.67c-1.37-1.36-2.72-2.66-4.2-3.87-1.48-1.2-3-2.32-4.54-3.37-3.08-2.09-6.25-3.86-9.48-5.31-6.39-2.91-13.31-4.41-20.02-4.66,1.21,1.75,2.46,3.53,3.51,5.42.97,1.91,1.78,3.9,2.21,6.02.87,4.25-.12,9.08-3.37,11.02-1.65.98-3.49,1.12-5.39.86-1.92-.26-3.89-.91-5.73-1.55-6.09-2.13-12.15-4.07-18.14-5.84-6.05-1.75-12.23-3.26-18.25-4.63l4.26,6.97c1.37,2.36,2.62,4.77,3.95,7.18l1.97,3.63c.65,1.22,1.34,2.43,1.91,3.67l3.58,7.49c-3.25-3.07-6.6-5.84-10.26-8.22-3.72-2.37-7.58-4.4-11.54-6.07-1.99-.83-3.96-1.59-6.02-2.23-2.08-.64-4.18-1.19-6.3-1.65-4.22-.92-8.5-1.49-12.79-1.71,1.25,3.18,2.6,6.32,3.8,9.53l3.36,9.72c1.98,6.57,3.99,13.16,5.45,19.91-5.13.33-10.25.7-15.37,1.1.38,2.28.85,4.54,1.18,6.82l14.49-3.36c-.11,2.88-.31,5.76-.45,8.61l-.23,4.27-.45,4.27-.9,8.46-1.35,8.39c4.53-2.03,8.94-4.36,13.2-7.02,1.07-.66,2.12-1.35,3.17-2.05,1.01-.7,2.01-1.42,3-2.16,1.98-1.48,3.92-3.04,5.81-4.68s3.74-3.35,5.54-5.15c.9-.9,1.79-1.81,2.66-2.75.86-.93,1.65-1.88,2.46-2.85,3.21-3.87,6.21-8.05,8.96-12.5l-.54,7.98-.28,3.96-.14,1.97-.23,1.98-.95,7.85c-.32,2.6-.59,5.19-1.1,7.78,4.27-2.73,8.12-5.79,11.85-9.19,3.71-3.4,7.3-7.14,10.53-11.19,3.14-4.04,6.06-8.41,8.71-13.06.66-1.16,1.32-2.35,1.94-3.55.58-1.19,1.15-2.4,1.7-3.63,1.1-2.46,2.13-4.98,3.08-7.57l-.39,9.55c-.17,3.17-.53,6.35-.8,9.49-.31,3.15-.54,6.27-.94,9.39l-1.35,9.3c8.78-9.22,15.85-20.57,20.81-33.49,1.2-3.22,2.28-6.54,3.26-9.95.48-1.7.97-3.43,1.36-5.17.37-1.73.7-3.49,1.01-5.26.61-3.54,1.11-7.16,1.48-10.84.22-1.85.28-3.68.34-5.53.06-1.85.08-3.71.08-5.58"/>
      <path class="cls-2" d="M665.73,213.7l4.36,8.08,2.17,4.06,1.08,2.03,1,2.07c-26.11-7.82-52.11-12.16-77.3-13.23l6.94,5.4c2.32,1.83,4.72,3.66,6.92,5.64,4.47,3.91,9.13,7.88,13.38,12.18-3.4-.56-6.78-1.08-10.13-1.54-3.42-.43-6.84-.79-10.22-1.11-3.38-.32-6.74-.58-10.07-.8-1.67-.11-3.31-.21-4.98-.28l-5.05-.15c-2.49-.06-5.05-.06-7.4.9-2.35.97-4.46,3.16-4.39,5.38.03.95.44,1.76,1.03,2.49.56.74,1.27,1.41,1.98,2.04,6.45,5.57,12.73,11.58,18.72,18.04-6.79,3.25-13.59,6.46-20.41,9.63,1.21,2.32,2.51,4.63,3.69,6.98l3.36,7.17c6.57-4.11,13.09-8.39,19.55-12.86l.93,7.33.23,1.82.14,1.84.27,3.67.54,7.28.16,7.29c6.68-3.1,12.97-6.96,18.73-11.63,5.66-4.64,10.62-10.04,14.9-16.21l-.59,11.02c-.3,3.65-.74,7.3-1.12,10.88,4.39-3.95,8.6-8.23,12.6-12.82,3.85-4.56,7.46-9.44,10.83-14.64,3.46-5.22,6.29-10.65,8.99-16.42,1.33-2.88,2.61-5.84,3.79-8.86,1.1-2.99,2.12-6.06,3.07-9.2l1.38,5.19.68,2.59.58,2.62,2.25,10.46.55,2.6c.17.87.3,1.76.45,2.63l.87,5.26.85,5.24c.28,1.75.59,3.48.76,5.25-.06-.5.23-1.28.69-2.2.44-.92,1.06-1.97,1.72-3.04,1.31-2.12,2.77-4.27,3.22-5.22,1.8-3.79,3.45-7.74,4.95-11.84,1.37-4.07,2.71-8.35,3.83-12.79.56-2.22,1.06-4.48,1.49-6.77.39-2.28.63-4.56.81-6.88.41-5.71-.67-9.79-2.75-12.53-2.16-2.72-5.22-4.15-8.66-4.82-6.89-1.33-15.32.4-21.4.76Z"/>
    </g>
  </g>
</svg>