<?xml version="1.0" encoding="UTF-8"?>
<svg id="Layer_2" data-name="Layer 2" xmlns="http://www.w3.org/2000/svg" viewBox="0 0 595.82 608.37">
  <defs>
    <style>
      .cls-1 {
        fill: #030;
      }

      .cls-1, .cls-2 {
        fill-rule: evenodd;
        stroke: #030;
        stroke-miterlimit: 10;
        stroke-width: 5.25px;
      }

      .cls-2 {
        fill: none;
      }
    </style>
  </defs>
  <g id="Layer_1-2" data-name="Layer 1">
    <g>
      <path class="cls-1" d="M556.8,340.51c.5,3.72,1.09,7.49,1.48,11.27l.95,11.45c-13.43-17.51-28.69-32.5-44.89-44.77,1.75,4.21,3,8.5,4.47,12.9.76,2.2,1.3,4.41,1.9,6.65l1.78,6.79c-4.17-2.74-8.35-5.35-12.55-7.84-2.1-1.24-4.2-2.46-6.3-3.64l-3.16-1.75-3.24-1.71c-4.32-2.25-8.66-4.37-12.99-6.37-2.17-1-4.33-1.97-6.5-2.9-2.2-.94-4.44-1.85-6.65-2.73,4.94,11.63,8.69,24.22,10.95,37.59-9.42-3.02-18.86-5.94-28.33-8.75l.97,3.49c.29,1.17.51,2.33.78,3.51l24.39,7.2c-3.69,9.49-8.02,18.65-13.25,27.24,20.4-1.81,41.18-6.82,61.68-15.08-2.07,1.76-4.02,3.61-5.83,5.54-1.83,1.92-3.69,3.87-5.31,5.92-3.18,4.13-6.28,8.37-8.55,12.97,7.12.72,14.37.08,21.44-1.99,3.53-1.04,6.84-2.5,10.14-4.27,3.26-1.79,6.51-3.9,9.33-6.43-1.14,2.78-2.54,5.47-3.86,8.16l-1.99,4.03-1,2.01-1.09,1.97c.16-.31,2.78-.57,5.46-.84,2.66-.28,5.44-.56,6.01-.69,4.07-.96,8.13-2.35,12.12-4.16,1.01-.46,2.02-.95,3.02-1.46.97-.52,1.94-1.08,2.91-1.66,1.93-1.16,3.83-2.43,5.7-3.8,1.87-1.38,3.7-2.86,5.49-4.45,1.75-1.6,3.38-3.32,4.98-5.14,4.26-4.87,4.39-8.81,2.42-12.23-1.91-3.43-5.66-6.35-8.98-9.5-3.54-3.4-7.46-6.48-11.46-9.23-4.01-2.75-8.16-5.17-12.43-7.28Z"/>
      <path class="cls-1" d="M542.74,458.58c0-1.72-.15-3.46-.36-5.17-.21-1.71-.49-3.39-.84-5.03-.7-3.29-1.67-6.43-2.89-9.41-2.59-6.03-6.17-11.35-10.53-15.8-.31,1.83-.64,3.7-1.14,5.52-.5,1.82-1.15,3.59-2.25,5.13-2.14,3.12-5.9,5.39-9.29,4.44-3.4-.95-5.34-4.5-6.99-7.65-1.36-2.61-2.74-5.17-4.15-7.69l-2.13-3.75-2.26-3.74c-3.04-4.94-6.16-9.7-9.39-14.29l-1.54,6.72-.78,3.4c-.29,1.12-.63,2.22-.94,3.34l-1.93,6.76-2.26,6.68c-.12-1.95-.32-3.87-.61-5.77-.15-.95-.3-1.89-.49-2.83-.21-.96-.45-1.9-.7-2.84-1.01-3.76-2.34-7.39-3.96-10.85-1.72-3.52-3.75-6.88-6.02-10.04-2.28-3.17-4.79-6.13-7.67-8.96-4.07,10.33-9.16,20.35-15.19,29.87-3.61-3.18-7.25-6.33-10.91-9.45-1.07,1.5-2.11,3.04-3.3,4.45l11.62,7.71-5.4,4.53-5.58,4.24c-1.79,1.45-3.81,2.67-5.69,3.99l-2.84,1.95c-.97.62-1.97,1.2-2.95,1.8,8.32,4.1,16.83,6.76,25.88,8.27,4.42.66,8.91.98,13.49.98,2.31.02,4.55-.13,6.8-.35,2.25-.22,4.52-.53,6.8-.93l-5.24,4.33c-1.73,1.44-3.61,2.74-5.39,4.1l-2.69,2.01-1.34,1-1.4.94-5.55,3.72c4.35,1.24,8.82,2.17,13.41,2.75,4.58.57,9.11.66,13.8.47,4.72-.16,9.3-.86,13.96-1.89,2.32-.52,4.69-1.1,6.98-1.83,2.27-.75,4.54-1.59,6.81-2.51-8.3,7.5-17.23,14.12-26.2,20.23,2.93.16,5.74.04,8.66-.15,2.9-.21,5.84-.55,8.8-1.04,2.97-.48,5.81-1.22,8.74-2.03,2.9-.84,5.86-1.77,8.73-2.92,2.84-1.17,5.67-2.48,8.49-3.92,1.41-.72,2.82-1.47,4.22-2.26,1.35-.82,2.7-1.67,4.05-2.55,2.68-1.77,5.35-3.66,7.96-5.69,2.51-2.08,4.99-4.29,7.41-6.6"/>
      <path class="cls-1" d="M553.15,393.68l-2.03,7.83c-.75,2.59-1.58,5.15-2.38,7.74-12.72-21.4-27.82-40.06-44.76-55.61.96,4.84,2.11,9.87,2.71,14.9l.53,3.82c.17,1.28.38,2.58.47,3.86l.65,7.79c-2.01-2.45-4.04-4.83-6.09-7.16-2.07-2.34-4.06-4.58-6.26-6.83-4.34-4.48-8.68-8.7-13.16-12.71-1.71-1.5-3.49-3-5.73-3.82-2.24-.82-5.06-.78-6.35.53-1.12,1.12-1,2.77-.75,4.32l.79,5.28.49,5.31.25,2.71.12,1.36.05,1.35.19,5.46c-6.65-2.32-13.28-4.67-19.9-7.07-.22,1.03-.53,2.02-.84,3.02l-.91,3.01c-.31,1-.58,2.03-.9,3.03l-1.07,2.97c3.5.94,7.02,1.83,10.56,2.68l5.33,1.24,5.3,1.14c-5.15,6.34-10.41,12.39-16.23,17.82,6.34,2.58,12.98,4.51,19.65,5.51,6.6.96,13.4,1.09,20.1.2-2.41,2.08-4.9,4.06-7.3,6.03l-1.81,1.47-1.89,1.39-3.75,2.75c2.69.29,5.41.5,8.14.62,2.73.11,5.53.18,8.22.07,5.44-.18,10.95-.73,16.53-1.65,5.43-1,10.91-2.37,16.42-4.14,5.4-1.82,10.73-4.07,16.09-6.69-6.36,10.89-13.38,21.23-20.98,30.98,1.04-1.37,8.55-2.11,10.4-2.71,1.82-.57,3.64-1.19,5.47-1.86,1.82-.67,3.55-1.44,5.33-2.23,3.55-1.61,7.24-3.37,10.85-5.4,3.51-2.08,6.98-4.42,10.24-7.08,1-.82,1.9-1.63,2.61-2.46.71-.83,1.31-1.66,1.79-2.47.97-1.63,1.5-3.22,1.67-4.76.32-3.08-.72-5.89-2.71-8.51-3.89-5.23-10.77-9.45-15.18-13.04Z"/>
      <path class="cls-1" d="M463.74,514.47c-2.29,3.05-4.59,6.16-7.09,9.07l-3.72,4.46-1.88,2.24-1.96,2.15c3.09-21.99,3.19-43.45.61-63.72-.47,1.04-.91,2.12-1.43,3.14l-1.55,3.07-3.17,6.21c-1.13,2.02-2.3,4.03-3.48,6.08-1.19,2.03-2.35,4.14-3.67,6.08-.89-4.8-2-9.69-3.18-14.45-1.18-4.77-2.46-9.46-3.83-14.06-1.42-4.66-2.96-9.28-4.58-13.79-.81-2.26-1.64-4.49-2.5-6.71l-1.3-3.3-1.39-3.33c-4.91,11.86-11.42,23.6-19.57,34.73-4.46-8.78-9.06-17.56-13.74-26.27-.59,1.1-1.25,2.1-1.9,3.13l-1.99,3.12,12.1,22.37c-9.54,4.18-19.32,7.55-29.23,10.09,15.84,13.02,34.27,24.16,54.79,32.79-5.4-.26-10.93-.36-16.16.34-2.63.32-5.3.62-7.87,1.18-1.29.27-2.56.57-3.82.92-1.26.35-2.55.63-3.8,1.02,2.28,2.78,4.86,5.43,7.64,7.71,2.78,2.27,5.8,4.29,9.05,6.02,6.53,3.55,13.78,5.54,21.58,6.2l-8.62,3.08-2.15.76c-.72.24-1.46.45-2.18.68l-4.36,1.32c.34-.1,2.37,1.52,4.48,3.23,2.11,1.71,4.29,3.51,4.79,3.82,3.61,2.26,7.44,4.04,11.57,5.55,8.38,3.11,17.74,4.48,27.56,3.95,6.47-.5,9.35-3.28,10.5-6.98,1.11-3.8.54-8.56.44-13.17-.12-5.01-.54-9.81-1.42-14.65-.87-4.82-2.06-9.5-3.57-14.04Z"/>
      <path class="cls-1" d="M368.69,588.46c4.95-4.94,8.67-10.83,11.21-16.81,2.55-5.94,3.81-12.34,3.91-18.61-1.54,1.1-3.1,2.25-4.77,3.17-1.68.88-3.45,1.6-5.33,1.98-1.88.38-3.9.32-5.66-.22-1.76-.52-3.29-1.65-4.16-3.18-1.75-3.13-.54-6.89.55-10.3,1.81-5.66,3.43-11.28,4.86-16.83.73-2.74,1.36-5.63,1.96-8.44.6-2.82,1.15-5.62,1.66-8.41l-5.92,3.79c-2.02,1.19-4.07,2.33-6.12,3.51l-3.1,1.76c-1.04.59-2.11,1.08-3.17,1.62l-6.42,3.22c2.63-2.98,4.97-6.12,6.99-9.4,2.01-3.34,3.66-6.96,5-10.58.67-1.82,1.26-3.66,1.77-5.53.49-1.92.9-3.85,1.23-5.8.66-3.89.99-7.83,1.02-11.79-10.4,4.49-21.28,8.05-32.5,10.51-.29-4.81-.61-9.62-.96-14.42-1.84.4-3.74.5-5.6.77l2.74,13.66-3.59-.27c-1.19-.09-2.37-.15-3.57-.34l-7.08-.91c-1.17-.11-2.35-.4-3.51-.6l-3.49-.64c-1.16-.22-2.31-.4-3.46-.64l-3.44-.83c3.05,8.79,7.25,16.73,12.65,24.16,1.35,1.89,2.77,3.6,4.27,5.3,1.49,1.7,3.06,3.35,4.7,4.95,1.64,1.58,3.36,3.21,5.13,4.62,1.77,1.42,3.62,2.79,5.52,4.1-2.31-.21-4.59-.34-6.88-.62l-6.82-.94-3.38-.46c-1.12-.19-2.25-.42-3.37-.63l-6.67-1.28c4.44,7.87,10.19,15.38,17.16,21.53,1.74,1.57,3.56,3.09,5.46,4.56,1.89,1.46,3.85,2.73,5.88,4.02,4.06,2.51,8.42,4.93,12.98,6.7l-4.24-.23-4.23-.43-8.37-.88c-2.78-.4-5.54-.85-8.28-1.28l-4.1-.66c-1.36-.2-2.72-.55-4.07-.81,7.9,8.47,17.85,15.46,29.36,20.42,2.89,1.32,5.83,2.28,8.88,3.26,3.04.93,6.18,1.83,9.38,2.5,3.18.61,6.44,1.12,9.75,1.5,1.65.18,3.33.39,5,.47,1.67.07,3.35.12,5.04.13"/>
      <path class="cls-1" d="M422.86,549.78l-3.51,2.12-3.59,1.97-7.23,3.91c6.41-24.16,9.07-48.29,8.35-71.34-1.39,2.11-2.78,4.29-4.25,6.39l-4.59,6.23c-1.53,2.14-3.2,4.11-4.88,6.14l-2.54,3.05c-.85,1.02-1.7,2.06-2.61,3.01.38-3.07.62-6.31.85-9.42.22-3.13.38-6.23.5-9.31.05-1.54.11-3.05.12-4.6v-4.65c-.04-3.08-.12-6.14-.26-9.15-.1-2.24-.25-4.54-1.24-6.7-.99-2.16-3.03-4.14-4.94-4.18-1.64-.03-2.71,1.32-3.65,2.62-.54.72-1.05,1.49-1.62,2.18l-1.7,2.09-3.47,4.24c-1.17,1.42-2.44,2.71-3.67,4.09-1.25,1.35-2.5,2.77-3.8,4.1-3.06-6.36-6.09-12.73-9.08-19.12l-5.61,3.13-5.78,2.84c3.63,6.23,7.44,12.41,11.45,18.53l-6.17.64c-1.01.13-2.05.18-3.08.22l-3.08.15-3.05.16-1.52.08h-1.53s-6.07-.02-6.07-.02c2.66,6.31,5.99,12.27,10.04,17.74,1.01,1.37,2.07,2.7,3.17,4.01,1.09,1.27,2.23,2.49,3.41,3.68,2.36,2.38,4.9,4.6,7.62,6.65-3.23-.27-6.39-.45-9.55-.82l-9.38-1.27c3.42,4.18,7.14,8.19,11.18,12,1.01.95,2.04,1.91,3.08,2.81,1.04.89,2.1,1.77,3.18,2.63,2.16,1.73,4.39,3.4,6.7,5.02,4.65,3.31,9.51,6.09,14.68,8.67,1.29.65,2.61,1.27,3.94,1.89,1.33.62,2.68,1.21,4.02,1.73,2.7,1.07,5.47,2.07,8.31,2.99-12.29,3.43-24.82,5.66-37.27,7.16.88-.1,2.78,1.11,4.7,2.41,1.9,1.26,3.83,2.65,4.68,3.08,3.4,1.73,6.96,3.32,10.66,4.77,3.68,1.37,7.55,2.64,11.58,3.74,2.01.53,4.08,1.07,6.13,1.43,2.06.35,4.14.63,6.25.81,2.6.22,4.83.09,6.71-.34,1.89-.4,3.37-1.25,4.6-2.21,2.43-1.98,3.67-4.81,4.19-7.99,1.06-6.34-.83-14.3-1.38-19.98Z"/>
      <path class="cls-1" d="M272.75,571.83l-5.77.75c-1.93.24-3.88.53-5.81.65l-11.76.89c17.95-13.36,33.36-28.48,46.07-44.63l-3.28,1.23-3.31,1.06-6.73,2.11-1.71.53-1.71.44-3.44.88c-2.31.58-4.65,1.18-7,1.74,2.81-4.13,5.51-8.32,8.07-12.5,2.57-4.21,5-8.33,7.33-12.65,2.33-4.32,4.53-8.64,6.61-12.97,2.08-4.33,4.02-8.62,5.87-13.11-12.12,4.89-25.21,8.54-39.06,10.64,3.08-9.41,6.05-18.84,8.91-28.29-1.2.31-2.42.64-3.64.93l-3.65.72-7.28,24.36-3.7-1.42c-1.24-.44-2.42-1.06-3.63-1.58l-3.61-1.61c-1.2-.53-2.41-1.05-3.57-1.68l-7.01-3.56-6.81-3.89c2.12,20.59,7.48,41.47,16.08,62.14-1.82-2.09-3.74-4.06-5.73-5.89-1.97-1.91-4-3.75-6.12-5.41-1.06-.83-2.14-1.63-3.23-2.39-1.09-.78-2.17-1.6-3.29-2.33-2.22-1.5-4.52-2.84-6.89-4.03-.68,7.14.04,14.42,2.22,21.54.27.89.57,1.78.89,2.66.33.86.68,1.71,1.05,2.56.75,1.7,1.58,3.37,2.51,5.02.93,1.65,1.94,3.27,3.05,4.86.55.8,1.13,1.58,1.72,2.36.6.75,1.23,1.48,1.88,2.21l-2.13-.92-2.09-1.01-4.17-2.03c-2.77-1.37-5.55-2.66-8.22-4.2.31.17.61,2.78.89,5.5.29,2.69.6,5.46.74,6.04,1.01,4.09,2.45,8.17,4.33,12.18,1.89,4.12,4.3,7.95,7.13,11.73,1.42,1.88,2.95,3.73,4.58,5.53,1.63,1.83,3.41,3.42,5.27,5.05,5,4.27,9.02,4.49,12.53,2.53,3.51-1.89,6.5-5.63,9.72-8.93,1.74-1.79,3.4-3.61,4.97-5.5,1.58-1.93,3.07-3.89,4.48-5.89,2.82-4,5.31-8.15,7.47-12.4Z"/>
      <path class="cls-1" d="M151.78,556.41c3.5.05,7.04-.42,10.38-1.06,3.35-.66,6.55-1.6,9.58-2.79,6.11-2.48,11.54-6.05,16.05-10.36-1.88-.33-3.8-.68-5.66-1.21-.93-.26-1.85-.57-2.74-.94-.87-.4-1.71-.87-2.52-1.42-3.22-2.19-5.57-6.01-4.64-9.41.93-3.41,4.55-5.32,7.75-6.93,2.65-1.33,5.26-2.69,7.83-4.07,2.57-1.39,5.08-2.76,7.61-4.29,5.04-2.99,9.9-6.07,14.58-9.23l-6.92-1.65c-1.16-.28-2.34-.54-3.49-.85l-3.44-1.01c-2.3-.68-4.63-1.34-6.95-2.06l-6.87-2.4c1.99-.09,3.97-.26,5.91-.52,1.94-.25,3.86-.58,5.8-1.09,3.85-.96,7.56-2.24,11.11-3.82,3.57-1.62,7.03-3.65,10.26-5.88,1.62-1.12,3.19-2.31,4.71-3.56.76-.63,1.51-1.27,2.24-1.92.74-.67,1.48-1.37,2.19-2.07-10.73-4.3-21.12-9.64-30.99-15.96,3.21-3.6,6.38-7.21,9.53-10.85l-2.36-1.67c-.77-.58-1.51-1.2-2.27-1.79l-7.71,11.62-4.74-5.57-4.44-5.77c-.36-.48-.74-.94-1.09-1.43l-1.03-1.49-2.05-2.96c-.68-.99-1.38-1.95-2.03-2.94l-1.89-3.05c-1.95,4.14-3.72,8.51-5,12.81-1.31,4.34-2.32,8.8-3.01,13.36-1.23,8.97-1.14,18.35.69,27.48l-4.5-5.38c-1.45-1.83-2.84-3.72-4.24-5.56-2.86-3.62-5.37-7.54-7.96-11.3-1.2,4.39-2.07,8.91-2.6,13.55-.13,1.16-.25,2.33-.32,3.49-.07,1.15-.11,2.3-.13,3.46-.04,2.32,0,4.66.14,7.03.15,2.35.34,4.77.7,7.12.37,2.34.83,4.69,1.38,7.05.55,2.36,1.2,4.73,1.93,7.1.79,2.3,1.67,4.6,2.64,6.9l-2.86-3.22-1.42-1.6-1.36-1.67-5.35-6.66-1.32-1.66-1.26-1.72-2.49-3.43c-1.63-2.3-3.33-4.49-4.83-6.88-.12,2.96,0,5.85.24,8.79.25,2.94.63,5.91,1.16,8.91.5,3.03,1.28,5.91,2.15,8.88.88,2.95,1.89,5.92,3.05,8.88,1.22,2.88,2.58,5.75,4.08,8.61.75,1.43,1.53,2.86,2.34,4.28.82,1.42,1.72,2.76,2.63,4.13,1.83,2.73,3.79,5.43,5.87,8.08,2.12,2.59,4.41,5.08,6.79,7.55"/>
      <path class="cls-1" d="M218.16,567.71l-8.03-2.12-7.94-2.49c21.82-12.5,40.92-27.4,56.92-44.26l-7.62,1.44-1.94.35-1.93.27-3.89.51-3.94.5-1.99.25-1.98.15-8.03.57c5.01-4,9.77-8,14.34-12.2,4.59-4.29,8.95-8.64,13.06-13.04,1.54-1.68,3.09-3.47,3.93-5.7.83-2.23.77-5.06-.6-6.37-1.16-1.2-2.89-1.04-4.49-.82-1.8.23-3.64.53-5.47.7l-5.51.43c-3.75.38-7.44.34-11.26.44,2.32-6.65,4.68-13.28,7.08-19.89-2.11-.55-4.17-1.27-6.28-1.88-1.04-.34-2.13-.59-3.14-.99l-3.1-1.13c-1.82,6.99-3.51,14.16-4.95,21.28-1.67-1.28-3.27-2.7-4.89-4.02-1.61-1.34-3.23-2.64-4.75-4.1l-4.58-4.22c-1.5-1.43-2.92-2.96-4.37-4.41-2.56,6.37-4.42,13-5.39,19.76-.91,6.66-.93,13.46.04,20.27l-6.27-7.46c-1.04-1.2-2-2.52-2.97-3.8l-2.87-3.83c-2.22,21.81,1.64,44.65,12.73,66.02-11.21-6.47-21.81-13.75-31.84-21.53,1.38,1.11,2.23,8.65,2.86,10.52,1.2,3.66,2.57,7.41,4.26,10.93,1.67,3.59,3.51,7.3,5.6,10.97,2.13,3.58,4.56,7.07,7.3,10.37.85,1.02,1.69,1.9,2.53,2.67.85.75,1.7,1.34,2.53,1.83,1.67.99,3.3,1.53,4.87,1.72,3.15.35,6.03-.69,8.68-2.61,5.33-3.85,9.62-10.7,13.27-15.09Z"/>
      <path class="cls-1" d="M94.24,475.6l-4.69-3.59c-1.55-1.22-3.02-2.51-4.54-3.77-3-2.56-6.13-5.09-8.99-7.85,22.2,3.48,43.89,3.96,64.44,1.74-2.18-.95-4.21-2.08-6.32-3.16-2.09-1.1-4.23-2.19-6.34-3.35l-6.2-3.66-3.14-1.87c-1.04-.63-2.03-1.32-3.05-1.99,2.45-.43,4.85-.87,7.29-1.37,2.45-.51,4.88-1.04,7.28-1.6,4.82-1.12,9.56-2.33,14.21-3.64,4.67-1.32,9.37-2.83,13.93-4.38,4.58-1.58,9.02-3.19,13.48-4.99-12.19-5.29-24.15-12.26-35.53-20.84,8.82-4.42,17.57-8.94,26.33-13.58-2.16-1.31-4.21-2.75-6.38-4.16l-22.41,12.03c-4.35-9.9-7.84-20.06-10.48-30.36-12.93,16.19-23.96,34.97-32.44,55.83.07-1.39.11-2.78.1-4.15.03-1.4.05-2.8.02-4.19-.06-2.78-.27-5.52-.64-8.21-.3-2.73-.67-5.45-1.25-8.09-.28-1.33-.61-2.64-.97-3.93-.31-1.32-.65-2.63-1.03-3.93-2.79,2.31-5.38,4.9-7.7,7.74-2.26,2.81-4.25,5.88-5.96,9.18-.85,1.65-1.63,3.36-2.33,5.11-.7,1.76-1.34,3.57-1.8,5.39-.98,3.66-1.62,7.5-1.91,11.47l-3.19-8.84c-.55-1.46-1-2.96-1.46-4.45l-1.37-4.47c.11.34-1.51,2.4-3.21,4.53-1.7,2.13-3.49,4.34-3.8,4.85-2.28,3.68-4.02,7.56-5.5,11.74-.74,2.12-1.4,4.31-1.96,6.56-.28,1.13-.54,2.27-.77,3.43-.22,1.15-.38,2.3-.54,3.47-.6,4.67-.81,9.58-.5,14.57.56,6.59,3.39,9.55,7.14,10.77,3.79,1.21,8.63.67,13.27.65,5.04-.05,9.93-.43,14.76-1.22,4.86-.81,9.58-1.96,14.15-3.41Z"/>
      <path class="cls-1" d="M19.17,377.53c1.27,1.27,2.57,2.47,3.9,3.6,1.33,1.13,2.68,2.18,4.14,3.14,2.87,1.93,5.83,3.57,8.85,4.89,3.02,1.32,6.07,2.35,9.19,3.05,3.16.69,6.32,1.07,9.47,1.16-1.1-1.59-2.32-3.19-3.19-4.94-.9-1.73-1.63-3.55-2.02-5.48-.39-1.93-.34-4,.19-5.81.57-1.81,1.65-3.36,3.19-4.24,3.11-1.77,6.94-.5,10.3.67,5.69,1.92,11.33,3.64,16.92,5.18,1.4.38,2.78.76,4.19,1.11l4.27,1.01c2.84.65,5.66,1.25,8.46,1.81-1.27-2.03-2.59-4.07-3.85-6.15l-3.56-6.36-1.79-3.22-1.62-3.29-3.27-6.66c3,2.74,6.17,5.18,9.48,7.3,1.62,1.07,3.42,2.02,5.2,2.9,1.79.88,3.6,1.68,5.43,2.39s3.69,1.35,5.56,1.9c1.88.55,3.86.98,5.81,1.35,3.92.73,7.88,1.14,11.86,1.22-4.62-10.84-8.23-22.17-10.76-33.84,4.8-.25,9.63-.54,14.43-.87-.2-.96-.31-1.94-.42-2.92l-.36-2.93-13.66,2.73.25-3.72.12-1.85.23-1.86.89-7.36c.38-2.44.85-4.87,1.25-7.28.23-1.2.36-2.4.67-3.6l.83-3.57c-17.43,6.25-32.67,17.48-43.18,33.22.63-9.5,2.17-18.86,3.93-27.97-3.95,2.28-7.76,4.89-11.41,7.83-1.8,1.47-3.66,3.02-5.3,4.65-1.66,1.63-3.28,3.34-4.85,5.12-3.13,3.57-6.12,7.47-8.58,11.62-1.26,2.08-2.47,4.23-3.61,6.46-.57,1.11-1.13,2.24-1.66,3.38-.49,1.14-.97,2.29-1.43,3.46.09-1.46.1-2.9.25-4.35l.41-4.34c.29-2.89.55-5.75.88-8.6l1.28-8.51.65-4.21.84-4.18c-4.36,4.05-8.05,8.61-11.54,13.65-3.57,5.04-6.34,10.52-8.89,16.41-1.31,2.95-2.32,5.97-3.26,9.09-.94,3.11-1.77,6.32-2.49,9.59-.6,3.25-1.09,6.58-1.46,9.97-.19,1.69-.34,3.4-.47,5.12-.07,1.71-.1,3.43-.11,5.16"/>
      <path class="cls-1" d="M58.26,433.39c-.71-1.2-1.46-2.39-2.15-3.62l-2-3.7-3.99-7.43c24.35,6.83,48.62,9.94,71.91,9.63-8.78-5.73-17.07-12.42-25.22-19.77,12.68,1.61,25.14,2.26,37.43,1.88,2.26-.06,4.59-.17,6.75-1.15,2.16-.97,4.14-3.04,4.15-5,0-1.68-1.38-2.81-2.71-3.81-1.54-1.1-2.89-2.32-4.34-3.51l-4.34-3.65c-1.4-1.26-2.75-2.57-4.15-3.87l-2.1-1.98c-.71-.66-1.42-1.33-2.06-2.03,6.36-3.06,12.73-6.08,19.12-9.06l-3.22-5.88-2.92-6.05c-6.22,3.67-12.38,7.53-18.48,11.58l-.71-6.39c-.21-2.12-.27-4.27-.41-6.38-.36-4.2-.23-8.47-.3-12.63-12.55,5.36-24,13.63-31.99,24.69l.34-4.94c.12-1.64.21-3.25.44-4.89l1.21-9.66c-4.16,3.48-8.16,7.28-11.95,11.4-.95,1.03-1.89,2.08-2.81,3.15-.92,1.07-1.77,2.14-2.63,3.24-1.72,2.2-3.38,4.48-4.99,6.83-1.59,2.35-3.19,4.8-4.6,7.29-1.4,2.49-2.74,5.05-4.02,7.69-1.26,2.63-2.51,5.36-3.59,8.12-1.05,2.75-2.03,5.58-2.93,8.47l-1.26-4.75c-.42-1.58-.83-3.16-1.15-4.76l-2.03-9.56c-.36-1.58-.58-3.2-.85-4.8l-.77-4.8-.76-4.79-.55-4.82c.1.91-1.08,2.84-2.4,4.8-1.29,1.95-2.64,3.9-3.08,4.78-1.71,3.47-3.29,7.1-4.72,10.86-1.41,3.78-2.61,7.7-3.7,11.81-.53,2.05-1.02,4.15-1.42,6.26-.34,2.1-.6,4.22-.77,6.37-.39,5.3.56,9.1,2.63,11.57,2.01,2.5,4.86,3.8,8.07,4.37,3.22.57,6.76.43,10.26.05,3.51-.37,6.92-.95,9.79-1.19Z"/>
      <path class="cls-1" d="M36.27,278.54c-1.11-7.87-1.65-15.83-2.06-23.93,13.17,18.39,28.15,34.27,44.2,47.44-.87-2.25-1.51-4.51-2.22-6.8l-2.1-6.95c-.63-2.34-1.18-4.69-1.76-7.07l-.86-3.59c-.3-1.2-.58-2.41-.78-3.62,2,1.44,4.06,2.86,6.15,4.25,2.08,1.39,4.16,2.75,6.25,4.07,4.18,2.65,8.37,5.18,12.57,7.58,4.3,2.41,8.63,4.71,12.95,6.87,4.35,2.17,8.59,4.2,13.04,6.12-4.8-12.6-8.32-26.18-10.23-40.5,9.39,3.15,18.8,6.2,28.24,9.13-.67-2.52-1.06-5.01-1.53-7.57l-24.32-7.42c3.98-10.22,8.76-20.05,14.28-29.35-20.68,2.42-41.81,8-62.62,16.88,2.13-1.88,4.05-3.87,5.98-5.9,1.96-2.02,3.8-4.13,5.49-6.31.86-1.09,1.62-2.22,2.47-3.32.83-1.11,1.63-2.24,2.39-3.38.76-1.15,1.49-2.31,2.17-3.5.69-1.18,1.3-2.4,2-3.58-3.65-.35-7.25-.32-10.86.08-3.61.4-7.23,1.16-10.8,2.3-1.78.57-3.58,1.22-5.3,1.99-1.71.77-3.39,1.64-5.05,2.59-3.3,1.92-6.58,4.18-9.56,6.83,1.29-2.9,2.74-5.74,4.1-8.6l2.08-4.26,2.26-4.17c-.18.32-2.79.63-5.52.94-1.36.15-2.76.31-3.88.43-1.11.14-1.95.25-2.23.33-4.11,1.04-8.2,2.54-12.23,4.47-2.04.98-4.09,2.07-6.08,3.28-1.95,1.23-3.88,2.57-5.77,4.02-1.89,1.45-3.75,3.02-5.56,4.69-.9.84-1.81,1.7-2.67,2.59-.84.9-1.67,1.83-2.48,2.78-4.31,5.11-4.52,9.23-2.67,12.8,1.87,3.59,5.59,6.65,8.88,9.96,7.02,7.13,15.19,12.92,23.66,17.39Z"/>
      <path class="cls-1" d="M53.34,154.82c-.02,1.8.02,3.57.16,5.32.17,1.77.41,3.51.72,5.22.62,3.41,1.52,6.67,2.68,9.76,1.13,3.07,2.64,6.03,4.35,8.76,1.71,2.73,3.65,5.26,5.79,7.56.71-3.84,1.47-7.9,3.77-11.16,2.25-3.3,6.09-5.75,9.53-4.8,1.73.47,3.04,1.62,4.1,3.05,1.08,1.44,1.95,3.17,2.74,4.8,2.61,5.41,5.29,10.64,8.13,15.73,2.93,5.14,5.96,10.11,9.07,14.89,1.17-4.72,2.26-9.55,3.78-14.24l1.07-3.57c.35-1.2.72-2.39,1.15-3.55l2.52-7.07c.13,4.09.55,8.06,1.39,11.96.91,3.94,2.14,7.74,3.67,11.37.38.91.78,1.8,1.2,2.69.45.9.91,1.79,1.39,2.67.97,1.75,2,3.46,3.1,5.12,2.21,3.31,4.67,6.42,7.4,9.33,4.55-11.1,10.18-21.84,16.81-32.02,3.57,3.24,7.16,6.45,10.78,9.63,1.12-1.66,2.4-3.21,3.64-4.78l-11.59-7.74,2.87-2.48c.96-.82,1.87-1.67,2.9-2.43l5.93-4.64c4.09-2.91,8.07-5.84,12.32-8.4-4.18-1.93-8.55-3.64-12.95-4.93-4.38-1.27-8.88-2.24-13.48-2.87-1.15-.16-2.32-.3-3.47-.41-1.14-.09-2.28-.17-3.43-.22-2.3-.1-4.62-.12-6.96-.05-2.32.09-4.75.19-7.03.5-2.31.3-4.64.68-6.97,1.15,1.85-1.56,3.65-3.14,5.53-4.64l5.71-4.38,2.84-2.16,2.94-2.04,5.83-4.03c-8.81-2.3-18.37-3.42-27.83-2.68-2.39.17-4.8.42-7.22.77-2.4.37-4.75.88-7.15,1.46-2.39.59-4.78,1.27-7.19,2.04-2.42.76-4.69,1.73-7.04,2.72l3.28-2.94c1.09-.98,2.26-1.88,3.39-2.82l6.79-5.51c2.31-1.77,4.67-3.47,6.99-5.18l3.48-2.54c1.18-.83,2.4-1.61,3.59-2.41-11.82-.25-24.01,2.11-35.94,6.97-3,1.2-5.85,2.66-8.77,4.19-1.45.77-2.9,1.58-4.34,2.42-.72.42-1.45.85-2.16,1.29-.69.46-1.39.93-2.08,1.39-2.77,1.88-5.5,3.9-8.2,6.04-.67.54-1.36,1.07-2.01,1.63l-1.92,1.72c-1.28,1.16-2.54,2.36-3.79,3.58"/>
      <path class="cls-1" d="M40.99,222.58l1.09-4.12c.36-1.37.72-2.75,1.17-4.1l2.57-8.14c1.55,2.79,3.12,5.53,4.71,8.22,1.61,2.7,3.16,5.32,4.91,7.95,3.43,5.24,6.92,10.29,10.5,15.14,3.73,4.89,7.53,9.58,11.38,14.07,1.89,2.23,3.98,4.46,5.99,6.61,2.03,2.16,4.08,4.27,6.13,6.32l-1.38-7.86c-.41-2.65-.68-5.29-1.01-7.98l-.47-4.06c-.16-1.37-.2-2.7-.3-4.07l-.49-8.26c3.94,5.13,7.95,10.04,12.04,14.7,4.22,4.71,8.56,9.2,12.92,13.44,1.59,1.57,3.39,3.18,5.61,4.03,2.25.86,5,.77,6.43-.63,1.22-1.2,1.07-3,.87-4.66-.95-7.49-1.23-15.13-1.22-22.99,6.64,2.34,13.26,4.73,19.87,7.15l2.03-6.51.5-1.64.6-1.6,1.18-3.22c-7.02-1.81-14.14-3.44-21.35-4.9l4.15-5.07c.69-.84,1.35-1.68,2.06-2.5l2.19-2.41c1.46-1.6,2.87-3.2,4.34-4.77l4.55-4.53c-6.38-2.55-13.01-4.37-19.83-5.3-6.76-.9-13.55-.82-20.43.22l7.6-6.5c2.6-2.07,5.25-4.06,7.83-6.04-5.45-.47-11-.6-16.64-.37-5.55.29-11.12.99-16.79,2.05-2.86.52-5.61,1.2-8.39,1.97-2.78.77-5.57,1.64-8.37,2.61-1.39.49-2.82.99-4.19,1.53-1.36.55-2.72,1.13-4.08,1.74-2.72,1.21-5.45,2.52-8.17,3.93l5.1-8.51c1.75-2.8,3.63-5.52,5.45-8.26.92-1.36,1.81-2.74,2.76-4.07l2.92-3.96,2.92-3.94c.97-1.31,1.94-2.62,3-3.87-.29.36-1,.67-1.92.95-.91.29-2.01.56-3.15.8-2.27.49-4.66.9-5.59,1.21-1.85.62-3.71,1.3-5.57,2.02-1.86.73-3.74,1.49-5.52,2.37-3.62,1.73-7.37,3.62-11.07,5.78-1.88,1.06-3.65,2.25-5.39,3.49-1.75,1.25-3.47,2.57-5.13,3.98-2.04,1.75-3.63,3.44-4.62,5.16-1.01,1.71-1.57,3.38-1.77,4.98-.4,3.21.66,6.17,2.5,8.86,3.75,5.42,10.61,9.8,14.96,13.53Z"/>
      <path class="cls-1" d="M134.27,101.48l3.63-4.73c1.23-1.56,2.42-3.21,3.73-4.7,2.58-3.05,5.19-6.12,7.85-9.19-3.36,22.37-3.7,44.22-1.35,64.9,3.95-8.71,8.75-17.1,13.99-25.56.93,4.96,1.97,9.84,3.1,14.64,1.15,4.82,2.33,9.48,3.75,14.24,1.39,4.72,2.88,9.36,4.45,13.91.8,2.29,1.58,4.51,2.45,6.78.87,2.27,1.76,4.52,2.67,6.74,5.33-12.4,12.32-24.63,20.95-36.27,4.54,8.8,9.18,17.53,13.9,26.21.67-1.09,1.31-2.25,2.03-3.32l2.17-3.21-12.3-22.26c10.01-4.59,20.29-8.35,30.75-11.18-16.56-12.67-35.66-23.32-56.8-31.42,2.83.13,5.62.07,8.41-.08,2.82-.08,5.61-.32,8.35-.71,1.37-.19,2.72-.45,4.08-.68,1.37-.22,2.73-.47,4.08-.76,2.7-.57,5.31-1.38,7.93-2.19-4.73-5.53-10.5-9.99-17.23-13.36-3.38-1.71-6.91-2.97-10.63-3.9-1.86-.47-3.77-.86-5.71-1.16-1.94-.29-3.95-.54-5.91-.58,1.45-.64,2.96-1.16,4.46-1.71l4.47-1.63,4.46-1.61c1.49-.52,3.02-.95,4.52-1.43-.35.11-2.44-1.49-4.62-3.16-2.18-1.7-4.4-3.4-4.92-3.7-3.68-2.11-7.66-3.89-11.91-5.31-2.14-.71-4.39-1.38-6.65-1.86-2.26-.48-4.58-.86-6.95-1.14-4.74-.54-9.74-.75-14.7-.22-3.33.31-5.75,1.19-7.48,2.46-.86.63-1.56,1.36-2.11,2.17-.54.83-.93,1.74-1.22,2.71-1.17,3.87-.63,8.65-.58,13.3.03,2.52.13,4.98.38,7.47.24,2.49.57,4.95.99,7.38.83,4.85,2,9.55,3.49,14.11Z"/>
      <path class="cls-2" d="M232.8,24.46c-2.56,2.49-4.79,5.33-6.73,8.2-1.94,2.88-3.57,5.85-4.89,8.87-1.33,2.98-2.29,6.2-2.98,9.34-.68,3.15-1.04,6.32-1.11,9.46,3.2-2.24,6.56-4.67,10.5-5.4,3.92-.8,8.41.15,10.21,3.18,1.81,3.04.58,6.98-.56,10.42-1.9,5.71-3.63,11.29-5.12,16.96-1.48,5.73-2.76,11.4-3.87,17,4.13-2.55,8.28-5.31,12.65-7.6,2.17-1.18,4.34-2.45,6.56-3.58l6.75-3.29c-1.38,1.5-2.69,3.05-3.92,4.63-1.22,1.6-2.39,3.16-3.43,4.92-2.1,3.46-3.87,7.04-5.3,10.7-.72,1.81-1.33,3.74-1.86,5.67-.53,1.93-.97,3.87-1.34,5.83-.72,3.92-1.12,7.84-1.18,11.86,11-4.82,22.53-8.6,34.39-11.28.31,4.81.65,9.61,1.02,14.41l2.96-.53c.99-.17,1.99-.25,2.99-.38l-2.93-13.64,7.58.49c2.52.24,5.03.59,7.51.86,1.24.17,2.48.24,3.72.48l3.7.64,3.68.63c.61.11,1.22.19,1.83.32l1.82.42c-1.66-4.39-3.62-8.5-5.88-12.49-2.26-3.98-4.83-7.89-7.7-11.53-2.86-3.56-6.03-6.95-9.5-10.14-1.74-1.63-3.53-3.07-5.4-4.48-1.87-1.41-3.81-2.77-5.82-4.07l7.22.54c1.19.07,2.39.23,3.59.38l3.57.45c2.37.33,4.73.56,7.08.96l7.01,1.27c-2.37-3.95-5.07-7.76-8.1-11.4-3.02-3.54-6.37-6.84-10.04-9.97-3.67-3.2-7.63-5.87-11.88-8.39-2.13-1.25-4.33-2.47-6.59-3.56-2.25-1.04-4.58-2.01-6.96-2.92,11.8.37,23.43,1.88,34.72,3.76-4.16-4.15-8.83-7.89-13.97-11.35-2.57-1.72-5.25-3.18-8.04-4.64-2.79-1.43-5.69-2.8-8.69-4.01-11.92-4.58-25.48-7.39-39.48-7.14"/>
      <path class="cls-1" d="M176.65,64.59c2.44-1.45,4.85-2.98,7.34-4.34l7.52-4.05c-6.73,24.47-9.77,48.81-9.31,72.26l4.51-6.59c.75-1.13,1.56-2.19,2.38-3.25l2.46-3.21c3.26-4.4,6.87-8.42,10.53-12.66-.75,6.42-1.29,12.73-1.61,18.94-.24,6.34-.27,12.57-.11,18.65.06,2.26.23,4.67,1.23,6.83,1.01,2.17,3.08,4.07,5.05,3.99,1.72-.01,2.87-1.41,3.89-2.74l1.73-2.26.87-1.14.91-1.08,3.72-4.36,1.9-2.21,1.99-2.09,4.05-4.24c3.14,6.3,6.24,12.62,9.3,18.95,3.99-2.14,7.97-4.45,12.15-6.33-3.79-6.18-7.77-12.32-11.94-18.38l6.52-.74,3.22-.37,3.25-.2,6.44-.41,6.43-.07c-2.8-6.28-6.31-12.21-10.56-17.63-4.22-5.29-9.17-10.01-14.84-14.05l10,.64c3.3.27,6.6.74,9.84,1.11-3.59-4.14-7.49-8.13-11.71-11.87-4.18-3.62-8.69-7.03-13.5-10.21-2.42-1.63-4.86-3-7.4-4.41-2.54-1.38-5.15-2.7-7.84-3.96-2.7-1.29-5.42-2.36-8.23-3.39-2.8-1.03-5.68-1.98-8.62-2.86l9.61-2.56c3.2-.82,6.46-1.44,9.68-2.15l4.82-1.02,4.87-.8c3.25-.51,6.46-1.1,9.7-1.5-.93.08-2.88-1.01-4.86-2.24-1.98-1.24-3.98-2.6-4.87-3.03-1.77-.84-3.58-1.65-5.42-2.43-.92-.39-1.85-.76-2.79-1.13-.93-.34-1.87-.67-2.82-.99-3.81-1.28-7.83-2.53-12-3.56-2.1-.55-4.18-.9-6.31-1.23-2.13-.32-4.29-.57-6.47-.71-5.41-.42-9.14.84-11.66,2.86-2.52,2.03-3.82,4.89-4.38,8.1-1.06,6.53.8,14.43,1.33,20.14Z"/>
      <path class="cls-2" d="M328.66,37.1l3.01-.5,3.01-.37,6.07-.72c2.03-.22,4.08-.5,6.13-.65l6.16-.41c-2.29,1.7-4.53,3.42-6.74,5.14-2.2,1.71-4.38,3.59-6.51,5.39-2.13,1.82-4.22,3.65-6.26,5.49-2.04,1.83-4.05,3.66-6.01,5.63-3.93,3.86-7.7,7.75-11.29,11.64-3.6,4.03-7.03,8.13-10.28,12.19,4.56-1.59,9.23-3.38,13.98-4.66l7.21-2.08c2.42-.65,4.86-1.16,7.33-1.75-2.83,4.16-5.53,8.3-8.11,12.53-2.59,4.29-5.05,8.6-7.39,12.91-1.17,2.16-2.31,4.31-3.41,6.47l-1.64,3.24-1.6,3.32c-2.1,4.43-4.07,8.86-5.91,13.29,12.89-5.18,26.79-9.05,41.46-11.3-2.88,9.45-5.65,18.92-8.31,28.41l7.78-1.72,6.69-24.55c10.68,3.8,20.96,8.43,30.73,13.83-3.37-20.76-9.93-41.86-19.79-62.51,1.03,1.02,2.05,2.02,3.07,3.02,1.04,1,2.1,1.97,3.18,2.91,1.08.94,2.18,1.84,3.3,2.71,1.14.86,2.27,1.71,3.4,2.56,4.55,3.46,9.44,6.22,14.44,8.81.39-7.24-.62-14.73-3.28-21.7-1.31-3.52-3-6.98-5.06-10.34-2.09-3.25-4.56-6.36-7.36-9.31l8.96,3.8,8.75,4.2c-.34-.16-.76-2.76-1.19-5.46-.42-2.71-.84-5.53-1.01-6.11-.6-2.07-1.32-4.14-2.14-6.2-.84-2.03-1.8-4-2.86-5.98-2.16-3.99-4.79-7.95-7.87-11.74-3.11-3.66-6.68-7.16-10.66-10.41-2.65-2.21-5.08-3.14-7.24-3.43-2.17-.27-4.11.21-5.91,1.16-1.79.95-3.44,2.36-5.04,3.95-1.6,1.62-3.17,3.45-4.8,5.16-3.53,3.7-6.7,7.57-9.52,11.58-1.41,2.01-2.73,4.04-3.97,6.12-1.24,2.12-2.4,4.26-3.47,6.43Z"/>
      <path class="cls-2" d="M455.45,51.23c-3.68.06-7.24.42-10.65,1.07-3.43.68-6.75,1.72-9.85,2.97-6.22,2.53-11.63,6.01-16.17,10.49.99.15,2.01.28,2.99.48.99.21,1.97.45,2.94.73,1.94.56,3.84,1.3,5.58,2.36,3.52,2.07,6.05,6.1,5.25,9.54-.81,3.48-4.45,5.38-7.68,6.98-2.66,1.29-5.34,2.73-7.97,4.16-2.63,1.44-5.21,2.9-7.75,4.38-2.55,1.5-5.02,2.95-7.51,4.55-2.48,1.6-4.92,3.21-7.32,4.85l3.7.74,1.86.38,1.83.46,7.37,1.87,1.85.48,1.82.56,3.66,1.13,3.68,1.14,1.85.58,1.81.66c-2.03.03-4.11.25-6.15.54-2.04.29-4.04.66-6.01,1.12-1.98.47-3.88.95-5.81,1.64-1.92.67-3.8,1.43-5.64,2.25-3.68,1.67-7.12,3.54-10.44,5.87-3.32,2.32-6.42,4.9-9.29,7.71,11.6,4.35,22.85,9.83,33.55,16.36-3.13,3.65-6.24,7.31-9.31,11l5.06,3.62,7.34-11.83c7.16,7.64,13.72,15.63,19.44,24.06,1.75-4.26,3.21-8.65,4.35-13.17.56-2.25,1.09-4.57,1.45-6.84.37-2.27.65-4.56.85-6.88.39-4.62.51-9.43.08-14.07-.19-2.34-.47-4.7-.84-7.07-.19-1.19-.39-2.37-.62-3.57-.24-1.18-.53-2.32-.83-3.49,1.73,1.76,3.31,3.69,4.92,5.55,1.6,1.88,3.22,3.72,4.76,5.62l4.49,5.8,2.21,2.89,2.09,2.99c.52-2.28.95-4.59,1.29-6.93.31-2.3.52-4.62.65-6.98.13-2.35.16-4.73.11-7.14-.06-2.4-.19-4.85-.5-7.21-.58-4.77-1.51-9.64-2.87-14.48-1.43-4.74-3.23-9.53-5.44-14.25,2.07,2.2,4.08,4.45,6.09,6.66l3,3.32c.97,1.14,1.91,2.3,2.86,3.45l5.62,6.88,5.27,7.1c-.18-5.92-.85-12.09-2.35-18.07-.72-3.02-1.59-6.05-2.61-9.1-1.03-3.02-2.29-5.95-3.65-8.93-.68-1.48-1.4-2.97-2.16-4.45-.39-.74-.77-1.48-1.16-2.22-.42-.72-.84-1.43-1.26-2.14-1.71-2.85-3.56-5.69-5.54-8.5-1.95-2.86-4.19-5.44-6.48-8.09-1.15-1.31-2.34-2.62-3.55-3.91l-1.84-1.93-1.93-1.82"/>
      <path class="cls-2" d="M385.99,40.33c1.43.28,2.83.66,4.23,1.03l4.21,1.11,4.22,1.12c1.41.37,2.82.74,4.2,1.2-22.22,12.8-41.7,28.13-58,45.15l4-.87c1.34-.25,2.67-.46,4.02-.68l8.18-1.31c2.73-.33,5.49-.6,8.29-.89l4.22-.42,4.21-.22c-5.05,3.89-9.95,8.16-14.6,12.41-2.33,2.14-4.59,4.26-6.8,6.47-2.23,2.25-4.4,4.51-6.51,6.78-1.57,1.69-3.14,3.45-3.93,5.69-.79,2.24-.62,5.1.89,6.45,1.3,1.16,3.16.93,4.87.65l5.77-.63,2.93-.31c.98-.11,1.97-.21,2.95-.24l5.93-.3,3.01-.14c1-.03,1.99,0,2.99,0-2.13,6.72-4.3,13.43-6.51,20.13l3.42.89,1.72.44c.57.15,1.12.35,1.69.53l6.78,2.14c1.52-7.06,2.87-14.22,4.03-21.46,1.82,1.34,3.65,2.62,5.42,3.99l5.21,4.22c.85.71,1.74,1.36,2.56,2.12l2.48,2.23c1.64,1.49,3.31,2.91,4.89,4.43,2.35-6.53,3.85-13.16,4.49-20.01.31-3.42.4-6.87.24-10.34-.2-3.4-.64-6.81-1.34-10.21l3.55,3.7c1.19,1.2,2.28,2.56,3.4,3.82l3.32,3.84,1.64,1.91c.54.64,1.05,1.32,1.57,1.98.07-1.39.12-2.79.15-4.2.01-1.38,0-2.76-.04-4.14-.07-2.77-.23-5.57-.48-8.38-.26-2.81-.6-5.65-1.05-8.49-.48-2.78-1.06-5.57-1.74-8.38-.68-2.81-1.45-5.62-2.32-8.45-.88-2.82-1.92-5.52-3.02-8.3-1.11-2.76-2.33-5.52-3.65-8.28-1.32-2.76-2.8-5.37-4.35-8.05l4.48,2.39c1.49.79,2.93,1.7,4.39,2.55,2.9,1.73,5.81,3.44,8.67,5.21,5.62,3.72,11.24,7.34,16.55,11.41-.76-.56-1.41-2.77-1.98-5.08-.57-2.31-1.06-4.74-1.43-5.64-1.44-3.66-3.09-7.32-4.95-10.98-1.84-3.72-3.97-7.34-6.32-10.97-2.37-3.61-4.96-7.27-8-10.43-3.73-3.96-7.28-5.88-10.56-6.2-3.3-.28-6.28.89-8.96,2.82-5.37,3.88-9.53,10.7-13.2,15.23Z"/>
      <path class="cls-2" d="M512.76,131.9c1.65,1.17,3.34,2.33,4.97,3.54l4.83,3.74,4.85,3.8c1.61,1.28,3.13,2.65,4.71,3.99-22.63-2.97-44.68-2.94-65.49-.22,2.25.96,4.41,2.05,6.64,3.1l3.34,1.61c1.13.53,2.24,1.09,3.31,1.69l6.57,3.59c1.09.62,2.23,1.2,3.3,1.86l3.22,1.97c-9.75,1.93-19.53,4.55-28.84,7.42-4.63,1.41-9.34,3.07-13.9,4.76-4.57,1.7-9.05,3.48-13.43,5.35,12.83,5.27,25.52,12.23,37.63,20.87-8.64,4.77-17.23,9.64-25.75,14.59l6.77,4.23,21.89-12.97c5.05,10.18,9.23,20.68,12.5,31.37,12.01-17.27,21.96-37.03,29.24-58.72.07,2.83.13,5.75.37,8.6.23,2.86.67,5.65,1.15,8.45.84,5.66,2.46,11.04,4.24,16.4,2.66-2.47,5.1-5.22,7.26-8.22,2.19-3.02,3.94-6.2,5.47-9.66,1.5-3.44,2.72-7.12,3.56-10.95.75-3.79,1.16-7.74,1.2-11.82l3.78,8.97c1.16,3.03,2.25,6.08,3.36,9.11-.13-.35,1.37-2.51,2.95-4.75,1.58-2.24,3.25-4.56,3.53-5.09,1.01-1.91,1.95-3.9,2.77-5.95.79-2.03,1.49-4.13,2.1-6.29,1.22-4.37,2.14-9.07,2.51-13.9.32-4.8.22-9.8-.37-14.91-.91-6.74-3.99-9.64-7.85-10.78-3.84-1.17-8.73-.46-13.42-.3-5.09.19-10.05.74-14.86,1.65-4.83.93-9.58,2.25-14.13,3.85Z"/>
      <path class="cls-2" d="M594.02,230.38c-2.68-2.52-5.49-4.75-8.38-6.67-2.98-1.89-6.06-3.47-9.16-4.73-6.21-2.53-12.55-3.78-18.93-3.73.61.8,1.23,1.61,1.83,2.43.56.84,1.1,1.7,1.61,2.58,1.01,1.76,1.85,3.61,2.36,5.59,1.08,3.94.14,8.6-2.86,10.52-3.01,1.94-6.94.76-10.36-.34-2.8-.93-5.77-1.75-8.64-2.56-2.88-.8-5.76-1.55-8.61-2.26-5.65-1.43-11.48-2.58-17.2-3.57l2.14,3.11,1.07,1.57c.35.53.66,1.07,1,1.6l3.98,6.48c1.39,2.16,2.52,4.42,3.77,6.66l1.84,3.39c.61,1.14,1.26,2.26,1.79,3.43-6.25-5.51-13.18-9.76-20.84-12.46-1.89-.69-3.8-1.29-5.72-1.8-.96-.26-1.92-.49-2.89-.71-.98-.21-1.99-.39-2.98-.55-3.99-.65-8.01-.95-12.03-.93,5.31,11.21,9.59,22.98,12.73,35.12-4.78.43-9.56.9-14.33,1.41l1.07,6.13,13.51-3.37-.03,3.91c-.03,1.3-.15,2.61-.22,3.91l-.24,3.89c-.1,1.29-.1,2.57-.29,3.87l-.87,7.68c-.11,1.27-.36,2.54-.57,3.81l-.63,3.79c4.25-1.85,8.39-3.99,12.39-6.44,3.91-2.44,7.61-5.19,11.17-8.25,1.76-1.53,3.53-3.13,5.17-4.81,1.61-1.67,3.17-3.42,4.67-5.24,3.01-3.64,5.88-7.58,8.19-11.75l-.07,3.71c-.05,1.24-.16,2.48-.24,3.71l-.52,7.36c-.06,1.22-.22,2.44-.38,3.66l-.45,3.64c-.32,2.42-.55,4.83-.95,7.22,3.92-2.55,7.52-5.42,11.03-8.63,1.74-1.6,3.44-3.29,5.09-5.06,1.66-1.77,3.12-3.6,4.61-5.52,1.47-1.92,2.88-3.91,4.24-5.99,1.36-2.07,2.67-4.22,3.78-6.42,1.15-2.21,2.23-4.48,3.25-6.83.51-1.17,1-2.36,1.47-3.56l.7-1.82.6-1.83c.04,1.5-.03,3.02-.08,4.53l-.17,4.51-.18,4.48-.1,2.23-.2,2.24c-.54,5.96-1,11.82-1.95,17.65,2.02-2.19,3.99-4.51,5.84-6.95,1.77-2.43,3.46-4.99,5.06-7.67,1.58-2.67,3.14-5.47,4.48-8.36,1.3-2.88,2.5-5.88,3.6-8.97.55-1.54,1.07-3.11,1.57-4.71.51-1.59.87-3.19,1.27-4.82.77-3.25,1.42-6.58,1.96-9.99.29-1.71.46-3.41.61-5.13.15-1.72.27-3.46.36-5.21.16-3.5.3-7.08.05-10.62"/>
      <path class="cls-2" d="M551.68,174.14l1.2,1.81,1.13,1.86,2.25,3.73c1.48,2.5,3.04,4.97,4.43,7.53-24.87-6.27-49.52-8.83-73.1-7.98,4.69,2.82,9.05,6.02,13.62,9.25,2.25,1.64,4.37,3.39,6.59,5.13l3.32,2.64c1.1.89,2.13,1.84,3.2,2.77-6.32-.73-12.85-1.06-19.13-1.26-3.17-.08-6.22-.16-9.41-.09-3.16.05-6.29.16-9.38.31-2.3.11-4.65.28-6.78,1.34-2.13,1.05-3.99,3.23-3.85,5.26.12,1.74,1.61,2.88,3.03,3.89,1.58,1.14,3.05,2.37,4.61,3.57,1.52,1.22,3.13,2.42,4.62,3.7l4.46,3.93c1.51,1.32,3.04,2.66,4.43,4.08-6.21,3.35-12.44,6.66-18.68,9.93l1.83,3.03c.61,1.01,1.26,2.01,1.78,3.07l3.37,6.26c6.01-4.02,11.95-8.23,17.83-12.62.37,2.23.78,4.43,1.13,6.64l.8,6.67c.13,1.11.28,2.2.38,3.3l.22,3.33.44,6.59c6.16-3.04,11.91-6.76,17.13-11.24,2.59-2.24,5.09-4.67,7.36-7.26,2.22-2.58,4.28-5.34,6.15-8.28-.03,3.45.03,6.83-.23,10.26l-.3,5.08c-.12,1.69-.16,3.34-.38,5.02,2.08-1.91,3.97-3.86,5.86-5.91,1.88-2.04,3.72-4.16,5.49-6.36,1.76-2.2,3.53-4.49,5.14-6.83,1.59-2.33,3.12-4.75,4.59-7.24,1.47-2.49,2.87-5.06,4.21-7.7,1.3-2.63,2.46-5.3,3.59-8.07,1.12-2.76,2.17-5.59,3.14-8.5.95-2.89,1.72-5.81,2.46-8.82,2.2,6.41,3.81,13.02,5.56,19.51,1.42,6.61,2.99,13.12,3.95,19.75-.15-.94.92-2.97,2.12-5.04.61-1.02,1.24-2.07,1.77-2.96.51-.89.92-1.63,1.11-2.09,1.51-3.64,2.88-7.42,4.09-11.35,1.28-3.97,2.23-8.03,3.08-12.3.82-4.25,1.48-8.68,1.5-13.07.07-5.45-1.12-9.31-3.28-11.81-2.17-2.5-5.12-3.74-8.39-4.22-6.54-.96-14.31,1.06-20.09,1.76Z"/>
    </g>
  </g>
</svg>