<svg width="8328" height="9524" viewBox="0 0 8328 9524" fill="none" xmlns="http://www.w3.org/2000/svg">
<path d="M4533.92 128.447C4428.86 45.431 4298.88 0.272461 4164.98 0.272461C4031.08 0.272461 3901.1 45.431 3796.04 128.447L1828.18 1681.55C1349.16 2059.42 1407.47 2718.74 1793.67 3058.52L922.5 3776.76C349.457 4249.24 581.53 5128.14 1225.98 5320.35L282.215 6204.6C-304.514 6753.85 84.655 7738.07 888.581 7738.07H2974.27V8779.43C2974.27 9190.02 3307.5 9523.25 3718.09 9523.25H4610.68C5021.27 9523.25 5354.51 9190.02 5354.51 8779.43V7738.67H7439.6C8243.52 7738.67 8632.69 6753.85 8045.37 6204.6L7101.01 5321.54C7747.24 5131.12 7980.51 4250.43 7406.27 3777.36L6536.3 3059.71C6923.08 2719.93 6980.8 2060.01 6502.38 1682.74L4533.92 128.447ZM3568.73 7738.67H4758.85V8780.02C4758.85 8819.48 4743.18 8857.32 4715.28 8885.22C4687.38 8913.12 4649.54 8928.79 4610.09 8928.79H3717.5C3678.04 8928.79 3640.2 8913.12 3612.3 8885.22C3584.4 8857.32 3568.73 8819.48 3568.73 8780.02V7738.67Z" fill="#003300"/>
</svg>
